<?xml version="1.0" standalone="no"?>
<!DOCTYPE svg PUBLIC "-//W3C//DTD SVG 1.1//EN" "http://www.w3.org/Graphics/SVG/1.1/DTD/svg11.dtd" >
<svg xmlns="http://www.w3.org/2000/svg" xmlns:xlink="http://www.w3.org/1999/xlink" version="1.1">
<metadata></metadata>
<defs>
<font id="leroy_merlin_sansbold_italic" horiz-adv-x="0" >
<font-face units-per-em="2048" ascent="1577" descent="-471" />
<missing-glyph horiz-adv-x="397" />
<glyph unicode="fi" horiz-adv-x="1284" d="M1253 1100l-233 -1100h-281l181 850h-381l-177 -830q-21 -100 -59 -176t-88.5 -127t-117 -83t-140 -46t-162.5 -14l51 238q99 0 154.5 44.5t79.5 157.5l178 836h-143l51 250h145l19 92q36 169 151.5 274t270.5 105q96 0 180 -41l-66 -236q-39 27 -92 27q-59 0 -105.5 -36 t-62.5 -109l-14 -76h661zM1210 1563q67 0 105 -42t22 -116q-17 -75 -72 -117.5t-122 -42.5q-64 0 -101.5 43t-23.5 117q16 74 72 116t120 42z" />
<glyph unicode="fl" horiz-adv-x="1411" d="M-205 -426l51 238q99 0 154.5 44.5t79.5 157.5l178 836h-143l51 250h145l19 92q36 169 151.5 274t270.5 105q96 0 180 -41l-66 -236q-39 27 -92 27q-59 0 -105.5 -36t-62.5 -109l-14 -76h219l-53 -250h-219l-177 -830q-21 -100 -59 -176t-88.5 -127t-117 -83t-140 -46 t-162.5 -14zM1067 -27q-132 0 -208.5 67.5t-76.5 199.5q0 54 15 118l247 1178h281l-246 -1159q-19 -79 11.5 -122.5t101.5 -43.5q46 0 104 18l-36 -225q-117 -31 -193 -31z" />
<glyph unicode="&#xd;" horiz-adv-x="1071" />
<glyph unicode=" "  horiz-adv-x="397" />
<glyph unicode="&#x09;" horiz-adv-x="397" />
<glyph unicode="&#xa0;" horiz-adv-x="397" />
<glyph unicode="!" horiz-adv-x="636" d="M164 438l196 985h289l-219 -985h-266zM199 -12q-63 0 -99 40t-20 111q14 71 68 112.5t116 41.5q65 0 100 -41t21 -113q-17 -72 -69 -111.5t-117 -39.5z" />
<glyph unicode="&#x22;" horiz-adv-x="817" d="M176 881l125 542h246l-160 -542h-211zM524 881l127 542h246l-160 -542h-213z" />
<glyph unicode="#" horiz-adv-x="1255" d="M1243 829h-180l-68 -235h179l-64 -217h-180l-111 -377h-246l111 377h-242l-110 -377h-244l111 377h-183l64 217h184l68 235h-185l66 215h182l113 379h244l-113 -379h242l112 379h246l-113 -379h183zM750 594l67 235h-242l-67 -235h242z" />
<glyph unicode="$" horiz-adv-x="1128" d="M690 844q138 -61 182 -88q149 -89 168 -224q9 -59 -6 -131q-39 -185 -183.5 -299.5t-346.5 -126.5l-35 -168h-123l37 170q-164 17 -260 104.5t-111 229.5l281 82q10 -63 47 -104t96 -56l76 355q-38 17 -59 26.5t-57.5 28t-57.5 33t-49.5 38t-44.5 46t-32.5 53.5t-22.5 64 t-6 75t10 88q39 179 177.5 286.5t323.5 121.5l27 129h125l-29 -131q161 -15 246.5 -99t97.5 -227l-293 -80q-13 117 -104 148zM502 1044q-10 -46 10.5 -80t65.5 -65l61 291q-52 -14 -88.5 -52t-48.5 -94zM723 385q10 49 -15.5 84.5t-82.5 67.5l-66 -308q61 12 106 53.5 t58 102.5z" />
<glyph unicode="%" horiz-adv-x="1519" d="M340 696q-97 0 -148 58t-51 168q0 80 21 166t62 165.5t112 131t160 51.5q101 0 152.5 -58.5t51.5 -169.5q0 -64 -12.5 -132t-41.5 -136.5t-69.5 -122.5t-102 -87.5t-134.5 -33.5zM221 0l957 1423h192l-958 -1423h-191zM371 840q40 0 72.5 42.5t51 103t28 115.5t9.5 91 q0 102 -65 102q-38 0 -70.5 -41.5t-51 -101t-28.5 -116t-10 -93.5q0 -102 64 -102zM1090 -14q-97 0 -148 58.5t-51 170.5q0 64 12.5 132t41 136t69 121.5t101 87t132.5 33.5q99 0 150 -58t51 -167q0 -64 -12.5 -131.5t-40.5 -137t-68 -123.5t-101.5 -88t-135.5 -34z M1120 129q40 0 73 42t52 102t29 115.5t10 90.5q0 105 -67 105q-38 0 -70 -42t-50 -102t-28 -116.5t-10 -94.5q0 -100 61 -100z" />
<glyph unicode="&#x26;" horiz-adv-x="1648" d="M1602 821l-46 -205h-188q-50 -291 -268 -467t-531 -176q-241 0 -378.5 102.5t-137.5 282.5q0 145 88 260.5t224 149.5q-72 28 -115 92.5t-43 151.5q0 192 148.5 315t379.5 123q178 0 317.5 -96.5t161.5 -233.5l-286 -71q-19 70 -76.5 112.5t-132.5 42.5 q-100 0 -169 -60.5t-69 -148.5q0 -75 54 -124.5t137 -49.5h92l-39 -205h-109q-119 0 -188.5 -62.5t-69.5 -152.5q0 -76 62.5 -126t171.5 -50q191 0 325.5 106.5t163.5 284.5h-192l39 205h674z" />
<glyph unicode="'" horiz-adv-x="473" d="M199 993l131 543h245l-163 -543h-213z" />
<glyph unicode="(" horiz-adv-x="688" d="M264 -444q-49 89 -86 201t-61 251t-20 307t40 338q48 225 151.5 446.5t213.5 376.5t229 277l154 -82q-369 -430 -496 -1018q-124 -587 62 -1018z" />
<glyph unicode=")" horiz-adv-x="688" d="M2 -444l-154 79q370 431 494 1018q127 590 -61 1018l188 82q49 -90 85.5 -201.5t60.5 -251t20 -308t-41 -339.5q-36 -170 -103 -338t-150.5 -307t-167.5 -251t-171 -201z" />
<glyph unicode="*" horiz-adv-x="931" d="M432 737q-30 -32 -65.5 -40.5t-62 6t-43.5 39.5t-11 61t37 69q28 30 96.5 66t105.5 76q-41 16 -113.5 6.5t-107.5 3.5q-36 12 -51.5 40t-9.5 62q13 58 63.5 97t104.5 18q23 -8 42.5 -25.5t31.5 -35t34 -37t49 -29.5q10 49 -5 114t-7 103q14 69 80 95q58 24 103 -2 q48 -28 32 -93q-8 -39 -52 -104t-54 -113q48 16 110 63.5t101 59.5q65 22 100.5 -18t24.5 -97q-6 -33 -32 -61.5t-65 -38.5q-39 -13 -105 -4t-114 -6q19 -39 74.5 -73.5t71.5 -66.5q30 -55 -12.5 -112.5t-100.5 -64.5t-94 42q-16 32 -11.5 102t-15.5 111q-37 -39 -68 -110 t-61 -103z" />
<glyph unicode="+" horiz-adv-x="1146" d="M1112 836l-53 -246h-344l-86 -402h-260l86 402h-351l56 246h346l86 401h260l-86 -401h346z" />
<glyph unicode="," horiz-adv-x="536" d="M-23 -377l-51 121q81 36 151 100t83 129q5 19 2 29q-32 -14 -64 -14q-55 0 -85 41.5t-17 107.5q13 63 64.5 109.5t125.5 46.5q103 0 144.5 -76.5t17.5 -187.5q-14 -63 -40.5 -119.5t-70 -110.5t-109.5 -99.5t-151 -76.5z" />
<glyph unicode="-" horiz-adv-x="894" d="M115 547l57 270h666l-58 -270h-665z" />
<glyph unicode="." horiz-adv-x="471" d="M115 -12q-63 0 -99 40t-20 111q14 71 68 112.5t116 41.5q65 0 100 -41t21 -113q-17 -72 -69 -111.5t-117 -39.5z" />
<glyph unicode="/" horiz-adv-x="884" d="M84 -172l-186 80l1030 1700l184 -80z" />
<glyph unicode="0" horiz-adv-x="1218" d="M485 -27q-191 0 -289 114.5t-98 334.5q0 149 29 296.5t88.5 279t142 232.5t197 160.5t244.5 59.5q192 0 292.5 -115.5t100.5 -337.5q0 -149 -30 -296t-90 -278t-143.5 -231.5t-198 -159.5t-245.5 -59zM537 225q64 0 123 51t101.5 132.5t74 181t47.5 198.5t16 183 q0 110 -40 168.5t-114 58.5q-63 0 -120.5 -51.5t-99 -133.5t-72.5 -182t-46.5 -199t-15.5 -181q0 -111 37 -168.5t109 -57.5z" />
<glyph unicode="1" horiz-adv-x="806" d="M238 0l235 1114l-326 -166l31 262l391 213h258l-303 -1423h-286z" />
<glyph unicode="2" horiz-adv-x="1173" d="M4 0l55 252l576 465q133 110 183 183t50 157q0 59 -50 100t-122 41q-70 0 -131 -41.5t-104 -118.5l-258 82q72 157 209 243.5t315 86.5q194 0 321.5 -100t127.5 -258q0 -138 -78.5 -256.5t-261.5 -266.5l-375 -303h549l-56 -266h-950z" />
<glyph unicode="3" horiz-adv-x="1165" d="M487 -27q-205 0 -330 96t-137 250l281 80q9 -79 64.5 -126.5t148.5 -47.5q99 0 171.5 65.5t72.5 164.5q0 70 -52.5 111.5t-134.5 41.5h-153l49 232h135q114 0 186 63t72 166q0 59 -42.5 94t-104.5 35q-142 0 -226 -160l-260 82q66 141 204 235.5t331 94.5q189 0 299 -95 t110 -233q0 -124 -73 -216.5t-201 -133.5v-2q64 -35 113 -110t49 -166q0 -154 -74 -273t-204 -183.5t-294 -64.5z" />
<glyph unicode="4" horiz-adv-x="1130" d="M532 0l64 303h-586l49 232l535 888h301l-522 -872h276l70 323h270l-69 -323h147l-53 -248h-146l-65 -303h-271z" />
<glyph unicode="5" horiz-adv-x="1173" d="M473 -27q-209 0 -324.5 94.5t-128.5 251.5l281 80q11 -80 62.5 -127t140.5 -47q62 0 116 28t89 74t55 102.5t20 113.5q0 87 -52 135.5t-132 48.5q-120 0 -211 -98l-211 45l205 749h813l-57 -260h-596l-70 -258q125 58 242 58q158 0 263 -96t105 -271q0 -125 -44.5 -238.5 t-123 -198.5t-194 -135.5t-248.5 -50.5z" />
<glyph unicode="6" horiz-adv-x="1212" d="M498 -27q-193 0 -299.5 117.5t-106.5 329.5q0 111 22 229.5t63.5 233.5t105.5 217.5t143 180.5t182 123.5t217 45.5q173 0 275 -89t110 -224l-260 -70q-25 67 -63 99t-107 32q-113 0 -206.5 -110t-145.5 -283q67 68 153.5 106.5t176.5 38.5q156 0 258 -97.5t102 -264.5 q0 -120 -47.5 -232.5t-128.5 -197t-197.5 -135t-246.5 -50.5zM555 225q78 0 140 48t93 116t31 139q0 77 -44.5 123.5t-119.5 46.5q-58 0 -108 -26.5t-83 -68.5t-52 -93.5t-19 -101.5q0 -87 44 -135t118 -48z" />
<glyph unicode="7" horiz-adv-x="1026" d="M1155 1423l-51 -235l-752 -1188h-295l744 1178h-611l56 245h909z" />
<glyph unicode="8" horiz-adv-x="1161" d="M451 -27q-201 0 -309.5 87.5t-108.5 236.5q0 144 82.5 253t218.5 177q-148 93 -148 246q0 53 18.5 113.5t63.5 126t109 117.5t165 86t222 34q196 0 303 -89.5t107 -232.5q0 -142 -80.5 -248.5t-198.5 -154.5q66 -38 109 -103.5t43 -156.5q0 -59 -19 -122.5t-64.5 -130.5 t-112 -119.5t-170.5 -86t-230 -33.5zM633 836q102 0 170.5 75.5t68.5 175.5q0 67 -42 104.5t-113 37.5q-104 0 -171 -77t-67 -169q0 -65 39.5 -106t114.5 -41zM498 195q112 0 185 80t73 188q0 69 -44 112t-124 43q-110 0 -183 -81t-73 -191q0 -70 45 -110.5t121 -40.5z" />
<glyph unicode="9" horiz-adv-x="1161" d="M731 1450q193 0 299.5 -117t106.5 -329q0 -111 -22 -229.5t-63.5 -234t-106 -218t-143.5 -180.5t-182 -123.5t-217 -45.5q-173 0 -275 89.5t-110 224.5l261 69q25 -67 63 -99t107 -32q113 0 206.5 110t145.5 283q-67 -68 -153.5 -106.5t-176.5 -38.5q-156 0 -258 98 t-102 265q0 161 79.5 301.5t223.5 226.5t317 86zM674 1198q-78 0 -140 -48t-93 -116t-31 -139q0 -77 44 -123.5t119 -46.5q76 0 138 45.5t93.5 111.5t31.5 134q0 87 -44 134.5t-118 47.5z" />
<glyph unicode=":" horiz-adv-x="471" d="M289 809q-63 0 -98 40.5t-19 111.5q14 72 67.5 112.5t116.5 40.5q65 0 100 -40t19 -113q-14 -72 -67.5 -112t-118.5 -40zM115 -12q-63 0 -99 40t-20 111q14 71 68 112.5t116 41.5q65 0 100 -41t21 -113q-17 -72 -69 -111.5t-117 -39.5z" />
<glyph unicode=";" horiz-adv-x="536" d="M322 809q-53 0 -88 29.5t-35 83.5q0 77 54 134.5t134 57.5q56 0 91.5 -30t35.5 -85q0 -76 -55 -133t-137 -57zM-20 -375l-54 119q108 45 172 120t64 138q-32 -14 -64 -14q-47 0 -76.5 30.5t-29.5 81.5q0 72 53.5 132.5t140.5 60.5q83 0 126.5 -52t43.5 -135q0 -41 -9 -86 t-34.5 -102.5t-65.5 -108.5t-109 -101t-158 -83z" />
<glyph unicode="&#x3c;" horiz-adv-x="1146" d="M963 143l-854 461l47 217l1050 461l-57 -268l-707 -301l578 -301z" />
<glyph unicode="=" horiz-adv-x="1146" d="M166 877l53 245h952l-51 -245h-954zM45 303l53 246h953l-54 -246h-952z" />
<glyph unicode="&#x3e;" horiz-adv-x="1146" d="M12 156l58 268l708 303l-579 301l57 268l856 -460l-47 -220z" />
<glyph unicode="?" horiz-adv-x="1009" d="M307 438l19 88q15 70 48 127t73 94.5t85.5 69.5t87 58.5t75.5 54.5t54.5 65.5t20.5 83.5q0 55 -35.5 87t-93.5 32q-67 0 -126 -42t-101 -116l-258 80q175 330 549 330q102 0 184 -33.5t133 -104t51 -167.5q0 -72 -22.5 -133t-60 -103.5t-83 -79.5t-93 -71t-89 -67.5 t-73 -77.5t-42.5 -95l-16 -80h-287zM360 -12q-53 0 -87.5 29.5t-34.5 82.5q0 76 53.5 134.5t134.5 58.5q54 0 89.5 -30t35.5 -85q0 -77 -55 -133.5t-136 -56.5z" />
<glyph unicode="@" horiz-adv-x="1306" d="M518 -195q-231 0 -353 132.5t-122 363.5q0 101 22 206t63 206t106 189t146 155t188 106t227 39q222 0 338 -127.5t116 -337.5q0 -102 -24.5 -206t-69.5 -193.5t-119 -146t-164 -56.5q-130 0 -163 90q-82 -82 -174 -82q-84 0 -140.5 58t-56.5 172q0 91 27.5 175t76.5 149 t123.5 104t161.5 39q130 0 219 -80l-82 -387q-9 -41 2.5 -64.5t44.5 -23.5q42 0 78.5 45t59 111.5t35 137t12.5 128.5q0 164 -87.5 256t-244.5 92q-102 0 -193.5 -43t-158.5 -115t-116.5 -165t-74 -195t-24.5 -203q0 -182 96.5 -281.5t257.5 -99.5q79 0 157.5 20.5 t137.5 57.5l26 -137q-67 -40 -163 -64.5t-191 -24.5zM602 301q34 0 72 55l67 314q-19 16 -51 16q-40 0 -76 -57t-54.5 -126t-18.5 -118q0 -84 61 -84z" />
<glyph unicode="A" horiz-adv-x="1259" d="M801 0l-17 281h-440l-133 -281h-295l719 1423h364l111 -1423h-309zM459 526h313l-33 592z" />
<glyph unicode="B" horiz-adv-x="1239" d="M49 0l303 1423h479q117 0 205.5 -37.5t135.5 -115t36 -183.5q-11 -130 -85.5 -227t-190.5 -129l-2 -2q30 -12 56.5 -32.5t52.5 -53t39 -82.5t7 -110q-7 -116 -53 -204t-122 -141t-173 -79.5t-213 -26.5h-475zM514 840h168q90 0 145 53.5t66 142.5q21 142 -137 142h-170z M387 246h182q92 0 149.5 50t69.5 142q10 75 -29 115.5t-118 40.5h-180z" />
<glyph unicode="C" horiz-adv-x="1271" d="M588 -27q-220 0 -348.5 129.5t-128.5 374.5q0 187 56.5 362t156 311t249 218t322.5 82q101 0 182 -28.5t132.5 -77t80 -109.5t33.5 -129l-279 -78q-19 81 -63.5 125.5t-132.5 44.5q-102 0 -189 -64t-142 -165.5t-85.5 -221t-30.5 -235.5q0 -144 65.5 -215.5t180.5 -71.5 q165 0 266 170l248 -78q-34 -69 -87 -129t-124 -109t-164.5 -77.5t-197.5 -28.5z" />
<glyph unicode="D" horiz-adv-x="1345" d="M49 0l303 1423h426q118 0 215 -31t171 -94t109.5 -169t22.5 -246q-11 -155 -49 -288.5t-105 -243.5t-157.5 -188t-212 -120.5t-264.5 -42.5h-459zM387 246h129q127 0 232.5 80.5t168.5 214t80 295.5q12 95 -4.5 164t-56.5 106.5t-91.5 54.5t-117.5 17h-141z" />
<glyph unicode="E" horiz-adv-x="1187" d="M49 0l303 1423h844l-53 -245h-557l-72 -344h483l-53 -246h-483l-74 -342h606l-51 -246h-893z" />
<glyph unicode="F" horiz-adv-x="1077" d="M49 0l303 1423h854l-53 -245h-567l-80 -377h473l-51 -240h-473l-119 -561h-287z" />
<glyph unicode="G" horiz-adv-x="1380" d="M1350 1102l-281 -76q-14 81 -67.5 126.5t-147.5 45.5q-91 0 -171.5 -55t-136.5 -144t-92 -196t-46 -215q-21 -169 44.5 -266t188.5 -97q158 0 266 99l47 221h-288l51 246h575l-131 -623q-119 -93 -269.5 -144t-305.5 -51q-236 0 -364.5 157.5t-106.5 426.5 q12 180 75 342.5t164 284.5t243.5 194t303.5 72q206 0 320.5 -93.5t128.5 -254.5z" />
<glyph unicode="H" horiz-adv-x="1454" d="M49 0l303 1423h287l-125 -583h551l123 583h287l-304 -1423h-286l125 592h-549l-125 -592h-287z" />
<glyph unicode="I" horiz-adv-x="618" d="M49 0l303 1423h287l-303 -1423h-287z" />
<glyph unicode="J" horiz-adv-x="993" d="M-18 0l51 246h123q168 0 263.5 80.5t133.5 259.5l125 592h-367l54 245h655l-180 -837q-65 -310 -244 -448t-492 -138h-122z" />
<glyph unicode="K" horiz-adv-x="1306" d="M1409 1423l-618 -628l376 -795h-354l-254 557l-133 -135l-90 -422h-287l303 1423h287l-121 -563l549 563h342z" />
<glyph unicode="L" horiz-adv-x="1175" d="M49 0l303 1423h287l-252 -1177h571l-51 -246h-858z" />
<glyph unicode="M" horiz-adv-x="1697" d="M49 0l303 1423h307l215 -749l537 749h307l-303 -1423h-287l195 920l-405 -601h-234l-154 601l-194 -920h-287z" />
<glyph unicode="N" horiz-adv-x="1417" d="M49 0l303 1423h269l335 -913l195 913h287l-303 -1423h-267l-340 913l-192 -913h-287z" />
<glyph unicode="O" horiz-adv-x="1349" d="M551 -27q-205 0 -323.5 127.5t-118.5 364.5q0 122 23.5 242.5t67.5 230t111 203.5t148.5 162.5t186 107.5t218.5 39q212 0 329.5 -124.5t117.5 -360.5q0 -150 -33.5 -294.5t-99 -270t-156 -221.5t-212.5 -151t-259 -55zM604 225q94 0 175 70t131.5 177.5t79 230 t28.5 233.5q0 134 -55 198t-152 64q-95 0 -175.5 -70t-129.5 -178t-76 -228.5t-27 -229.5q0 -134 55 -200.5t146 -66.5z" />
<glyph unicode="P" horiz-adv-x="1171" d="M49 0l303 1423h447q218 0 326.5 -122.5t62.5 -337.5q-46 -221 -210 -348.5t-384 -127.5h-156l-102 -487h-287zM492 733h139q99 0 169.5 58.5t94.5 166.5q23 106 -22.5 163t-141.5 57h-145z" />
<glyph unicode="Q" horiz-adv-x="1349" d="M1311 965q0 -277 -112 -522t-306 -369l156 -281l-244 -158l-172 345q-47 -7 -82 -7q-205 0 -323.5 127.5t-118.5 364.5q0 122 23.5 242.5t67.5 230t111 203.5t148.5 162.5t186 107.5t218.5 39q212 0 329.5 -124.5t117.5 -360.5zM403 492q0 -134 55 -200.5t146 -66.5 q94 0 175 70t131.5 177.5t79 230t28.5 233.5q0 134 -55 198t-152 64q-95 0 -175.5 -70t-129.5 -178t-76 -228.5t-27 -229.5z" />
<glyph unicode="R" horiz-adv-x="1288" d="M1227 1083q0 -182 -86 -322.5t-242 -209.5l248 -551h-326l-211 496h-170l-104 -496h-287l303 1423h457q193 0 305.5 -84.5t112.5 -255.5zM586 1178l-92 -437h159q119 0 196 82t77 203q0 75 -45 113.5t-121 38.5h-174z" />
<glyph unicode="S" horiz-adv-x="1150" d="M502 -27q-197 0 -329 92.5t-155 245.5l281 82q13 -75 76.5 -121.5t148.5 -46.5q91 0 149 47.5t58 120.5q0 43 -30 81.5t-78 69.5t-106.5 62.5t-116.5 68t-106 78t-78 101.5t-30 131q0 213 140.5 339t388.5 126q202 0 321.5 -93.5t130.5 -236.5l-278 -80q-12 72 -64 115 t-127 43q-84 0 -138 -48t-54 -122q0 -45 30 -83t78 -68t106 -59.5t115.5 -64.5t105.5 -76t78 -100.5t30 -130.5q0 -211 -151 -342t-396 -131z" />
<glyph unicode="T" horiz-adv-x="1183" d="M328 0l250 1178h-394l54 245h1073l-54 -245h-393l-250 -1178h-286z" />
<glyph unicode="U" horiz-adv-x="1339" d="M551 -27q-107 0 -190.5 32t-142 100t-74 174t13.5 253l190 891h287l-193 -895q-28 -140 10.5 -221.5t151.5 -81.5q221 0 281 303l192 895h287l-190 -895q-30 -144 -90 -252t-143 -173.5t-180.5 -97.5t-209.5 -32z" />
<glyph unicode="V" horiz-adv-x="1335" d="M383 0l-152 1423h314l82 -1110l555 1110h295l-756 -1423h-338z" />
<glyph unicode="W" horiz-adv-x="2017" d="M313 0l-71 1423h313l16 -1083l439 1083h370l-22 -1083l477 1083h311l-676 -1423h-362l10 1055l-444 -1055h-361z" />
<glyph unicode="X" horiz-adv-x="1331" d="M1454 1423l-586 -718l269 -705h-324l-178 465l-381 -465h-315l596 727l-267 696h326l174 -458l371 458h315z" />
<glyph unicode="Y" horiz-adv-x="1273" d="M377 0l106 502l-266 921h324l151 -620l416 620h322l-660 -921l-106 -502h-287z" />
<glyph unicode="Z" horiz-adv-x="1191" d="M-18 0l45 219l835 959h-616l53 245h965l-47 -217l-850 -960h661l-51 -246h-995z" />
<glyph unicode="[" horiz-adv-x="600" d="M-35 -397l463 2179h414l-43 -209h-185l-374 -1761h184l-45 -209h-414z" />
<glyph unicode="\" horiz-adv-x="892" d="M555 -147l-307 1699l219 43l305 -1699z" />
<glyph unicode="]" horiz-adv-x="600" d="M-180 -397l43 209h184l375 1761h-184l45 209h413l-463 -2179h-413z" />
<glyph unicode="^" horiz-adv-x="905" d="M199 391l-144 72l416 637h199l143 -637l-172 -72l-109 527z" />
<glyph unicode="_" horiz-adv-x="1380" d="M-170 -289l47 221h1364l-49 -221h-1362z" />
<glyph unicode="`" horiz-adv-x="1183" d="M938 1200l-557 172l88 203l545 -197z" />
<glyph unicode="a" horiz-adv-x="1163" d="M365 -27q-141 0 -222.5 98t-81.5 277q0 213 64 389t187.5 282.5t283.5 106.5q93 0 159.5 -51t80.5 -108l28 133h281l-162 -768q-35 -158 -35 -256q0 -42 6 -76h-297q-4 46 -4 57q0 25 9 84q-41 -70 -119.5 -119t-177.5 -49zM489 217q84 0 150 83t97.5 193.5t31.5 215.5 q0 174 -137 174q-64 0 -118.5 -48.5t-88.5 -123t-53 -158.5t-19 -160q0 -176 137 -176z" />
<glyph unicode="b" horiz-adv-x="1150" d="M547 -27q-108 0 -170 49.5t-74 122.5q-19 -85 -53 -145h-275q31 69 62.5 167t44.5 159l256 1210h280l-114 -541q42 51 119 91t170 40q140 0 222.5 -96t82.5 -272q0 -110 -24.5 -222t-73 -213t-114 -179.5t-153.5 -124.5t-186 -46zM526 217q85 0 151 83t97 194t31 217 q0 172 -135 172q-63 0 -118 -50.5t-89 -126t-53 -158.5t-19 -155q0 -176 135 -176z" />
<glyph unicode="c" horiz-adv-x="1075" d="M459 -27q-185 0 -290.5 122.5t-105.5 310.5q0 104 27 207.5t80.5 195.5t127 163t173.5 112.5t213 41.5q160 0 257.5 -93.5t107.5 -225.5l-258 -76q-14 66 -59 109t-105 43q-79 0 -146.5 -65t-103 -160t-35.5 -191q0 -104 45.5 -167.5t130.5 -63.5q62 0 121.5 36 t101.5 103l222 -101q-78 -144 -212 -222.5t-292 -78.5z" />
<glyph unicode="d" horiz-adv-x="1155" d="M362 -27q-96 0 -166 54t-103.5 141.5t-33.5 198.5q0 140 39.5 275.5t109 243t174.5 174t226 66.5q94 0 153 -40t77 -91l114 541h281l-256 -1210q-14 -66 -24 -162.5t-7 -163.5h-274q-8 40 4 131q-61 -73 -134 -115.5t-180 -42.5zM485 217q84 0 150 83t97.5 193.5 t31.5 215.5q0 174 -135 174q-64 0 -118.5 -48.5t-89 -123t-54 -158.5t-19.5 -160q0 -176 137 -176z" />
<glyph unicode="e" horiz-adv-x="1114" d="M561 231q70 0 144 38.5t126 103.5l183 -162q-90 -120 -221 -179t-287 -59q-185 0 -312.5 117t-127.5 313q0 202 81.5 368t222.5 260.5t312 94.5q169 0 262.5 -80t93.5 -194q0 -79 -45 -159.5t-124.5 -147t-203 -108.5t-266.5 -42h-37q12 -81 64.5 -122.5t134.5 -41.5z M653 883q-93 0 -162 -73.5t-106 -186.5h14q86 0 156 19.5t111 49t62.5 61t21.5 60.5q0 31 -25 50.5t-72 19.5z" />
<glyph unicode="f" horiz-adv-x="757" d="M-205 -426l51 238q99 0 154.5 44.5t79.5 157.5l178 836h-158l54 250h157l17 80q40 183 161.5 282t278.5 99q62 0 127 -13t102 -32l-84 -234q-81 35 -149 35q-55 0 -98.5 -34t-57.5 -107l-16 -76h239l-53 -250h-239l-177 -830q-21 -100 -59 -176t-88.5 -127t-117 -83 t-140 -46t-162.5 -14z" />
<glyph unicode="g" horiz-adv-x="1173" d="M360 -426q-152 0 -265.5 73t-155.5 208l235 106q15 -63 66.5 -107t130.5 -44q104 0 180.5 58.5t101.5 176.5l25 123q-45 -60 -121.5 -105t-169.5 -45q-152 0 -229.5 102.5t-77.5 270.5q0 142 38.5 275t106 235t167 163.5t214.5 61.5q96 0 162 -52t82 -103l27 129h280 l-221 -1041q-51 -238 -197 -361.5t-379 -123.5zM508 242q59 0 112.5 48t88 122t55 158.5t20.5 160.5q0 83 -36.5 127.5t-100.5 44.5q-63 0 -117 -48t-88.5 -121.5t-53.5 -157t-19 -160.5q0 -86 35.5 -130t103.5 -44z" />
<glyph unicode="h" horiz-adv-x="1212" d="M31 0l325 1536h281l-117 -545q139 135 299 135q163 0 242.5 -112t38.5 -301l-152 -713h-280l139 649q21 97 -17 153t-116 56q-74 0 -139 -58.5t-86 -158.5l-138 -641h-280z" />
<glyph unicode="i" horiz-adv-x="575" d="M434 1245q-64 0 -101.5 43t-23.5 117q16 74 72.5 116t120.5 42q67 0 105 -42t22 -116q-17 -75 -72.5 -117.5t-122.5 -42.5zM31 0l233 1100h281l-234 -1100h-280z" />
<glyph unicode="j" horiz-adv-x="538" d="M418 1245q-64 0 -101.5 43t-23.5 117q16 74 72 116t120 42q67 0 105 -42t22 -116q-17 -75 -72 -117.5t-122 -42.5zM-268 -426l51 238q99 0 154.5 44.5t80.5 157.5l230 1086h280l-229 -1080q-21 -100 -59 -176t-88.5 -127t-117 -83t-140 -46t-162.5 -14z" />
<glyph unicode="k" horiz-adv-x="1214" d="M1272 1100l-516 -463l297 -637h-359l-182 418l-139 -125l-62 -293h-280l325 1536h281l-182 -858l454 422h363z" />
<glyph unicode="l" horiz-adv-x="704" d="M358 -27q-132 0 -208 67t-76 200q0 58 14 118l248 1178h280l-245 -1159q-19 -79 11 -122.5t101 -43.5q47 0 105 18l-37 -225q-117 -31 -193 -31z" />
<glyph unicode="m" horiz-adv-x="1759" d="M31 0l233 1100h275l-27 -117q57 62 138.5 102.5t164.5 40.5t140 -38t75 -115q65 72 151 112.5t175 40.5q75 0 136 -25t104.5 -76t56.5 -129t-8 -185l-150 -711h-281l138 649q22 101 -9.5 155t-99.5 54t-124.5 -56t-78.5 -161l-137 -641h-280l137 649q22 101 -9.5 155 t-99.5 54t-124 -56t-78 -161l-138 -641h-280z" />
<glyph unicode="n" horiz-adv-x="1212" d="M31 0l233 1100h275l-27 -117q60 63 140 103t167 40q163 0 242.5 -112t38.5 -301l-152 -713h-280l139 649q21 97 -17 153t-116 56q-74 0 -139 -58.5t-86 -158.5l-138 -641h-280z" />
<glyph unicode="o" horiz-adv-x="1107" d="M430 -27q-174 0 -273.5 99t-99.5 288q0 148 44 285.5t122 244.5t196 171.5t257 64.5q176 0 275.5 -98.5t99.5 -286.5q0 -149 -44 -287t-122.5 -245t-197 -171.5t-257.5 -64.5zM481 217q85 0 151.5 83t98 193.5t31.5 215.5q0 85 -35 129.5t-102 44.5q-84 0 -150 -83 t-97.5 -193.5t-31.5 -215.5q0 -85 34.5 -129.5t100.5 -44.5z" />
<glyph unicode="p" horiz-adv-x="1167" d="M-55 -399l319 1499h281l-29 -137q42 64 122.5 113.5t174.5 49.5q136 0 218.5 -95t82.5 -275q0 -110 -24.5 -222t-72.5 -212.5t-113 -178.5t-152.5 -124t-184.5 -46q-85 0 -143 39.5t-90 98.5l-109 -510h-280zM545 217q64 0 118 49t88 124t53 159.5t19 161.5 q0 172 -137 172q-68 0 -127.5 -67.5t-95 -163t-47.5 -197.5q-16 -112 15.5 -175t113.5 -63z" />
<glyph unicode="q" horiz-adv-x="1171" d="M541 -399l110 522q-45 -60 -122.5 -105t-170.5 -45q-153 0 -233 115t-62 326q14 192 84.5 353.5t191 260t265.5 98.5q50 0 92.5 -16.5t69 -42t42.5 -49.5t23 -47l27 129h281l-318 -1499h-280zM483 217q71 0 131 68t94 163t46 199q19 113 -15 174.5t-114 61.5 q-71 0 -131.5 -68t-95.5 -162.5t-48 -197.5q-17 -115 18 -176.5t115 -61.5z" />
<glyph unicode="r" horiz-adv-x="921" d="M31 0l233 1100h281l-29 -131q57 75 133 115t160 40q122 0 195 -67l-162 -256q-54 57 -135 57q-88 0 -166.5 -76.5t-104.5 -197.5l-125 -584h-280z" />
<glyph unicode="s" horiz-adv-x="997" d="M426 -27q-171 0 -287.5 73t-138.5 165l209 145q25 -65 82.5 -108t138.5 -43q65 0 106.5 31.5t41.5 85.5q0 33 -32.5 61.5t-81.5 49t-105.5 49.5t-105.5 61t-81.5 86t-32.5 121q0 171 122.5 273.5t311.5 102.5q164 0 276.5 -68.5t137.5 -150.5l-211 -145q-23 55 -83.5 94 t-131.5 39q-52 0 -88.5 -28.5t-36.5 -73.5q0 -35 32.5 -64.5t80.5 -50.5t105 -50t105 -60.5t80.5 -84t32.5 -118.5q0 -184 -123.5 -288t-322.5 -104z" />
<glyph unicode="t" horiz-adv-x="854" d="M449 -27q-160 0 -236 90t-39 263l111 524h-183l54 250h182l63 297l291 51l-74 -348h267l-54 -250h-266l-100 -467q-15 -73 7.5 -105t80.5 -32q61 0 154 37l-39 -267q-121 -43 -219 -43z" />
<glyph unicode="u" horiz-adv-x="1122" d="M332 -27q-152 0 -232 105.5t-45 271.5l160 750h279l-148 -699q-18 -85 15 -132.5t100 -47.5q72 0 138.5 59t88.5 158l139 662h281l-160 -758q-42 -189 -35 -342h-274q-8 40 2 117q-55 -63 -140.5 -103.5t-168.5 -40.5z" />
<glyph unicode="v" horiz-adv-x="1157" d="M305 0l-149 1100h284l86 -811l426 811h283l-617 -1100h-313z" />
<glyph unicode="w" horiz-adv-x="1742" d="M244 0l-56 1100h273l12 -783l367 783h297l30 -783l346 783h275l-524 -1100h-306l-40 766l-369 -766h-305z" />
<glyph unicode="x" horiz-adv-x="1122" d="M1198 1100l-477 -533l237 -567h-337l-129 309l-244 -309h-326l469 549l-231 551h338l125 -299l249 299h326z" />
<glyph unicode="y" horiz-adv-x="1138" d="M350 -426q-150 0 -256 78t-137 203l221 106q15 -68 65.5 -109.5t125.5 -41.5t141 55t88 153l27 125q-132 -125 -285 -125q-149 0 -231 101.5t-48 261.5l154 719h279l-138 -656q-20 -86 14 -133t103 -47q72 0 135.5 55t85.5 152l133 629h281l-225 -1055 q-50 -237 -186 -354t-347 -117z" />
<glyph unicode="z" horiz-adv-x="1148" d="M29 0l47 227l618 621h-477l53 252h826l-45 -209l-623 -639h512l-53 -252h-858z" />
<glyph unicode="{" horiz-adv-x="675" d="M281 -412q-136 0 -208 81t-40 235q16 74 66.5 189t98.5 218.5t58 147.5q26 118 -119 121l41 200q148 6 170 121q10 45 7 155t-6.5 204.5t13.5 195.5q34 154 141 236t242 82q82 0 158 -31l-59 -189q-44 17 -96 17q-63 0 -110 -33.5t-63 -101.5q-15 -70 -4 -264t-4 -261 q-12 -56 -38.5 -100t-59.5 -69.5t-59 -38.5t-52 -21l-2 -4q17 -5 34 -14t37.5 -26.5t31 -42.5t16.5 -62t-6 -84q-14 -66 -106 -259.5t-107 -265.5q-16 -68 17 -101.5t96 -33.5q46 0 102 16l-18 -188q-86 -29 -172 -29z" />
<glyph unicode="|" horiz-adv-x="563" d="M-51 -471l436 2048h231l-436 -2048h-231z" />
<glyph unicode="}" horiz-adv-x="675" d="M-12 -412q-91 0 -162 29l63 188q46 -16 97 -16q63 0 108.5 33.5t59.5 101.5q16 72 6 265t4 260q12 56 38.5 100.5t59.5 69.5t60 39t53 20l2 4q-18 6 -34.5 14.5t-38 26.5t-32 42.5t-17 61.5t6.5 84q14 67 106 261t107 264q14 69 -17 102t-93 33q-56 0 -103 -17l17 189 q88 31 172 31q136 0 208.5 -82t40.5 -236q-20 -93 -116.5 -299.5t-106.5 -255.5q-13 -60 16 -89t101 -32l-41 -200q-144 -3 -170 -121q-11 -49 -2.5 -255t-11.5 -300q-22 -104 -81 -177t-135.5 -106t-164.5 -33z" />
<glyph unicode="~" horiz-adv-x="1146" d="M293 610l-189 43q27 123 115 206t197 83q68 0 220 -22.5t206 -22.5q97 0 123 119l188 -41q-28 -123 -117 -205t-215 -82q-65 0 -216.5 22.5t-190.5 22.5q-45 0 -77 -32.5t-44 -90.5z" />
<glyph unicode="&#xa1;" horiz-adv-x="636" d="M375 821q-63 0 -99 40.5t-20 111.5q14 72 67.5 112.5t116.5 40.5q65 0 100 -40t21 -113q-17 -72 -69 -112t-117 -40zM-8 -309l223 985h264l-198 -985h-289z" />
<glyph unicode="&#xa2;" horiz-adv-x="1077" d="M807 893q-10 111 -84 143l-137 -645q96 26 162 133l241 -51q-62 -133 -188 -226t-269 -108l-30 -139h-123l31 141q-182 26 -264.5 174t-28.5 400q53 245 198.5 394.5t337.5 176.5l29 137h123l-29 -135q103 -10 176 -59.5t104.5 -117t28.5 -142.5zM403 715 q-27 -123 -11.5 -207t71.5 -111l135 635q-67 -27 -117.5 -110.5t-77.5 -206.5z" />
<glyph unicode="&#xa3;" horiz-adv-x="1142" d="M590 580q-20 -96 -85 -190.5t-130 -143.5h596l-51 -246h-914l51 242q87 44 152.5 141t87.5 197q4 16 4 26h-192l36 162h160q-1 9 -4 52t-3.5 60t-1 51t2 62t8.5 56q40 191 174 296t314 105q185 0 275.5 -90t92.5 -240l-293 -80q-7 158 -116 158q-55 0 -97 -39t-57 -110 q-7 -32 -9 -72t-1 -63.5t5 -77t5 -68.5h283l-35 -162h-254q0 -10 -4 -26z" />
<glyph unicode="&#xa4;" horiz-adv-x="1060" d="M104 291l-65 84l188 164q-33 75 -10 188q25 111 90 191l-117 161l101 86l112 -157q113 84 242 84q127 0 205 -84l180 157l66 -86l-187 -161q30 -83 6 -191q-21 -109 -88 -188l119 -164l-102 -84l-113 158q-117 -87 -242 -87q-126 0 -204 87zM537 582q54 0 101.5 42.5 t59.5 102.5q12 61 -16.5 103t-83.5 42t-103.5 -42.5t-62.5 -102.5q-11 -60 19.5 -102.5t85.5 -42.5z" />
<glyph unicode="&#xa5;" horiz-adv-x="1273" d="M1430 1423l-562 -784h262l-34 -160h-330l-27 -123h330l-33 -161h-331l-41 -195h-287l41 195h-330l35 161h330l26 123h-332l35 160h262l-227 784h324l151 -620l416 620h322z" />
<glyph unicode="&#xa6;" horiz-adv-x="563" d="M213 774l172 803h231l-172 -803h-231zM-51 -471l170 803h231l-170 -803h-231z" />
<glyph unicode="&#xa7;" horiz-adv-x="892" d="M195 -332q-144 0 -202 96q-44 74 -17 161q24 80 94 110q28 12 61 12q72 0 91 -58q18 -53 -19 -107q-42 -62 -121 -62q10 -26 37 -43t62 -18t69.5 11t63.5 48t40 90q10 42 -2.5 106t-30 112.5t-57 146t-55.5 141.5q-24 64 -36 100.5t-28 97t-21 107t-3 107.5t14 122 q49 223 209 362.5t354 139.5q144 0 203 -96q45 -75 19 -162q-24 -80 -92 -109q-28 -12 -60 -12q-73 0 -93 58q-19 53 17 107q42 62 121 62q-9 26 -36.5 41t-63 13t-71.5 -17.5t-65.5 -54t-41.5 -92.5q-4 -21 -4 -45t3 -45t11 -48t15 -48t20.5 -52t23.5 -52t26.5 -56.5 t26.5 -57.5q26 -61 44 -108t37.5 -114.5t28 -126t8 -130.5t-14.5 -141q-29 -138 -120.5 -253.5t-210 -179t-234.5 -63.5zM481 -47q35 30 69 88t48 123q36 179 -90 510q-8 22 -29 75.5t-30 78.5t-22 65t-19.5 72t-8.5 63q-10 80 9 135q-34 -33 -66 -90.5t-43 -116.5 q-14 -62 -16 -115t8.5 -108.5t28 -107t49.5 -127.5q80 -195 101 -264q51 -172 11 -281z" />
<glyph unicode="&#xa8;" horiz-adv-x="1183" d="M485 1253q-47 0 -80.5 30.5t-33.5 80.5q0 68 49.5 118t122.5 50q50 0 83 -27.5t33 -77.5q0 -70 -50 -122t-124 -52zM883 1253q-47 0 -80 30.5t-33 80.5q0 68 49 118t123 50q50 0 82.5 -27.5t32.5 -77.5q0 -70 -50 -122t-124 -52z" />
<glyph unicode="&#xa9;" horiz-adv-x="1323" d="M539 -27q-133 0 -233.5 54t-156.5 151.5t-72 234t21 300.5q70 335 277 536t477 201q269 0 390.5 -200.5t51.5 -536.5q-47 -217 -157 -385t-265.5 -261.5t-332.5 -93.5zM571 119q202 0 360.5 164.5t215.5 429.5q58 269 -31.5 430.5t-292.5 161.5q-204 0 -362.5 -161 t-216.5 -431q-35 -178 -9.5 -310t114 -208t222.5 -76zM616 287q-78 0 -134.5 34t-83.5 92.5t-33.5 135.5t14.5 164q38 184 153.5 309t268.5 125q69 0 131 -32.5t82 -102.5l-131 -117q-13 40 -40 61t-61 21q-73 0 -127.5 -69.5t-81.5 -192.5q-27 -120 -0.5 -189t99.5 -69 q78 0 141 80l80 -119q-61 -68 -134.5 -99.5t-142.5 -31.5z" />
<glyph unicode="&#xaa;" horiz-adv-x="800" d="M377 745q-91 0 -139 69t-48 175q0 115 38.5 219t115.5 173t174 69q57 0 93.5 -30.5t45.5 -65.5l17 69h186l-96 -452q-23 -112 -2 -211h-195q-8 46 -2 76q-75 -91 -188 -91zM467 909q44 0 79 47.5t51.5 110t16.5 121.5q0 92 -69 92q-44 0 -80 -48.5t-53 -111.5t-17 -119 q0 -92 72 -92z" />
<glyph unicode="&#xab;" horiz-adv-x="1013" d="M274 238l-151 424l332 423l161 -57l-262 -366l107 -367zM674 238l-152 424l330 423l166 -57l-262 -366l104 -367z" />
<glyph unicode="&#xac;" horiz-adv-x="1146" d="M758 240l73 350h-727l56 246h952l-129 -596h-225z" />
<glyph unicode="&#xad;" horiz-adv-x="894" d="M115 547l57 270h666l-58 -270h-665z" />
<glyph unicode="&#xae;" horiz-adv-x="1124" d="M754 1450q158 0 250 -93.5t92 -250.5q0 -147 -66 -271.5t-187.5 -199t-273.5 -74.5q-155 0 -249.5 98t-94.5 252q0 148 70 272t192 195.5t267 71.5zM596 682q108 0 193.5 61t129.5 156t44 203q0 109 -61.5 168t-170.5 59q-164 0 -268.5 -124t-104.5 -292 q0 -112 62.5 -171.5t175.5 -59.5zM721 1227q62 0 100.5 -36.5t38.5 -90.5q0 -48 -27 -94t-75 -62l41 -145l-121 -2l-27 131h-30l-27 -129h-113l88 428h152zM672 1020q29 0 47 21.5t18 45.5q0 19 -12.5 32.5t-32.5 13.5h-28l-23 -113h31z" />
<glyph unicode="&#xaf;" horiz-adv-x="1183" d="M410 1272l43 203h557l-43 -203h-557z" />
<glyph unicode="&#xb0;" horiz-adv-x="794" d="M473 905q-109 0 -168.5 79.5t-34.5 193.5q23 112 117 192t201 80q108 0 168 -80t35 -192q-23 -113 -116.5 -193t-201.5 -80zM504 1042q51 0 96 39.5t55 96.5q12 57 -15.5 96t-78.5 39q-54 0 -98.5 -39t-56.5 -96t16 -96.5t82 -39.5z" />
<glyph unicode="&#xb1;" horiz-adv-x="1181" d="M793 958h376l-53 -247h-377l-73 -346h-230l74 346h-377l51 247h377l74 347h231zM-2 0l51 246h952l-51 -246h-952z" />
<glyph unicode="&#xb2;" horiz-adv-x="567" d="M84 711l29 143l290 227q99 85 99 150q0 28 -18 45.5t-50 17.5q-68 0 -112 -77l-146 43q33 74 104 125t173 51q105 0 166 -49t61 -121q0 -136 -162 -267l-174 -139h254l-31 -149h-483z" />
<glyph unicode="&#xb3;" horiz-adv-x="581" d="M332 696q-106 0 -167.5 50t-66.5 133l158 43q5 -38 30 -60t66 -22q47 0 77 32.5t30 71.5q0 30 -22 46t-58 16h-78l29 131h73q54 0 80.5 29.5t26.5 70.5q0 27 -17.5 42t-46.5 15q-64 0 -102 -77l-145 43q32 75 98.5 125.5t167.5 50.5q94 0 155.5 -45t61.5 -119 q0 -62 -32.5 -110t-88.5 -70v-2q76 -50 76 -140q0 -44 -19.5 -88t-55.5 -81.5t-96 -61t-134 -23.5z" />
<glyph unicode="&#xb4;" horiz-adv-x="1183" d="M434 1196l-59 180l579 223l62 -208z" />
<glyph unicode="&#xb5;" horiz-adv-x="1132" d="M-104 -399l319 1499h279l-148 -699q-17 -82 14.5 -131t100.5 -49q72 0 138.5 59t88.5 158l139 662h281l-160 -758q-41 -196 -35 -342h-264q-14 50 -2 117q-45 -56 -118 -94.5t-154 -38.5q-87 0 -131 63l-78 -446h-270z" />
<glyph unicode="&#xb6;" horiz-adv-x="1028" d="M330 -242l155 736q-85 0 -152.5 26t-108.5 71t-66 105t-25.5 127t12.5 138q19 88 64.5 169.5t113 147.5t161.5 105.5t200 39.5h182l-354 -1665h-182zM600 -242l354 1665h185l-355 -1665h-184z" />
<glyph unicode="&#xb7;" horiz-adv-x="548" d="M276 559q-63 0 -98.5 41.5t-19.5 112.5q14 71 67 112t115 41q65 0 101 -40.5t22 -112.5q-17 -72 -70.5 -113t-116.5 -41z" />
<glyph unicode="&#xb8;" horiz-adv-x="1183" d="M313 -426q-113 0 -184 51l68 105q54 -41 125 -41q34 0 56.5 16.5t27.5 38.5q5 23 -9 39t-45 16q-36 0 -67 -22l-92 49l151 174h170l-96 -94q36 8 51 8q79 0 116 -48t23 -114q-13 -73 -90 -125.5t-205 -52.5z" />
<glyph unicode="&#xb9;" horiz-adv-x="419" d="M221 711l115 536l-162 -80l16 148l199 108h146l-152 -712h-162z" />
<glyph unicode="&#xba;" horiz-adv-x="692" d="M387 743q-105 0 -166 59.5t-61 174.5q0 119 43.5 225.5t131 177t200.5 70.5q105 0 167 -61.5t62 -176.5q0 -121 -45 -227t-133 -174t-199 -68zM422 905q46 0 81.5 50.5t51.5 114t16 120.5q0 98 -69 98q-45 0 -81.5 -51.5t-53.5 -116.5t-17 -121q0 -94 72 -94z" />
<glyph unicode="&#xbb;" horiz-adv-x="1013" d="M205 238l-162 57l264 367l-108 366l186 57l154 -423zM606 238l-164 57l263 367l-105 366l186 57l154 -423z" />
<glyph unicode="&#xbc;" horiz-adv-x="1257" d="M211 0h-191l957 1423h192zM221 711l115 536l-162 -80l16 148l199 108h146l-152 -712h-162zM883 0l32 150h-290l26 129l256 434h168l-248 -424h117l31 151h151l-30 -151h69l-28 -139h-72l-31 -150h-151z" />
<glyph unicode="&#xbd;" horiz-adv-x="1267" d="M211 0h-191l957 1423h192zM221 711l115 536l-162 -80l16 148l199 108h146l-152 -712h-162zM633 0l29 143l290 228q99 85 99 149q0 28 -18 46t-50 18q-68 0 -113 -78l-145 43q33 74 103.5 125t172.5 51q105 0 166.5 -49t61.5 -121q0 -135 -162 -266l-174 -139h254 l-31 -150h-483z" />
<glyph unicode="&#xbe;" horiz-adv-x="1419" d="M332 696q-106 0 -167.5 50t-66.5 133l158 43q5 -38 30 -60t66 -22q47 0 77 32.5t30 71.5q0 30 -22 46t-58 16h-78l29 131h73q54 0 80.5 29.5t26.5 70.5q0 27 -17.5 42t-46.5 15q-64 0 -102 -77l-145 43q32 75 98.5 125.5t167.5 50.5q94 0 155.5 -45t61.5 -119 q0 -62 -32.5 -110t-88.5 -70v-2q76 -50 76 -140q0 -44 -19.5 -88t-55.5 -81.5t-96 -61t-134 -23.5zM373 0h-191l957 1423h192zM1044 0l33 150h-291l27 129l256 434h168l-248 -424h117l31 151h151l-31 -151h70l-29 -139h-71l-31 -150h-152z" />
<glyph unicode="&#xbf;" horiz-adv-x="966" d="M571 821q-55 0 -90 30t-35 85q0 77 55 133.5t136 56.5q53 0 88 -29.5t35 -82.5q0 -77 -54 -135t-135 -58zM299 -336q-168 0 -273.5 78.5t-105.5 224.5q0 67 22.5 124.5t59.5 100t82.5 80.5t93 73t89 70.5t72.5 81.5t42 97l16 82h287l-18 -88q-15 -72 -48 -131t-73 -98 t-85 -72t-87 -60t-76.5 -54t-55 -62t-20.5 -76q0 -56 35.5 -87.5t93.5 -31.5q68 0 127 41.5t101 116.5l258 -80q-60 -148 -207.5 -239t-329.5 -91z" />
<glyph unicode="&#xc0;" horiz-adv-x="1259" d="M1167 1702l-75 -178l-557 172l88 202zM635 1423h364l111 -1423h-309l-17 281h-440l-133 -281h-295zM459 526h313l-33 592z" />
<glyph unicode="&#xc1;" horiz-adv-x="1259" d="M1147 1710l-584 -190l-57 182l581 217zM635 1423h364l111 -1423h-309l-17 281h-440l-133 -281h-295zM459 526h313l-33 592z" />
<glyph unicode="&#xc2;" horiz-adv-x="1259" d="M868 1735l-237 -199l-144 82l326 317h197l190 -317l-178 -82zM635 1423h364l111 -1423h-309l-17 281h-440l-133 -281h-295zM459 526h313l-33 592z" />
<glyph unicode="&#xc3;" horiz-adv-x="1259" d="M1065 1901l176 -41q-37 -120 -112 -186t-177 -66q-43 0 -111 14t-89 14q-66 0 -84 -86l-174 43q38 110 104 172t152 62q47 0 128 -14.5t103 -14.5q38 0 56.5 27.5t27.5 75.5zM635 1423h364l111 -1423h-309l-17 281h-440l-133 -281h-295zM459 526h313l-33 592z" />
<glyph unicode="&#xc4;" horiz-adv-x="1259" d="M635 1577q-47 0 -81 31t-34 80q0 68 49.5 117.5t122.5 49.5q50 0 83.5 -27t33.5 -77q0 -70 -50 -122t-124 -52zM1092 1855q50 0 82 -27t32 -77q0 -70 -50 -122t-124 -52q-47 0 -79.5 30.5t-32.5 80.5q0 68 48.5 117.5t123.5 49.5zM635 1423h364l111 -1423h-309l-17 281 h-440l-133 -281h-295zM459 526h313l-33 592z" />
<glyph unicode="&#xc5;" horiz-adv-x="1259" d="M827 1544q-92 0 -136 57t-25 148t88 148t161 57t138.5 -57t27.5 -148q-19 -90 -90 -147.5t-164 -57.5zM799 1749q-8 -37 7.5 -59.5t47.5 -22.5q34 0 60 23t32 59q9 37 -7 59.5t-50 22.5q-32 0 -57.5 -22.5t-32.5 -59.5zM801 0l-17 281h-440l-133 -281h-295l719 1423h364 l111 -1423h-309zM459 526h313l-33 592z" />
<glyph unicode="&#xc6;" horiz-adv-x="1873" d="M1270 1178l-41 -199l-31 -145h485l-55 -246h-483l-15 -72l-57 -270h606l-53 -246h-893l66 307h-379l-201 -307h-301l969 1423h995l-53 -245h-559zM580 553h270l131 614z" />
<glyph unicode="&#xc7;" horiz-adv-x="1271" d="M647 225q165 0 266 170l248 -78q-67 -134 -199.5 -230t-310.5 -112l-71 -69q36 8 51 8q79 0 116 -48t23 -114q-13 -73 -90 -125.5t-205 -52.5q-113 0 -184 51l67 105q54 -41 125 -41q34 0 56.5 16.5t27.5 38.5q5 23 -8.5 39t-44.5 16q-37 0 -68 -22l-92 49l135 156 q-176 27 -277 153.5t-101 341.5q0 187 56.5 362t156 311t249 218t322.5 82q101 0 182 -28.5t132.5 -77t80 -109.5t33.5 -129l-279 -78q-19 81 -63.5 125.5t-132.5 44.5q-102 0 -189 -64t-142 -165.5t-85.5 -221t-30.5 -235.5q0 -144 65.5 -215.5t180.5 -71.5z" />
<glyph unicode="&#xc8;" horiz-adv-x="1187" d="M1065 1524l-557 172l88 202l545 -196zM49 0l303 1423h844l-53 -245h-557l-72 -344h483l-53 -246h-483l-74 -342h606l-51 -246h-893z" />
<glyph unicode="&#xc9;" horiz-adv-x="1187" d="M537 1520l-58 182l582 217l59 -209zM49 0l303 1423h844l-53 -245h-557l-72 -344h483l-53 -246h-483l-74 -342h606l-51 -246h-893z" />
<glyph unicode="&#xca;" horiz-adv-x="1187" d="M604 1536l-143 82l325 317h197l191 -317l-179 -82l-153 199zM49 0l303 1423h844l-53 -245h-557l-72 -344h483l-53 -246h-483l-74 -342h606l-51 -246h-893z" />
<glyph unicode="&#xcb;" horiz-adv-x="1187" d="M608 1577q-47 0 -80.5 30.5t-33.5 80.5q0 68 49.5 117.5t122.5 49.5q50 0 83 -27t33 -77q0 -70 -50 -122t-124 -52zM1006 1577q-47 0 -80 30.5t-33 80.5q0 68 48.5 117.5t123.5 49.5q50 0 82.5 -27t32.5 -77q0 -70 -50 -122t-124 -52zM49 0l303 1423h844l-53 -245h-557 l-72 -344h483l-53 -246h-483l-74 -342h606l-51 -246h-893z" />
<glyph unicode="&#xcc;" horiz-adv-x="618" d="M784 1524l-557 172l88 202l545 -196zM49 0l303 1423h287l-303 -1423h-287z" />
<glyph unicode="&#xcd;" horiz-adv-x="618" d="M256 1520l-57 182l581 217l60 -209zM49 0l303 1423h287l-303 -1423h-287z" />
<glyph unicode="&#xce;" horiz-adv-x="618" d="M324 1536l-144 82l326 317h196l191 -317l-178 -82l-154 199zM49 0l303 1423h287l-303 -1423h-287z" />
<glyph unicode="&#xcf;" horiz-adv-x="618" d="M328 1577q-47 0 -81 31t-34 80q0 68 49.5 117.5t122.5 49.5q50 0 83.5 -27t33.5 -77q0 -70 -50 -122t-124 -52zM725 1577q-47 0 -80 30.5t-33 80.5q0 68 48.5 117.5t123.5 49.5q50 0 82.5 -27t32.5 -77q0 -70 -50 -122t-124 -52zM49 0l303 1423h287l-303 -1423h-287z" />
<glyph unicode="&#xd0;" horiz-adv-x="1345" d="M778 1423q118 0 215 -31t171 -94t109.5 -169t22.5 -246q-11 -155 -49 -288.5t-105 -243.5t-157.5 -188t-212 -120.5t-264.5 -42.5h-459l129 602h-141l47 221h141l127 600h426zM997 836q12 95 -4.5 164t-56.5 106.5t-91.5 54.5t-117.5 17h-141l-76 -355h221l-47 -221h-221 l-76 -356h129q127 0 232.5 80.5t168.5 214t80 295.5z" />
<glyph unicode="&#xd1;" horiz-adv-x="1417" d="M756 1550l-174 43q38 110 104 172t152 62q47 0 128 -14.5t103 -14.5q38 0 56.5 27.5t27.5 75.5l176 -41q-37 -120 -112 -186t-177 -66q-43 0 -111 14t-89 14q-66 0 -84 -86zM49 0l303 1423h269l335 -913l195 913h287l-303 -1423h-267l-340 913l-192 -913h-287z" />
<glyph unicode="&#xd2;" horiz-adv-x="1349" d="M1151 1524l-557 172l88 202l545 -196zM551 -27q-205 0 -323.5 127.5t-118.5 364.5q0 122 23.5 242.5t67.5 230t111 203.5t148.5 162.5t186 107.5t218.5 39q212 0 329.5 -124.5t117.5 -360.5q0 -150 -33.5 -294.5t-99 -270t-156 -221.5t-212.5 -151t-259 -55zM604 225 q94 0 175 70t131.5 177.5t79 230t28.5 233.5q0 134 -55 198t-152 64q-95 0 -175.5 -70t-129.5 -178t-76 -228.5t-27 -229.5q0 -134 55 -200.5t146 -66.5z" />
<glyph unicode="&#xd3;" horiz-adv-x="1349" d="M623 1520l-58 182l582 217l59 -209zM551 -27q-205 0 -323.5 127.5t-118.5 364.5q0 122 23.5 242.5t67.5 230t111 203.5t148.5 162.5t186 107.5t218.5 39q212 0 329.5 -124.5t117.5 -360.5q0 -150 -33.5 -294.5t-99 -270t-156 -221.5t-212.5 -151t-259 -55zM604 225 q94 0 175 70t131.5 177.5t79 230t28.5 233.5q0 134 -55 198t-152 64q-95 0 -175.5 -70t-129.5 -178t-76 -228.5t-27 -229.5q0 -134 55 -200.5t146 -66.5z" />
<glyph unicode="&#xd4;" horiz-adv-x="1349" d="M690 1536l-143 82l325 317h197l191 -317l-179 -82l-153 199zM551 -27q-205 0 -323.5 127.5t-118.5 364.5q0 122 23.5 242.5t67.5 230t111 203.5t148.5 162.5t186 107.5t218.5 39q212 0 329.5 -124.5t117.5 -360.5q0 -150 -33.5 -294.5t-99 -270t-156 -221.5t-212.5 -151 t-259 -55zM604 225q94 0 175 70t131.5 177.5t79 230t28.5 233.5q0 134 -55 198t-152 64q-95 0 -175.5 -70t-129.5 -178t-76 -228.5t-27 -229.5q0 -134 55 -200.5t146 -66.5z" />
<glyph unicode="&#xd5;" horiz-adv-x="1349" d="M727 1550l-174 43q38 110 104 172t152 62q47 0 128 -14.5t103 -14.5q38 0 56.5 27.5t27.5 75.5l176 -41q-37 -120 -111.5 -186t-176.5 -66q-43 0 -111.5 14t-89.5 14q-66 0 -84 -86zM551 -27q-205 0 -323.5 127.5t-118.5 364.5q0 122 23.5 242.5t67.5 230t111 203.5 t148.5 162.5t186 107.5t218.5 39q212 0 329.5 -124.5t117.5 -360.5q0 -150 -33.5 -294.5t-99 -270t-156 -221.5t-212.5 -151t-259 -55zM604 225q94 0 175 70t131.5 177.5t79 230t28.5 233.5q0 134 -55 198t-152 64q-95 0 -175.5 -70t-129.5 -178t-76 -228.5t-27 -229.5 q0 -134 55 -200.5t146 -66.5z" />
<glyph unicode="&#xd6;" horiz-adv-x="1349" d="M694 1577q-47 0 -80.5 30.5t-33.5 80.5q0 68 49.5 117.5t122.5 49.5q50 0 83 -27t33 -77q0 -70 -50 -122t-124 -52zM1092 1577q-47 0 -80 30.5t-33 80.5q0 68 48.5 117.5t123.5 49.5q50 0 82.5 -27t32.5 -77q0 -70 -50 -122t-124 -52zM551 -27q-205 0 -323.5 127.5 t-118.5 364.5q0 122 23.5 242.5t67.5 230t111 203.5t148.5 162.5t186 107.5t218.5 39q212 0 329.5 -124.5t117.5 -360.5q0 -150 -33.5 -294.5t-99 -270t-156 -221.5t-212.5 -151t-259 -55zM604 225q94 0 175 70t131.5 177.5t79 230t28.5 233.5q0 134 -55 198t-152 64 q-95 0 -175.5 -70t-129.5 -178t-76 -228.5t-27 -229.5q0 -134 55 -200.5t146 -66.5z" />
<glyph unicode="&#xd7;" horiz-adv-x="1181" d="M1184 1016l-398 -338l252 -338l-209 -174l-249 334l-392 -334l-135 174l396 338l-252 338l211 172l247 -332l387 332z" />
<glyph unicode="&#xd8;" horiz-adv-x="1349" d="M1198 1321q113 -125 113 -356q0 -150 -33.5 -294.5t-99 -270t-156 -221.5t-212.5 -151t-259 -55q-87 0 -164 25l-94 -152l-176 60l116 188q-124 130 -124 371q0 122 23.5 242.5t67.5 230t111 203.5t148.5 162.5t186 107.5t218.5 39q96 0 185 -29l71 117l174 -59zM403 492 q0 -46 11 -103l487 793q-43 16 -90 16q-95 0 -175.5 -70t-129.5 -178t-76 -228.5t-27 -229.5zM604 225q94 0 175 70t131.5 177.5t79 230t28.5 233.5q0 44 -6 82l-480 -780q37 -13 72 -13z" />
<glyph unicode="&#xd9;" horiz-adv-x="1339" d="M1145 1524l-557 172l88 202l545 -196zM551 -27q-107 0 -190.5 32t-142 100t-74 174t13.5 253l190 891h287l-193 -895q-28 -140 10.5 -221.5t151.5 -81.5q221 0 281 303l192 895h287l-190 -895q-30 -144 -90 -252t-143 -173.5t-180.5 -97.5t-209.5 -32z" />
<glyph unicode="&#xda;" horiz-adv-x="1339" d="M616 1520l-57 182l582 217l59 -209zM551 -27q-107 0 -190.5 32t-142 100t-74 174t13.5 253l190 891h287l-193 -895q-28 -140 10.5 -221.5t151.5 -81.5q221 0 281 303l192 895h287l-190 -895q-30 -144 -90 -252t-143 -173.5t-180.5 -97.5t-209.5 -32z" />
<glyph unicode="&#xdb;" horiz-adv-x="1339" d="M684 1536l-143 82l325 317h197l190 -317l-178 -82l-153 199zM551 -27q-107 0 -190.5 32t-142 100t-74 174t13.5 253l190 891h287l-193 -895q-28 -140 10.5 -221.5t151.5 -81.5q221 0 281 303l192 895h287l-190 -895q-30 -144 -90 -252t-143 -173.5t-180.5 -97.5 t-209.5 -32z" />
<glyph unicode="&#xdc;" horiz-adv-x="1339" d="M688 1577q-47 0 -81 31t-34 80q0 68 49.5 117.5t122.5 49.5q50 0 83.5 -27t33.5 -77q0 -70 -50 -122t-124 -52zM1085 1577q-47 0 -79.5 30.5t-32.5 80.5q0 68 48.5 117.5t123.5 49.5q50 0 82.5 -27t32.5 -77q0 -70 -50 -122t-125 -52zM551 -27q-107 0 -190.5 32t-142 100 t-74 174t13.5 253l190 891h287l-193 -895q-28 -140 10.5 -221.5t151.5 -81.5q221 0 281 303l192 895h287l-190 -895q-30 -144 -90 -252t-143 -173.5t-180.5 -97.5t-209.5 -32z" />
<glyph unicode="&#xdd;" horiz-adv-x="1273" d="M584 1520l-58 182l582 217l59 -209zM377 0l106 502l-266 921h324l151 -620l416 620h322l-660 -921l-106 -502h-287z" />
<glyph unicode="&#xde;" horiz-adv-x="1150" d="M49 0l303 1423h287l-53 -247h155q229 0 332 -118.5t57 -330.5q-32 -151 -120.5 -257.5t-207.5 -157t-259 -50.5h-152l-55 -262h-287zM440 485h131q100 0 170.5 60.5t96.5 177.5q23 107 -18.5 168t-141.5 61h-139z" />
<glyph unicode="&#xdf;" horiz-adv-x="1347" d="M782 -27q-126 0 -227.5 58t-140.5 133l170 180q27 -55 82.5 -91t132.5 -36q65 0 106 34.5t41 92.5q0 31 -22 59.5t-55.5 49.5t-72 48t-72 53t-55.5 66.5t-22 88.5q0 67 31.5 123.5t76.5 95t89.5 73t76 73.5t31.5 81q0 64 -47.5 100.5t-113.5 36.5q-81 0 -152 -57 t-92 -160l-230 -1075h-286l227 1063q26 124 86.5 217.5t141.5 148t171 81t187 26.5q107 0 198 -35t150 -109.5t59 -174.5q0 -62 -31 -117.5t-74.5 -97t-87.5 -79t-75 -78.5t-31 -81q0 -29 22 -58.5t55 -53.5t71.5 -55.5t71.5 -62.5t55 -76.5t22 -95.5q0 -179 -132 -284 t-335 -105z" />
<glyph unicode="&#xe0;" horiz-adv-x="1163" d="M1008 1200l-557 172l88 203l544 -197zM365 -27q-141 0 -222.5 98t-81.5 277q0 213 64 389t187.5 282.5t283.5 106.5q93 0 159.5 -51t80.5 -108l28 133h281l-162 -768q-35 -158 -35 -256q0 -42 6 -76h-297q-4 46 -4 57q0 25 9 84q-41 -70 -119.5 -119t-177.5 -49zM489 217 q84 0 150 83t97.5 193.5t31.5 215.5q0 174 -137 174q-64 0 -118.5 -48.5t-88.5 -123t-53 -158.5t-19 -160q0 -176 137 -176z" />
<glyph unicode="&#xe1;" horiz-adv-x="1163" d="M479 1196l-57 182l582 217l59 -209zM365 -27q-141 0 -222.5 98t-81.5 277q0 213 64 389t187.5 282.5t283.5 106.5q93 0 159.5 -51t80.5 -108l28 133h281l-162 -768q-35 -158 -35 -256q0 -42 6 -76h-297q-4 46 -4 57q0 25 9 84q-41 -70 -119.5 -119t-177.5 -49zM489 217 q84 0 150 83t97.5 193.5t31.5 215.5q0 174 -137 174q-64 0 -118.5 -48.5t-88.5 -123t-53 -158.5t-19 -160q0 -176 137 -176z" />
<glyph unicode="&#xe2;" horiz-adv-x="1163" d="M547 1212l-144 82l326 318h197l190 -318l-178 -82l-154 199zM365 -27q-141 0 -222.5 98t-81.5 277q0 213 64 389t187.5 282.5t283.5 106.5q93 0 159.5 -51t80.5 -108l28 133h281l-162 -768q-35 -158 -35 -256q0 -42 6 -76h-297q-4 46 -4 57q0 25 9 84 q-41 -70 -119.5 -119t-177.5 -49zM489 217q84 0 150 83t97.5 193.5t31.5 215.5q0 174 -137 174q-64 0 -118.5 -48.5t-88.5 -123t-53 -158.5t-19 -160q0 -176 137 -176z" />
<glyph unicode="&#xe3;" horiz-adv-x="1163" d="M584 1227l-174 43q38 109 104 171t152 62q47 0 128 -14t103 -14q38 0 56.5 27t27.5 75l176 -41q-37 -120 -112 -186t-177 -66q-43 0 -111 14.5t-89 14.5q-66 0 -84 -86zM365 -27q-141 0 -222.5 98t-81.5 277q0 213 64 389t187.5 282.5t283.5 106.5q93 0 159.5 -51 t80.5 -108l28 133h281l-162 -768q-35 -158 -35 -256q0 -42 6 -76h-297q-4 46 -4 57q0 25 9 84q-41 -70 -119.5 -119t-177.5 -49zM489 217q84 0 150 83t97.5 193.5t31.5 215.5q0 174 -137 174q-64 0 -118.5 -48.5t-88.5 -123t-53 -158.5t-19 -160q0 -176 137 -176z" />
<glyph unicode="&#xe4;" horiz-adv-x="1163" d="M551 1253q-47 0 -81 31t-34 80q0 68 49.5 118t122.5 50q50 0 83.5 -27.5t33.5 -77.5q0 -70 -50 -122t-124 -52zM948 1253q-47 0 -79.5 30.5t-32.5 80.5q0 68 49 118t123 50q50 0 82 -27.5t32 -77.5q0 -70 -50 -122t-124 -52zM365 -27q-141 0 -222.5 98t-81.5 277 q0 213 64 389t187.5 282.5t283.5 106.5q93 0 159.5 -51t80.5 -108l28 133h281l-162 -768q-35 -158 -35 -256q0 -42 6 -76h-297q-4 46 -4 57q0 25 9 84q-41 -70 -119.5 -119t-177.5 -49zM489 217q84 0 150 83t97.5 193.5t31.5 215.5q0 174 -137 174q-64 0 -118.5 -48.5 t-88.5 -123t-53 -158.5t-19 -160q0 -176 137 -176z" />
<glyph unicode="&#xe5;" horiz-adv-x="1163" d="M743 1221q-92 0 -136 56.5t-25 147.5t88 148t161 57t138.5 -57t27.5 -148q-19 -90 -90 -147t-164 -57zM770 1343q34 0 60 23t32 59q9 37 -7 59.5t-50 22.5q-32 0 -57.5 -22.5t-32.5 -59.5q-8 -37 7.5 -59.5t47.5 -22.5zM365 -27q-141 0 -222.5 98t-81.5 277q0 213 64 389 t187.5 282.5t283.5 106.5q93 0 159.5 -51t80.5 -108l28 133h281l-162 -768q-35 -158 -35 -256q0 -42 6 -76h-297q-4 46 -4 57q0 25 9 84q-41 -70 -119.5 -119t-177.5 -49zM489 217q84 0 150 83t97.5 193.5t31.5 215.5q0 174 -137 174q-64 0 -118.5 -48.5t-88.5 -123 t-53 -158.5t-19 -160q0 -176 137 -176z" />
<glyph unicode="&#xe6;" horiz-adv-x="1921" d="M1368 231q70 0 144.5 38.5t127.5 103.5l181 -162q-88 -119 -220 -178.5t-288 -59.5q-113 0 -209.5 46.5t-157.5 132.5l-31 -152h-280l35 154q-41 -77 -122.5 -129t-182.5 -52q-141 0 -222.5 98t-81.5 277q0 213 64 389t187.5 282.5t283.5 106.5q93 0 159.5 -51t80.5 -108 l28 133h281l-23 -111q159 137 367 137q169 0 262.5 -80t93.5 -194q0 -79 -45 -159.5t-124.5 -147t-203 -108.5t-266.5 -42h-37q12 -81 64.5 -122.5t134.5 -41.5zM489 217q84 0 150 83t97.5 193.5t31.5 215.5q0 174 -137 174q-64 0 -118.5 -48.5t-88.5 -123t-53 -158.5 t-19 -160q0 -176 137 -176zM1460 883q-93 0 -162 -73.5t-106 -186.5h14q86 0 156 19.5t110.5 49t62 61t21.5 60.5q0 31 -24.5 50.5t-71.5 19.5z" />
<glyph unicode="&#xe7;" horiz-adv-x="1075" d="M518 236q62 0 121.5 36t101.5 103l222 -101q-71 -129 -188 -206t-255 -91l-71 -71q36 8 51 8q79 0 116 -48t23 -114q-13 -73 -90 -125.5t-205 -52.5q-113 0 -184 51l67 105q54 -41 125 -41q34 0 56.5 16.5t27.5 38.5q5 23 -8.5 39t-44.5 16q-37 0 -68 -22l-92 49l137 158 q-141 32 -219 146.5t-78 275.5q0 104 27 207.5t80.5 195.5t127 163t173.5 112.5t213 41.5q160 0 257.5 -93.5t107.5 -225.5l-258 -76q-14 66 -59 109t-105 43q-79 0 -146.5 -65t-103 -160t-35.5 -191q0 -104 45.5 -167.5t130.5 -63.5z" />
<glyph unicode="&#xe8;" horiz-adv-x="1114" d="M1038 1378l-75 -178l-557 172l88 203zM1038 852q0 -79 -45 -159.5t-124.5 -147t-203 -108.5t-266.5 -42h-37q12 -81 64.5 -122.5t134.5 -41.5q70 0 144 38.5t126 103.5l183 -162q-90 -120 -221 -179t-287 -59q-185 0 -312.5 117t-127.5 313q0 202 81.5 368t222.5 260.5 t312 94.5q169 0 262.5 -80t93.5 -194zM653 883q-93 0 -162 -73.5t-106 -186.5h14q86 0 156 19.5t111 49t62.5 61t21.5 60.5q0 31 -25 50.5t-72 19.5z" />
<glyph unicode="&#xe9;" horiz-adv-x="1114" d="M1018 1386l-584 -190l-57 182l581 217zM561 231q70 0 144 38.5t126 103.5l183 -162q-90 -120 -221 -179t-287 -59q-185 0 -312.5 117t-127.5 313q0 202 81.5 368t222.5 260.5t312 94.5q169 0 262.5 -80t93.5 -194q0 -79 -45 -159.5t-124.5 -147t-203 -108.5t-266.5 -42 h-37q12 -81 64.5 -122.5t134.5 -41.5zM653 883q-93 0 -162 -73.5t-106 -186.5h14q86 0 156 19.5t111 49t62.5 61t21.5 60.5q0 31 -25 50.5t-72 19.5z" />
<glyph unicode="&#xea;" horiz-adv-x="1114" d="M739 1411l-237 -199l-144 82l326 318h197l190 -318l-178 -82zM1038 852q0 -79 -45 -159.5t-124.5 -147t-203 -108.5t-266.5 -42h-37q12 -81 64.5 -122.5t134.5 -41.5q70 0 144 38.5t126 103.5l183 -162q-90 -120 -221 -179t-287 -59q-185 0 -312.5 117t-127.5 313 q0 202 81.5 368t222.5 260.5t312 94.5q169 0 262.5 -80t93.5 -194zM653 883q-93 0 -162 -73.5t-106 -186.5h14q86 0 156 19.5t111 49t62.5 61t21.5 60.5q0 31 -25 50.5t-72 19.5z" />
<glyph unicode="&#xeb;" horiz-adv-x="1114" d="M506 1253q-47 0 -81 31t-34 80q0 68 49.5 118t122.5 50q50 0 83.5 -27.5t33.5 -77.5q0 -70 -50 -122t-124 -52zM903 1253q-47 0 -79.5 30.5t-32.5 80.5q0 68 49 118t123 50q50 0 82 -27.5t32 -77.5q0 -70 -50 -122t-124 -52zM1038 852q0 -79 -45 -159.5t-124.5 -147 t-203 -108.5t-266.5 -42h-37q12 -81 64.5 -122.5t134.5 -41.5q70 0 144 38.5t126 103.5l183 -162q-90 -120 -221 -179t-287 -59q-185 0 -312.5 117t-127.5 313q0 202 81.5 368t222.5 260.5t312 94.5q169 0 262.5 -80t93.5 -194zM653 883q-93 0 -162 -73.5t-106 -186.5h14 q86 0 156 19.5t111 49t62.5 61t21.5 60.5q0 31 -25 50.5t-72 19.5z" />
<glyph unicode="&#xec;" horiz-adv-x="575" d="M694 1200l-557 172l88 203l545 -197zM31 0l233 1100h281l-234 -1100h-280z" />
<glyph unicode="&#xed;" horiz-adv-x="575" d="M166 1196l-57 182l581 217l60 -209zM31 0l233 1100h281l-234 -1100h-280z" />
<glyph unicode="&#xee;" horiz-adv-x="575" d="M233 1212l-143 82l326 318h196l191 -318l-178 -82l-154 199zM31 0l233 1100h281l-234 -1100h-280z" />
<glyph unicode="&#xef;" horiz-adv-x="575" d="M238 1253q-47 0 -81 31t-34 80q0 68 49.5 118t122.5 50q50 0 83.5 -27.5t33.5 -77.5q0 -70 -50 -122t-124 -52zM635 1253q-47 0 -80 30.5t-33 80.5q0 68 49 118t123 50q50 0 82.5 -27.5t32.5 -77.5q0 -70 -50 -122t-124 -52zM31 0l233 1100h281l-234 -1100h-280z" />
<glyph unicode="&#xf0;" horiz-adv-x="1081" d="M1036 1411l-174 -82q234 -356 137 -807q-29 -134 -87 -239.5t-135 -172.5t-168.5 -102t-190.5 -35q-205 0 -304 142.5t-44 406.5q29 134 87 239.5t135 172.5t168.5 102t190.5 35h29q-41 81 -80 133l-213 -100l-57 147l166 78q-62 65 -123 105l250 151q74 -55 143 -129 l211 98zM715 522q65 316 -113 316t-246 -316q-65 -315 111 -315q88 0 151 79.5t97 235.5z" />
<glyph unicode="&#xf1;" horiz-adv-x="1212" d="M588 1227l-174 43q38 109 104 171t152 62q47 0 128 -14t103 -14q38 0 56.5 27t27.5 75l176 -41q-37 -120 -112 -186t-177 -66q-43 0 -111 14.5t-89 14.5q-66 0 -84 -86zM31 0l233 1100h275l-27 -117q60 63 140 103t167 40q163 0 242.5 -112t38.5 -301l-152 -713h-280 l139 649q21 97 -17 153t-116 56q-74 0 -139 -58.5t-86 -158.5l-138 -641h-280z" />
<glyph unicode="&#xf2;" horiz-adv-x="1107" d="M958 1200l-557 172l88 203l545 -197zM430 -27q-174 0 -273.5 99t-99.5 288q0 148 44 285.5t122 244.5t196 171.5t257 64.5q176 0 275.5 -98.5t99.5 -286.5q0 -149 -44 -287t-122.5 -245t-197 -171.5t-257.5 -64.5zM481 217q85 0 151.5 83t98 193.5t31.5 215.5 q0 85 -35 129.5t-102 44.5q-84 0 -150 -83t-97.5 -193.5t-31.5 -215.5q0 -85 34.5 -129.5t100.5 -44.5z" />
<glyph unicode="&#xf3;" horiz-adv-x="1107" d="M430 1196l-57 182l581 217l60 -209zM430 -27q-174 0 -273.5 99t-99.5 288q0 148 44 285.5t122 244.5t196 171.5t257 64.5q176 0 275.5 -98.5t99.5 -286.5q0 -149 -44 -287t-122.5 -245t-197 -171.5t-257.5 -64.5zM481 217q85 0 151.5 83t98 193.5t31.5 215.5 q0 85 -35 129.5t-102 44.5q-84 0 -150 -83t-97.5 -193.5t-31.5 -215.5q0 -85 34.5 -129.5t100.5 -44.5z" />
<glyph unicode="&#xf4;" horiz-adv-x="1107" d="M498 1212l-144 82l326 318h197l190 -318l-178 -82l-154 199zM430 -27q-174 0 -273.5 99t-99.5 288q0 148 44 285.5t122 244.5t196 171.5t257 64.5q176 0 275.5 -98.5t99.5 -286.5q0 -149 -44 -287t-122.5 -245t-197 -171.5t-257.5 -64.5zM481 217q85 0 151.5 83t98 193.5 t31.5 215.5q0 85 -35 129.5t-102 44.5q-84 0 -150 -83t-97.5 -193.5t-31.5 -215.5q0 -85 34.5 -129.5t100.5 -44.5z" />
<glyph unicode="&#xf5;" horiz-adv-x="1107" d="M535 1227l-175 43q38 109 104 171t152 62q47 0 128.5 -14t103.5 -14q38 0 56.5 27t27.5 75l176 -41q-37 -120 -112 -186t-177 -66q-43 0 -111.5 14.5t-89.5 14.5q-65 0 -83 -86zM430 -27q-174 0 -273.5 99t-99.5 288q0 148 44 285.5t122 244.5t196 171.5t257 64.5 q176 0 275.5 -98.5t99.5 -286.5q0 -149 -44 -287t-122.5 -245t-197 -171.5t-257.5 -64.5zM481 217q85 0 151.5 83t98 193.5t31.5 215.5q0 85 -35 129.5t-102 44.5q-84 0 -150 -83t-97.5 -193.5t-31.5 -215.5q0 -85 34.5 -129.5t100.5 -44.5z" />
<glyph unicode="&#xf6;" horiz-adv-x="1107" d="M502 1253q-47 0 -81 31t-34 80q0 68 49.5 118t122.5 50q50 0 83.5 -27.5t33.5 -77.5q0 -70 -50 -122t-124 -52zM899 1253q-47 0 -80 30.5t-33 80.5q0 68 49 118t123 50q50 0 82.5 -27.5t32.5 -77.5q0 -70 -50 -122t-124 -52zM430 -27q-174 0 -273.5 99t-99.5 288 q0 148 44 285.5t122 244.5t196 171.5t257 64.5q176 0 275.5 -98.5t99.5 -286.5q0 -149 -44 -287t-122.5 -245t-197 -171.5t-257.5 -64.5zM481 217q85 0 151.5 83t98 193.5t31.5 215.5q0 85 -35 129.5t-102 44.5q-84 0 -150 -83t-97.5 -193.5t-31.5 -215.5q0 -85 34.5 -129.5 t100.5 -44.5z" />
<glyph unicode="&#xf7;" horiz-adv-x="1146" d="M670 1030q-64 0 -101.5 40.5t-21.5 111.5q17 72 70 112.5t116 40.5q64 0 99.5 -40.5t21.5 -112.5q-17 -72 -69 -112t-115 -40zM104 590l56 246h952l-53 -246h-955zM469 90q-64 0 -100.5 41.5t-20.5 112.5q14 71 68.5 112t118.5 41t99 -40.5t19 -112.5q-14 -72 -67 -113 t-117 -41z" />
<glyph unicode="&#xf8;" horiz-adv-x="1107" d="M1065 1151l-100 -139q86 -99 86 -271q0 -149 -44 -287t-122.5 -245t-197 -171.5t-257.5 -64.5q-108 0 -186 37l-86 -119l-117 78l92 129q-76 98 -76 262q0 148 44 285.5t122 244.5t196 171.5t257 64.5q108 0 176 -32l98 135zM625 883q-84 0 -150 -83t-97.5 -193.5 t-31.5 -215.5l344 477q-27 15 -65 15zM762 709v20l-354 -491q27 -21 73 -21q85 0 151.5 83t98 193.5t31.5 215.5z" />
<glyph unicode="&#xf9;" horiz-adv-x="1122" d="M952 1200l-557 172l88 203l545 -197zM332 -27q-152 0 -232 105.5t-45 271.5l160 750h279l-148 -699q-18 -85 15 -132.5t100 -47.5q72 0 138.5 59t88.5 158l139 662h281l-160 -758q-42 -189 -35 -342h-274q-8 40 2 117q-55 -63 -140.5 -103.5t-168.5 -40.5z" />
<glyph unicode="&#xfa;" horiz-adv-x="1122" d="M424 1196l-57 182l581 217l60 -209zM332 -27q-152 0 -232 105.5t-45 271.5l160 750h279l-148 -699q-18 -85 15 -132.5t100 -47.5q72 0 138.5 59t88.5 158l139 662h281l-160 -758q-42 -189 -35 -342h-274q-8 40 2 117q-55 -63 -140.5 -103.5t-168.5 -40.5z" />
<glyph unicode="&#xfb;" horiz-adv-x="1122" d="M492 1212l-144 82l326 318h196l191 -318l-178 -82l-154 199zM332 -27q-152 0 -232 105.5t-45 271.5l160 750h279l-148 -699q-18 -85 15 -132.5t100 -47.5q72 0 138.5 59t88.5 158l139 662h281l-160 -758q-42 -189 -35 -342h-274q-8 40 2 117q-55 -63 -140.5 -103.5 t-168.5 -40.5z" />
<glyph unicode="&#xfc;" horiz-adv-x="1122" d="M496 1253q-47 0 -81 31t-34 80q0 68 49.5 118t122.5 50q50 0 83.5 -27.5t33.5 -77.5q0 -70 -50 -122t-124 -52zM893 1253q-47 0 -80 30.5t-33 80.5q0 68 49 118t123 50q50 0 82.5 -27.5t32.5 -77.5q0 -70 -50 -122t-124 -52zM332 -27q-152 0 -232 105.5t-45 271.5 l160 750h279l-148 -699q-18 -85 15 -132.5t100 -47.5q72 0 138.5 59t88.5 158l139 662h281l-160 -758q-42 -189 -35 -342h-274q-8 40 2 117q-55 -63 -140.5 -103.5t-168.5 -40.5z" />
<glyph unicode="&#xfd;" horiz-adv-x="1138" d="M430 1196l-57 182l581 217l60 -209zM350 -426q-150 0 -256 78t-137 203l221 106q15 -68 65.5 -109.5t125.5 -41.5t141 55t88 153l27 125q-132 -125 -285 -125q-149 0 -231 101.5t-48 261.5l154 719h279l-138 -656q-20 -86 14 -133t103 -47q72 0 135.5 55t85.5 152 l133 629h281l-225 -1055q-50 -237 -186 -354t-347 -117z" />
<glyph unicode="&#xfe;" horiz-adv-x="1167" d="M-55 -399l411 1935h281l-121 -573q42 64 123 113.5t174 49.5q136 0 218.5 -95t82.5 -275q0 -110 -24.5 -222t-72.5 -212.5t-113 -178.5t-152.5 -124t-184.5 -46q-85 0 -143 39.5t-90 98.5l-109 -510h-280zM545 217q64 0 118.5 48.5t88.5 123t53.5 159t19.5 161.5 q0 86 -35.5 130t-101.5 44q-63 0 -118 -50.5t-89 -126.5t-53.5 -159.5t-19.5 -155.5q0 -85 35 -129.5t102 -44.5z" />
<glyph unicode="&#xff;" horiz-adv-x="1138" d="M502 1253q-47 0 -81 31t-34 80q0 68 49.5 118t122.5 50q50 0 83.5 -27.5t33.5 -77.5q0 -70 -50 -122t-124 -52zM899 1253q-47 0 -80 30.5t-33 80.5q0 68 49 118t123 50q50 0 82.5 -27.5t32.5 -77.5q0 -70 -50 -122t-124 -52zM350 -426q-150 0 -256 78t-137 203l221 106 q15 -68 65.5 -109.5t125.5 -41.5t141 55t88 153l27 125q-132 -125 -285 -125q-149 0 -231 101.5t-48 261.5l154 719h279l-138 -656q-20 -86 14 -133t103 -47q72 0 135.5 55t85.5 152l133 629h281l-225 -1055q-50 -237 -186 -354t-347 -117z" />
<glyph unicode="&#x100;" horiz-adv-x="1259" d="M602 1798h557l-43 -203h-557zM635 1423h364l111 -1423h-309l-17 281h-440l-133 -281h-295zM459 526h313l-33 592z" />
<glyph unicode="&#x101;" horiz-adv-x="1163" d="M475 1272l43 203h557l-43 -203h-557zM365 -27q-141 0 -222.5 98t-81.5 277q0 213 64 389t187.5 282.5t283.5 106.5q93 0 159.5 -51t80.5 -108l28 133h281l-162 -768q-35 -158 -35 -256q0 -42 6 -76h-297q-4 46 -4 57q0 25 9 84q-41 -70 -119.5 -119t-177.5 -49zM489 217 q84 0 150 83t97.5 193.5t31.5 215.5q0 174 -137 174q-64 0 -118.5 -48.5t-88.5 -123t-53 -158.5t-19 -160q0 -176 137 -176z" />
<glyph unicode="&#x102;" horiz-adv-x="1259" d="M850 1552q-136 0 -207 81.5t-39 236.5h189q-15 -67 6 -103t67 -36q49 0 86 36t52 103h188q-36 -160 -124 -239t-218 -79zM635 1423h364l111 -1423h-309l-17 281h-440l-133 -281h-295zM459 526h313l-33 592z" />
<glyph unicode="&#x103;" horiz-adv-x="1163" d="M766 1229q-136 0 -207 81t-39 236h189q-15 -67 6 -103t67 -36q49 0 86 36t52 103h188q-36 -160 -124 -238.5t-218 -78.5zM365 -27q-141 0 -222.5 98t-81.5 277q0 213 64 389t187.5 282.5t283.5 106.5q93 0 159.5 -51t80.5 -108l28 133h281l-162 -768q-35 -158 -35 -256 q0 -42 6 -76h-297q-4 46 -4 57q0 25 9 84q-41 -70 -119.5 -119t-177.5 -49zM489 217q84 0 150 83t97.5 193.5t31.5 215.5q0 174 -137 174q-64 0 -118.5 -48.5t-88.5 -123t-53 -158.5t-19 -160q0 -176 137 -176z" />
<glyph unicode="&#x104;" horiz-adv-x="1259" d="M985 0q-73 -62 -86 -123q-8 -41 12 -67t68 -29l-80 -180q-121 3 -174 65.5t-33 155.5q20 96 109 178l-17 281h-440l-133 -281h-295l719 1423h364l111 -1423h-125zM459 526h313l-33 592z" />
<glyph unicode="&#x105;" horiz-adv-x="1163" d="M1145 1100l-162 -768q-35 -158 -35 -256q0 -42 6 -76h-112q-73 -62 -86 -123q-8 -41 12 -67t68 -29l-80 -180q-121 3 -174 65.5t-33 155.5q21 98 108 178q-4 46 -4 57q0 25 9 84q-41 -70 -119.5 -119t-177.5 -49q-141 0 -222.5 98t-81.5 277q0 213 64 389t187.5 282.5 t283.5 106.5q93 0 159.5 -51t80.5 -108l28 133h281zM489 217q84 0 150 83t97.5 193.5t31.5 215.5q0 174 -137 174q-64 0 -118.5 -48.5t-88.5 -123t-53 -158.5t-19 -160q0 -176 137 -176z" />
<glyph unicode="&#x106;" horiz-adv-x="1271" d="M651 1520l-57 182l582 217l59 -209zM588 -27q-220 0 -348.5 129.5t-128.5 374.5q0 187 56.5 362t156 311t249 218t322.5 82q101 0 182 -28.5t132.5 -77t80 -109.5t33.5 -129l-279 -78q-19 81 -63.5 125.5t-132.5 44.5q-102 0 -189 -64t-142 -165.5t-85.5 -221 t-30.5 -235.5q0 -144 65.5 -215.5t180.5 -71.5q165 0 266 170l248 -78q-34 -69 -87 -129t-124 -109t-164.5 -77.5t-197.5 -28.5z" />
<glyph unicode="&#x107;" horiz-adv-x="1075" d="M453 1196l-58 182l582 217l59 -209zM459 -27q-185 0 -290.5 122.5t-105.5 310.5q0 104 27 207.5t80.5 195.5t127 163t173.5 112.5t213 41.5q160 0 257.5 -93.5t107.5 -225.5l-258 -76q-14 66 -59 109t-105 43q-79 0 -146.5 -65t-103 -160t-35.5 -191q0 -104 45.5 -167.5 t130.5 -63.5q62 0 121.5 36t101.5 103l222 -101q-78 -144 -212 -222.5t-292 -78.5z" />
<glyph unicode="&#x108;" horiz-adv-x="1271" d="M719 1536l-144 82l326 317h197l190 -317l-178 -82l-154 199zM588 -27q-220 0 -348.5 129.5t-128.5 374.5q0 187 56.5 362t156 311t249 218t322.5 82q101 0 182 -28.5t132.5 -77t80 -109.5t33.5 -129l-279 -78q-19 81 -63.5 125.5t-132.5 44.5q-102 0 -189 -64 t-142 -165.5t-85.5 -221t-30.5 -235.5q0 -144 65.5 -215.5t180.5 -71.5q165 0 266 170l248 -78q-34 -69 -87 -129t-124 -109t-164.5 -77.5t-197.5 -28.5z" />
<glyph unicode="&#x109;" horiz-adv-x="1075" d="M520 1212l-143 82l325 318h197l191 -318l-179 -82l-153 199zM459 -27q-185 0 -290.5 122.5t-105.5 310.5q0 104 27 207.5t80.5 195.5t127 163t173.5 112.5t213 41.5q160 0 257.5 -93.5t107.5 -225.5l-258 -76q-14 66 -59 109t-105 43q-79 0 -146.5 -65t-103 -160 t-35.5 -191q0 -104 45.5 -167.5t130.5 -63.5q62 0 121.5 36t101.5 103l222 -101q-78 -144 -212 -222.5t-292 -78.5z" />
<glyph unicode="&#x10a;" horiz-adv-x="1271" d="M922 1577q-61 0 -96 39t-21 108q16 71 68.5 111.5t111.5 40.5q63 0 99 -40.5t20 -111.5q-14 -69 -67 -108t-115 -39zM588 -27q-220 0 -348.5 129.5t-128.5 374.5q0 187 56.5 362t156 311t249 218t322.5 82q101 0 182 -28.5t132.5 -77t80 -109.5t33.5 -129l-279 -78 q-19 81 -63.5 125.5t-132.5 44.5q-102 0 -189 -64t-142 -165.5t-85.5 -221t-30.5 -235.5q0 -144 65.5 -215.5t180.5 -71.5q165 0 266 170l248 -78q-34 -69 -87 -129t-124 -109t-164.5 -77.5t-197.5 -28.5z" />
<glyph unicode="&#x10b;" horiz-adv-x="1075" d="M723 1253q-52 0 -82.5 35.5t-19.5 95.5q14 62 59 97t98 35q54 0 86 -35.5t19 -96.5q-13 -60 -59.5 -95.5t-100.5 -35.5zM459 -27q-185 0 -290.5 122.5t-105.5 310.5q0 104 27 207.5t80.5 195.5t127 163t173.5 112.5t213 41.5q160 0 257.5 -93.5t107.5 -225.5l-258 -76 q-14 66 -59 109t-105 43q-79 0 -146.5 -65t-103 -160t-35.5 -191q0 -104 45.5 -167.5t130.5 -63.5q62 0 121.5 36t101.5 103l222 -101q-78 -144 -212 -222.5t-292 -78.5z" />
<glyph unicode="&#x10c;" horiz-adv-x="1271" d="M840 1563l-205 286l196 56l127 -168l201 168l172 -56l-325 -286h-166zM588 -27q-220 0 -348.5 129.5t-128.5 374.5q0 187 56.5 362t156 311t249 218t322.5 82q101 0 182 -28.5t132.5 -77t80 -109.5t33.5 -129l-279 -78q-19 81 -63.5 125.5t-132.5 44.5q-102 0 -189 -64 t-142 -165.5t-85.5 -221t-30.5 -235.5q0 -144 65.5 -215.5t180.5 -71.5q165 0 266 170l248 -78q-34 -69 -87 -129t-124 -109t-164.5 -77.5t-197.5 -28.5z" />
<glyph unicode="&#x10d;" horiz-adv-x="1075" d="M641 1239l-205 287l197 55l127 -168l201 168l172 -55l-326 -287h-166zM459 -27q-185 0 -290.5 122.5t-105.5 310.5q0 104 27 207.5t80.5 195.5t127 163t173.5 112.5t213 41.5q160 0 257.5 -93.5t107.5 -225.5l-258 -76q-14 66 -59 109t-105 43q-79 0 -146.5 -65 t-103 -160t-35.5 -191q0 -104 45.5 -167.5t130.5 -63.5q62 0 121.5 36t101.5 103l222 -101q-78 -144 -212 -222.5t-292 -78.5z" />
<glyph unicode="&#x10e;" horiz-adv-x="1345" d="M754 1563l-205 286l196 56l127 -168l201 168l172 -56l-325 -286h-166zM49 0l303 1423h426q118 0 215 -31t171 -94t109.5 -169t22.5 -246q-11 -155 -49 -288.5t-105 -243.5t-157.5 -188t-212 -120.5t-264.5 -42.5h-459zM387 246h129q127 0 232.5 80.5t168.5 214t80 295.5 q12 95 -4.5 164t-56.5 106.5t-91.5 54.5t-117.5 17h-141z" />
<glyph unicode="&#x10f;" horiz-adv-x="1155" d="M362 -27q-96 0 -166 54t-103.5 141.5t-33.5 198.5q0 140 39.5 275.5t109 243t174.5 174t226 66.5q94 0 153 -40t77 -91l114 541h281l-256 -1210q-14 -66 -24 -162.5t-7 -163.5h-274q-8 40 4 131q-61 -73 -134 -115.5t-180 -42.5zM1221 1159l114 377h230l-150 -377h-194z M485 217q84 0 150 83t97.5 193.5t31.5 215.5q0 174 -135 174q-64 0 -118.5 -48.5t-89 -123t-54 -158.5t-19.5 -160q0 -176 137 -176z" />
<glyph unicode="&#x110;" horiz-adv-x="1345" d="M778 1423q118 0 215 -31t171 -94t109.5 -169t22.5 -246q-11 -155 -49 -288.5t-105 -243.5t-157.5 -188t-212 -120.5t-264.5 -42.5h-459l129 602h-141l47 221h141l127 600h426zM997 836q12 95 -4.5 164t-56.5 106.5t-91.5 54.5t-117.5 17h-141l-76 -355h221l-47 -221h-221 l-76 -356h129q127 0 232.5 80.5t168.5 214t80 295.5z" />
<glyph unicode="&#x111;" horiz-adv-x="1155" d="M1319 1427l-41 -192h-109l-192 -909q-14 -66 -24 -162.5t-7 -163.5h-274q-8 40 4 131q-61 -73 -134 -115.5t-180 -42.5q-96 0 -166 54t-103.5 141.5t-33.5 198.5q0 140 39.5 275.5t109 243t174.5 174t226 66.5q94 0 153 -40t77 -91l51 240h-219l43 192h217l22 109h281 l-23 -109h109zM485 217q84 0 150 83t97.5 193.5t31.5 215.5q0 174 -135 174q-64 0 -118.5 -48.5t-89 -123t-54 -158.5t-19.5 -160q0 -176 137 -176z" />
<glyph unicode="&#x112;" horiz-adv-x="1187" d="M532 1595l43 203h558l-43 -203h-558zM49 0l303 1423h844l-53 -245h-557l-72 -344h483l-53 -246h-483l-74 -342h606l-51 -246h-893z" />
<glyph unicode="&#x113;" horiz-adv-x="1114" d="M1030 1475l-43 -203h-557l43 203h557zM561 231q70 0 144 38.5t126 103.5l183 -162q-90 -120 -221 -179t-287 -59q-185 0 -312.5 117t-127.5 313q0 202 81.5 368t222.5 260.5t312 94.5q169 0 262.5 -80t93.5 -194q0 -79 -45 -159.5t-124.5 -147t-203 -108.5t-266.5 -42 h-37q12 -81 64.5 -122.5t134.5 -41.5zM653 883q-93 0 -162 -73.5t-106 -186.5h14q86 0 156 19.5t111 49t62.5 61t21.5 60.5q0 31 -25 50.5t-72 19.5z" />
<glyph unicode="&#x114;" horiz-adv-x="1187" d="M823 1552q-136 0 -206.5 81.5t-38.5 236.5h188q-14 -67 7 -103t67 -36q49 0 85.5 36t51.5 103h188q-36 -160 -124 -239t-218 -79zM49 0l303 1423h844l-53 -245h-557l-72 -344h483l-53 -246h-483l-74 -342h606l-51 -246h-893z" />
<glyph unicode="&#x115;" horiz-adv-x="1114" d="M721 1229q-136 0 -207 81t-39 236h189q-15 -67 6 -103t67 -36q49 0 85.5 36t51.5 103h189q-36 -160 -124 -238.5t-218 -78.5zM1038 852q0 -79 -45 -159.5t-124.5 -147t-203 -108.5t-266.5 -42h-37q12 -81 64.5 -122.5t134.5 -41.5q70 0 144 38.5t126 103.5l183 -162 q-90 -120 -221 -179t-287 -59q-185 0 -312.5 117t-127.5 313q0 202 81.5 368t222.5 260.5t312 94.5q169 0 262.5 -80t93.5 -194zM653 883q-93 0 -162 -73.5t-106 -186.5h14q86 0 156 19.5t111 49t62.5 61t21.5 60.5q0 31 -25 50.5t-72 19.5z" />
<glyph unicode="&#x116;" horiz-adv-x="1187" d="M807 1577q-61 0 -96 39t-21 108q16 71 68.5 111.5t111.5 40.5q63 0 99 -40.5t20 -111.5q-14 -69 -67 -108t-115 -39zM49 0l303 1423h844l-53 -245h-557l-72 -344h483l-53 -246h-483l-74 -342h606l-51 -246h-893z" />
<glyph unicode="&#x117;" horiz-adv-x="1114" d="M705 1253q-52 0 -83 35.5t-20 95.5q14 62 59.5 97t98.5 35q54 0 85.5 -35.5t18.5 -96.5q-13 -60 -59 -95.5t-100 -35.5zM561 231q70 0 144 38.5t126 103.5l183 -162q-90 -120 -221 -179t-287 -59q-185 0 -312.5 117t-127.5 313q0 202 81.5 368t222.5 260.5t312 94.5 q169 0 262.5 -80t93.5 -194q0 -79 -45 -159.5t-124.5 -147t-203 -108.5t-266.5 -42h-37q12 -81 64.5 -122.5t134.5 -41.5zM653 883q-93 0 -162 -73.5t-106 -186.5h14q86 0 156 19.5t111 49t62.5 61t21.5 60.5q0 31 -25 50.5t-72 19.5z" />
<glyph unicode="&#x118;" horiz-adv-x="1187" d="M1143 1178h-557l-72 -344h483l-53 -246h-483l-74 -342h606l-51 -246h-2q-73 -62 -86 -123q-8 -41 12 -67t68 -29l-80 -180q-121 3 -174 65.5t-33 155.5q20 96 109 178h-707l303 1423h844z" />
<glyph unicode="&#x119;" horiz-adv-x="1114" d="M561 231q70 0 144 38.5t126 103.5l183 -162q-151 -202 -416 -231q-52 -52 -63 -103q-8 -41 11.5 -67t67.5 -29l-79 -180q-121 3 -174 65.5t-33 155.5q18 84 90 160q-155 27 -253.5 138.5t-98.5 282.5q0 202 81.5 368t222.5 260.5t312 94.5q169 0 262.5 -80t93.5 -194 q0 -79 -45 -159.5t-124.5 -147t-203 -108.5t-266.5 -42h-37q12 -81 64.5 -122.5t134.5 -41.5zM653 883q-93 0 -162 -73.5t-106 -186.5h14q86 0 156 19.5t111 49t62.5 61t21.5 60.5q0 31 -25 50.5t-72 19.5z" />
<glyph unicode="&#x11a;" horiz-adv-x="1187" d="M725 1563l-205 286l197 56l127 -168l200 168l173 -56l-326 -286h-166zM49 0l303 1423h844l-53 -245h-557l-72 -344h483l-53 -246h-483l-74 -342h606l-51 -246h-893z" />
<glyph unicode="&#x11b;" horiz-adv-x="1114" d="M788 1239h-165l-205 287l196 55l127 -168l201 168l172 -55zM1038 852q0 -79 -45 -159.5t-124.5 -147t-203 -108.5t-266.5 -42h-37q12 -81 64.5 -122.5t134.5 -41.5q70 0 144 38.5t126 103.5l183 -162q-90 -120 -221 -179t-287 -59q-185 0 -312.5 117t-127.5 313 q0 202 81.5 368t222.5 260.5t312 94.5q169 0 262.5 -80t93.5 -194zM653 883q-93 0 -162 -73.5t-106 -186.5h14q86 0 156 19.5t111 49t62.5 61t21.5 60.5q0 31 -25 50.5t-72 19.5z" />
<glyph unicode="&#x11c;" horiz-adv-x="1380" d="M721 1536l-143 82l325 317h197l190 -317l-178 -82l-154 199zM1350 1102l-281 -76q-14 81 -67.5 126.5t-147.5 45.5q-91 0 -171.5 -55t-136.5 -144t-92 -196t-46 -215q-21 -169 44.5 -266t188.5 -97q158 0 266 99l47 221h-288l51 246h575l-131 -623q-119 -93 -269.5 -144 t-305.5 -51q-236 0 -364.5 157.5t-106.5 426.5q12 180 75 342.5t164 284.5t243.5 194t303.5 72q206 0 320.5 -93.5t128.5 -254.5z" />
<glyph unicode="&#x11d;" horiz-adv-x="1173" d="M518 1231l-143 82l325 317h197l190 -317l-178 -82l-153 199zM360 -426q-152 0 -265.5 73t-155.5 208l235 106q15 -63 66.5 -107t130.5 -44q104 0 180.5 58.5t101.5 176.5l25 123q-45 -60 -121.5 -105t-169.5 -45q-152 0 -229.5 102.5t-77.5 270.5q0 142 38.5 275t106 235 t167 163.5t214.5 61.5q96 0 162 -52t82 -103l27 129h280l-221 -1041q-51 -238 -197 -361.5t-379 -123.5zM508 242q59 0 112.5 48t88 122t55 158.5t20.5 160.5q0 83 -36.5 127.5t-100.5 44.5q-63 0 -117 -48t-88.5 -121.5t-53.5 -157t-19 -160.5q0 -86 35.5 -130t103.5 -44z " />
<glyph unicode="&#x11e;" horiz-adv-x="1380" d="M940 1552q-136 0 -207 81.5t-39 236.5h189q-15 -67 6 -103t67 -36q49 0 86 36t52 103h188q-36 -160 -124 -239t-218 -79zM1350 1102l-281 -76q-14 81 -67.5 126.5t-147.5 45.5q-91 0 -171.5 -55t-136.5 -144t-92 -196t-46 -215q-21 -169 44.5 -266t188.5 -97 q158 0 266 99l47 221h-288l51 246h575l-131 -623q-119 -93 -269.5 -144t-305.5 -51q-236 0 -364.5 157.5t-106.5 426.5q12 180 75 342.5t164 284.5t243.5 194t303.5 72q206 0 320.5 -93.5t128.5 -254.5z" />
<glyph unicode="&#x11f;" horiz-adv-x="1173" d="M737 1247q-136 0 -206.5 81.5t-38.5 236.5h188q-15 -67 6.5 -103.5t67.5 -36.5q49 0 85.5 36.5t51.5 103.5h188q-36 -160 -124 -239t-218 -79zM360 -426q-152 0 -265.5 73t-155.5 208l235 106q15 -63 66.5 -107t130.5 -44q104 0 180.5 58.5t101.5 176.5l25 123 q-45 -60 -121.5 -105t-169.5 -45q-152 0 -229.5 102.5t-77.5 270.5q0 142 38.5 275t106 235t167 163.5t214.5 61.5q96 0 162 -52t82 -103l27 129h280l-221 -1041q-51 -238 -197 -361.5t-379 -123.5zM508 242q59 0 112.5 48t88 122t55 158.5t20.5 160.5q0 83 -36.5 127.5 t-100.5 44.5q-63 0 -117 -48t-88.5 -121.5t-53.5 -157t-19 -160.5q0 -86 35.5 -130t103.5 -44z" />
<glyph unicode="&#x120;" horiz-adv-x="1380" d="M924 1577q-61 0 -96 39t-21 108q16 71 68.5 111.5t111.5 40.5q63 0 99 -40.5t20 -111.5q-14 -69 -67 -108t-115 -39zM1350 1102l-281 -76q-14 81 -67.5 126.5t-147.5 45.5q-91 0 -171.5 -55t-136.5 -144t-92 -196t-46 -215q-21 -169 44.5 -266t188.5 -97q158 0 266 99 l47 221h-288l51 246h575l-131 -623q-119 -93 -269.5 -144t-305.5 -51q-236 0 -364.5 157.5t-106.5 426.5q12 180 75 342.5t164 284.5t243.5 194t303.5 72q206 0 320.5 -93.5t128.5 -254.5z" />
<glyph unicode="&#x121;" horiz-adv-x="1173" d="M721 1272q-52 0 -83 35.5t-20 95.5q14 61 59.5 96t98.5 35q55 0 86.5 -35t18.5 -96q-13 -60 -59.5 -95.5t-100.5 -35.5zM360 -426q-152 0 -265.5 73t-155.5 208l235 106q15 -63 66.5 -107t130.5 -44q104 0 180.5 58.5t101.5 176.5l25 123q-45 -60 -121.5 -105t-169.5 -45 q-152 0 -229.5 102.5t-77.5 270.5q0 142 38.5 275t106 235t167 163.5t214.5 61.5q96 0 162 -52t82 -103l27 129h280l-221 -1041q-51 -238 -197 -361.5t-379 -123.5zM508 242q59 0 112.5 48t88 122t55 158.5t20.5 160.5q0 83 -36.5 127.5t-100.5 44.5q-63 0 -117 -48 t-88.5 -121.5t-53.5 -157t-19 -160.5q0 -86 35.5 -130t103.5 -44z" />
<glyph unicode="&#x122;" horiz-adv-x="1380" d="M1350 1102l-281 -76q-14 81 -67.5 126.5t-147.5 45.5q-91 0 -171.5 -55t-136.5 -144t-92 -196t-46 -215q-21 -169 44.5 -266t188.5 -97q158 0 266 99l47 221h-288l51 246h575l-131 -623q-119 -93 -269.5 -144t-305.5 -51q-236 0 -364.5 157.5t-106.5 426.5 q12 180 75 342.5t164 284.5t243.5 194t303.5 72q206 0 320.5 -93.5t128.5 -254.5zM432 -606l-61 88q114 60 172 186q-24 -12 -49 -12q-61 0 -87.5 37t-15.5 88q12 52 58 91.5t114 39.5q84 0 116.5 -52t14.5 -134q-22 -99 -88.5 -188.5t-173.5 -143.5z" />
<glyph unicode="&#x123;" horiz-adv-x="1173" d="M721 1247q-83 0 -116 52.5t-17 134.5q21 98 89 187.5t173 143.5l63 -88q-112 -59 -174 -186q27 12 52 12q60 0 86 -37t16 -88q-12 -52 -57.5 -91.5t-114.5 -39.5zM360 -426q-152 0 -265.5 73t-155.5 208l235 106q15 -63 66.5 -107t130.5 -44q104 0 180.5 58.5 t101.5 176.5l25 123q-45 -60 -121.5 -105t-169.5 -45q-152 0 -229.5 102.5t-77.5 270.5q0 142 38.5 275t106 235t167 163.5t214.5 61.5q96 0 162 -52t82 -103l27 129h280l-221 -1041q-51 -238 -197 -361.5t-379 -123.5zM508 242q59 0 112.5 48t88 122t55 158.5t20.5 160.5 q0 83 -36.5 127.5t-100.5 44.5q-63 0 -117 -48t-88.5 -121.5t-53.5 -157t-19 -160.5q0 -86 35.5 -130t103.5 -44z" />
<glyph unicode="&#x124;" horiz-adv-x="1454" d="M743 1536l-143 82l326 317h196l191 -317l-178 -82l-154 199zM49 0l303 1423h287l-125 -583h551l123 583h287l-304 -1423h-286l125 592h-549l-125 -592h-287z" />
<glyph unicode="&#x125;" horiz-adv-x="1212" d="M305 1636l-143 82l325 318h197l190 -318l-178 -82l-153 199zM31 0l325 1536h281l-117 -545q139 135 299 135q163 0 242.5 -112t38.5 -301l-152 -713h-280l139 649q21 97 -17 153t-116 56q-74 0 -139 -58.5t-86 -158.5l-138 -641h-280z" />
<glyph unicode="&#x126;" horiz-adv-x="1454" d="M1563 1239l-47 -221h-127l-218 -1018h-286l125 592h-549l-125 -592h-287l217 1018h-127l47 221h127l39 184h287l-39 -184h549l39 184h287l-39 -184h127zM1065 840l37 178h-549l-39 -178h551z" />
<glyph unicode="&#x127;" horiz-adv-x="1212" d="M819 1126q163 0 242.5 -112t38.5 -301l-152 -713h-280l139 649q21 97 -17 153t-116 56q-74 0 -139 -58.5t-86 -158.5l-138 -641h-280l260 1231h-129l43 192h127l24 113h281l-25 -113h199l-41 -192h-199l-51 -240q139 135 299 135z" />
<glyph unicode="&#x128;" horiz-adv-x="618" d="M360 1550l-174 43q38 110 104 172t152 62q47 0 128.5 -14.5t103.5 -14.5q38 0 56.5 27.5t27.5 75.5l176 -41q-37 -120 -112 -186t-177 -66q-43 0 -111.5 14t-89.5 14q-66 0 -84 -86zM49 0l303 1423h287l-303 -1423h-287z" />
<glyph unicode="&#x129;" horiz-adv-x="575" d="M270 1227l-174 43q38 109 104 171t152 62q47 0 128.5 -14t103.5 -14q38 0 56.5 27t27.5 75l176 -41q-37 -120 -112 -186t-177 -66q-43 0 -111.5 14.5t-89.5 14.5q-66 0 -84 -86zM31 0l233 1100h281l-234 -1100h-280z" />
<glyph unicode="&#x12a;" horiz-adv-x="618" d="M252 1595l43 203h557l-43 -203h-557zM49 0l303 1423h287l-303 -1423h-287z" />
<glyph unicode="&#x12b;" horiz-adv-x="575" d="M162 1272l43 203h557l-43 -203h-557zM31 0l233 1100h281l-234 -1100h-280z" />
<glyph unicode="&#x12c;" horiz-adv-x="618" d="M543 1552q-136 0 -207 81.5t-39 236.5h188q-14 -67 7 -103t67 -36q49 0 85.5 36t51.5 103h189q-36 -160 -124 -239t-218 -79zM49 0l303 1423h287l-303 -1423h-287z" />
<glyph unicode="&#x12d;" horiz-adv-x="575" d="M453 1229q-136 0 -207 81t-39 236h188q-14 -67 7 -103t67 -36q49 0 85.5 36t51.5 103h189q-36 -160 -124 -238.5t-218 -78.5zM31 0l233 1100h281l-234 -1100h-280z" />
<glyph unicode="&#x12e;" horiz-adv-x="618" d="M352 1423h287l-303 -1423h-66q-73 -62 -86 -123q-8 -41 12 -67t68 -29l-80 -180q-121 3 -174 65.5t-33 155.5q20 96 109 178h-37z" />
<glyph unicode="&#x12f;" horiz-adv-x="575" d="M502 1563q67 0 105 -42t22 -116q-17 -75 -72.5 -117.5t-122.5 -42.5q-64 0 -101.5 43t-23.5 117q16 74 72.5 116t120.5 42zM31 0l233 1100h281l-234 -1100h-63q-73 -62 -86 -123q-8 -41 12 -67t68 -29l-80 -180q-121 3 -174 65.5t-33 155.5q21 98 108 178h-32z" />
<glyph unicode="&#x130;" horiz-adv-x="618" d="M526 1577q-61 0 -95.5 39t-20.5 108q16 71 68.5 111.5t111.5 40.5q63 0 99 -40.5t20 -111.5q-14 -69 -67.5 -108t-115.5 -39zM49 0l303 1423h287l-303 -1423h-287z" />
<glyph unicode="&#x131;" horiz-adv-x="575" d="M31 0l233 1100h281l-234 -1100h-280z" />
<glyph unicode="&#x132;" horiz-adv-x="1595" d="M49 0l303 1423h287l-303 -1423h-287zM584 0l51 246h123q168 0 263.5 80.5t133.5 259.5l125 592h-367l54 245h655l-180 -837q-65 -311 -243.5 -448.5t-491.5 -137.5h-123z" />
<glyph unicode="&#x133;" horiz-adv-x="1116" d="M434 1245q-64 0 -101.5 43t-23.5 117q16 74 72.5 116t120.5 42q67 0 105 -42t22 -116q-17 -75 -72.5 -117.5t-122.5 -42.5zM995 1245q-64 0 -101.5 43t-23.5 117q16 74 72.5 116t120.5 42q67 0 105 -42t22 -116q-17 -75 -72.5 -117.5t-122.5 -42.5zM31 0l233 1100h281 l-234 -1100h-280zM309 -426l51 238q99 0 155 44.5t81 157.5l229 1086h281l-229 -1080q-26 -124 -78 -212t-126.5 -138.5t-163 -73t-200.5 -22.5z" />
<glyph unicode="&#x134;" horiz-adv-x="993" d="M549 1536l-143 82l325 317h197l190 -317l-178 -82l-154 199zM-18 0l51 246h123q168 0 263.5 80.5t133.5 259.5l125 592h-367l54 245h655l-180 -837q-65 -310 -244 -448t-492 -138h-122z" />
<glyph unicode="&#x135;" horiz-adv-x="538" d="M217 1212l-143 82l325 318h197l190 -318l-178 -82l-153 199zM-268 -426l51 238q99 0 154.5 44.5t80.5 157.5l230 1086h280l-229 -1080q-21 -100 -59 -176t-88.5 -127t-117 -83t-140 -46t-162.5 -14z" />
<glyph unicode="&#x136;" horiz-adv-x="1306" d="M1409 1423l-618 -628l376 -795h-354l-254 557l-133 -135l-90 -422h-287l303 1423h287l-121 -563l549 563h342zM528 -88q84 0 116.5 -52t14.5 -134q-22 -99 -88.5 -188.5t-173.5 -143.5l-61 88q114 60 172 186q-24 -12 -49 -12q-61 0 -87.5 37t-15.5 88q12 52 58 91.5 t114 39.5z" />
<glyph unicode="&#x137;" horiz-adv-x="1214" d="M1272 1100l-516 -463l297 -637h-359l-182 418l-139 -125l-62 -293h-280l325 1536h281l-182 -858l454 422h363zM465 -88q84 0 116.5 -52t14.5 -134q-22 -99 -88.5 -188.5t-173.5 -143.5l-62 88q114 60 172 186q-24 -12 -49 -12q-61 0 -87 37t-15 88q12 52 58 91.5 t114 39.5z" />
<glyph unicode="&#x138;" horiz-adv-x="1105" d="M1139 1100l-420 -461l225 -639h-330l-135 377l-114 -125l-54 -252h-280l233 1100h281l-92 -432l385 432h301z" />
<glyph unicode="&#x139;" horiz-adv-x="1175" d="M283 1520l-58 182l582 217l59 -209zM49 0l303 1423h287l-252 -1177h571l-51 -246h-858z" />
<glyph unicode="&#x13a;" horiz-adv-x="704" d="M236 1624l-58 182l582 217l59 -208zM358 -27q-132 0 -208 67t-76 200q0 58 14 118l248 1178h280l-245 -1159q-19 -79 11 -122.5t101 -43.5q47 0 105 18l-37 -225q-117 -31 -193 -31z" />
<glyph unicode="&#x13b;" horiz-adv-x="1175" d="M49 0l303 1423h287l-252 -1177h571l-51 -246h-858zM317 -606l-61 88q114 60 172 186q-24 -12 -49 -12q-61 0 -87.5 37t-15.5 88q12 52 58.5 91.5t114.5 39.5q84 0 116.5 -52t14.5 -134q-22 -99 -89 -188.5t-174 -143.5z" />
<glyph unicode="&#x13c;" horiz-adv-x="704" d="M358 -27q-132 0 -208 67t-76 200q0 58 14 118l248 1178h280l-245 -1159q-19 -79 11 -122.5t101 -43.5q47 0 105 18l-37 -225q-117 -31 -193 -31zM113 -606l-62 88q114 60 172 186q-24 -12 -49 -12q-61 0 -87 37t-15 88q12 52 58 91.5t114 39.5q84 0 116.5 -52t14.5 -134 q-22 -99 -88.5 -188.5t-173.5 -143.5z" />
<glyph unicode="&#x13d;" horiz-adv-x="1175" d="M49 0l303 1423h287l-252 -1177h571l-51 -246h-858zM664 1047l114 376h230l-150 -376h-194z" />
<glyph unicode="&#x13e;" horiz-adv-x="704" d="M358 -27q-132 0 -208 67t-76 200q0 58 14 118l248 1178h280l-245 -1159q-19 -79 11 -122.5t101 -43.5q47 0 105 18l-37 -225q-117 -31 -193 -31zM602 1159l115 377h229l-149 -377h-195z" />
<glyph unicode="&#x13f;" horiz-adv-x="1232" d="M49 0l303 1423h287l-252 -1177h571l-51 -246h-858zM774 635q-63 0 -99 41t-20 112q14 71 67.5 112.5t115.5 41.5q65 0 101 -41t22 -113q-16 -72 -69.5 -112.5t-117.5 -40.5z" />
<glyph unicode="&#x140;" horiz-adv-x="790" d="M358 -27q-132 0 -208 67t-76 200q0 58 14 118l248 1178h280l-245 -1159q-19 -79 11 -122.5t101 -43.5q47 0 105 18l-37 -225q-117 -31 -193 -31zM662 662q-63 0 -99 41t-20 112q14 72 67 113t115 41q65 0 101 -41t22 -113q-17 -72 -70 -112.5t-116 -40.5z" />
<glyph unicode="&#x141;" horiz-adv-x="1175" d="M387 246h571l-51 -246h-858l121 563l-164 -26l53 245l162 27l131 614h287l-121 -563l225 37l-53 -246l-225 -37z" />
<glyph unicode="&#x142;" horiz-adv-x="704" d="M446 733l-75 -356q-19 -79 11 -122.5t101 -43.5q47 0 105 18l-37 -225q-117 -31 -193 -31q-132 0 -208 67t-76 200q0 58 14 118l59 277l-131 -41l54 248l129 41l137 653h280l-118 -555l168 53l-52 -248z" />
<glyph unicode="&#x143;" horiz-adv-x="1417" d="M651 1520l-57 182l582 217l59 -209zM49 0l303 1423h269l335 -913l195 913h287l-303 -1423h-267l-340 913l-192 -913h-287z" />
<glyph unicode="&#x144;" horiz-adv-x="1212" d="M483 1196l-57 182l582 217l59 -209zM31 0l233 1100h275l-27 -117q60 63 140 103t167 40q163 0 242.5 -112t38.5 -301l-152 -713h-280l139 649q21 97 -17 153t-116 56q-74 0 -139 -58.5t-86 -158.5l-138 -641h-280z" />
<glyph unicode="&#x145;" horiz-adv-x="1417" d="M49 0l303 1423h269l335 -913l195 913h287l-303 -1423h-267l-340 913l-192 -913h-287zM426 -606l-61 88q114 60 172 186q-24 -12 -50 -12q-61 0 -87 37t-15 88q12 52 58 91.5t114 39.5q84 0 116.5 -52t14.5 -134q-22 -99 -88.5 -188.5t-173.5 -143.5z" />
<glyph unicode="&#x146;" horiz-adv-x="1212" d="M31 0l233 1100h275l-27 -117q60 63 140 103t167 40q163 0 242.5 -112t38.5 -301l-152 -713h-280l139 649q21 97 -17 153t-116 56q-74 0 -139 -58.5t-86 -158.5l-138 -641h-280zM340 -606l-61 88q114 60 172 186q-24 -12 -50 -12q-61 0 -87 37t-15 88q12 52 58 91.5 t114 39.5q84 0 116.5 -52t14.5 -134q-22 -99 -88.5 -188.5t-173.5 -143.5z" />
<glyph unicode="&#x147;" horiz-adv-x="1417" d="M840 1563l-205 286l196 56l127 -168l201 168l172 -56l-325 -286h-166zM49 0l303 1423h269l335 -913l195 913h287l-303 -1423h-267l-340 913l-192 -913h-287z" />
<glyph unicode="&#x148;" horiz-adv-x="1212" d="M672 1239l-205 287l197 55l127 -168l200 168l172 -55l-325 -287h-166zM31 0l233 1100h275l-27 -117q60 63 140 103t167 40q163 0 242.5 -112t38.5 -301l-152 -713h-280l139 649q21 97 -17 153t-116 56q-74 0 -139 -58.5t-86 -158.5l-138 -641h-280z" />
<glyph unicode="&#x14a;" horiz-adv-x="1417" d="M571 -399l50 237q97 0 153.5 41t77.5 135l8 43l-330 861l-194 -918h-287l303 1423h269l333 -923l197 923h287l-299 -1403q-89 -419 -568 -419z" />
<glyph unicode="&#x14b;" horiz-adv-x="1146" d="M360 -399l52 237q103 0 158.5 47t82.5 170l125 594q22 101 -12.5 155t-103.5 54q-71 0 -131 -56t-82 -161l-138 -641h-280l233 1100h275l-27 -117q119 143 295 143q95 0 163 -46t99.5 -143.5t-2.5 -250.5l-133 -625q-27 -129 -79 -220t-127.5 -142.5t-164.5 -74.5 t-203 -23z" />
<glyph unicode="&#x14c;" horiz-adv-x="1349" d="M618 1595l44 203h557l-43 -203h-558zM551 -27q-205 0 -323.5 127.5t-118.5 364.5q0 122 23.5 242.5t67.5 230t111 203.5t148.5 162.5t186 107.5t218.5 39q212 0 329.5 -124.5t117.5 -360.5q0 -150 -33.5 -294.5t-99 -270t-156 -221.5t-212.5 -151t-259 -55zM604 225 q94 0 175 70t131.5 177.5t79 230t28.5 233.5q0 134 -55 198t-152 64q-95 0 -175.5 -70t-129.5 -178t-76 -228.5t-27 -229.5q0 -134 55 -200.5t146 -66.5z" />
<glyph unicode="&#x14d;" horiz-adv-x="1107" d="M426 1272l43 203h557l-43 -203h-557zM430 -27q-174 0 -273.5 99t-99.5 288q0 148 44 285.5t122 244.5t196 171.5t257 64.5q176 0 275.5 -98.5t99.5 -286.5q0 -149 -44 -287t-122.5 -245t-197 -171.5t-257.5 -64.5zM481 217q85 0 151.5 83t98 193.5t31.5 215.5 q0 85 -35 129.5t-102 44.5q-84 0 -150 -83t-97.5 -193.5t-31.5 -215.5q0 -85 34.5 -129.5t100.5 -44.5z" />
<glyph unicode="&#x14e;" horiz-adv-x="1349" d="M909 1552q-136 0 -206.5 81.5t-38.5 236.5h188q-14 -67 7 -103t67 -36q49 0 85.5 36t51.5 103h188q-36 -160 -124 -239t-218 -79zM551 -27q-205 0 -323.5 127.5t-118.5 364.5q0 122 23.5 242.5t67.5 230t111 203.5t148.5 162.5t186 107.5t218.5 39q212 0 329.5 -124.5 t117.5 -360.5q0 -150 -33.5 -294.5t-99 -270t-156 -221.5t-212.5 -151t-259 -55zM604 225q94 0 175 70t131.5 177.5t79 230t28.5 233.5q0 134 -55 198t-152 64q-95 0 -175.5 -70t-129.5 -178t-76 -228.5t-27 -229.5q0 -134 55 -200.5t146 -66.5z" />
<glyph unicode="&#x14f;" horiz-adv-x="1107" d="M717 1229q-136 0 -207 81t-39 236h188q-14 -67 7 -103t67 -36q49 0 85.5 36t51.5 103h189q-36 -160 -124 -238.5t-218 -78.5zM430 -27q-174 0 -273.5 99t-99.5 288q0 148 44 285.5t122 244.5t196 171.5t257 64.5q176 0 275.5 -98.5t99.5 -286.5q0 -149 -44 -287 t-122.5 -245t-197 -171.5t-257.5 -64.5zM481 217q85 0 151.5 83t98 193.5t31.5 215.5q0 85 -35 129.5t-102 44.5q-84 0 -150 -83t-97.5 -193.5t-31.5 -215.5q0 -85 34.5 -129.5t100.5 -44.5z" />
<glyph unicode="&#x150;" horiz-adv-x="1349" d="M647 1542l236 332h227l-254 -332h-209zM950 1542l250 332h240l-279 -332h-211zM551 -27q-205 0 -323.5 127.5t-118.5 364.5q0 122 23.5 242.5t67.5 230t111 203.5t148.5 162.5t186 107.5t218.5 39q212 0 329.5 -124.5t117.5 -360.5q0 -150 -33.5 -294.5t-99 -270 t-156 -221.5t-212.5 -151t-259 -55zM604 225q94 0 175 70t131.5 177.5t79 230t28.5 233.5q0 134 -55 198t-152 64q-95 0 -175.5 -70t-129.5 -178t-76 -228.5t-27 -229.5q0 -134 55 -200.5t146 -66.5z" />
<glyph unicode="&#x151;" horiz-adv-x="1107" d="M455 1219l235 331h228l-254 -331h-209zM758 1219l250 331h239l-278 -331h-211zM430 -27q-174 0 -273.5 99t-99.5 288q0 148 44 285.5t122 244.5t196 171.5t257 64.5q176 0 275.5 -98.5t99.5 -286.5q0 -149 -44 -287t-122.5 -245t-197 -171.5t-257.5 -64.5zM481 217 q85 0 151.5 83t98 193.5t31.5 215.5q0 85 -35 129.5t-102 44.5q-84 0 -150 -83t-97.5 -193.5t-31.5 -215.5q0 -85 34.5 -129.5t100.5 -44.5z" />
<glyph unicode="&#x152;" horiz-adv-x="1822" d="M575 -27q-215 0 -338.5 129.5t-123.5 370.5q0 158 33 303.5t98.5 268t156 213t212.5 141.5t261 51q125 0 199 -27h758l-53 -245h-559l-72 -344h485l-53 -246h-485l-72 -342h606l-51 -246h-807q-106 -27 -195 -27zM629 225q47 0 106 19l197 934q-36 20 -96 20 q-82 0 -153.5 -44t-120.5 -116t-85 -163.5t-52.5 -186t-16.5 -184.5q0 -140 61 -209.5t160 -69.5z" />
<glyph unicode="&#x153;" horiz-adv-x="1824" d="M1272 231q70 0 144 38.5t126 103.5l182 -162q-90 -120 -220.5 -179t-286.5 -59q-116 0 -214.5 49.5t-158.5 139.5q-168 -189 -414 -189q-174 0 -273.5 99t-99.5 288q0 148 44 285.5t122 244.5t196 171.5t257 64.5q233 0 323 -161q164 161 394 161q169 0 262.5 -80 t93.5 -194q0 -79 -45 -159.5t-124.5 -147t-203 -108.5t-266.5 -42h-37q12 -81 64.5 -122.5t134.5 -41.5zM481 217q85 0 151.5 83t98 193.5t31.5 215.5q0 85 -35 129.5t-102 44.5q-84 0 -150 -83t-97.5 -193.5t-31.5 -215.5q0 -85 34.5 -129.5t100.5 -44.5zM1364 883 q-93 0 -162 -73.5t-106 -186.5h14q86 0 156 19.5t110.5 49t62 61t21.5 60.5q0 31 -24.5 50.5t-71.5 19.5z" />
<glyph unicode="&#x154;" horiz-adv-x="1288" d="M1124 1710l-583 -190l-58 182l582 217zM1227 1083q0 -182 -86 -322.5t-242 -209.5l248 -551h-326l-211 496h-170l-104 -496h-287l303 1423h457q193 0 305.5 -84.5t112.5 -255.5zM586 1178l-92 -437h159q119 0 196 82t77 203q0 75 -45 113.5t-121 38.5h-174z" />
<glyph unicode="&#x155;" horiz-adv-x="921" d="M354 1196l-57 182l582 217l59 -209zM31 0l233 1100h281l-29 -131q57 75 133 115t160 40q122 0 195 -67l-162 -256q-54 57 -135 57q-88 0 -166.5 -76.5t-104.5 -197.5l-125 -584h-280z" />
<glyph unicode="&#x156;" horiz-adv-x="1288" d="M1227 1083q0 -182 -86 -322.5t-242 -209.5l248 -551h-326l-211 496h-170l-104 -496h-287l303 1423h457q193 0 305.5 -84.5t112.5 -255.5zM586 1178l-92 -437h159q119 0 196 82t77 203q0 75 -45 113.5t-121 38.5h-174zM565 -88q84 0 116.5 -52t14.5 -134 q-22 -99 -88.5 -188.5t-173.5 -143.5l-61 88q114 60 172 186q-24 -12 -49 -12q-61 0 -87.5 37t-15.5 88q12 52 58 91.5t114 39.5z" />
<glyph unicode="&#x157;" horiz-adv-x="921" d="M31 0l233 1100h281l-29 -131q57 75 133 115t160 40q122 0 195 -67l-162 -256q-54 57 -135 57q-88 0 -166.5 -76.5t-104.5 -197.5l-125 -584h-280zM10 -606l-61 88q114 60 172 186q-24 -12 -49 -12q-61 0 -87.5 37t-15.5 88q12 52 58 91.5t114 39.5q84 0 116.5 -52 t14.5 -134q-22 -99 -88.5 -188.5t-173.5 -143.5z" />
<glyph unicode="&#x158;" horiz-adv-x="1288" d="M895 1563h-166l-205 286l197 56l127 -168l201 168l172 -56zM1227 1083q0 -182 -86 -322.5t-242 -209.5l248 -551h-326l-211 496h-170l-104 -496h-287l303 1423h457q193 0 305.5 -84.5t112.5 -255.5zM586 1178l-92 -437h159q119 0 196 82t77 203q0 75 -45 113.5t-121 38.5 h-174z" />
<glyph unicode="&#x159;" horiz-adv-x="921" d="M543 1239l-205 287l197 55l127 -168l200 168l172 -55l-325 -287h-166zM31 0l233 1100h281l-29 -131q57 75 133 115t160 40q122 0 195 -67l-162 -256q-54 57 -135 57q-88 0 -166.5 -76.5t-104.5 -197.5l-125 -584h-280z" />
<glyph unicode="&#x15a;" horiz-adv-x="1150" d="M465 1520l-57 182l581 217l60 -209zM502 -27q-197 0 -329 92.5t-155 245.5l281 82q13 -75 76.5 -121.5t148.5 -46.5q91 0 149 47.5t58 120.5q0 43 -30 81.5t-78 69.5t-106.5 62.5t-116.5 68t-106 78t-78 101.5t-30 131q0 213 140.5 339t388.5 126q202 0 321.5 -93.5 t130.5 -236.5l-278 -80q-12 72 -64 115t-127 43q-84 0 -138 -48t-54 -122q0 -45 30 -83t78 -68t106 -59.5t115.5 -64.5t105.5 -76t78 -100.5t30 -130.5q0 -211 -151 -342t-396 -131z" />
<glyph unicode="&#x15b;" horiz-adv-x="997" d="M342 1196l-57 182l581 217l60 -209zM426 -27q-171 0 -287.5 73t-138.5 165l209 145q25 -65 82.5 -108t138.5 -43q65 0 106.5 31.5t41.5 85.5q0 33 -32.5 61.5t-81.5 49t-105.5 49.5t-105.5 61t-81.5 86t-32.5 121q0 171 122.5 273.5t311.5 102.5q164 0 276.5 -68.5 t137.5 -150.5l-211 -145q-23 55 -83.5 94t-131.5 39q-52 0 -88.5 -28.5t-36.5 -73.5q0 -35 32.5 -64.5t80.5 -50.5t105 -50t105 -60.5t80.5 -84t32.5 -118.5q0 -184 -123.5 -288t-322.5 -104z" />
<glyph unicode="&#x15c;" horiz-adv-x="1150" d="M532 1536l-143 82l326 317h196l191 -317l-178 -82l-154 199zM502 -27q-197 0 -329 92.5t-155 245.5l281 82q13 -75 76.5 -121.5t148.5 -46.5q91 0 149 47.5t58 120.5q0 43 -30 81.5t-78 69.5t-106.5 62.5t-116.5 68t-106 78t-78 101.5t-30 131q0 213 140.5 339t388.5 126 q202 0 321.5 -93.5t130.5 -236.5l-278 -80q-12 72 -64 115t-127 43q-84 0 -138 -48t-54 -122q0 -45 30 -83t78 -68t106 -59.5t115.5 -64.5t105.5 -76t78 -100.5t30 -130.5q0 -211 -151 -342t-396 -131z" />
<glyph unicode="&#x15d;" horiz-adv-x="997" d="M410 1212l-144 82l326 318h196l191 -318l-178 -82l-154 199zM426 -27q-171 0 -287.5 73t-138.5 165l209 145q25 -65 82.5 -108t138.5 -43q65 0 106.5 31.5t41.5 85.5q0 33 -32.5 61.5t-81.5 49t-105.5 49.5t-105.5 61t-81.5 86t-32.5 121q0 171 122.5 273.5t311.5 102.5 q164 0 276.5 -68.5t137.5 -150.5l-211 -145q-23 55 -83.5 94t-131.5 39q-52 0 -88.5 -28.5t-36.5 -73.5q0 -35 32.5 -64.5t80.5 -50.5t105 -50t105 -60.5t80.5 -84t32.5 -118.5q0 -184 -123.5 -288t-322.5 -104z" />
<glyph unicode="&#x15e;" horiz-adv-x="1150" d="M506 1028q0 -45 30 -83t78 -68t106 -59.5t115.5 -64.5t105.5 -76t78 -100.5t30 -130.5q0 -205 -144 -335t-379 -138l-69 -67q36 8 51 8q79 0 116 -48t23 -114q-13 -73 -90 -125.5t-205 -52.5q-113 0 -184 51l68 105q54 -41 124 -41q34 0 56.5 16.5t27.5 38.5 q5 23 -8.5 39t-44.5 16q-36 0 -67 -22l-93 49l140 160q-147 28 -240.5 114t-112.5 211l281 82q13 -75 76.5 -121.5t148.5 -46.5q91 0 149 47.5t58 120.5q0 43 -30 81.5t-78 69.5t-106.5 62.5t-116.5 68t-106 78t-78 101.5t-30 131q0 213 140.5 339t388.5 126 q202 0 321.5 -93.5t130.5 -236.5l-278 -80q-12 72 -64 115t-127 43q-84 0 -138 -48t-54 -122z" />
<glyph unicode="&#x15f;" horiz-adv-x="997" d="M436 793q0 -35 32.5 -64.5t80.5 -50.5t105 -50t105 -60.5t80.5 -84t32.5 -118.5q0 -162 -97 -262.5t-261 -122.5l-76 -74q36 8 51 8q79 0 116.5 -48t23.5 -114q-13 -73 -90 -125.5t-205 -52.5q-113 0 -184 51l67 105q54 -41 125 -41q34 0 56.5 16.5t27.5 38.5 q5 23 -8.5 39t-44.5 16q-37 0 -68 -22l-92 49l133 151q-141 18 -233.5 86t-112.5 148l209 145q25 -65 82.5 -108t138.5 -43q65 0 106.5 31.5t41.5 85.5q0 33 -32.5 61.5t-81.5 49t-105.5 49.5t-105.5 61t-81.5 86t-32.5 121q0 171 122.5 273.5t311.5 102.5 q164 0 276.5 -68.5t137.5 -150.5l-211 -145q-23 55 -83.5 94t-131.5 39q-52 0 -88.5 -28.5t-36.5 -73.5z" />
<glyph unicode="&#x160;" horiz-adv-x="1150" d="M653 1563l-204 286l196 56l127 -168l201 168l172 -56l-326 -286h-166zM502 -27q-197 0 -329 92.5t-155 245.5l281 82q13 -75 76.5 -121.5t148.5 -46.5q91 0 149 47.5t58 120.5q0 43 -30 81.5t-78 69.5t-106.5 62.5t-116.5 68t-106 78t-78 101.5t-30 131q0 213 140.5 339 t388.5 126q202 0 321.5 -93.5t130.5 -236.5l-278 -80q-12 72 -64 115t-127 43q-84 0 -138 -48t-54 -122q0 -45 30 -83t78 -68t106 -59.5t115.5 -64.5t105.5 -76t78 -100.5t30 -130.5q0 -211 -151 -342t-396 -131z" />
<glyph unicode="&#x161;" horiz-adv-x="997" d="M530 1239l-204 287l196 55l127 -168l201 168l172 -55l-326 -287h-166zM426 -27q-171 0 -287.5 73t-138.5 165l209 145q25 -65 82.5 -108t138.5 -43q65 0 106.5 31.5t41.5 85.5q0 33 -32.5 61.5t-81.5 49t-105.5 49.5t-105.5 61t-81.5 86t-32.5 121q0 171 122.5 273.5 t311.5 102.5q164 0 276.5 -68.5t137.5 -150.5l-211 -145q-23 55 -83.5 94t-131.5 39q-52 0 -88.5 -28.5t-36.5 -73.5q0 -35 32.5 -64.5t80.5 -50.5t105 -50t105 -60.5t80.5 -84t32.5 -118.5q0 -184 -123.5 -288t-322.5 -104z" />
<glyph unicode="&#x162;" horiz-adv-x="1183" d="M238 1423h1073l-54 -245h-393l-250 -1178h-53l-96 -94q36 8 51 8q79 0 116 -48t23 -114q-13 -73 -90 -125.5t-205 -52.5q-113 0 -184 51l68 105q54 -41 125 -41q34 0 56.5 16.5t27.5 38.5q5 23 -9 39t-45 16q-36 0 -67 -22l-92 49l151 174h-63l250 1178h-394z" />
<glyph unicode="&#x163;" horiz-adv-x="854" d="M565 850l-100 -467q-15 -73 7.5 -105t80.5 -32q61 0 154 37l-39 -267q-119 -40 -211 -43l-70 -67q36 8 51 8q79 0 116.5 -48t23.5 -114q-13 -73 -90 -125.5t-205 -52.5q-114 0 -185 51l68 105q54 -41 125 -41q34 0 56.5 16.5t27.5 38.5q5 23 -8.5 39t-44.5 16 q-37 0 -68 -22l-92 49l147 170q-90 33 -127 117t-8 213l111 524h-183l54 250h182l63 297l291 51l-74 -348h267l-54 -250h-266z" />
<glyph unicode="&#x164;" horiz-adv-x="1183" d="M725 1563l-205 286l197 56l127 -168l200 168l173 -56l-326 -286h-166zM328 0l250 1178h-394l54 245h1073l-54 -245h-393l-250 -1178h-286z" />
<glyph unicode="&#x165;" horiz-adv-x="854" d="M696 1159l115 377h229l-149 -377h-195zM449 -27q-160 0 -236 90t-39 263l111 524h-183l54 250h182l63 297l291 51l-74 -348h267l-54 -250h-266l-100 -467q-15 -73 7.5 -105t80.5 -32q61 0 154 37l-39 -267q-121 -43 -219 -43z" />
<glyph unicode="&#x166;" horiz-adv-x="1183" d="M1257 1178h-393l-80 -379h181l-47 -221h-181l-123 -578h-286l123 578h-181l47 221h181l80 379h-394l54 245h1073z" />
<glyph unicode="&#x167;" horiz-adv-x="854" d="M831 850h-266l-37 -168h164l-41 -193h-164l-22 -106q-15 -73 7.5 -105t80.5 -32q61 0 154 37l-39 -267q-121 -43 -219 -43q-160 0 -236 90t-39 263l35 163h-117l41 193h117l35 168h-183l54 250h182l63 297l291 51l-74 -348h267z" />
<glyph unicode="&#x168;" horiz-adv-x="1339" d="M721 1550l-174 43q38 110 104 172t152 62q47 0 128 -14.5t103 -14.5q38 0 56.5 27.5t27.5 75.5l176 -41q-37 -120 -111.5 -186t-176.5 -66q-43 0 -111.5 14t-89.5 14q-66 0 -84 -86zM551 -27q-107 0 -190.5 32t-142 100t-74 174t13.5 253l190 891h287l-193 -895 q-28 -140 10.5 -221.5t151.5 -81.5q221 0 281 303l192 895h287l-190 -895q-30 -144 -90 -252t-143 -173.5t-180.5 -97.5t-209.5 -32z" />
<glyph unicode="&#x169;" horiz-adv-x="1122" d="M528 1227l-174 43q38 109 104 171t152 62q47 0 128.5 -14t103.5 -14q38 0 56.5 27t27.5 75l176 -41q-37 -120 -112 -186t-177 -66q-43 0 -111.5 14.5t-89.5 14.5q-66 0 -84 -86zM332 -27q-152 0 -232 105.5t-45 271.5l160 750h279l-148 -699q-18 -85 15 -132.5t100 -47.5 q72 0 138.5 59t88.5 158l139 662h281l-160 -758q-42 -189 -35 -342h-274q-8 40 2 117q-55 -63 -140.5 -103.5t-168.5 -40.5z" />
<glyph unicode="&#x16a;" horiz-adv-x="1339" d="M612 1595l43 203h557l-43 -203h-557zM551 -27q-107 0 -190.5 32t-142 100t-74 174t13.5 253l190 891h287l-193 -895q-28 -140 10.5 -221.5t151.5 -81.5q221 0 281 303l192 895h287l-190 -895q-30 -144 -90 -252t-143 -173.5t-180.5 -97.5t-209.5 -32z" />
<glyph unicode="&#x16b;" horiz-adv-x="1122" d="M420 1272l43 203h557l-43 -203h-557zM332 -27q-152 0 -232 105.5t-45 271.5l160 750h279l-148 -699q-18 -85 15 -132.5t100 -47.5q72 0 138.5 59t88.5 158l139 662h281l-160 -758q-42 -189 -35 -342h-274q-8 40 2 117q-55 -63 -140.5 -103.5t-168.5 -40.5z" />
<glyph unicode="&#x16c;" horiz-adv-x="1339" d="M903 1552q-136 0 -207 81.5t-39 236.5h189q-14 -67 7 -103t67 -36q49 0 85.5 36t51.5 103h188q-36 -160 -124 -239t-218 -79zM551 -27q-107 0 -190.5 32t-142 100t-74 174t13.5 253l190 891h287l-193 -895q-28 -140 10.5 -221.5t151.5 -81.5q221 0 281 303l192 895h287 l-190 -895q-30 -144 -90 -252t-143 -173.5t-180.5 -97.5t-209.5 -32z" />
<glyph unicode="&#x16d;" horiz-adv-x="1122" d="M711 1229q-136 0 -207 81t-39 236h188q-14 -67 7 -103t67 -36q49 0 85.5 36t51.5 103h189q-36 -160 -124 -238.5t-218 -78.5zM332 -27q-152 0 -232 105.5t-45 271.5l160 750h279l-148 -699q-18 -85 15 -132.5t100 -47.5q72 0 138.5 59t88.5 158l139 662h281l-160 -758 q-42 -189 -35 -342h-274q-8 40 2 117q-55 -63 -140.5 -103.5t-168.5 -40.5z" />
<glyph unicode="&#x16e;" horiz-adv-x="1339" d="M881 1544q-92 0 -136.5 57t-25.5 148t88.5 148t161.5 57t138.5 -57t27.5 -148q-19 -90 -90 -147.5t-164 -57.5zM907 1667q34 0 60 23t32 59q9 37 -7 59.5t-50 22.5q-32 0 -57.5 -22.5t-32.5 -59.5q-8 -37 7.5 -59.5t47.5 -22.5zM551 -27q-107 0 -190.5 32t-142 100 t-74 174t13.5 253l190 891h287l-193 -895q-28 -140 10.5 -221.5t151.5 -81.5q221 0 281 303l192 895h287l-190 -895q-30 -144 -90 -252t-143 -173.5t-180.5 -97.5t-209.5 -32z" />
<glyph unicode="&#x16f;" horiz-adv-x="1122" d="M688 1221q-92 0 -136.5 56.5t-25.5 147.5t88.5 148t161.5 57t138.5 -57t27.5 -148q-19 -90 -90 -147t-164 -57zM715 1343q34 0 60 23t32 59q9 37 -7 59.5t-50 22.5q-32 0 -58 -23t-33 -59q-7 -37 8.5 -59.5t47.5 -22.5zM332 -27q-152 0 -232 105.5t-45 271.5l160 750h279 l-148 -699q-18 -85 15 -132.5t100 -47.5q72 0 138.5 59t88.5 158l139 662h281l-160 -758q-42 -189 -35 -342h-274q-8 40 2 117q-55 -63 -140.5 -103.5t-168.5 -40.5z" />
<glyph unicode="&#x170;" horiz-adv-x="1339" d="M641 1542l236 332h227l-254 -332h-209zM944 1542l250 332h240l-279 -332h-211zM551 -27q-107 0 -190.5 32t-142 100t-74 174t13.5 253l190 891h287l-193 -895q-28 -140 10.5 -221.5t151.5 -81.5q221 0 281 303l192 895h287l-190 -895q-30 -144 -90 -252t-143 -173.5 t-180.5 -97.5t-209.5 -32z" />
<glyph unicode="&#x171;" horiz-adv-x="1122" d="M449 1219l235 331h227l-254 -331h-208zM752 1219l249 331h240l-278 -331h-211zM332 -27q-152 0 -232 105.5t-45 271.5l160 750h279l-148 -699q-18 -85 15 -132.5t100 -47.5q72 0 138.5 59t88.5 158l139 662h281l-160 -758q-42 -189 -35 -342h-274q-8 40 2 117 q-55 -63 -140.5 -103.5t-168.5 -40.5z" />
<glyph unicode="&#x172;" horiz-adv-x="1339" d="M1077 1423h287l-190 -895q-55 -262 -203 -398.5t-357 -154.5q-48 -52 -59 -98q-8 -41 12 -67t68 -29l-80 -180q-121 3 -174 65.5t-33 155.5q19 89 92 162q-84 16 -146 55.5t-103.5 107t-49.5 163t17 222.5l190 891h287l-193 -895q-28 -140 10.5 -221.5t151.5 -81.5 q221 0 281 303z" />
<glyph unicode="&#x173;" horiz-adv-x="1122" d="M1108 1100l-160 -758q-42 -189 -35 -342h-90q-73 -62 -86 -123q-8 -41 12 -67t68 -29l-80 -180q-121 3 -174 65.5t-33 155.5q20 96 109 178q-8 40 2 117q-55 -63 -140.5 -103.5t-168.5 -40.5q-152 0 -232 105.5t-45 271.5l160 750h279l-148 -699q-18 -85 15 -132.5 t100 -47.5q72 0 138.5 59t88.5 158l139 662h281z" />
<glyph unicode="&#x174;" horiz-adv-x="2017" d="M1028 1536l-143 82l325 317h197l190 -317l-178 -82l-153 199zM313 0l-71 1423h313l16 -1083l439 1083h370l-22 -1083l477 1083h311l-676 -1423h-362l10 1055l-444 -1055h-361z" />
<glyph unicode="&#x175;" horiz-adv-x="1742" d="M815 1212l-143 82l325 318h197l190 -318l-178 -82l-153 199zM244 0l-56 1100h273l12 -783l367 783h297l30 -783l346 783h275l-524 -1100h-306l-40 766l-369 -766h-305z" />
<glyph unicode="&#x176;" horiz-adv-x="1273" d="M651 1536l-143 82l326 317h196l191 -317l-179 -82l-153 199zM377 0l106 502l-266 921h324l151 -620l416 620h322l-660 -921l-106 -502h-287z" />
<glyph unicode="&#x177;" horiz-adv-x="1138" d="M498 1212l-144 82l326 318h197l190 -318l-178 -82l-154 199zM350 -426q-150 0 -256 78t-137 203l221 106q15 -68 65.5 -109.5t125.5 -41.5t141 55t88 153l27 125q-132 -125 -285 -125q-149 0 -231 101.5t-48 261.5l154 719h279l-138 -656q-20 -86 14 -133t103 -47 q72 0 135.5 55t85.5 152l133 629h281l-225 -1055q-50 -237 -186 -354t-347 -117z" />
<glyph unicode="&#x178;" horiz-adv-x="1273" d="M655 1577q-47 0 -80.5 30.5t-33.5 80.5q0 68 49.5 117.5t122.5 49.5q50 0 83 -27t33 -77q0 -70 -50 -122t-124 -52zM1053 1577q-47 0 -80 30.5t-33 80.5q0 68 48.5 117.5t123.5 49.5q50 0 82.5 -27t32.5 -77q0 -70 -50 -122t-124 -52zM377 0l106 502l-266 921h324 l151 -620l416 620h322l-660 -921l-106 -502h-287z" />
<glyph unicode="&#x179;" horiz-adv-x="1191" d="M575 1520l-57 182l582 217l59 -209zM-18 0l45 219l835 959h-616l53 245h965l-47 -217l-850 -960h661l-51 -246h-995z" />
<glyph unicode="&#x17a;" horiz-adv-x="1148" d="M451 1196l-58 182l582 217l59 -209zM29 0l47 227l618 621h-477l53 252h826l-45 -209l-623 -639h512l-53 -252h-858z" />
<glyph unicode="&#x17b;" horiz-adv-x="1191" d="M846 1577q-61 0 -96 39t-21 108q16 71 68.5 111.5t111.5 40.5q63 0 99 -40.5t20 -111.5q-14 -69 -67 -108t-115 -39zM-18 0l45 219l835 959h-616l53 245h965l-47 -217l-850 -960h661l-51 -246h-995z" />
<glyph unicode="&#x17c;" horiz-adv-x="1148" d="M721 1253q-52 0 -83 35.5t-20 95.5q14 62 59.5 97t98.5 35q54 0 86 -35.5t19 -96.5q-13 -60 -59.5 -95.5t-100.5 -35.5zM29 0l47 227l618 621h-477l53 252h826l-45 -209l-623 -639h512l-53 -252h-858z" />
<glyph unicode="&#x17d;" horiz-adv-x="1191" d="M764 1563l-205 286l197 56l127 -168l200 168l172 -56l-325 -286h-166zM-18 0l45 219l835 959h-616l53 245h965l-47 -217l-850 -960h661l-51 -246h-995z" />
<glyph unicode="&#x17e;" horiz-adv-x="1148" d="M639 1239l-205 287l197 55l127 -168l200 168l172 -55l-325 -287h-166zM29 0l47 227l618 621h-477l53 252h826l-45 -209l-623 -639h512l-53 -252h-858z" />
<glyph unicode="&#x18f;" horiz-adv-x="1347" d="M707 1450q90 0 175 -22t160 -68t131 -111.5t88.5 -159.5t32.5 -206q0 -188 -57 -354.5t-158.5 -289.5t-251.5 -194.5t-327 -71.5q-216 0 -337.5 112.5t-121.5 291.5q0 159 91.5 290.5t250 206t348.5 74.5q135 0 268 -43q-14 142 -104 217.5t-215 75.5q-89 0 -175.5 -38.5 t-150.5 -108.5l-143 188q92 102 223.5 156.5t272.5 54.5zM549 225q155 0 275.5 127.5t160.5 331.5q-133 37 -240 37q-80 0 -148.5 -18.5t-116 -49.5t-81 -71.5t-49.5 -83.5t-16 -86q0 -82 56 -134.5t159 -52.5z" />
<glyph unicode="&#x192;" horiz-adv-x="909" d="M123 -27q-105 0 -207 54l104 215q42 -29 93 -29q123 0 155 154l64 295h-217l35 161h217l51 240q40 190 158 289.5t274 99.5q112 0 209 -57l-103 -215q-40 32 -98 32q-120 0 -153 -153l-52 -236h215l-34 -161h-213l-66 -300q-39 -186 -156.5 -287.5t-275.5 -101.5z" />
<glyph unicode="&#x19d;" horiz-adv-x="1417" d="M-229 -399l51 237q99 0 155.5 45t81.5 158l293 1382h269l335 -913l195 913h287l-303 -1423h-267l-340 913l-182 -866q-26 -124 -79 -212t-129 -138.5t-165.5 -73t-201.5 -22.5z" />
<glyph unicode="&#x1e6;" horiz-adv-x="1380" d="M842 1563l-205 286l197 56l127 -168l200 168l172 -56l-325 -286h-166zM1350 1102l-281 -76q-14 81 -67.5 126.5t-147.5 45.5q-91 0 -171.5 -55t-136.5 -144t-92 -196t-46 -215q-21 -169 44.5 -266t188.5 -97q158 0 266 99l47 221h-288l51 246h575l-131 -623 q-119 -93 -269.5 -144t-305.5 -51q-236 0 -364.5 157.5t-106.5 426.5q12 180 75 342.5t164 284.5t243.5 194t303.5 72q206 0 320.5 -93.5t128.5 -254.5z" />
<glyph unicode="&#x1e7;" horiz-adv-x="1173" d="M639 1257l-205 287l197 55l127 -167l200 167l172 -55l-325 -287h-166zM360 -426q-152 0 -265.5 73t-155.5 208l235 106q15 -63 66.5 -107t130.5 -44q104 0 180.5 58.5t101.5 176.5l25 123q-45 -60 -121.5 -105t-169.5 -45q-152 0 -229.5 102.5t-77.5 270.5 q0 142 38.5 275t106 235t167 163.5t214.5 61.5q96 0 162 -52t82 -103l27 129h280l-221 -1041q-51 -238 -197 -361.5t-379 -123.5zM508 242q59 0 112.5 48t88 122t55 158.5t20.5 160.5q0 83 -36.5 127.5t-100.5 44.5q-63 0 -117 -48t-88.5 -121.5t-53.5 -157t-19 -160.5 q0 -86 35.5 -130t103.5 -44z" />
<glyph unicode="&#x1ea;" horiz-adv-x="1349" d="M651 -18q-40 -47 -51 -91q-8 -41 12 -67t68 -29l-80 -180q-121 3 -174 65.5t-33 155.5q14 72 76 144q-169 25 -264.5 149.5t-95.5 335.5q0 122 23.5 242.5t67.5 230t111 203.5t148.5 162.5t186 107.5t218.5 39q212 0 329.5 -124.5t117.5 -360.5q0 -174 -46 -339.5 t-129 -301t-209 -227.5t-276 -115zM811 1198q-95 0 -175.5 -70t-129.5 -178t-76 -228.5t-27 -229.5q0 -134 55 -200.5t146 -66.5q94 0 175 70t131.5 177.5t79 230t28.5 233.5q0 134 -55 198t-152 64z" />
<glyph unicode="&#x1eb;" horiz-adv-x="1107" d="M487 -25q-36 -40 -45 -81q-8 -41 12 -67.5t68 -29.5l-80 -180q-121 3 -173.5 65.5t-32.5 155.5q18 81 79 148q-123 30 -190.5 124.5t-67.5 249.5q0 148 44 285.5t122 244.5t196 171.5t257 64.5q176 0 275.5 -98.5t99.5 -286.5q0 -112 -24.5 -219.5t-73.5 -201.5 t-116 -167t-157 -120t-193 -58zM625 883q-84 0 -150 -83t-97.5 -193.5t-31.5 -215.5q0 -85 34.5 -129.5t100.5 -44.5q85 0 151.5 83t98 193.5t31.5 215.5q0 85 -35 129.5t-102 44.5z" />
<glyph unicode="&#x1fa;" horiz-adv-x="1259" d="M1245 2140l-583 -190l-58 182l582 217zM666 1749q19 91 88 148t161 57t138.5 -57t27.5 -148q-19 -90 -90 -147.5t-164 -57.5q-92 0 -136 57t-25 148zM946 1749q9 37 -7 59.5t-50 22.5q-32 0 -57.5 -22.5t-32.5 -59.5q-8 -37 7.5 -59.5t47.5 -22.5q34 0 60 23t32 59z M635 1423h364l111 -1423h-309l-17 281h-440l-133 -281h-295zM459 526h313l-33 592z" />
<glyph unicode="&#x1fb;" horiz-adv-x="1163" d="M578 1626l-58 182l582 217l59 -208zM743 1221q-92 0 -136 56.5t-25 147.5t88 148t161 57t138.5 -57t27.5 -148q-19 -90 -90 -147t-164 -57zM770 1343q34 0 60 23t32 59q9 37 -7 59.5t-50 22.5q-32 0 -57.5 -22.5t-32.5 -59.5q-8 -37 7.5 -59.5t47.5 -22.5zM365 -27 q-141 0 -222.5 98t-81.5 277q0 213 64 389t187.5 282.5t283.5 106.5q93 0 159.5 -51t80.5 -108l28 133h281l-162 -768q-35 -158 -35 -256q0 -42 6 -76h-297q-4 46 -4 57q0 25 9 84q-41 -70 -119.5 -119t-177.5 -49zM489 217q84 0 150 83t97.5 193.5t31.5 215.5 q0 174 -137 174q-64 0 -118.5 -48.5t-88.5 -123t-53 -158.5t-19 -160q0 -176 137 -176z" />
<glyph unicode="&#x1fc;" horiz-adv-x="1873" d="M1692 1710l-584 -190l-57 182l581 217zM1270 1178l-41 -199l-31 -145h485l-55 -246h-483l-15 -72l-57 -270h606l-53 -246h-893l66 307h-379l-201 -307h-301l969 1423h995l-53 -245h-559zM580 553h270l131 614z" />
<glyph unicode="&#x1fd;" horiz-adv-x="1921" d="M1333 1386l-583 -190l-58 182l582 217zM1368 231q70 0 144.5 38.5t127.5 103.5l181 -162q-88 -119 -220 -178.5t-288 -59.5q-113 0 -209.5 46.5t-157.5 132.5l-31 -152h-280l35 154q-41 -77 -122.5 -129t-182.5 -52q-141 0 -222.5 98t-81.5 277q0 213 64 389t187.5 282.5 t283.5 106.5q93 0 159.5 -51t80.5 -108l28 133h281l-23 -111q159 137 367 137q169 0 262.5 -80t93.5 -194q0 -79 -45 -159.5t-124.5 -147t-203 -108.5t-266.5 -42h-37q12 -81 64.5 -122.5t134.5 -41.5zM489 217q84 0 150 83t97.5 193.5t31.5 215.5q0 174 -137 174 q-64 0 -118.5 -48.5t-88.5 -123t-53 -158.5t-19 -160q0 -176 137 -176zM1460 883q-93 0 -162 -73.5t-106 -186.5h14q86 0 156 19.5t110.5 49t62 61t21.5 60.5q0 31 -24.5 50.5t-71.5 19.5z" />
<glyph unicode="&#x1fe;" horiz-adv-x="1349" d="M1206 1710l-583 -190l-58 182l582 217zM1198 1321q113 -125 113 -356q0 -150 -33.5 -294.5t-99 -270t-156 -221.5t-212.5 -151t-259 -55q-87 0 -164 25l-94 -152l-176 60l116 188q-124 130 -124 371q0 122 23.5 242.5t67.5 230t111 203.5t148.5 162.5t186 107.5t218.5 39 q96 0 185 -29l71 117l174 -59zM403 492q0 -46 11 -103l487 793q-43 16 -90 16q-95 0 -175.5 -70t-129.5 -178t-76 -228.5t-27 -229.5zM604 225q94 0 175 70t131.5 177.5t79 230t28.5 233.5q0 44 -6 82l-480 -780q37 -13 72 -13z" />
<glyph unicode="&#x1ff;" horiz-adv-x="1107" d="M997 1386l-583 -190l-58 182l582 217zM1065 1151l-100 -139q86 -99 86 -271q0 -149 -44 -287t-122.5 -245t-197 -171.5t-257.5 -64.5q-108 0 -186 37l-86 -119l-117 78l92 129q-76 98 -76 262q0 148 44 285.5t122 244.5t196 171.5t257 64.5q108 0 176 -32l98 135z M625 883q-84 0 -150 -83t-97.5 -193.5t-31.5 -215.5l344 477q-27 15 -65 15zM762 709v20l-354 -491q27 -21 73 -21q85 0 151.5 83t98 193.5t31.5 215.5z" />
<glyph unicode="&#x218;" horiz-adv-x="1150" d="M502 -27q-197 0 -329 92.5t-155 245.5l281 82q13 -75 76.5 -121.5t148.5 -46.5q91 0 149 47.5t58 120.5q0 43 -30 81.5t-78 69.5t-106.5 62.5t-116.5 68t-106 78t-78 101.5t-30 131q0 213 140.5 339t388.5 126q202 0 321.5 -93.5t130.5 -236.5l-278 -80q-12 72 -64 115 t-127 43q-84 0 -138 -48t-54 -122q0 -45 30 -83t78 -68t106 -59.5t115.5 -64.5t105.5 -76t78 -100.5t30 -130.5q0 -211 -151 -342t-396 -131zM289 -606l-62 88q114 60 172 186q-24 -12 -49 -12q-61 0 -87 37t-15 88q12 52 58 91.5t114 39.5q84 0 116.5 -52t14.5 -134 q-22 -99 -88.5 -188.5t-173.5 -143.5z" />
<glyph unicode="&#x219;" horiz-adv-x="997" d="M426 -27q-171 0 -287.5 73t-138.5 165l209 145q25 -65 82.5 -108t138.5 -43q65 0 106.5 31.5t41.5 85.5q0 33 -32.5 61.5t-81.5 49t-105.5 49.5t-105.5 61t-81.5 86t-32.5 121q0 171 122.5 273.5t311.5 102.5q164 0 276.5 -68.5t137.5 -150.5l-211 -145q-23 55 -83.5 94 t-131.5 39q-52 0 -88.5 -28.5t-36.5 -73.5q0 -35 32.5 -64.5t80.5 -50.5t105 -50t105 -60.5t80.5 -84t32.5 -118.5q0 -184 -123.5 -288t-322.5 -104zM270 -606l-61 88q114 60 172 186q-24 -12 -49 -12q-61 0 -87.5 37t-15.5 88q12 52 58 91.5t114 39.5q84 0 116.5 -52 t14.5 -134q-22 -99 -88.5 -188.5t-173.5 -143.5z" />
<glyph unicode="&#x21a;" horiz-adv-x="1183" d="M328 0l250 1178h-394l54 245h1073l-54 -245h-393l-250 -1178h-286zM297 -606l-61 88q114 60 172 186q-24 -12 -50 -12q-61 0 -87 37t-15 88q12 52 58 91.5t114 39.5q84 0 116.5 -52t14.5 -134q-22 -99 -88.5 -188.5t-173.5 -143.5z" />
<glyph unicode="&#x21b;" horiz-adv-x="854" d="M449 -27q-160 0 -236 90t-39 263l111 524h-183l54 250h182l63 297l291 51l-74 -348h267l-54 -250h-266l-100 -467q-15 -73 7.5 -105t80.5 -32q61 0 154 37l-39 -267q-121 -43 -219 -43zM219 -606l-61 88q114 60 172 186q-24 -12 -49 -12q-61 0 -87.5 37t-15.5 88 q12 52 58 91.5t114 39.5q84 0 116.5 -52t14.5 -134q-22 -99 -88.5 -188.5t-173.5 -143.5z" />
<glyph unicode="&#x232;" horiz-adv-x="1273" d="M580 1595l43 203h557l-43 -203h-557zM377 0l106 502l-266 921h324l151 -620l416 620h322l-660 -921l-106 -502h-287z" />
<glyph unicode="&#x233;" horiz-adv-x="1138" d="M426 1272l43 203h557l-43 -203h-557zM350 -426q-150 0 -256 78t-137 203l221 106q15 -68 65.5 -109.5t125.5 -41.5t141 55t88 153l27 125q-132 -125 -285 -125q-149 0 -231 101.5t-48 261.5l154 719h279l-138 -656q-20 -86 14 -133t103 -47q72 0 135.5 55t85.5 152 l133 629h281l-225 -1055q-50 -237 -186 -354t-347 -117z" />
<glyph unicode="&#x237;" horiz-adv-x="538" d="M-268 -426l51 238q99 0 154.5 44.5t80.5 157.5l230 1086h280l-229 -1080q-21 -100 -59 -176t-88.5 -127t-117 -83t-140 -46t-162.5 -14z" />
<glyph unicode="&#x259;" horiz-adv-x="1107" d="M602 1126q185 0 312.5 -117t127.5 -313q0 -202 -81.5 -368t-222.5 -260.5t-312 -94.5q-169 0 -262.5 80.5t-93.5 194.5q0 79 45 159.5t124.5 147t203 108.5t266.5 42h36q-12 81 -64 122t-134 41q-70 0 -144.5 -38t-126.5 -103l-182 162q90 119 221 178t287 59zM455 217 q93 0 162 73.5t106 186.5h-14q-86 0 -156 -19.5t-111 -49t-62.5 -61t-21.5 -60.5q0 -31 25 -50.5t72 -19.5z" />
<glyph unicode="&#x272;" horiz-adv-x="1153" d="M-262 -399l51 237q86 0 139.5 47t77.5 156l225 1059h275l-27 -117q119 143 293 143q95 0 163.5 -46t100.5 -143.5t-2 -250.5l-145 -686h-281l137 649q22 101 -12.5 155t-103.5 54q-71 0 -131 -56t-82 -161l-129 -594q-92 -446 -549 -446z" />
<glyph unicode="&#x2c6;" horiz-adv-x="1183" d="M481 1212l-143 82l326 318h196l191 -318l-179 -82l-153 199z" />
<glyph unicode="&#x2c7;" horiz-adv-x="1183" d="M600 1239l-205 287l197 55l127 -168l201 168l172 -55l-326 -287h-166z" />
<glyph unicode="&#x2d8;" horiz-adv-x="1183" d="M700 1229q-136 0 -206.5 81t-38.5 236h188q-14 -67 7 -103t67 -36q49 0 85.5 36t51.5 103h188q-36 -160 -124 -238.5t-218 -78.5z" />
<glyph unicode="&#x2d9;" horiz-adv-x="1183" d="M682 1245q-64 0 -101.5 43t-23.5 117q16 74 72.5 116t120.5 42q67 0 105 -42t22 -116q-17 -75 -72.5 -117.5t-122.5 -42.5z" />
<glyph unicode="&#x2da;" horiz-adv-x="1183" d="M678 1221q-92 0 -136.5 56.5t-25.5 147.5t88.5 148t161.5 57t138.5 -57t27.5 -148q-19 -90 -90 -147t-164 -57zM705 1343q34 0 60 23t32 59q9 36 -7.5 59t-50.5 23q-32 0 -57.5 -22.5t-32.5 -59.5t8.5 -59.5t47.5 -22.5z" />
<glyph unicode="&#x2db;" horiz-adv-x="1183" d="M453 -399q-121 3 -174 65.5t-33 155.5q21 98 108 178h185q-73 -62 -86 -123q-8 -41 11.5 -67t67.5 -29z" />
<glyph unicode="&#x2dc;" horiz-adv-x="1183" d="M518 1227l-174 43q38 109 104 171t152 62q47 0 128 -14t103 -14q38 0 56.5 27t27.5 75l177 -41q-37 -120 -112 -186t-177 -66q-43 0 -111.5 14.5t-89.5 14.5q-66 0 -84 -86z" />
<glyph unicode="&#x2dd;" horiz-adv-x="1183" d="M317 1219l236 331h227l-254 -331h-209zM621 1219l249 331h240l-279 -331h-210z" />
<glyph unicode="&#x300;" d="M-131 1200l-557 172l88 203l545 -197z" />
<glyph unicode="&#x301;" d="M-635 1196l-57 182l581 217l60 -209z" />
<glyph unicode="&#x302;" d="M-590 1212l-143 82l325 318h197l191 -318l-179 -82l-153 199z" />
<glyph unicode="&#x303;" d="M-555 1227l-174 43q38 109 104 171t152 62q47 0 128 -14t103 -14q38 0 56.5 27t27.5 75l176 -41q-37 -120 -111.5 -186t-176.5 -66q-43 0 -111.5 14.5t-89.5 14.5q-66 0 -84 -86z" />
<glyph unicode="&#x304;" d="M-662 1272l44 203h557l-43 -203h-558z" />
<glyph unicode="&#x306;" d="M-373 1229q-136 0 -206.5 81t-38.5 236h188q-14 -67 7 -103t67 -36q49 0 85.5 36t51.5 103h188q-36 -160 -124 -238.5t-218 -78.5z" />
<glyph unicode="&#x307;" d="M-391 1245q-64 0 -101.5 43t-23.5 117q16 74 72 116t120 42q67 0 105 -42t22 -116q-17 -75 -72 -117.5t-122 -42.5z" />
<glyph unicode="&#x308;" d="M-584 1253q-47 0 -80.5 30.5t-33.5 80.5q0 68 49.5 118t122.5 50q50 0 83 -27.5t33 -77.5q0 -70 -50 -122t-124 -52zM-186 1253q-47 0 -80 30.5t-33 80.5q0 68 49 118t123 50q50 0 82.5 -27.5t32.5 -77.5q0 -70 -50 -122t-124 -52z" />
<glyph unicode="&#x30a;" d="M-397 1221q-92 0 -136.5 56.5t-25.5 147.5t88.5 148t161.5 57t138.5 -57t27.5 -148q-19 -90 -90 -147t-164 -57zM-371 1343q34 0 60 23t32 59q9 37 -7 59.5t-50 22.5q-32 0 -57.5 -22.5t-32.5 -59.5q-8 -37 7.5 -59.5t47.5 -22.5z" />
<glyph unicode="&#x30b;" d="M-756 1219l236 331h227l-254 -331h-209zM-453 1219l250 331h240l-279 -331h-211z" />
<glyph unicode="&#x30c;" d="M-471 1239l-205 287l197 55l127 -168l200 168l172 -55l-325 -287h-166z" />
<glyph unicode="&#x312;" d="M-371 1229q-83 0 -116 52t-17 134q21 98 89 188t173 144l64 -88q-112 -59 -174 -186q27 12 51 12q60 0 86 -37t16 -88q-12 -52 -57.5 -91.5t-114.5 -39.5z" />
<glyph unicode="&#x323;" d="M-782 -401q-45 0 -75 26t-30 72q0 69 47.5 116.5t112.5 47.5q47 0 78 -26.5t31 -74.5q0 -65 -48.5 -113t-115.5 -48z" />
<glyph unicode="&#x326;" d="M-825 -606l-62 88q114 60 172 186q-24 -12 -49 -12q-61 0 -87 37t-15 88q12 52 58 91.5t114 39.5q84 0 116.5 -52t14.5 -134q-22 -99 -88.5 -188.5t-173.5 -143.5z" />
<glyph unicode="&#x327;" d="M-762 -426q-113 0 -184 51l67 105q54 -41 125 -41q34 0 56.5 16.5t27.5 38.5q5 23 -8.5 39t-44.5 16q-37 0 -68 -22l-92 49l152 174h170l-96 -94q36 8 51 8q79 0 116 -48t23 -114q-13 -73 -90 -125.5t-205 -52.5z" />
<glyph unicode="&#x328;" d="M-618 -399q-121 3 -174 65.5t-33 155.5q21 98 108 178h185q-73 -62 -86 -123q-8 -41 11.5 -67t67.5 -29z" />
<glyph unicode="&#x335;" d="M-850 381l41 192h559l-41 -192h-559z" />
<glyph unicode="&#x336;" d="M-860 451l43 192h606l-41 -192h-608z" />
<glyph unicode="&#x337;" d="M-821 516l53 248l596 192l-51 -247z" />
<glyph unicode="&#x338;" d="M-946 -188l-117 77l909 1260l115 -78z" />
<glyph unicode="&#x384;" horiz-adv-x="1183" d="M610 1212l113 365h289l-158 -365h-244z" />
<glyph unicode="&#x385;" horiz-adv-x="1185" d="M625 1212l110 365h248l-158 -365h-200zM467 1255q-57 0 -90 37.5t-19 102.5t63 102t105 37q58 0 91.5 -37t19.5 -102q-14 -66 -62.5 -103t-107.5 -37zM1055 1255q-57 0 -90 37.5t-19 102.5t63 102t105 37q58 0 91.5 -37t19.5 -102q-14 -66 -63 -103t-107 -37z" />
<glyph unicode="&#x386;" horiz-adv-x="1259" d="M801 0l-17 281h-440l-133 -281h-295l719 1423h364l111 -1423h-309zM516 1423l-166 -417h-200l147 417h219zM459 526h313l-33 592z" />
<glyph unicode="&#x388;" horiz-adv-x="1372" d="M115 1006l147 417h219l-166 -417h-200zM233 0l304 1423h843l-53 -245h-557l-72 -344h484l-54 -246h-483l-74 -342h607l-52 -246h-893z" />
<glyph unicode="&#x389;" horiz-adv-x="1638" d="M115 1006l147 417h219l-166 -417h-200zM233 0l304 1423h286l-125 -583h551l123 583h287l-303 -1423h-287l125 592h-549l-125 -592h-287z" />
<glyph unicode="&#x38a;" horiz-adv-x="802" d="M115 1006l147 417h219l-166 -417h-200zM233 0l304 1423h286l-303 -1423h-287z" />
<glyph unicode="&#x38c;" horiz-adv-x="1460" d="M662 -27q-205 0 -324 127.5t-119 364.5q0 147 33 290t98.5 268t155 220.5t211 151t258.5 55.5q212 0 329 -124.5t117 -360.5q0 -150 -33 -294.5t-99 -270t-156 -221.5t-212 -151t-259 -55zM84 1006l147 417h220l-166 -417h-201zM715 225q76 0 144 46t116 121t83.5 169 t52.5 190.5t17 184.5q0 134 -54.5 198t-151.5 64q-95 0 -175.5 -70t-129.5 -178t-76 -228.5t-27 -229.5q0 -134 55 -200.5t146 -66.5z" />
<glyph unicode="&#x38e;" horiz-adv-x="1536" d="M88 1006l148 417h219l-166 -417h-201zM639 0l106 502l-266 921h324l151 -620l416 620h322l-660 -921l-106 -502h-287z" />
<glyph unicode="&#x38f;" horiz-adv-x="1546" d="M147 0l46 211l229 -2q-65 59 -111.5 164t-46.5 243q0 163 62.5 315.5t168 266.5t253.5 183t309 69q128 0 227 -40.5t159 -111t90 -160t30 -194.5q0 -106 -24 -206t-62.5 -178.5t-91.5 -147.5t-108 -118t-114 -85l230 2l-45 -211h-547l47 213q197 124 319.5 300.5 t122.5 379.5q0 136 -72 220.5t-214 84.5q-135 0 -244.5 -79t-168.5 -206.5t-59 -273.5q0 -248 207 -426l-45 -213h-547zM111 1006l147 417h219l-166 -417h-200z" />
<glyph unicode="&#x390;" horiz-adv-x="593" d="M285 1212l110 365h248l-158 -365h-200zM127 1255q-57 0 -90 37.5t-19 102.5t63 102t105 37q58 0 91.5 -37t19.5 -102q-14 -66 -62.5 -103t-107.5 -37zM715 1255q-57 0 -90 37.5t-19 102.5t63 102t105 37q58 0 91.5 -37t19.5 -102q-14 -66 -63 -103t-107 -37zM410 -23 q-161 0 -251.5 69t-90.5 216q0 46 14 125l154 713h266l-152 -707q-6 -30 -6 -55q0 -58 33.5 -82t95.5 -29z" />
<glyph unicode="&#x391;" horiz-adv-x="1259" d="M801 0l-17 281h-440l-133 -281h-295l719 1423h364l111 -1423h-309zM459 526h313l-33 592z" />
<glyph unicode="&#x392;" horiz-adv-x="1239" d="M49 0l303 1423h479q117 0 205.5 -37.5t135.5 -115t36 -183.5q-11 -130 -85.5 -227t-190.5 -129l-2 -2q30 -12 56.5 -32.5t52.5 -53t39 -82.5t7 -110q-7 -116 -53 -204t-122 -141t-173 -79.5t-213 -26.5h-475zM514 840h168q90 0 145 53.5t66 142.5q21 142 -137 142h-170z M387 246h182q92 0 149.5 50t69.5 142q10 75 -29 115.5t-118 40.5h-180z" />
<glyph unicode="&#x393;" horiz-adv-x="1032" d="M49 0l303 1423h803l-53 -245h-516l-250 -1178h-287z" />
<glyph unicode="&#x394;" horiz-adv-x="1284" d="M-70 0l701 1423h393l96 -1423h-1190zM322 246h512l-58 940z" />
<glyph unicode="&#x395;" horiz-adv-x="1187" d="M49 0l303 1423h844l-53 -245h-557l-72 -344h483l-53 -246h-483l-74 -342h606l-51 -246h-893z" />
<glyph unicode="&#x396;" horiz-adv-x="1191" d="M-18 0l45 219l835 959h-616l53 245h965l-47 -217l-850 -960h661l-51 -246h-995z" />
<glyph unicode="&#x397;" horiz-adv-x="1454" d="M49 0l303 1423h287l-125 -583h551l123 583h287l-304 -1423h-286l125 592h-549l-125 -592h-287z" />
<glyph unicode="&#x398;" horiz-adv-x="1349" d="M551 -27q-205 0 -323.5 127.5t-118.5 364.5q0 122 23.5 242.5t67.5 230t111 203.5t148.5 162.5t186 107.5t218.5 39q212 0 329.5 -124.5t117.5 -360.5q0 -150 -33.5 -294.5t-99 -270t-156 -221.5t-212.5 -151t-259 -55zM604 225q94 0 175 70t131.5 177.5t79 230 t28.5 233.5q0 134 -55 198t-152 64q-95 0 -175.5 -70t-129.5 -178t-76 -228.5t-27 -229.5q0 -134 55 -200.5t146 -66.5zM485 606l52 203h387l-54 -203h-385z" />
<glyph unicode="&#x399;" horiz-adv-x="618" d="M49 0l303 1423h287l-303 -1423h-287z" />
<glyph unicode="&#x39a;" horiz-adv-x="1306" d="M1409 1423l-618 -628l376 -795h-354l-254 557l-133 -135l-90 -422h-287l303 1423h287l-121 -563l549 563h342z" />
<glyph unicode="&#x39b;" horiz-adv-x="1259" d="M-84 0l719 1423h364l111 -1423h-309l-62 1118l-528 -1118h-295z" />
<glyph unicode="&#x39c;" horiz-adv-x="1697" d="M49 0l303 1423h307l215 -749l537 749h307l-303 -1423h-287l195 920l-405 -601h-234l-154 601l-194 -920h-287z" />
<glyph unicode="&#x39d;" horiz-adv-x="1417" d="M49 0l303 1423h269l335 -913l195 913h287l-303 -1423h-267l-340 913l-192 -913h-287z" />
<glyph unicode="&#x39e;" horiz-adv-x="1228" d="M268 1178l56 245h956l-53 -245h-959zM258 588l53 246h727l-53 -246h-727zM20 0l52 246h956l-51 -246h-957z" />
<glyph unicode="&#x39f;" horiz-adv-x="1349" d="M551 -27q-205 0 -323.5 127.5t-118.5 364.5q0 122 23.5 242.5t67.5 230t111 203.5t148.5 162.5t186 107.5t218.5 39q212 0 329.5 -124.5t117.5 -360.5q0 -150 -33.5 -294.5t-99 -270t-156 -221.5t-212.5 -151t-259 -55zM604 225q94 0 175 70t131.5 177.5t79 230 t28.5 233.5q0 134 -55 198t-152 64q-95 0 -175.5 -70t-129.5 -178t-76 -228.5t-27 -229.5q0 -134 55 -200.5t146 -66.5z" />
<glyph unicode="&#x3a0;" horiz-adv-x="1454" d="M49 0l303 1423h1123l-304 -1423h-286l250 1178h-549l-250 -1178h-287z" />
<glyph unicode="&#x3a1;" horiz-adv-x="1171" d="M49 0l303 1423h447q218 0 326.5 -122.5t62.5 -337.5q-46 -221 -210 -348.5t-384 -127.5h-156l-102 -487h-287zM492 733h139q99 0 169.5 58.5t94.5 166.5q23 106 -22.5 163t-141.5 57h-145z" />
<glyph unicode="&#x3a3;" horiz-adv-x="1193" d="M-10 0l47 225l448 488l-235 485l47 225h948l-53 -245h-621l209 -467l-407 -465h649l-51 -246h-981z" />
<glyph unicode="&#x3a4;" horiz-adv-x="1183" d="M328 0l250 1178h-394l54 245h1073l-54 -245h-393l-250 -1178h-286z" />
<glyph unicode="&#x3a5;" horiz-adv-x="1273" d="M377 0l106 502l-266 921h324l151 -620l416 620h322l-660 -921l-106 -502h-287z" />
<glyph unicode="&#x3a6;" horiz-adv-x="1613" d="M545 -8l35 170h-37q-203 0 -317.5 112t-114.5 299q0 183 88 342t242.5 254t336.5 95h37l37 168h287l-37 -168h37q203 0 318.5 -112.5t115.5 -299.5q0 -183 -89 -342t-243.5 -253.5t-337.5 -94.5h-37l-35 -170h-286zM608 408h25l129 610h-25q-72 0 -135 -35.5t-104.5 -93 t-65.5 -129t-24 -144.5q0 -98 53 -153t147 -55zM920 408h26q94 0 171.5 60.5t118 151.5t40.5 189t-53.5 153.5t-147.5 55.5h-26z" />
<glyph unicode="&#x3a7;" horiz-adv-x="1331" d="M1454 1423l-586 -718l269 -705h-324l-178 465l-381 -465h-315l596 727l-267 696h326l174 -458l371 458h315z" />
<glyph unicode="&#x3a8;" horiz-adv-x="1613" d="M547 0l67 317h-39q-235 0 -346.5 152t-60.5 393l121 561h286l-120 -561q-29 -137 23 -218t163 -81h27l182 860h287l-183 -860h27q109 0 195 81t116 218l119 561h287l-119 -561q-53 -241 -229 -393t-410 -152h-39l-67 -317h-287z" />
<glyph unicode="&#x3a9;" horiz-adv-x="1361" d="M-37 0l45 211l230 -2q-65 59 -111.5 164t-46.5 243q0 163 62.5 315.5t168 266.5t253 183t308.5 69q128 0 227 -40.5t159 -111t90 -160t30 -194.5q0 -106 -23.5 -206t-62.5 -178.5t-91.5 -147.5t-107.5 -118t-114 -85l229 2l-45 -211h-547l48 213q197 124 319.5 300.5 t122.5 379.5q0 135 -72.5 220t-214.5 85q-102 0 -191 -46.5t-149.5 -124t-95.5 -178.5t-35 -210q0 -248 207 -426l-45 -213h-547z" />
<glyph unicode="&#x3aa;" horiz-adv-x="618" d="M328 1577q-47 0 -81 31t-34 80q0 68 49.5 117.5t122.5 49.5q50 0 83.5 -27t33.5 -77q0 -70 -50 -122t-124 -52zM725 1577q-47 0 -80 30.5t-33 80.5q0 68 48.5 117.5t123.5 49.5q50 0 82.5 -27t32.5 -77q0 -70 -50 -122t-124 -52zM49 0l303 1423h287l-303 -1423h-287z" />
<glyph unicode="&#x3ab;" horiz-adv-x="1273" d="M655 1577q-47 0 -80.5 30.5t-33.5 80.5q0 68 49.5 117.5t122.5 49.5q50 0 83 -27t33 -77q0 -70 -50 -122t-124 -52zM1053 1577q-47 0 -80 30.5t-33 80.5q0 68 48.5 117.5t123.5 49.5q50 0 82.5 -27t32.5 -77q0 -70 -50 -122t-124 -52zM377 0l106 502l-266 921h324 l151 -620l416 620h322l-660 -921l-106 -502h-287z" />
<glyph unicode="&#x3ac;" horiz-adv-x="1200" d="M584 1212l112 365h289l-158 -365h-243zM356 -27q-140 0 -221.5 97t-81.5 276q0 99 23.5 206.5t71.5 209.5t112.5 183.5t153.5 131t188 49.5q107 0 168.5 -44.5t81.5 -106.5l29 125h252l-144 -674q-10 -55 -10 -86q0 -57 24.5 -83t75.5 -26l-53 -249q-258 0 -291 202 q-79 -106 -170.5 -158.5t-208.5 -52.5zM479 217q60 0 110 35.5t81.5 89.5t54 120.5t32 126.5t9.5 109q0 185 -148 185q-74 0 -132.5 -52.5t-90.5 -131t-48.5 -156.5t-16.5 -142q0 -184 149 -184z" />
<glyph unicode="&#x3ad;" horiz-adv-x="958" d="M514 1212l113 365h288l-157 -365h-244zM354 -27q-170 0 -256 72.5t-86 185.5q0 98 62 188.5t170 131.5q-52 26 -79.5 75t-27.5 113q0 44 14.5 92.5t50 102t87.5 95.5t137 69.5t188 27.5q100 0 193.5 -32t132.5 -78l-147 -221q-85 88 -218 88q-68 0 -112.5 -41t-44.5 -97 q0 -43 31.5 -68.5t91.5 -25.5h157l-45 -186h-168q-79 0 -130.5 -43t-51.5 -105q0 -43 33 -71.5t90 -28.5q66 0 152 28.5t147 71.5l68 -208q-190 -136 -439 -136z" />
<glyph unicode="&#x3ae;" horiz-adv-x="1216" d="M633 1212l112 365h289l-157 -365h-244zM600 -399l223 1048q6 30 6 58q0 71 -40 111t-107 40q-79 0 -146.5 -58.5t-89.5 -158.5l-135 -641h-266l158 752q25 98 -62 98l54 250q233 0 247 -154q67 84 164 132t199 48q134 0 222.5 -78t88.5 -221q0 -53 -12 -114l-238 -1112 h-266z" />
<glyph unicode="&#x3af;" horiz-adv-x="593" d="M270 1212l113 365h289l-158 -365h-244zM410 -23q-161 0 -251.5 69t-90.5 216q0 46 14 125l154 713h266l-152 -707q-6 -30 -6 -55q0 -58 33.5 -82t95.5 -29z" />
<glyph unicode="&#x3b0;" horiz-adv-x="1122" d="M549 1212l110 365h248l-157 -365h-201zM391 1255q-56 0 -89 37.5t-19 102.5t63 102t105 37q58 0 91 -36.5t19 -102.5t-62.5 -103t-107.5 -37zM979 1255q-57 0 -90 37.5t-19 102.5t63 102t105 37q58 0 91.5 -37t19.5 -102q-14 -66 -63 -103t-107 -37zM414 -27 q-157 0 -258 80.5t-101 235.5q0 45 13 112l147 699h266l-145 -688q-6 -23 -6 -58q0 -66 36 -101.5t101 -35.5q213 0 301 412q33 147 33 338q0 69 -6 133h264q12 -85 12 -182q0 -134 -31 -289q-42 -194 -126.5 -340t-213.5 -231t-286 -85z" />
<glyph unicode="&#x3b1;" horiz-adv-x="1200" d="M356 -27q-140 0 -221.5 97t-81.5 276q0 99 23.5 206.5t71.5 209.5t112.5 183.5t153.5 131t188 49.5q107 0 168.5 -44.5t81.5 -106.5l29 125h252l-144 -674q-10 -55 -10 -86q0 -57 24.5 -83t75.5 -26l-53 -249q-258 0 -291 202q-79 -106 -170.5 -158.5t-208.5 -52.5z M479 217q60 0 110 35.5t81.5 89.5t54 120.5t32 126.5t9.5 109q0 185 -148 185q-74 0 -132.5 -52.5t-90.5 -131t-48.5 -156.5t-16.5 -142q0 -184 149 -184z" />
<glyph unicode="&#x3b2;" horiz-adv-x="1208" d="M-55 -399l295 1374q24 116 81 208t133.5 149.5t165 87.5t181.5 30q173 0 262.5 -79t89.5 -197q0 -199 -207 -297q89 -35 133.5 -119.5t44.5 -194.5q0 -61 -18.5 -134.5t-61.5 -155t-105 -147.5t-159 -109.5t-213 -43.5q-175 0 -250 125l-104 -497h-268zM471 817 q62 51 191 96q119 42 169 79t50 106q0 47 -35.5 77.5t-93.5 30.5q-97 0 -161 -63t-87 -168zM553 207q75 0 137.5 48t96.5 122t34 153q0 84 -46.5 130.5t-117.5 46.5q-115 0 -192.5 -99.5t-77.5 -222.5q0 -85 47.5 -131.5t118.5 -46.5z" />
<glyph unicode="&#x3b3;" horiz-adv-x="1130" d="M184 -399l90 422l-137 1077h293l76 -795q106 91 198 267.5t132 367.5q20 100 24 160h287q-5 -37 -19 -92q-59 -281 -225 -556t-362 -429l-90 -422h-267z" />
<glyph unicode="&#x3b4;" horiz-adv-x="1073" d="M414 -27q-180 0 -280 103.5t-85 296.5q14 194 107 320.5t247 189.5q-59 31 -91 83.5t-25 123.5q9 151 148 254.5t358 103.5q196 0 311 -94l-127 -199q-37 38 -94 61t-115 23q-74 0 -126.5 -29t-63.5 -86q-8 -38 12.5 -67.5t59 -51.5t87 -45t96.5 -57t86.5 -78t58 -116.5 t9.5 -165.5q-10 -159 -83.5 -288.5t-202 -205.5t-287.5 -76zM465 217q55 0 100.5 26.5t75 71t47.5 96.5t25 109q14 99 -21.5 151t-118.5 52q-73 0 -127.5 -46.5t-81 -111.5t-36.5 -143q-15 -99 19.5 -152t117.5 -53z" />
<glyph unicode="&#x3b5;" horiz-adv-x="958" d="M354 -27q-170 0 -256 72.5t-86 185.5q0 98 62 188.5t170 131.5q-52 26 -79.5 75t-27.5 113q0 44 14.5 92.5t50 102t87.5 95.5t137 69.5t188 27.5q100 0 193.5 -32t132.5 -78l-147 -221q-85 88 -218 88q-68 0 -112.5 -41t-44.5 -97q0 -43 31.5 -68.5t91.5 -25.5h157 l-45 -186h-168q-79 0 -130.5 -43t-51.5 -105q0 -43 33 -71.5t90 -28.5q66 0 152 28.5t147 71.5l68 -208q-190 -136 -439 -136z" />
<glyph unicode="&#x3b6;" horiz-adv-x="987" d="M365 -399q70 59 130 153t60 162q0 44 -26.5 70t-79.5 26q-74 0 -141.5 17t-125.5 52.5t-92.5 98t-34.5 144.5q0 378 598 850h-422l54 249h794l-45 -221q-189 -130 -328.5 -256.5t-214 -227.5t-109 -179.5t-34.5 -137.5q0 -76 48.5 -117.5t133.5 -41.5q153 0 229.5 -69.5 t76.5 -182.5q0 -98 -56 -201.5t-157 -187.5h-258z" />
<glyph unicode="&#x3b7;" horiz-adv-x="1216" d="M600 -399l223 1048q6 30 6 58q0 71 -40 111t-107 40q-79 0 -146.5 -58.5t-89.5 -158.5l-135 -641h-266l158 752q25 98 -62 98l54 250q233 0 247 -154q67 84 164 132t199 48q134 0 222.5 -78t88.5 -221q0 -53 -12 -114l-238 -1112h-266z" />
<glyph unicode="&#x3b8;" horiz-adv-x="1198" d="M436 -27q-171 0 -282 97t-111 262q0 100 35.5 202.5t117 199t195.5 145.5q-108 68 -108 174q0 41 14 89.5t50.5 104t89.5 100t140.5 74t194.5 29.5q79 0 147.5 -22.5t121.5 -64.5t83.5 -109.5t30.5 -151.5q0 -48 -14 -127l-111 -518q-21 -99 -67.5 -181t-106.5 -137.5 t-132 -93.5t-144 -55t-144 -17zM834 793l43 188q8 36 8 68q0 72 -43 114.5t-121 42.5q-76 0 -129 -44.5t-53 -112.5q0 -47 39 -79t110 -61q52 -21 88.5 -47t57.5 -69zM502 207q114 0 192 99.5t78 223.5q0 85 -47.5 133t-118.5 48q-76 0 -139.5 -50t-97 -124.5t-33.5 -151.5 q0 -85 47.5 -131.5t118.5 -46.5z" />
<glyph unicode="&#x3b9;" horiz-adv-x="593" d="M410 -23q-161 0 -251.5 69t-90.5 216q0 46 14 125l154 713h266l-152 -707q-6 -30 -6 -55q0 -58 33.5 -82t95.5 -29z" />
<glyph unicode="&#x3ba;" horiz-adv-x="1099" d="M1092 850q-77 0 -129 -20t-109 -72l-176 -162l264 -596h-330l-170 377l-77 -72l-66 -305h-268l233 1100h268l-90 -420l308 281q97 88 182.5 113.5t210.5 25.5z" />
<glyph unicode="&#x3bb;" horiz-adv-x="1110" d="M961 0h-281l-113 670l-364 -670h-281l582 1036l-4 29q-23 152 -162 152q-42 0 -102 -17l55 240q93 22 170 22q270 0 311 -278z" />
<glyph unicode="&#x3bc;" horiz-adv-x="1138" d="M-102 -399l317 1499h266l-147 -699q-18 -85 17 -132.5t106 -47.5q75 0 143.5 59t89.5 158l139 662h269l-154 -713q-18 -90 11.5 -122.5t95.5 -37.5l-64 -250q-265 0 -303 175q-65 -83 -163.5 -131t-190.5 -48q-78 0 -101 58l-73 -430h-258z" />
<glyph unicode="&#x3bd;" horiz-adv-x="1075" d="M213 0l-72 1100h281l35 -821q121 121 221.5 322.5t138.5 385.5q16 63 19 113h266q-3 -14 -8.5 -44t-8.5 -44q-58 -275 -220 -543.5t-384 -468.5h-268z" />
<glyph unicode="&#x3be;" horiz-adv-x="1021" d="M426 -399q63 55 119.5 148t56.5 157q0 94 -113 94q-213 0 -319.5 101t-106.5 259q0 91 33.5 186t106.5 181.5t172 132.5q-51 26 -79 78.5t-28 118.5q0 43 15 92t51 103.5t89 97.5t137.5 71.5t187.5 28.5q100 0 192.5 -33t130.5 -78l-147 -221q-82 88 -213 88 q-69 0 -115.5 -45t-46.5 -100q0 -44 32 -71t89 -27h159l-45 -189h-168q-60 0 -112.5 -35t-85 -87.5t-51.5 -111.5t-19 -110q0 -89 51 -145t148 -56q183 0 261.5 -61t78.5 -170q0 -103 -51.5 -207.5t-151.5 -189.5h-258z" />
<glyph unicode="&#x3bf;" horiz-adv-x="1107" d="M430 -27q-174 0 -273.5 99t-99.5 288q0 148 44 285.5t122 244.5t196 171.5t257 64.5q176 0 275.5 -98.5t99.5 -286.5q0 -149 -44 -287t-122.5 -245t-197 -171.5t-257.5 -64.5zM481 217q85 0 151.5 83t98 193.5t31.5 215.5q0 85 -35 129.5t-102 44.5q-84 0 -150 -83 t-97.5 -193.5t-31.5 -215.5q0 -85 34.5 -129.5t100.5 -44.5z" />
<glyph unicode="&#x3c0;" horiz-adv-x="1218" d="M997 -12q-335 -37 -335 223q0 60 14 123l108 516h-278l-180 -850h-267l181 850h-138l56 250h1085l-53 -256h-139l-113 -525q-1 -7 -3.5 -22.5t-2.5 -22.5q0 -43 26.5 -59t83.5 -16z" />
<glyph unicode="&#x3c1;" horiz-adv-x="1126" d="M-98 -399l202 948q60 282 219.5 429.5t374.5 147.5q176 0 274.5 -97.5t98.5 -287.5q0 -106 -25.5 -215t-76 -207.5t-118.5 -176t-160 -123.5t-193 -46q-82 0 -138 35t-81 101l-109 -508h-268zM508 217q59 0 109 35.5t82 89.5t54.5 120.5t32 126.5t9.5 109q0 185 -148 185 q-74 0 -132.5 -52.5t-91 -131t-49 -156.5t-16.5 -142q0 -184 150 -184z" />
<glyph unicode="&#x3c2;" horiz-adv-x="1054" d="M416 -399q67 57 124.5 149.5t57.5 157.5q0 92 -113 92q-206 0 -314 110t-108 300q0 101 26 202.5t79 194t125.5 163.5t173.5 113.5t215 42.5q88 0 159 -28t113.5 -74t63.5 -102.5t18 -116.5l-266 -78q-6 70 -43 113t-106 43q-70 0 -126 -42.5t-87 -107.5t-47.5 -133.5 t-16.5 -130.5q0 -109 50.5 -174.5t146.5 -65.5q184 0 262 -60.5t78 -168.5q0 -104 -51 -209t-150 -190h-264z" />
<glyph unicode="&#x3c3;" horiz-adv-x="1173" d="M430 -27q-176 0 -275.5 94t-99.5 281q0 108 24.5 214.5t75.5 204t122.5 171.5t173 118t219.5 44h561l-53 -250l-185 -2q47 -44 47 -139q0 -135 -40 -264.5t-114.5 -235.5t-193 -171t-262.5 -65zM481 217q74 0 132 48.5t89.5 122t47.5 148t16 140.5q0 180 -150 180 q-59 0 -108.5 -33.5t-81 -85t-53.5 -115.5t-31.5 -122.5t-9.5 -108.5q0 -174 149 -174z" />
<glyph unicode="&#x3c4;" horiz-adv-x="843" d="M442 -27q-130 0 -205 62.5t-75 183.5q0 52 14 107l111 524h-185l54 250h718l-53 -250h-268l-98 -467q-6 -27 -6 -51q0 -86 96 -86q63 0 151 37l-37 -267q-118 -43 -217 -43z" />
<glyph unicode="&#x3c5;" horiz-adv-x="1122" d="M414 -27q-157 0 -258 80.5t-101 235.5q0 45 13 112l147 699h266l-145 -688q-6 -23 -6 -58q0 -66 36 -101.5t101 -35.5q213 0 301 412q33 147 33 338q0 69 -6 133h264q12 -85 12 -182q0 -134 -31 -289q-42 -194 -126.5 -340t-213.5 -231t-286 -85z" />
<glyph unicode="&#x3c6;" horiz-adv-x="1490" d="M412 -399l77 372q-200 12 -314 129t-114 306q0 97 28 194.5t85.5 188t136.5 162.5t189 118.5t235 54.5l51 242h269l-54 -242q201 -13 315 -130t114 -306q0 -99 -28.5 -198t-86.5 -188.5t-137 -160.5t-188 -116.5t-232 -53.5l-80 -372h-266zM543 217l141 666 q-112 -16 -192 -84t-116 -159t-36 -194q0 -102 54 -159t149 -70zM809 217q111 16 191 83t116.5 157t36.5 192q0 104 -54.5 163t-148.5 71z" />
<glyph unicode="&#x3c7;" horiz-adv-x="1089" d="M725 -8q18 -83 51.5 -111t102.5 -26l-58 -271q-168 -2 -240 44t-104 182l-61 272l-303 -481h-281l510 802l-68 302q-17 69 -64 106t-114 39l54 250q76 -1 131 -9.5t106.5 -30.5t84.5 -65.5t48 -109.5l53 -230l301 445h281l-508 -768z" />
<glyph unicode="&#x3c8;" horiz-adv-x="1413" d="M373 -399l84 399h-25q-164 0 -269.5 111.5t-105.5 324.5q0 93 25 215q49 231 197 449h264q-65 -102 -115 -222t-72 -227q-26 -121 -26 -202q0 -104 40.5 -154.5t112.5 -50.5h25l233 1097h269l-234 -1097h25q98 0 178 98t123 309q24 111 24 238q0 117 -20 211h262 q29 -122 29 -236q0 -110 -23 -213q-35 -162 -102.5 -289t-152.5 -204.5t-179 -117.5t-190 -40h-27l-84 -399h-266z" />
<glyph unicode="&#x3c9;" horiz-adv-x="1544" d="M373 -27q-153 0 -230 99t-77 276q0 150 58.5 358.5t149.5 393.5h263q-81 -181 -139 -394.5t-58 -345.5q0 -65 26.5 -104t77.5 -39q56 0 99 43t61 125l125 594h268l-127 -594q-6 -40 -5 -77.5t26 -64t72 -26.5q55 0 99.5 46.5t73 126.5t45.5 159.5t29 173.5q34 205 31 377 h262q6 -52 6 -111q0 -89 -8.5 -181t-28.5 -193t-50 -192t-77 -174t-105.5 -143.5t-139 -96.5t-174.5 -36q-184 0 -246 148q-127 -148 -307 -148z" />
<glyph unicode="&#x3ca;" horiz-adv-x="593" d="M201 1253q-47 0 -81 31t-34 80q0 68 49.5 118t122.5 50q50 0 83.5 -27.5t33.5 -77.5q0 -70 -50 -122t-124 -52zM598 1253q-47 0 -80 30.5t-33 80.5q0 68 49 118t123 50q50 0 82.5 -27.5t32.5 -77.5q0 -70 -50 -122t-124 -52zM410 -23q-161 0 -251.5 69t-90.5 216 q0 46 14 125l154 713h266l-152 -707q-6 -30 -6 -55q0 -58 33.5 -82t95.5 -29z" />
<glyph unicode="&#x3cb;" horiz-adv-x="1122" d="M465 1253q-47 0 -81 31t-34 80q0 68 49.5 118t122.5 50q50 0 83.5 -27.5t33.5 -77.5q0 -70 -50 -122t-124 -52zM862 1253q-47 0 -79.5 30.5t-32.5 80.5q0 68 49 118t123 50q50 0 82 -27.5t32 -77.5q0 -70 -50 -122t-124 -52zM414 -27q-157 0 -258 80.5t-101 235.5 q0 45 13 112l147 699h266l-145 -688q-6 -23 -6 -58q0 -66 36 -101.5t101 -35.5q213 0 301 412q33 147 33 338q0 69 -6 133h264q12 -85 12 -182q0 -134 -31 -289q-42 -194 -126.5 -340t-213.5 -231t-286 -85z" />
<glyph unicode="&#x3cc;" horiz-adv-x="1107" d="M567 1212l113 365h289l-158 -365h-244zM430 -27q-174 0 -273.5 99t-99.5 288q0 148 44 285.5t122 244.5t196 171.5t257 64.5q176 0 275.5 -98.5t99.5 -286.5q0 -149 -44 -287t-122.5 -245t-197 -171.5t-257.5 -64.5zM481 217q85 0 151.5 83t98 193.5t31.5 215.5 q0 85 -35 129.5t-102 44.5q-84 0 -150 -83t-97.5 -193.5t-31.5 -215.5q0 -85 34.5 -129.5t100.5 -44.5z" />
<glyph unicode="&#x3cd;" horiz-adv-x="1122" d="M535 1212l112 365h289l-158 -365h-243zM414 -27q-157 0 -258 80.5t-101 235.5q0 45 13 112l147 699h266l-145 -688q-6 -23 -6 -58q0 -66 36 -101.5t101 -35.5q213 0 301 412q33 147 33 338q0 69 -6 133h264q12 -85 12 -182q0 -134 -31 -289q-42 -194 -126.5 -340 t-213.5 -231t-286 -85z" />
<glyph unicode="&#x3ce;" horiz-adv-x="1544" d="M791 1212l112 365h289l-158 -365h-243zM373 -27q-153 0 -230 99t-77 276q0 150 58.5 358.5t149.5 393.5h263q-81 -181 -139 -394.5t-58 -345.5q0 -65 26.5 -104t77.5 -39q56 0 99 43t61 125l125 594h268l-127 -594q-6 -40 -5 -77.5t26 -64t72 -26.5q55 0 99.5 46.5 t73 126.5t45.5 159.5t29 173.5q34 205 31 377h262q6 -52 6 -111q0 -89 -8.5 -181t-28.5 -193t-50 -192t-77 -174t-105.5 -143.5t-139 -96.5t-174.5 -36q-184 0 -246 148q-127 -148 -307 -148z" />
<glyph unicode="&#x401;" horiz-adv-x="1187" d="M608 1577q-47 0 -80.5 30.5t-33.5 80.5q0 68 49.5 117.5t122.5 49.5q50 0 83 -27t33 -77q0 -70 -50 -122t-124 -52zM1006 1577q-47 0 -80 30.5t-33 80.5q0 68 48.5 117.5t123.5 49.5q50 0 82.5 -27t32.5 -77q0 -70 -50 -122t-124 -52zM49 0l303 1423h844l-53 -245h-557 l-72 -344h483l-53 -246h-483l-74 -342h606l-51 -246h-893z" />
<glyph unicode="&#x402;" horiz-adv-x="1523" d="M330 0l248 1178h-394l54 245h1073l-51 -245h-396l-78 -375q129 135 310 135q153 0 250.5 -92.5t97.5 -251.5q0 -174 -86 -311t-231 -211t-322 -74l45 231q131 0 212 86.5t81 210.5q0 75 -49 119.5t-127 44.5q-86 0 -159 -65t-97 -176l-95 -449h-286z" />
<glyph unicode="&#x403;" horiz-adv-x="1032" d="M514 1520l-57 182l581 217l60 -209zM49 0l303 1423h803l-53 -245h-516l-250 -1178h-287z" />
<glyph unicode="&#x404;" horiz-adv-x="1271" d="M647 225q165 0 266 170l248 -78q-34 -69 -87 -129t-124 -109t-164.5 -77.5t-197.5 -28.5q-220 0 -348.5 129.5t-128.5 374.5q0 187 56.5 362t156 311t249 218t322.5 82q101 0 182 -28.5t132.5 -77t80 -109.5t33.5 -129l-279 -78q-19 81 -63.5 125.5t-132.5 44.5 q-135 0 -235.5 -104.5t-155.5 -270.5h442l-49 -221h-440q-4 -62 -4 -90q0 -145 63.5 -216t177.5 -71z" />
<glyph unicode="&#x405;" horiz-adv-x="1150" d="M502 -27q-197 0 -329 92.5t-155 245.5l281 82q13 -75 76.5 -121.5t148.5 -46.5q91 0 149 47.5t58 120.5q0 43 -30 81.5t-78 69.5t-106.5 62.5t-116.5 68t-106 78t-78 101.5t-30 131q0 213 140.5 339t388.5 126q202 0 321.5 -93.5t130.5 -236.5l-278 -80q-12 72 -64 115 t-127 43q-84 0 -138 -48t-54 -122q0 -45 30 -83t78 -68t106 -59.5t115.5 -64.5t105.5 -76t78 -100.5t30 -130.5q0 -211 -151 -342t-396 -131z" />
<glyph unicode="&#x406;" horiz-adv-x="618" d="M49 0l303 1423h287l-303 -1423h-287z" />
<glyph unicode="&#x407;" horiz-adv-x="618" d="M328 1577q-47 0 -81 31t-34 80q0 68 49.5 117.5t122.5 49.5q50 0 83.5 -27t33.5 -77q0 -70 -50 -122t-124 -52zM725 1577q-47 0 -80 30.5t-33 80.5q0 68 48.5 117.5t123.5 49.5q50 0 82.5 -27t32.5 -77q0 -70 -50 -122t-124 -52zM49 0l303 1423h287l-303 -1423h-287z" />
<glyph unicode="&#x408;" horiz-adv-x="993" d="M-18 0l51 246h123q168 0 263.5 80.5t133.5 259.5l125 592h-367l54 245h655l-180 -837q-65 -310 -244 -448t-492 -138h-122z" />
<glyph unicode="&#x409;" horiz-adv-x="1994" d="M1587 840q169 0 254.5 -91.5t85.5 -230.5q0 -136 -69.5 -255.5t-189.5 -191t-259 -71.5h-639l250 1178h-350l-205 -738q-35 -125 -86 -211t-122 -136t-155 -71.5t-196 -21.5l51 246q100 0 153.5 41.5t84.5 156.5l266 979h899l-125 -583h352zM1423 246q85 0 145 66.5 t60 148.5q0 58 -32.5 94.5t-98.5 36.5h-313l-74 -346h313z" />
<glyph unicode="&#x40a;" horiz-adv-x="2107" d="M1702 840q169 0 254.5 -91.5t85.5 -230.5q0 -136 -69.5 -255.5t-189.5 -191t-259 -71.5h-639l125 592h-549l-125 -592h-287l303 1423h287l-125 -583h549l125 583h287l-125 -583h352zM1538 246q85 0 145 66.5t60 148.5q0 58 -32.5 94.5t-98.5 36.5h-314l-73 -346h313z" />
<glyph unicode="&#x40b;" horiz-adv-x="1536" d="M328 0l250 1178h-394l54 245h1073l-54 -245h-393l-82 -387q62 65 149.5 104t174.5 39q72 0 131 -24.5t100.5 -74t55 -124t-6.5 -174.5l-114 -537h-287l105 489q20 88 -20.5 139.5t-119.5 51.5t-146.5 -57t-88.5 -156l-101 -467h-286z" />
<glyph unicode="&#x40c;" horiz-adv-x="1273" d="M1186 1710l-584 -190l-57 182l581 217zM1221 1450q49 0 99 -13.5t79 -33.5l-111 -234q-53 31 -92 31q-73 0 -139 -88l-238 -303q63 -34 105.5 -102.5t65 -158t38 -179.5t38 -194t52.5 -175h-325q-23 49 -40 133.5t-28.5 159.5t-30 146.5t-56 114t-95.5 42.5h-80 l-127 -596h-287l303 1423h287l-123 -581h53l271 368q173 240 381 240z" />
<glyph unicode="&#x40e;" horiz-adv-x="1255" d="M850 1552q-136 0 -207 81.5t-39 236.5h189q-15 -67 6 -103t67 -36q49 0 86 36t52 103h188q-36 -160 -124 -239t-218 -79zM1092 1423h315l-649 -1036q-89 -145 -180 -230t-213.5 -129t-290.5 -44l37 245q93 0 172.5 33t154.5 115l-215 1046h316l116 -718z" />
<glyph unicode="&#x40f;" horiz-adv-x="1439" d="M1460 1423l-303 -1423h-428l-72 -332h-245l69 332h-432l303 1423h287l-252 -1177h535l252 1177h286z" />
<glyph unicode="&#x410;" horiz-adv-x="1259" d="M801 0l-17 281h-440l-133 -281h-295l719 1423h364l111 -1423h-309zM459 526h313l-33 592z" />
<glyph unicode="&#x411;" horiz-adv-x="1271" d="M866 840q169 0 254.5 -91.5t85.5 -230.5q0 -136 -69.5 -255.5t-189.5 -191t-259 -71.5h-639l303 1423h676l-53 -245h-389l-72 -338h352zM702 246q85 0 145 66.5t60 148.5q0 58 -32.5 94.5t-98.5 36.5h-313l-74 -346h313z" />
<glyph unicode="&#x412;" horiz-adv-x="1239" d="M49 0l303 1423h479q117 0 205.5 -37.5t135.5 -115t36 -183.5q-11 -130 -85.5 -227t-190.5 -129l-2 -2q30 -12 56.5 -32.5t52.5 -53t39 -82.5t7 -110q-7 -116 -53 -204t-122 -141t-173 -79.5t-213 -26.5h-475zM514 840h168q90 0 145 53.5t66 142.5q21 142 -137 142h-170z M387 246h182q92 0 149.5 50t69.5 142q10 75 -29 115.5t-118 40.5h-180z" />
<glyph unicode="&#x413;" horiz-adv-x="1032" d="M49 0l303 1423h803l-53 -245h-516l-250 -1178h-287z" />
<glyph unicode="&#x414;" horiz-adv-x="1531" d="M-158 -352l125 598h127q64 70 101 135.5t65 167.5l238 874h995l-252 -1177h137l-125 -598h-247l75 352h-917l-76 -352h-246zM371 246h583l199 932h-453l-174 -629q-30 -111 -65.5 -176.5t-89.5 -126.5z" />
<glyph unicode="&#x415;" horiz-adv-x="1187" d="M49 0l303 1423h844l-53 -245h-557l-72 -344h483l-53 -246h-483l-74 -342h606l-51 -246h-893z" />
<glyph unicode="&#x416;" horiz-adv-x="1927" d="M-78 0q51 60 107 144t99.5 159t96 157t101 146t110.5 118t127 81l-106 307q-30 88 -103 88q-44 0 -104 -31l-14 234q92 47 198 47q209 0 283 -240l108 -368h60l123 581h286l-123 -581h56l268 368q171 240 379 240q50 0 99.5 -13.5t80.5 -33.5l-110 -234q-53 31 -95 31 q-74 0 -137 -88l-235 -307q63 -32 104.5 -99.5t64 -157t37.5 -180t37 -194.5t52 -174h-326q-23 49 -39.5 133.5t-28 159.5t-30 146.5t-56.5 114t-96 42.5h-78l-127 -596h-286l126 596h-81q-58 0 -113.5 -42.5t-104 -114t-92 -146.5t-96 -159.5t-96.5 -133.5h-326z" />
<glyph unicode="&#x417;" horiz-adv-x="1146" d="M446 -27q-203 0 -315 94.5t-125 251.5l281 80q9 -79 64.5 -126.5t146.5 -47.5q106 0 174.5 71t68.5 169q0 69 -50.5 106t-131.5 37h-166l49 232h158q113 0 179.5 61.5t66.5 165.5q0 62 -41 96.5t-103 34.5q-141 0 -229 -168l-258 80q66 145 210 242.5t335 97.5 q177 0 286 -82t109 -223q0 -126 -71 -236.5t-187 -150.5l-2 -2q64 -24 106.5 -86t42.5 -154q0 -153 -79.5 -277.5t-216.5 -195t-302 -70.5z" />
<glyph unicode="&#x418;" horiz-adv-x="1417" d="M49 0l303 1423h287l-195 -913l727 913h267l-303 -1423h-287l194 913l-725 -913h-268z" />
<glyph unicode="&#x419;" horiz-adv-x="1417" d="M946 1552q-136 0 -207 81.5t-39 236.5h189q-14 -67 7 -103t67 -36q49 0 85.5 36t51.5 103h188q-36 -160 -124 -239t-218 -79zM49 0l303 1423h287l-195 -913l727 913h267l-303 -1423h-287l194 913l-725 -913h-268z" />
<glyph unicode="&#x41a;" horiz-adv-x="1273" d="M1221 1450q49 0 99 -13.5t79 -33.5l-111 -234q-53 31 -92 31q-73 0 -139 -88l-238 -303q63 -34 105.5 -102.5t65 -158t38 -179.5t38 -194t52.5 -175h-325q-23 49 -40 133.5t-28.5 159.5t-30 146.5t-56 114t-95.5 42.5h-80l-127 -596h-287l303 1423h287l-123 -581h53 l271 368q173 240 381 240z" />
<glyph unicode="&#x41b;" horiz-adv-x="1339" d="M-94 0l51 246q100 0 153.5 41.5t84.5 156.5l266 979h899l-303 -1423h-287l250 1178h-350l-205 -738q-35 -125 -86 -211t-122 -136t-155 -71.5t-196 -21.5z" />
<glyph unicode="&#x41c;" horiz-adv-x="1697" d="M49 0l303 1423h307l215 -749l537 749h307l-303 -1423h-287l195 920l-405 -601h-234l-154 601l-194 -920h-287z" />
<glyph unicode="&#x41d;" horiz-adv-x="1454" d="M49 0l303 1423h287l-125 -583h551l123 583h287l-304 -1423h-286l125 592h-549l-125 -592h-287z" />
<glyph unicode="&#x41e;" horiz-adv-x="1349" d="M551 -27q-205 0 -323.5 127.5t-118.5 364.5q0 122 23.5 242.5t67.5 230t111 203.5t148.5 162.5t186 107.5t218.5 39q212 0 329.5 -124.5t117.5 -360.5q0 -150 -33.5 -294.5t-99 -270t-156 -221.5t-212.5 -151t-259 -55zM604 225q94 0 175 70t131.5 177.5t79 230 t28.5 233.5q0 134 -55 198t-152 64q-95 0 -175.5 -70t-129.5 -178t-76 -228.5t-27 -229.5q0 -134 55 -200.5t146 -66.5z" />
<glyph unicode="&#x41f;" horiz-adv-x="1439" d="M49 0l303 1423h1108l-303 -1423h-287l248 1178h-532l-250 -1178h-287z" />
<glyph unicode="&#x420;" horiz-adv-x="1171" d="M49 0l303 1423h447q218 0 326.5 -122.5t62.5 -337.5q-46 -221 -210 -348.5t-384 -127.5h-156l-102 -487h-287zM492 733h139q99 0 169.5 58.5t94.5 166.5q23 106 -22.5 163t-141.5 57h-145z" />
<glyph unicode="&#x421;" horiz-adv-x="1271" d="M588 -27q-220 0 -348.5 129.5t-128.5 374.5q0 187 56.5 362t156 311t249 218t322.5 82q101 0 182 -28.5t132.5 -77t80 -109.5t33.5 -129l-279 -78q-19 81 -63.5 125.5t-132.5 44.5q-102 0 -189 -64t-142 -165.5t-85.5 -221t-30.5 -235.5q0 -144 65.5 -215.5t180.5 -71.5 q165 0 266 170l248 -78q-34 -69 -87 -129t-124 -109t-164.5 -77.5t-197.5 -28.5z" />
<glyph unicode="&#x422;" horiz-adv-x="1183" d="M328 0l250 1178h-394l54 245h1073l-54 -245h-393l-250 -1178h-286z" />
<glyph unicode="&#x423;" horiz-adv-x="1255" d="M1092 1423h315l-649 -1036q-89 -145 -180 -230t-213.5 -129t-290.5 -44l37 245q93 0 172.5 33t154.5 115l-215 1046h316l116 -718z" />
<glyph unicode="&#x424;" horiz-adv-x="1613" d="M545 -8l35 170h-37q-203 0 -317.5 112t-114.5 299q0 183 88 342t242.5 254t336.5 95h37l37 168h287l-37 -168h37q203 0 318.5 -112.5t115.5 -299.5q0 -183 -89 -342t-243.5 -253.5t-337.5 -94.5h-37l-35 -170h-286zM608 408h25l129 610h-25q-72 0 -135 -35.5t-104.5 -93 t-65.5 -129t-24 -144.5q0 -98 53 -153t147 -55zM920 408h26q94 0 171.5 60.5t118 151.5t40.5 189t-53.5 153.5t-147.5 55.5h-26z" />
<glyph unicode="&#x425;" horiz-adv-x="1331" d="M1454 1423l-586 -718l269 -705h-324l-178 465l-381 -465h-315l596 727l-267 696h326l174 -458l371 458h315z" />
<glyph unicode="&#x426;" horiz-adv-x="1482" d="M956 -352l74 352h-981l303 1423h287l-252 -1177h535l252 1177h286l-252 -1177h121l-127 -598h-246z" />
<glyph unicode="&#x427;" horiz-adv-x="1220" d="M651 0l135 635q-62 -67 -149 -106.5t-174 -39.5q-73 0 -132.5 25t-101 74.5t-55 124t5.5 174.5l115 536h287l-105 -489q-20 -88 20.5 -139.5t118.5 -51.5q84 0 151.5 59.5t88.5 158.5l98 462h287l-303 -1423h-287z" />
<glyph unicode="&#x428;" horiz-adv-x="2260" d="M49 0l303 1423h287l-252 -1177h535l252 1177h286l-252 -1177h535l252 1177h286l-303 -1423h-1929z" />
<glyph unicode="&#x429;" horiz-adv-x="2355" d="M2281 1423l-249 -1177h170l-127 -598h-246l76 352h-1856l303 1423h287l-252 -1177h535l252 1177h286l-252 -1177h535l252 1177h286z" />
<glyph unicode="&#x42a;" horiz-adv-x="1495" d="M1090 840q169 0 254.5 -91.5t85.5 -230.5q0 -136 -69.5 -255.5t-190 -191t-259.5 -71.5h-639l250 1178h-370l55 245h655l-125 -583h353zM926 246q85 0 144.5 66t59.5 149q0 58 -32.5 94.5t-98.5 36.5h-313l-74 -346h314z" />
<glyph unicode="&#x42b;" horiz-adv-x="1861" d="M866 840q169 0 254.5 -91.5t85.5 -230.5q0 -136 -69.5 -255.5t-189.5 -191t-259 -71.5h-639l303 1423h287l-125 -583h352zM1595 1423h287l-303 -1423h-287zM702 246q85 0 145 66.5t60 148.5q0 58 -32.5 94.5t-98.5 36.5h-313l-74 -346h313z" />
<glyph unicode="&#x42c;" horiz-adv-x="1271" d="M866 840q169 0 254.5 -91.5t85.5 -230.5q0 -136 -69.5 -255.5t-189.5 -191t-259 -71.5h-639l303 1423h287l-125 -583h352zM702 246q85 0 145 66.5t60 148.5q0 58 -32.5 94.5t-98.5 36.5h-313l-74 -346h313z" />
<glyph unicode="&#x42d;" horiz-adv-x="1267" d="M754 1450q123 0 219 -42t158.5 -125t84 -206t-3.5 -286q-52 -370 -264.5 -594t-507.5 -224q-100 0 -181 28.5t-132.5 77t-80.5 109.5t-34 129l281 78q15 -80 59 -125t133 -45q137 0 240.5 101t157.5 276h-445l47 221h439q21 189 -40.5 282t-189.5 93q-163 0 -264 -170 l-246 78q71 146 220 245t350 99z" />
<glyph unicode="&#x42e;" horiz-adv-x="1941" d="M1456 1450q212 0 329.5 -124.5t117.5 -360.5q0 -150 -33.5 -294.5t-99 -270t-156 -221.5t-212.5 -151t-259 -55q-205 0 -324 127.5t-119 364.5q0 52 7 127h-246l-125 -592h-287l303 1423h287l-125 -583h244q40 129 105 239t152.5 193.5t201 130.5t239.5 47zM1196 225 q94 0 175 70t131.5 177.5t79 230t28.5 233.5q0 134 -55 198t-152 64q-95 0 -175.5 -70t-129.5 -178t-76 -228.5t-27 -229.5q0 -134 55 -200.5t146 -66.5z" />
<glyph unicode="&#x42f;" horiz-adv-x="1282" d="M-57 0q45 53 122.5 172t161.5 231t170 185q-85 39 -128.5 113.5t-43.5 168.5q0 153 76 279.5t211.5 200t302.5 73.5h488l-304 -1423h-286l108 508h-65q-55 0 -104.5 -25t-86.5 -64t-76.5 -95t-70 -108.5t-72 -113.5t-78.5 -102h-325zM692 754h182l89 424h-181 q-111 0 -184.5 -79.5t-73.5 -180.5q0 -71 43 -117.5t125 -46.5z" />
<glyph unicode="&#x430;" horiz-adv-x="1163" d="M365 -27q-141 0 -222.5 98t-81.5 277q0 213 64 389t187.5 282.5t283.5 106.5q93 0 159.5 -51t80.5 -108l28 133h281l-162 -768q-35 -158 -35 -256q0 -42 6 -76h-297q-4 46 -4 57q0 25 9 84q-41 -70 -119.5 -119t-177.5 -49zM489 217q84 0 150 83t97.5 193.5t31.5 215.5 q0 174 -137 174q-64 0 -118.5 -48.5t-88.5 -123t-53 -158.5t-19 -160q0 -176 137 -176z" />
<glyph unicode="&#x431;" horiz-adv-x="1132" d="M444 -27q-162 0 -265 97t-103 272q0 161 22.5 297t60.5 236t92.5 182.5t115.5 137.5t132.5 100.5t140 73t141.5 52t133 40t119.5 35.5t96.5 40l70 -193q-58 -37 -147.5 -66t-168.5 -51t-158 -53.5t-139.5 -89t-88.5 -141.5q105 94 215 94q142 0 230.5 -99t88.5 -271 q0 -136 -42.5 -261t-117.5 -221t-186.5 -153.5t-241.5 -57.5zM494 211q76 0 137 69.5t90 164.5t29 188q0 77 -36 118.5t-96 41.5q-102 0 -179 -126.5t-77 -291.5q0 -79 34.5 -121.5t97.5 -42.5z" />
<glyph unicode="&#x432;" horiz-adv-x="1185" d="M942 557q48 -32 74 -85t26 -116q0 -76 -32.5 -144t-93.5 -122t-157.5 -85.5t-215.5 -31.5q-219 0 -345 133t-126 345q0 96 26 191.5t80 183t129 154.5t180.5 106.5t227.5 39.5q93 0 169 -27.5t123.5 -73t73 -101t25.5 -115.5q0 -81 -42 -149.5t-122 -102.5zM666 653 q61 0 96 36.5t35 84.5q0 44 -34 76.5t-91 32.5q-102 0 -175.5 -64.5t-109.5 -165.5h279zM578 217q76 0 124 39t48 104q0 39 -27 66t-74 27h-291q7 -107 68 -171.5t152 -64.5z" />
<glyph unicode="&#x433;" horiz-adv-x="1009" d="M412 -27q-157 0 -259 79t-102 216q0 77 33 139t86 102t117 73t128 58t117 48.5t86 54t33 66.5q0 40 -31 63t-77 23q-67 0 -136.5 -37t-115.5 -96l-158 145q27 32 50.5 56.5t65.5 57t85.5 54t105 36.5t129.5 15q163 0 265 -82.5t102 -216.5q0 -76 -32.5 -138t-85 -102.5 t-115.5 -73.5t-126.5 -58t-116.5 -48t-86.5 -50.5t-35.5 -59.5q-1 -42 32 -67t87 -25q76 0 147.5 44t118.5 107l158 -145q-25 -42 -65 -81.5t-97 -76t-137 -58.5t-170 -22z" />
<glyph unicode="&#x434;" horiz-adv-x="1114" d="M354 1470q124 66 260 66q196 0 314.5 -151t118.5 -445q0 -147 -22 -284.5t-71 -262.5t-120 -217.5t-176.5 -147.5t-233.5 -55q-167 0 -267 102t-100 287q0 146 44 278t118 226.5t173.5 150.5t207.5 56q120 0 205 -94q-10 313 -227 313q-105 0 -201 -51zM473 207 q49 0 93 31t75 80.5t54 111.5t34.5 125t11.5 119q0 80 -34.5 122t-98.5 42q-61 0 -112.5 -46t-83.5 -117t-50 -151t-18 -153q0 -164 129 -164z" />
<glyph unicode="&#x435;" horiz-adv-x="1114" d="M561 231q70 0 144 38.5t126 103.5l183 -162q-90 -120 -221 -179t-287 -59q-185 0 -312.5 117t-127.5 313q0 202 81.5 368t222.5 260.5t312 94.5q169 0 262.5 -80t93.5 -194q0 -79 -45 -159.5t-124.5 -147t-203 -108.5t-266.5 -42h-37q12 -81 64.5 -122.5t134.5 -41.5z M653 883q-93 0 -162 -73.5t-106 -186.5h14q86 0 156 19.5t111 49t62.5 61t21.5 60.5q0 31 -25 50.5t-72 19.5z" />
<glyph unicode="&#x436;" horiz-adv-x="1902" d="M1753 1126q94 0 189 -51l-50 -219q-52 27 -110 27q-87 0 -157.5 -67t-106 -163.5t-35.5 -195.5q0 -105 46 -172.5t128 -67.5q57 0 115 27l-39 -224q-103 -47 -199 -47q-144 0 -235 102.5t-91 278.5q0 51 2 76h-145l-90 -430h-281l90 430h-139q-65 -202 -196.5 -329.5 t-301.5 -127.5q-93 0 -186 52l47 219q52 -27 113 -27q87 0 157.5 67t106 163.5t35.5 195.5q0 105 -46.5 172.5t-129.5 67.5q-58 0 -113 -27l39 223q103 47 199 47q144 0 234.5 -102t90.5 -279q0 -46 -2 -71h144l92 426h280l-92 -426h141q66 200 197 326t299 126z" />
<glyph unicode="&#x437;" horiz-adv-x="1034" d="M381 -27q-179 0 -276.5 76t-108.5 213l280 76q8 -50 48 -85.5t106 -35.5q73 0 123.5 47t50.5 111q0 44 -35 69t-90 25h-153l36 174h152q73 0 119.5 41.5t46.5 103.5q0 41 -28 67t-74 26q-52 0 -96 -32t-68 -77l-264 68q24 48 63.5 94t98.5 91t143.5 73t179.5 28 q158 0 252 -68t94 -184q0 -95 -53.5 -173.5t-141.5 -110.5v-2q50 -20 83.5 -66.5t33.5 -111.5q0 -124 -72 -225t-191.5 -156.5t-258.5 -55.5z" />
<glyph unicode="&#x438;" horiz-adv-x="1122" d="M332 -27q-152 0 -232 105.5t-45 271.5l160 750h279l-148 -699q-18 -85 15 -132.5t100 -47.5q72 0 138.5 59t88.5 158l139 662h281l-160 -758q-42 -189 -35 -342h-274q-8 40 2 117q-55 -63 -140.5 -103.5t-168.5 -40.5z" />
<glyph unicode="&#x439;" horiz-adv-x="1122" d="M711 1229q-136 0 -207 81t-39 236h188q-14 -67 7 -103t67 -36q49 0 85.5 36t51.5 103h189q-36 -160 -124 -238.5t-218 -78.5zM332 -27q-152 0 -232 105.5t-45 271.5l160 750h279l-148 -699q-18 -85 15 -132.5t100 -47.5q72 0 138.5 59t88.5 158l139 662h281l-160 -758 q-42 -189 -35 -342h-274q-8 40 2 117q-55 -63 -140.5 -103.5t-168.5 -40.5z" />
<glyph unicode="&#x43a;" horiz-adv-x="1142" d="M1055 1126q87 0 157 -47l-102 -209q-47 21 -78 21q-63 0 -119 -66l-168 -196q54 -39 90 -119t50.5 -159.5t39.5 -182.5t56 -168h-326q-20 35 -35.5 95t-25.5 114.5t-25 106.5t-43 83t-71 31h-52l-92 -430h-280l233 1100h281l-90 -426h41l200 252q159 200 359 200z" />
<glyph unicode="&#x43b;" horiz-adv-x="1204" d="M-96 -10l49 235q79 0 123 32.5t67 111.5l203 731h828l-234 -1100h-281l185 862h-283l-137 -489q-57 -205 -185 -294t-335 -89z" />
<glyph unicode="&#x43c;" horiz-adv-x="1488" d="M31 0l233 1100h336l135 -580l389 580h334l-233 -1100h-281l146 680l-310 -498h-231l-92 498l-146 -680h-280z" />
<glyph unicode="&#x43d;" horiz-adv-x="1269" d="M31 0l233 1100h281l-90 -420h415l88 420h281l-233 -1100h-281l94 442h-413l-95 -442h-280z" />
<glyph unicode="&#x43e;" horiz-adv-x="1107" d="M430 -27q-174 0 -273.5 99t-99.5 288q0 148 44 285.5t122 244.5t196 171.5t257 64.5q176 0 275.5 -98.5t99.5 -286.5q0 -149 -44 -287t-122.5 -245t-197 -171.5t-257.5 -64.5zM481 217q85 0 151.5 83t98 193.5t31.5 215.5q0 85 -35 129.5t-102 44.5q-84 0 -150 -83 t-97.5 -193.5t-31.5 -215.5q0 -85 34.5 -129.5t100.5 -44.5z" />
<glyph unicode="&#x43f;" horiz-adv-x="1212" d="M31 0l233 1100h275l-27 -117q60 63 140 103t167 40q163 0 242.5 -112t38.5 -301l-152 -713h-280l139 649q21 97 -17 153t-116 56q-74 0 -139 -58.5t-86 -158.5l-138 -641h-280z" />
<glyph unicode="&#x440;" horiz-adv-x="1167" d="M-55 -399l319 1499h281l-29 -137q42 64 122.5 113.5t174.5 49.5q136 0 218.5 -95t82.5 -275q0 -110 -24.5 -222t-72.5 -212.5t-113 -178.5t-152.5 -124t-184.5 -46q-85 0 -143 39.5t-90 98.5l-109 -510h-280zM545 217q64 0 118 49t88 124t53 159.5t19 161.5 q0 172 -137 172q-68 0 -127.5 -67.5t-95 -163t-47.5 -197.5q-16 -112 15.5 -175t113.5 -63z" />
<glyph unicode="&#x441;" horiz-adv-x="1075" d="M459 -27q-185 0 -290.5 122.5t-105.5 310.5q0 104 27 207.5t80.5 195.5t127 163t173.5 112.5t213 41.5q160 0 257.5 -93.5t107.5 -225.5l-258 -76q-14 66 -59 109t-105 43q-79 0 -146.5 -65t-103 -160t-35.5 -191q0 -104 45.5 -167.5t130.5 -63.5q62 0 121.5 36 t101.5 103l222 -101q-78 -144 -212 -222.5t-292 -78.5z" />
<glyph unicode="&#x442;" horiz-adv-x="1759" d="M31 0l233 1100h275l-27 -117q57 62 138.5 102.5t164.5 40.5t140 -38t75 -115q65 72 151 112.5t175 40.5q75 0 136 -25t104.5 -76t56.5 -129t-8 -185l-150 -711h-281l138 649q22 101 -9.5 155t-99.5 54t-124.5 -56t-78.5 -161l-137 -641h-280l137 649q22 101 -9.5 155 t-99.5 54t-124 -56t-78 -161l-138 -641h-280z" />
<glyph unicode="&#x443;" horiz-adv-x="1177" d="M928 1100h297l-596 -1112q-80 -148 -196.5 -243t-240 -133t-264.5 -38l37 252q237 0 367 147l-182 1127h307l96 -725z" />
<glyph unicode="&#x444;" horiz-adv-x="1443" d="M379 -399l84 399q-185 14 -293.5 122t-108.5 290q0 133 49 255.5t133 214.5t202 150.5t251 67.5l95 436h280l-94 -436q185 -14 294 -122.5t109 -289.5q0 -136 -48.5 -258.5t-132.5 -214t-202.5 -149t-253.5 -66.5l-84 -399h-280zM514 244l131 612q-88 -4 -157.5 -72 t-103.5 -162t-34 -188q0 -92 43.5 -138.5t120.5 -51.5zM795 244q90 4 160 71.5t103.5 160t33.5 188.5q0 92 -44 139.5t-122 52.5z" />
<glyph unicode="&#x445;" horiz-adv-x="1122" d="M1198 1100l-477 -533l237 -567h-337l-129 309l-244 -309h-326l469 549l-231 551h338l125 -299l249 299h326z" />
<glyph unicode="&#x446;" horiz-adv-x="1122" d="M948 342l-18 -96h114l-126 -598h-246l76 352h-109q-8 40 2 117q-55 -63 -140.5 -103.5t-168.5 -40.5q-152 0 -232 105.5t-45 271.5l160 750h279l-148 -699q-18 -85 15 -132.5t100 -47.5q72 0 138.5 59t88.5 158l139 662h281z" />
<glyph unicode="&#x447;" horiz-adv-x="1067" d="M514 0l92 434q-108 -88 -258 -88q-61 0 -111 17.5t-88 55.5t-50 97t3 143l95 441h286l-86 -398q-13 -64 16 -98.5t79 -34.5q57 0 109.5 43t68.5 115l78 373h288l-233 -1100h-289z" />
<glyph unicode="&#x448;" horiz-adv-x="1710" d="M1704 1100l-234 -1100h-272l25 117q-57 -62 -139 -103t-164 -41q-162 0 -199 156q-64 -70 -158.5 -113t-183.5 -43q-75 0 -136 25t-104.5 76t-56.5 129.5t8 185.5l150 711h280l-137 -649q-22 -101 9.5 -155t99.5 -54t124 55.5t80 161.5l135 641h281l-137 -649 q-22 -102 9 -155.5t99 -53.5t124.5 56t80.5 161l135 641h281z" />
<glyph unicode="&#x449;" horiz-adv-x="1710" d="M1704 1100l-182 -854h98l-127 -598h-246l76 352h-125l25 117q-57 -62 -139 -103t-164 -41q-162 0 -199 156q-64 -70 -158.5 -113t-183.5 -43q-75 0 -136 25t-104.5 76t-56.5 129.5t8 185.5l150 711h280l-137 -649q-22 -101 9.5 -155t99.5 -54t124 55.5t80 161.5l135 641 h281l-137 -649q-22 -102 9 -155.5t99 -53.5t124.5 56t80.5 161l135 641h281z" />
<glyph unicode="&#x44a;" horiz-adv-x="1331" d="M911 715q152 0 230 -79t78 -200q0 -178 -135.5 -307t-323.5 -129h-508l182 862h-334l50 238h616l-82 -385h227zM768 238q72 0 116 45.5t44 101.5q0 40 -27.5 66t-81.5 26h-186l-49 -239h184z" />
<glyph unicode="&#x44b;" horiz-adv-x="1599" d="M690 715q152 0 229.5 -79t77.5 -200q0 -178 -135 -307t-323 -129h-508l233 1100h281l-82 -385h227zM1288 1100h281l-234 -1100h-280zM547 238q72 0 116 45.5t44 101.5q0 40 -27.5 66t-81.5 26h-186l-50 -239h185z" />
<glyph unicode="&#x44c;" horiz-adv-x="1110" d="M690 715q152 0 229.5 -79t77.5 -200q0 -178 -135 -307t-323 -129h-508l233 1100h281l-82 -385h227zM547 238q72 0 116 45.5t44 101.5q0 40 -27.5 66t-81.5 26h-186l-50 -239h185z" />
<glyph unicode="&#x44d;" horiz-adv-x="1120" d="M639 1126q193 0 306.5 -105.5t113.5 -303.5q0 -205 -82.5 -374.5t-234.5 -269.5t-343 -100q-173 0 -274 82.5t-109 200.5l281 78q8 -52 46 -84.5t101 -32.5q98 0 170.5 68.5t110.5 177.5h-385l37 172h383q2 14 2 45q0 100 -47 151.5t-131 51.5q-65 0 -119 -33.5 t-86 -87.5l-236 80q56 118 190.5 201t305.5 83z" />
<glyph unicode="&#x44e;" horiz-adv-x="1634" d="M1202 1126q176 0 275.5 -98.5t99.5 -286.5q0 -149 -44 -287t-122.5 -245t-197 -171.5t-257.5 -64.5q-174 0 -273 98.5t-99 288.5q0 45 2 68h-185l-90 -428h-280l233 1100h281l-92 -434h180q69 205 218 332.5t351 127.5zM1008 217q64 0 119 48.5t89 123.5t53 159t19 161 q0 85 -35 129.5t-102 44.5q-84 0 -150 -83t-97.5 -193.5t-31.5 -215.5q0 -85 35 -129.5t101 -44.5z" />
<glyph unicode="&#x44f;" horiz-adv-x="1169" d="M-37 0q35 37 98 125.5t134 178t139 147.5q-71 27 -110.5 85.5t-39.5 129.5q0 124 66 224t178.5 155t247.5 55h463l-234 -1100h-287l76 352h-43q-50 0 -92 -22.5t-75.5 -63t-61 -82.5t-64 -95.5t-69.5 -88.5h-326zM594 596h151l56 258h-152q-77 0 -122.5 -48.5 t-45.5 -109.5q0 -43 29 -71.5t84 -28.5z" />
<glyph unicode="&#x451;" horiz-adv-x="1114" d="M506 1253q-47 0 -81 31t-34 80q0 68 49.5 118t122.5 50q50 0 83.5 -27.5t33.5 -77.5q0 -70 -50 -122t-124 -52zM903 1253q-47 0 -79.5 30.5t-32.5 80.5q0 68 49 118t123 50q50 0 82 -27.5t32 -77.5q0 -70 -50 -122t-124 -52zM1038 852q0 -79 -45 -159.5t-124.5 -147 t-203 -108.5t-266.5 -42h-37q12 -81 64.5 -122.5t134.5 -41.5q70 0 144 38.5t126 103.5l183 -162q-90 -120 -221 -179t-287 -59q-185 0 -312.5 117t-127.5 313q0 202 81.5 368t222.5 260.5t312 94.5q169 0 262.5 -80t93.5 -194zM653 883q-93 0 -162 -73.5t-106 -186.5h14 q86 0 156 19.5t111 49t62.5 61t21.5 60.5q0 31 -25 50.5t-72 19.5z" />
<glyph unicode="&#x452;" horiz-adv-x="1122" d="M788 1126q70 0 126.5 -25.5t97 -79.5t51 -137t-11.5 -198l-138 -639q-26 -124 -78 -212t-125.5 -138.5t-159.5 -73t-192 -22.5l52 237q89 0 143.5 45.5t79.5 157.5l129 608q21 101 -14 155t-105 54t-130.5 -56.5t-82.5 -160.5l-137 -641h-281l260 1231h-122l43 192h120 l25 113h280l-24 -113h205l-41 -192h-203l-51 -240q46 55 117.5 95t166.5 40z" />
<glyph unicode="&#x453;" horiz-adv-x="1009" d="M367 1196l-58 182l582 217l59 -209zM412 -27q-157 0 -259 79t-102 216q0 77 33 139t86 102t117 73t128 58t117 48.5t86 54t33 66.5q0 40 -31 63t-77 23q-67 0 -136.5 -37t-115.5 -96l-158 145q27 32 50.5 56.5t65.5 57t85.5 54t105 36.5t129.5 15q163 0 265 -82.5 t102 -216.5q0 -76 -32.5 -138t-85 -102.5t-115.5 -73.5t-126.5 -58t-116.5 -48t-86.5 -50.5t-35.5 -59.5q-1 -42 32 -67t87 -25q76 0 147.5 44t118.5 107l158 -145q-25 -42 -65 -81.5t-97 -76t-137 -58.5t-170 -22z" />
<glyph unicode="&#x454;" horiz-adv-x="1105" d="M537 217q64 0 117.5 34t84.5 87l236 -80q-56 -119 -190 -202t-306 -83q-191 0 -304.5 106t-113.5 304q0 205 82.5 374.5t234 269t341.5 99.5q174 0 275.5 -82t107.5 -200l-281 -78q-8 52 -45 84.5t-100 32.5q-99 0 -172.5 -68.5t-112.5 -179.5h389l-37 -172h-385 q-2 -14 -2 -43q0 -100 48.5 -151.5t132.5 -51.5z" />
<glyph unicode="&#x455;" horiz-adv-x="997" d="M426 -27q-171 0 -287.5 73t-138.5 165l209 145q25 -65 82.5 -108t138.5 -43q65 0 106.5 31.5t41.5 85.5q0 33 -32.5 61.5t-81.5 49t-105.5 49.5t-105.5 61t-81.5 86t-32.5 121q0 171 122.5 273.5t311.5 102.5q164 0 276.5 -68.5t137.5 -150.5l-211 -145q-23 55 -83.5 94 t-131.5 39q-52 0 -88.5 -28.5t-36.5 -73.5q0 -35 32.5 -64.5t80.5 -50.5t105 -50t105 -60.5t80.5 -84t32.5 -118.5q0 -184 -123.5 -288t-322.5 -104z" />
<glyph unicode="&#x456;" horiz-adv-x="575" d="M434 1245q-64 0 -101.5 43t-23.5 117q16 74 72.5 116t120.5 42q67 0 105 -42t22 -116q-17 -75 -72.5 -117.5t-122.5 -42.5zM31 0l233 1100h281l-234 -1100h-280z" />
<glyph unicode="&#x457;" horiz-adv-x="575" d="M238 1253q-47 0 -81 31t-34 80q0 68 49.5 118t122.5 50q50 0 83.5 -27.5t33.5 -77.5q0 -70 -50 -122t-124 -52zM635 1253q-47 0 -80 30.5t-33 80.5q0 68 49 118t123 50q50 0 82.5 -27.5t32.5 -77.5q0 -70 -50 -122t-124 -52zM31 0l233 1100h281l-234 -1100h-280z" />
<glyph unicode="&#x458;" horiz-adv-x="538" d="M418 1245q-64 0 -101.5 43t-23.5 117q16 74 72 116t120 42q67 0 105 -42t22 -116q-17 -75 -72 -117.5t-122 -42.5zM-268 -426l51 238q99 0 154.5 44.5t80.5 157.5l230 1086h280l-229 -1080q-21 -100 -59 -176t-88.5 -127t-117 -83t-140 -46t-162.5 -14z" />
<glyph unicode="&#x459;" horiz-adv-x="1738" d="M1319 715q152 0 229.5 -79t77.5 -200q0 -178 -135.5 -307t-323.5 -129h-508l183 862h-281l-137 -489q-57 -205 -185 -294t-335 -89l49 235q79 0 123 32.5t67 111.5l203 731h828l-82 -385h227zM1176 238q72 0 115.5 45.5t43.5 101.5q0 40 -27 66t-81 26h-187l-49 -239h185 z" />
<glyph unicode="&#x45a;" horiz-adv-x="1804" d="M1384 715q152 0 230 -79t78 -200q0 -178 -135.5 -307t-323.5 -129h-508l94 442h-413l-95 -442h-280l233 1100h281l-90 -420h413l90 420h281l-82 -385h227zM1241 238q72 0 116 45.5t44 101.5q0 40 -27.5 66t-81.5 26h-186l-49 -239h184z" />
<glyph unicode="&#x45b;" horiz-adv-x="1212" d="M819 1126q163 0 242.5 -112t38.5 -301l-152 -713h-280l139 649q21 97 -17 153t-116 56q-74 0 -139 -58.5t-86 -158.5l-138 -641h-280l260 1231h-129l43 192h127l24 113h281l-25 -113h199l-41 -192h-199l-51 -240q139 135 299 135z" />
<glyph unicode="&#x45c;" horiz-adv-x="1142" d="M1063 1386l-584 -190l-57 182l582 217zM1055 1126q87 0 157 -47l-102 -209q-47 21 -78 21q-63 0 -119 -66l-168 -196q54 -39 90 -119t50.5 -159.5t39.5 -182.5t56 -168h-326q-20 35 -35.5 95t-25.5 114.5t-25 106.5t-43 83t-71 31h-52l-92 -430h-280l233 1100h281 l-90 -426h41l200 252q159 200 359 200z" />
<glyph unicode="&#x45e;" horiz-adv-x="1177" d="M737 1229q-136 0 -206.5 81t-38.5 236h188q-14 -67 7 -103t67 -36q49 0 85.5 36t51.5 103h188q-36 -160 -124 -238.5t-218 -78.5zM928 1100h297l-596 -1112q-80 -148 -196.5 -243t-240 -133t-264.5 -38l37 252q237 0 367 147l-182 1127h307l96 -725z" />
<glyph unicode="&#x45f;" horiz-adv-x="1122" d="M332 -27q-152 0 -232 105.5t-45 271.5l160 750h279l-148 -699q-18 -85 15 -132.5t100 -47.5q72 0 138.5 59t88.5 158l139 662h281l-160 -758q-42 -189 -35 -342h-274q-8 40 2 117q-55 -63 -140.5 -103.5t-168.5 -40.5zM229 -352l54 250h245l-53 -250h-246z" />
<glyph unicode="&#x462;" horiz-adv-x="1333" d="M928 840q169 0 254.5 -91.5t85.5 -230.5q0 -136 -69.5 -255.5t-189.5 -191t-259 -71.5h-639l223 1053h-295l63 221h279l33 149h286l-32 -149h301l-64 -221h-284l-46 -213h353zM764 246q85 0 145 66.5t60 148.5q0 58 -32.5 94.5t-98.5 36.5h-314l-73 -346h313z" />
<glyph unicode="&#x463;" horiz-adv-x="1208" d="M791 686q151 0 226 -75t75 -191q0 -177 -129 -298.5t-318 -121.5h-436l182 862h-291l50 238h292l93 436h280l-92 -436h289l-49 -238h-291l-37 -176h156zM664 238q62 0 99.5 41.5t37.5 87.5q0 36 -22.5 60t-67.5 24h-125l-45 -213h123z" />
<glyph unicode="&#x472;" horiz-adv-x="1349" d="M864 1450q212 0 329.5 -124.5t117.5 -360.5q0 -150 -33.5 -294.5t-99 -270t-156 -221.5t-212.5 -151t-259 -55q-205 0 -323.5 127.5t-118.5 364.5q0 122 23.5 242.5t67.5 230t111 203.5t148.5 162.5t186 107.5t218.5 39zM811 1198q-122 0 -213 -106.5t-143 -272.5 q68 45 125 45q63 0 155.5 -25.5t138.5 -25.5q40 0 80.5 23t63.5 61v39q0 134 -55 198t-152 64zM604 225q119 0 209.5 102t144.5 263q-67 -31 -135 -31q-53 0 -146.5 24.5t-135.5 24.5q-38 0 -77 -25.5t-61 -62.5v-28q0 -134 55 -200.5t146 -66.5z" />
<glyph unicode="&#x473;" horiz-adv-x="1107" d="M676 1126q176 0 275.5 -98.5t99.5 -286.5q0 -149 -44 -287t-122.5 -245t-197 -171.5t-257.5 -64.5q-174 0 -273.5 99t-99.5 288q0 148 44 285.5t122 244.5t196 171.5t257 64.5zM625 883q-74 0 -133 -63.5t-97 -164.5q21 9 41 9q45 -1 115 -20t106 -19q65 0 105 59v25 q0 85 -35 129.5t-102 44.5zM481 217q79 0 140 67.5t98 174.5q-53 -24 -101 -21q-39 1 -107.5 20t-102.5 19t-58 -18q-4 -50 -4 -68q0 -85 34.5 -129.5t100.5 -44.5z" />
<glyph unicode="&#x474;" horiz-adv-x="1386" d="M369 0l-152 1423h324l88 -1032l399 774q137 281 365 281q74 0 170 -33l-88 -260q-43 12 -72 12q-43 0 -77 -31t-79 -114l-540 -1020h-338z" />
<glyph unicode="&#x475;" horiz-adv-x="1259" d="M291 0l-135 1100h323l72 -701l262 484q118 237 338 237q75 0 162 -30l-86 -261q-35 13 -66 13q-38 0 -66.5 -24.5t-62.5 -86.5l-405 -731h-336z" />
<glyph unicode="&#x490;" horiz-adv-x="1038" d="M963 1655h247l-108 -477h-516l-250 -1178h-287l303 1423h559z" />
<glyph unicode="&#x491;" horiz-adv-x="1050" d="M31 0l233 1100h508l49 233h232l-101 -471h-458l-183 -862h-280z" />
<glyph unicode="&#x492;" horiz-adv-x="1032" d="M1102 1178h-516l-76 -355h281l-54 -221h-274l-127 -602h-287l129 602h-176l53 221h170l127 600h803z" />
<glyph unicode="&#x493;" horiz-adv-x="935" d="M928 862h-389l-56 -254h193l-41 -192h-193l-88 -416h-280l88 416h-135l43 192h133l104 492h670z" />
<glyph unicode="&#x496;" horiz-adv-x="1927" d="M1493 -352l76 352h-123q-23 49 -39.5 133.5t-28 159.5t-30 146.5t-56.5 114t-96 42.5h-78l-127 -596h-286l126 596h-81q-58 0 -113.5 -42.5t-104 -114t-92 -146.5t-96 -159.5t-96.5 -133.5h-326q51 60 107 144t99.5 159t96 157t101 146t110.5 118t127 81l-106 307 q-30 88 -103 88q-44 0 -104 -31l-14 234q92 47 198 47q209 0 283 -240l108 -368h60l123 581h286l-123 -581h56l268 368q171 240 379 240q50 0 99.5 -13.5t80.5 -33.5l-110 -234q-53 31 -95 31q-74 0 -137 -88l-235 -307q40 -18 71.5 -53t50.5 -74.5t36 -98.5t26 -105 t22 -116t23 -112h160l-127 -598h-246z" />
<glyph unicode="&#x497;" horiz-adv-x="1726" d="M1341 -348l78 340q-31 -8 -67 -8q-111 0 -178.5 98t-67.5 272q0 38 6 76h-100l-92 -430h-281l92 430h-94q-63 -200 -194.5 -328.5t-301.5 -128.5q-91 0 -188 52l49 219q52 -27 111 -27q88 0 158.5 67t106.5 163.5t36 195.5q0 105 -47 172.5t-129 67.5q-58 0 -113 -27 l37 223q103 47 198 47q145 0 235.5 -102t90.5 -279q0 -46 -2 -71h98l90 426h281l-90 -426h94q65 199 195.5 325.5t298.5 126.5q97 0 188 -51l-49 -219q-49 27 -111 27q-87 0 -157.5 -67t-106 -163.5t-35.5 -195.5q0 -105 46.5 -172.5t129.5 -67.5q58 0 113 27l-125 -592 h-203z" />
<glyph unicode="&#x498;" horiz-adv-x="1146" d="M895 756q64 -24 106.5 -86t42.5 -154q0 -189 -118.5 -330.5t-309.5 -191.5q-20 -87 -55 -153.5t-92.5 -119.5t-145 -80.5t-202.5 -27.5l45 205q82 0 129.5 39.5t71.5 119.5q-165 18 -257.5 110t-103.5 232l281 80q9 -79 64.5 -126.5t146.5 -47.5q106 0 174.5 71t68.5 169 q0 69 -50.5 106t-131.5 37h-166l49 232h158q113 0 179.5 61.5t66.5 165.5q0 62 -41 96.5t-103 34.5q-141 0 -229 -168l-258 80q66 145 210 242.5t335 97.5q177 0 286 -82t109 -223q0 -126 -71 -236.5t-187 -150.5z" />
<glyph unicode="&#x499;" horiz-adv-x="1034" d="M786 588q50 -20 83.5 -66.5t33.5 -111.5q0 -144 -95 -254t-245 -156q-20 -88 -55.5 -155.5t-93 -121t-145 -82t-203.5 -28.5l45 205q82 0 129 39t71 120q-146 13 -226 87.5t-89 197.5l280 76q8 -50 48 -85.5t106 -35.5q73 0 123.5 47t50.5 111q0 44 -35 69t-90 25h-153 l36 174h152q73 0 119.5 41.5t46.5 103.5q0 41 -28 67t-74 26q-52 0 -96 -32t-68 -77l-264 68q24 48 63.5 94t98.5 91t143.5 73t179.5 28q158 0 252 -68t94 -184q0 -95 -53.5 -173.5t-141.5 -110.5v-2z" />
<glyph unicode="&#x49a;" horiz-adv-x="1271" d="M844 -352l76 352h-127q-23 49 -40 133.5t-28.5 159.5t-30 146.5t-56 114t-95.5 42.5h-80l-127 -596h-287l303 1423h287l-123 -581h57l267 368q173 240 381 240q49 0 99 -13.5t79 -33.5l-111 -234q-53 31 -92 31q-76 0 -139 -88l-236 -307q40 -18 71.5 -53.5t50.5 -74.5 t36 -98t26 -105t22.5 -116t23.5 -112h163l-124 -598h-246z" />
<glyph unicode="&#x49b;" horiz-adv-x="1138" d="M1020 891q-63 0 -119 -66l-170 -196q28 -21 51.5 -54t38 -62.5t29.5 -82t21.5 -81.5t19.5 -92q3 -13 4 -19h149l-124 -590h-244l74 352h-109q-24 41 -42.5 121.5t-30 144.5t-43 114t-83.5 50h-53l-92 -430h-281l234 1100h280l-90 -426h43l199 252q161 200 358 200 q88 0 158 -47l-102 -209q-47 21 -76 21z" />
<glyph unicode="&#x4a0;" horiz-adv-x="1509" d="M1456 1450q49 0 99 -13.5t79 -33.5l-110 -234q-53 31 -92 31q-74 0 -140 -88l-237 -303q63 -34 105.5 -102.5t65 -158t38 -179.5t38 -194t52.5 -175h-326q-23 49 -40 133.5t-28.5 159.5t-30 146.5t-56 114t-95.5 42.5h-80l-127 -596h-286l250 1178h-334l53 245h620 l-122 -581h53l270 368q173 240 381 240z" />
<glyph unicode="&#x4a1;" horiz-adv-x="1347" d="M1225 1126q87 0 157 -47l-102 -209q-47 21 -78 21q-63 0 -119 -66l-168 -196q54 -39 90 -119t50.5 -159.5t39.5 -182.5t56 -168h-326q-20 35 -35.5 95t-25.5 114.5t-25 106.5t-43 83t-71 31h-52l-92 -430h-280l182 862h-283l52 238h563l-90 -426h41l200 252 q159 200 359 200z" />
<glyph unicode="&#x4a2;" horiz-adv-x="1454" d="M1475 1423l-250 -1177h182l-127 -598h-246l76 352h-225l125 592h-549l-125 -592h-287l303 1423h287l-125 -583h551l123 583h287z" />
<glyph unicode="&#x4a3;" horiz-adv-x="1269" d="M1239 1100l-182 -862h102l-125 -590h-246l76 352h-139l94 442h-413l-95 -442h-280l233 1100h281l-90 -420h415l88 420h281z" />
<glyph unicode="&#x4aa;" horiz-adv-x="1271" d="M647 225q165 0 266 170l248 -78q-58 -118 -168.5 -207.5t-259.5 -121.5q-22 -86 -57.5 -151t-93 -117t-144.5 -79.5t-200 -27.5l45 205q83 0 130.5 40.5t71.5 123.5q-175 28 -274.5 155t-99.5 340q0 187 56.5 362t156 311t249 218t322.5 82q101 0 182 -28.5t132.5 -77 t80 -109.5t33.5 -129l-279 -78q-19 81 -63.5 125.5t-132.5 44.5q-102 0 -189 -64t-142 -165.5t-85.5 -221t-30.5 -235.5q0 -144 65.5 -215.5t180.5 -71.5z" />
<glyph unicode="&#x4ab;" horiz-adv-x="1075" d="M518 236q62 0 121.5 36t101.5 103l222 -101q-60 -111 -153 -182.5t-208 -99.5q-21 -87 -56.5 -153t-93 -118.5t-145 -80t-201.5 -27.5l46 205q84 0 132 42t70 126q-138 33 -214.5 147t-76.5 273q0 104 27 207.5t80.5 195.5t127 163t173.5 112.5t213 41.5 q160 0 257.5 -93.5t107.5 -225.5l-258 -76q-14 66 -59 109t-105 43q-79 0 -146.5 -65t-103 -160t-35.5 -191q0 -104 45.5 -167.5t130.5 -63.5z" />
<glyph unicode="&#x4ae;" horiz-adv-x="1273" d="M377 0l106 502l-266 921h324l151 -620l416 620h322l-660 -921l-106 -502h-287z" />
<glyph unicode="&#x4af;" horiz-adv-x="1224" d="M276 -399l103 483l-180 1016h329l52 -754l366 754h328l-612 -1016l-105 -483h-281z" />
<glyph unicode="&#x4b0;" horiz-adv-x="1273" d="M770 502l-14 -68h317l-65 -221h-299l-45 -213h-287l45 213h-324l66 221h305l14 68l-266 921h324l151 -620l416 620h322z" />
<glyph unicode="&#x4b1;" horiz-adv-x="1224" d="M1274 1100l-547 -907h260l-57 -193h-287l-86 -399h-281l84 399h-303l62 193h241l-161 907h329l52 -754l366 754h328z" />
<glyph unicode="&#x4b2;" horiz-adv-x="1331" d="M868 705l174 -459h197l-127 -598h-246l76 352h-129l-178 465l-381 -465h-315l596 727l-267 696h326l174 -458l371 458h315z" />
<glyph unicode="&#x4b3;" horiz-adv-x="1122" d="M721 567l137 -329h197l-125 -590h-246l76 352h-139l-129 309l-244 -309h-326l469 549l-231 551h338l125 -299l249 299h326z" />
<glyph unicode="&#x4b6;" horiz-adv-x="1220" d="M1241 1423l-250 -1177h154l-127 -598h-246l76 352h-197l135 635q-62 -67 -149 -106.5t-174 -39.5q-73 0 -132.5 25t-101 74.5t-55 124t5.5 174.5l115 536h287l-105 -489q-20 -88 20.5 -139.5t118.5 -51.5q84 0 151.5 59.5t88.5 158.5l98 462h287z" />
<glyph unicode="&#x4b7;" horiz-adv-x="1067" d="M1036 1100l-182 -862h70l-125 -590h-246l76 352h-115l92 434q-108 -88 -258 -88q-61 0 -111 17.5t-88 55.5t-50 97t3 143l95 441h286l-86 -398q-13 -64 16 -98.5t79 -34.5q57 0 109.5 43t68.5 115l78 373h288z" />
<glyph unicode="&#x4ba;" horiz-adv-x="1241" d="M31 0l303 1423h287l-136 -635q62 67 149 106.5t175 39.5q152 0 237.5 -104t45.5 -293l-115 -537h-287l105 489q20 88 -21.5 139.5t-120.5 51.5q-82 0 -149 -59t-88 -158l-99 -463h-286z" />
<glyph unicode="&#x4bb;" horiz-adv-x="1212" d="M31 0l325 1536h281l-117 -545q139 135 299 135q163 0 242.5 -112t38.5 -301l-152 -713h-280l139 649q21 97 -17 153t-116 56q-74 0 -139 -58.5t-86 -158.5l-138 -641h-280z" />
<glyph unicode="&#x4c0;" horiz-adv-x="618" d="M49 0l303 1423h287l-303 -1423h-287z" />
<glyph unicode="&#x4c9;" horiz-adv-x="1454" d="M1475 1423l-250 -1177h114l-311 -613h-197l175 367h-121l125 592h-549l-125 -592h-287l303 1423h287l-125 -583h551l123 583h287z" />
<glyph unicode="&#x4ca;" horiz-adv-x="1316" d="M1057 246h235l-311 -613h-197l174 367h-233l94 442h-413l-95 -442h-280l233 1100h281l-90 -420h415l88 420h281z" />
<glyph unicode="&#x4cf;" horiz-adv-x="575" d="M31 0l233 1100h281l-234 -1100h-280z" />
<glyph unicode="&#x4d8;" horiz-adv-x="1347" d="M707 1450q90 0 175 -22t160 -68t131 -111.5t88.5 -159.5t32.5 -206q0 -188 -57 -354.5t-158.5 -289.5t-251.5 -194.5t-327 -71.5q-216 0 -337.5 112.5t-121.5 291.5q0 159 91.5 290.5t250 206t348.5 74.5q135 0 268 -43q-14 142 -104 217.5t-215 75.5q-89 0 -175.5 -38.5 t-150.5 -108.5l-143 188q92 102 223.5 156.5t272.5 54.5zM549 225q155 0 275.5 127.5t160.5 331.5q-133 37 -240 37q-80 0 -148.5 -18.5t-116 -49.5t-81 -71.5t-49.5 -83.5t-16 -86q0 -82 56 -134.5t159 -52.5z" />
<glyph unicode="&#x4d9;" horiz-adv-x="1107" d="M602 1126q185 0 312.5 -117t127.5 -313q0 -202 -81.5 -368t-222.5 -260.5t-312 -94.5q-169 0 -262.5 80.5t-93.5 194.5q0 79 45 159.5t124.5 147t203 108.5t266.5 42h36q-12 81 -64 122t-134 41q-70 0 -144.5 -38t-126.5 -103l-182 162q90 119 221 178t287 59zM455 217 q93 0 162 73.5t106 186.5h-14q-86 0 -156 -19.5t-111 -49t-62.5 -61t-21.5 -60.5q0 -31 25 -50.5t72 -19.5z" />
<glyph unicode="&#x4e2;" horiz-adv-x="1417" d="M655 1595l43 203h557l-43 -203h-557zM49 0l303 1423h287l-195 -913l727 913h267l-303 -1423h-287l194 913l-725 -913h-268z" />
<glyph unicode="&#x4e3;" horiz-adv-x="1122" d="M420 1272l43 203h557l-43 -203h-557zM332 -27q-152 0 -232 105.5t-45 271.5l160 750h279l-148 -699q-18 -85 15 -132.5t100 -47.5q72 0 138.5 59t88.5 158l139 662h281l-160 -758q-42 -189 -35 -342h-274q-8 40 2 117q-55 -63 -140.5 -103.5t-168.5 -40.5z" />
<glyph unicode="&#x4e8;" horiz-adv-x="1349" d="M864 1450q212 0 329.5 -124.5t117.5 -360.5q0 -150 -33.5 -294.5t-99 -270t-156 -221.5t-212.5 -151t-259 -55q-205 0 -323.5 127.5t-118.5 364.5q0 122 23.5 242.5t67.5 230t111 203.5t148.5 162.5t186 107.5t218.5 39zM811 1198q-121 0 -211.5 -105.5t-142.5 -269.5 h555q6 58 6 113q0 134 -55 198t-152 64zM604 225q120 0 212.5 105.5t146.5 271.5h-553q-7 -68 -7 -110q0 -134 55 -200.5t146 -66.5z" />
<glyph unicode="&#x4e9;" horiz-adv-x="1107" d="M676 1126q176 0 275.5 -98.5t99.5 -286.5q0 -149 -44 -287t-122.5 -245t-197 -171.5t-257.5 -64.5q-174 0 -273.5 99t-99.5 288q0 148 44 285.5t122 244.5t196 171.5t257 64.5zM625 883q-77 0 -136.5 -65t-97.5 -171h369q2 20 2 62q0 85 -35 129.5t-102 44.5zM481 217 q77 0 138.5 66.5t97.5 171.5h-367q-4 -46 -4 -64q0 -85 34.5 -129.5t100.5 -44.5z" />
<glyph unicode="&#x4ee;" horiz-adv-x="1255" d="M1159 1798l-43 -203h-557l43 203h557zM1092 1423h315l-649 -1036q-89 -145 -180 -230t-213.5 -129t-290.5 -44l37 245q93 0 172.5 33t154.5 115l-215 1046h316l116 -718z" />
<glyph unicode="&#x4ef;" horiz-adv-x="1177" d="M1047 1475l-43 -203h-558l43 203h558zM928 1100h297l-596 -1112q-80 -148 -196.5 -243t-240 -133t-264.5 -38l37 252q237 0 367 147l-182 1127h307l96 -725z" />
<glyph unicode="&#x1e80;" horiz-adv-x="2017" d="M1489 1524l-557 172l88 202l545 -196zM313 0l-71 1423h313l16 -1083l439 1083h370l-22 -1083l477 1083h311l-676 -1423h-362l10 1055l-444 -1055h-361z" />
<glyph unicode="&#x1e81;" horiz-adv-x="1742" d="M1276 1200l-557 172l88 203l545 -197zM244 0l-56 1100h273l12 -783l367 783h297l30 -783l346 783h275l-524 -1100h-306l-40 766l-369 -766h-305z" />
<glyph unicode="&#x1e82;" horiz-adv-x="2017" d="M961 1520l-58 182l582 217l59 -209zM313 0l-71 1423h313l16 -1083l439 1083h370l-22 -1083l477 1083h311l-676 -1423h-362l10 1055l-444 -1055h-361z" />
<glyph unicode="&#x1e83;" horiz-adv-x="1742" d="M748 1196l-58 182l582 217l59 -209zM244 0l-56 1100h273l12 -783l367 783h297l30 -783l346 783h275l-524 -1100h-306l-40 766l-369 -766h-305z" />
<glyph unicode="&#x1e84;" horiz-adv-x="2017" d="M1032 1577q-47 0 -80.5 30.5t-33.5 80.5q0 68 49.5 117.5t122.5 49.5q50 0 83 -27t33 -77q0 -70 -50 -122t-124 -52zM1430 1577q-47 0 -80 30.5t-33 80.5q0 68 48.5 117.5t123.5 49.5q50 0 82.5 -27t32.5 -77q0 -70 -50 -122t-124 -52zM313 0l-71 1423h313l16 -1083 l439 1083h370l-22 -1083l477 1083h311l-676 -1423h-362l10 1055l-444 -1055h-361z" />
<glyph unicode="&#x1e85;" horiz-adv-x="1742" d="M819 1253q-47 0 -80.5 30.5t-33.5 80.5q0 68 49.5 118t122.5 50q50 0 83 -27.5t33 -77.5q0 -70 -50 -122t-124 -52zM1217 1253q-47 0 -80 30.5t-33 80.5q0 68 49 118t123 50q50 0 82.5 -27.5t32.5 -77.5q0 -70 -50 -122t-124 -52zM244 0l-56 1100h273l12 -783l367 783 h297l30 -783l346 783h275l-524 -1100h-306l-40 766l-369 -766h-305z" />
<glyph unicode="&#x1e9e;" horiz-adv-x="1499" d="M815 -27q-126 0 -217.5 62.5t-128.5 163.5l201 163q21 -69 69 -104t107 -35q100 0 176 89t76 210q0 83 -51.5 130.5t-143.5 47.5q-83 0 -149 -53l-78 164l325 299q-44 82 -172 82q-96 0 -182 -68.5t-115 -199.5l-196 -924h-287l197 924q28 130 96 232.5t160.5 165.5 t198.5 95.5t217 32.5q173 0 301 -74t165 -182l-315 -291q161 -10 243.5 -102.5t82.5 -229.5q0 -257 -163 -427.5t-417 -170.5z" />
<glyph unicode="&#x1ea0;" horiz-adv-x="1259" d="M1110 0h-309l-17 281h-440l-133 -281h-295l719 1423h364zM459 526h313l-33 592zM483 -139q47 0 78 -26.5t31 -74.5q0 -65 -48.5 -113t-115.5 -48q-45 0 -74.5 26t-29.5 72q0 70 47 117t112 47z" />
<glyph unicode="&#x1ea1;" horiz-adv-x="1163" d="M365 -27q-141 0 -222.5 98t-81.5 277q0 213 64 389t187.5 282.5t283.5 106.5q93 0 159.5 -51t80.5 -108l28 133h281l-162 -768q-35 -158 -35 -256q0 -42 6 -76h-297q-4 46 -4 57q0 25 9 84q-41 -70 -119.5 -119t-177.5 -49zM489 217q84 0 150 83t97.5 193.5t31.5 215.5 q0 174 -137 174q-64 0 -118.5 -48.5t-88.5 -123t-53 -158.5t-19 -160q0 -176 137 -176zM385 -401q-45 0 -74.5 26t-29.5 72q0 70 47 117t112 47q47 0 78 -26.5t31 -74.5q0 -65 -48.5 -113t-115.5 -48z" />
<glyph unicode="&#x1eb8;" horiz-adv-x="1187" d="M49 0l303 1423h844l-53 -245h-557l-72 -344h483l-53 -246h-483l-74 -342h606l-51 -246h-893zM410 -401q-45 0 -75 26t-30 72q0 69 47.5 116.5t112.5 47.5q46 0 77 -26.5t31 -74.5q0 -65 -48 -113t-115 -48z" />
<glyph unicode="&#x1eb9;" horiz-adv-x="1114" d="M561 231q70 0 144 38.5t126 103.5l183 -162q-90 -120 -221 -179t-287 -59q-185 0 -312.5 117t-127.5 313q0 202 81.5 368t222.5 260.5t312 94.5q169 0 262.5 -80t93.5 -194q0 -79 -45 -159.5t-124.5 -147t-203 -108.5t-266.5 -42h-37q12 -81 64.5 -122.5t134.5 -41.5z M653 883q-93 0 -162 -73.5t-106 -186.5h14q86 0 156 19.5t111 49t62.5 61t21.5 60.5q0 31 -25 50.5t-72 19.5zM449 -139q46 0 77 -26.5t31 -74.5q0 -65 -48.5 -113t-115.5 -48q-45 0 -74.5 26t-29.5 72q0 69 47.5 116.5t112.5 47.5z" />
<glyph unicode="&#x1ebc;" horiz-adv-x="1187" d="M641 1550l-174 43q38 110 104 172t152 62q47 0 128 -14.5t103 -14.5q38 0 56.5 27.5t27.5 75.5l176 -41q-37 -120 -111.5 -186t-176.5 -66q-43 0 -111.5 14t-89.5 14q-66 0 -84 -86zM49 0l303 1423h844l-53 -245h-557l-72 -344h483l-53 -246h-483l-74 -342h606l-51 -246 h-893z" />
<glyph unicode="&#x1ebd;" horiz-adv-x="1114" d="M623 1313q-66 0 -84 -86l-174 43q38 109 104 171t152 62q47 0 128 -14t103 -14q38 0 56.5 27t27.5 75l176 -41q-37 -120 -112 -186t-177 -66q-43 0 -111 14.5t-89 14.5zM1038 852q0 -79 -45 -159.5t-124.5 -147t-203 -108.5t-266.5 -42h-37q12 -81 64.5 -122.5 t134.5 -41.5q70 0 144 38.5t126 103.5l183 -162q-90 -120 -221 -179t-287 -59q-185 0 -312.5 117t-127.5 313q0 202 81.5 368t222.5 260.5t312 94.5q169 0 262.5 -80t93.5 -194zM653 883q-93 0 -162 -73.5t-106 -186.5h14q86 0 156 19.5t111 49t62.5 61t21.5 60.5 q0 31 -25 50.5t-72 19.5z" />
<glyph unicode="&#x1eca;" horiz-adv-x="618" d="M49 0l303 1423h287l-303 -1423h-287zM106 -401q-45 0 -74.5 26t-29.5 72q0 69 47 116.5t113 47.5q46 0 77 -26.5t31 -74.5q0 -65 -48.5 -113t-115.5 -48z" />
<glyph unicode="&#x1ecb;" horiz-adv-x="575" d="M434 1245q-64 0 -101.5 43t-23.5 117q16 74 72.5 116t120.5 42q67 0 105 -42t22 -116q-17 -75 -72.5 -117.5t-122.5 -42.5zM31 0l233 1100h281l-234 -1100h-280zM72 -401q-45 0 -75 26t-30 72q0 69 47.5 116.5t112.5 47.5q47 0 78 -26.5t31 -74.5q0 -65 -48.5 -113 t-115.5 -48z" />
<glyph unicode="&#x1ecc;" horiz-adv-x="1349" d="M551 -27q-205 0 -323.5 127.5t-118.5 364.5q0 122 23.5 242.5t67.5 230t111 203.5t148.5 162.5t186 107.5t218.5 39q212 0 329.5 -124.5t117.5 -360.5q0 -150 -33.5 -294.5t-99 -270t-156 -221.5t-212.5 -151t-259 -55zM604 225q94 0 175 70t131.5 177.5t79 230 t28.5 233.5q0 134 -55 198t-152 64q-95 0 -175.5 -70t-129.5 -178t-76 -228.5t-27 -229.5q0 -134 55 -200.5t146 -66.5zM473 -401q-45 0 -74.5 26t-29.5 72q0 70 47 117t112 47q47 0 78 -26.5t31 -74.5q0 -65 -48.5 -113t-115.5 -48z" />
<glyph unicode="&#x1ecd;" horiz-adv-x="1107" d="M430 -27q-174 0 -273.5 99t-99.5 288q0 148 44 285.5t122 244.5t196 171.5t257 64.5q176 0 275.5 -98.5t99.5 -286.5q0 -149 -44 -287t-122.5 -245t-197 -171.5t-257.5 -64.5zM481 217q85 0 151.5 83t98 193.5t31.5 215.5q0 85 -35 129.5t-102 44.5q-84 0 -150 -83 t-97.5 -193.5t-31.5 -215.5q0 -85 34.5 -129.5t100.5 -44.5zM350 -401q-45 0 -74.5 26t-29.5 72q0 69 47 116.5t113 47.5q46 0 77 -26.5t31 -74.5q0 -65 -48.5 -113t-115.5 -48z" />
<glyph unicode="&#x1ee4;" horiz-adv-x="1339" d="M551 -27q-107 0 -190.5 32t-142 100t-74 174t13.5 253l190 891h287l-193 -895q-28 -140 10.5 -221.5t151.5 -81.5q221 0 281 303l192 895h287l-190 -895q-30 -144 -90 -252t-143 -173.5t-180.5 -97.5t-209.5 -32zM465 -401q-45 0 -75 26t-30 72q0 69 47 116.5t113 47.5 q47 0 78 -26.5t31 -74.5q0 -65 -48.5 -113t-115.5 -48z" />
<glyph unicode="&#x1ee5;" horiz-adv-x="1122" d="M332 -27q-152 0 -232 105.5t-45 271.5l160 750h279l-148 -699q-18 -85 15 -132.5t100 -47.5q72 0 138.5 59t88.5 158l139 662h281l-160 -758q-42 -189 -35 -342h-274q-8 40 2 117q-55 -63 -140.5 -103.5t-168.5 -40.5zM324 -401q-45 0 -75 26t-30 72q0 69 47.5 116.5 t112.5 47.5q46 0 77 -26.5t31 -74.5q0 -65 -48 -113t-115 -48z" />
<glyph unicode="&#x1ef2;" horiz-adv-x="1273" d="M1112 1524l-557 172l88 202l545 -196zM377 0l106 502l-266 921h324l151 -620l416 620h322l-660 -921l-106 -502h-287z" />
<glyph unicode="&#x1ef3;" horiz-adv-x="1138" d="M958 1200l-557 172l88 203l545 -197zM350 -426q-150 0 -256 78t-137 203l221 106q15 -68 65.5 -109.5t125.5 -41.5t141 55t88 153l27 125q-132 -125 -285 -125q-149 0 -231 101.5t-48 261.5l154 719h279l-138 -656q-20 -86 14 -133t103 -47q72 0 135.5 55t85.5 152 l133 629h281l-225 -1055q-50 -237 -186 -354t-347 -117z" />
<glyph unicode="&#x1ef8;" horiz-adv-x="1273" d="M688 1550l-174 43q38 110 104 172t152 62q47 0 128 -14.5t103 -14.5q38 0 56.5 27.5t27.5 75.5l177 -41q-37 -120 -112 -186t-177 -66q-43 0 -111.5 14t-89.5 14q-66 0 -84 -86zM377 0l106 502l-266 921h324l151 -620l416 620h322l-660 -921l-106 -502h-287z" />
<glyph unicode="&#x1ef9;" horiz-adv-x="1138" d="M535 1227l-175 43q38 109 104 171t152 62q47 0 128.5 -14t103.5 -14q38 0 56.5 27t27.5 75l176 -41q-37 -120 -112 -186t-177 -66q-43 0 -111.5 14.5t-89.5 14.5q-65 0 -83 -86zM350 -426q-150 0 -256 78t-137 203l221 106q15 -68 65.5 -109.5t125.5 -41.5t141 55t88 153 l27 125q-132 -125 -285 -125q-149 0 -231 101.5t-48 261.5l154 719h279l-138 -656q-20 -86 14 -133t103 -47q72 0 135.5 55t85.5 152l133 629h281l-225 -1055q-50 -237 -186 -354t-347 -117z" />
<glyph unicode="&#x1f74;" horiz-adv-x="1216" d="M879 1212h-244l-158 365h289zM600 -399l223 1048q6 30 6 58q0 71 -40 111t-107 40q-79 0 -146.5 -58.5t-89.5 -158.5l-135 -641h-266l158 752q25 98 -62 98l54 250q233 0 247 -154q67 84 164 132t199 48q134 0 222.5 -78t88.5 -221q0 -53 -12 -114l-238 -1112h-266z" />
<glyph unicode="&#x1fef;" horiz-adv-x="1245" d="M895 1212h-244l-157 365h288z" />
<glyph unicode="&#x2000;" horiz-adv-x="1174" />
<glyph unicode="&#x2001;" horiz-adv-x="2349" />
<glyph unicode="&#x2002;" horiz-adv-x="1174" />
<glyph unicode="&#x2003;" horiz-adv-x="2349" />
<glyph unicode="&#x2004;" horiz-adv-x="783" />
<glyph unicode="&#x2005;" horiz-adv-x="587" />
<glyph unicode="&#x2006;" horiz-adv-x="391" />
<glyph unicode="&#x2007;" horiz-adv-x="391" />
<glyph unicode="&#x2008;" horiz-adv-x="293" />
<glyph unicode="&#x2009;" horiz-adv-x="317" />
<glyph unicode="&#x200a;" horiz-adv-x="130" />
<glyph unicode="&#x2010;" horiz-adv-x="894" d="M115 547l57 270h666l-58 -270h-665z" />
<glyph unicode="&#x2011;" horiz-adv-x="894" d="M115 547l57 270h666l-58 -270h-665z" />
<glyph unicode="&#x2012;" horiz-adv-x="894" d="M115 547l57 270h666l-58 -270h-665z" />
<glyph unicode="&#x2013;" horiz-adv-x="1314" d="M117 559l53 246h1083l-51 -246h-1085z" />
<glyph unicode="&#x2014;" horiz-adv-x="1732" d="M117 559l53 246h1501l-51 -246h-1503z" />
<glyph unicode="&#x2018;" horiz-adv-x="589" d="M389 872q-84 0 -126 51.5t-42 135.5q0 144 106.5 282.5t270.5 200.5l53 -121q-80 -32 -152.5 -110.5t-84.5 -147.5q34 15 65 15q46 0 76.5 -31.5t30.5 -81.5q0 -71 -55 -132t-142 -61z" />
<glyph unicode="&#x2019;" horiz-adv-x="593" d="M279 891l-52 121q82 35 154.5 110t83.5 152q-32 -19 -66 -19q-47 0 -77.5 34t-30.5 91q0 86 53.5 134.5t126.5 48.5q75 0 130.5 -50.5t55.5 -140.5q0 -158 -104.5 -287.5t-273.5 -193.5z" />
<glyph unicode="&#x201a;" horiz-adv-x="565" d="M12 -283l-51 121q80 35 150 100t84 130q2 8 2 28q-32 -14 -64 -14q-57 0 -87 41t-15 106q13 64 64.5 111t125.5 47q102 0 144.5 -76.5t19.5 -187.5q-29 -131 -119.5 -238t-253.5 -168z" />
<glyph unicode="&#x201c;" horiz-adv-x="1026" d="M391 870q-82 0 -127 52t-45 137q0 144 107.5 282t271.5 199l51 -121q-78 -33 -149 -110t-86 -148q34 15 63 15q46 0 77.5 -30.5t31.5 -82.5q0 -74 -55 -133.5t-140 -59.5zM827 870q-82 0 -127 52t-45 137q0 144 107.5 282t271.5 199l51 -121q-78 -33 -149 -110t-86 -148 q34 15 63 15q46 0 77.5 -30.5t31.5 -82.5q0 -74 -55 -133.5t-140 -59.5z" />
<glyph unicode="&#x201d;" horiz-adv-x="1030" d="M279 891l-52 121q82 35 154.5 110t83.5 152q-32 -19 -66 -19q-47 0 -77.5 34t-30.5 91q0 86 53.5 134.5t126.5 48.5q75 0 130.5 -50.5t55.5 -140.5q0 -158 -104.5 -287.5t-273.5 -193.5zM715 891l-51 121q82 35 154 109.5t83 152.5q-32 -19 -65 -19q-47 0 -78 34t-31 91 q0 86 53.5 134.5t126.5 48.5q75 0 131 -50.5t56 -140.5q0 -158 -104.5 -287.5t-274.5 -193.5z" />
<glyph unicode="&#x201e;" horiz-adv-x="1019" d="M12 -283l-51 121q80 35 150 100t84 130q2 8 2 28q-32 -14 -64 -14q-57 0 -87 41t-15 106q13 64 64.5 111t125.5 47q102 0 144.5 -76.5t19.5 -187.5q-29 -131 -119.5 -238t-253.5 -168zM467 -283l-51 121q81 35 151 100t84 130v28q-32 -14 -63 -14q-55 0 -85.5 41 t-17.5 106q15 65 66 111.5t125 46.5q103 0 145 -76t19 -188q-19 -85 -60 -157.5t-121 -140t-192 -108.5z" />
<glyph unicode="&#x2020;" horiz-adv-x="1007" d="M348 0l37 180q36 178 51.5 287.5t14.5 214.5q57 125 98 287q-75 0 -165 -17.5t-116 -17.5q-43 0 -60.5 24.5t-10.5 61.5q8 36 36 60t72 24q26 0 108 -17.5t154 -17.5q13 68 17.5 167.5t9.5 125.5q10 40 38.5 62t61.5 22q34 0 53 -22t9 -62q-6 -34 -42 -133t-52 -160 q73 0 160.5 17.5t113.5 17.5q44 0 62.5 -24.5t11.5 -61.5q-6 -35 -35 -59.5t-74 -24.5q-26 0 -106.5 17.5t-155.5 17.5q-28 -148 -25 -287q-83 -192 -149 -502l-39 -180h-78z" />
<glyph unicode="&#x2021;" horiz-adv-x="1122" d="M442 -12q-33 0 -52 22t-11 62q6 30 43 129t53 164q-73 0 -161.5 -17.5t-114.5 -17.5q-43 0 -61.5 24.5t-10.5 59.5q6 36 35 61t74 25q26 0 107.5 -17.5t154.5 -17.5q21 130 18 252q59 129 90 252q-75 0 -164.5 -17.5t-115.5 -17.5q-43 0 -61 24.5t-11 61.5q8 36 36 60 t72 24q26 0 108.5 -17.5t154.5 -17.5q13 68 17 167.5t9 125.5q10 40 39 62t62 22t52 -22t9 -62q-6 -34 -42 -133t-52 -160q73 0 160.5 17.5t113.5 17.5q44 0 62.5 -24.5t11.5 -61.5q-6 -35 -35 -59.5t-74 -24.5q-26 0 -106.5 17.5t-155.5 17.5q-21 -111 -18 -252 q-63 -145 -90 -252q75 0 163.5 17.5t114.5 17.5q44 0 62.5 -24.5t11.5 -59.5q-8 -37 -36 -61.5t-73 -24.5q-26 0 -107.5 17.5t-156.5 17.5q-9 -62 -14 -161t-12 -132q-8 -40 -37 -62t-62 -22z" />
<glyph unicode="&#x2022;" horiz-adv-x="565" d="M272 504q-88 0 -133.5 59.5t-25.5 147.5q19 88 89.5 148.5t157.5 60.5q88 0 134.5 -60.5t27.5 -148.5t-91.5 -147.5t-158.5 -59.5z" />
<glyph unicode="&#x2026;" horiz-adv-x="1269" d="M115 -12q-63 0 -99 40t-20 111q14 71 68 112.5t116 41.5q65 0 100 -41t21 -113q-17 -72 -69 -111.5t-117 -39.5zM514 -12q-64 0 -99.5 40t-19.5 111q14 72 67.5 113t117.5 41t99 -41t19 -113q-14 -71 -67 -111t-117 -40zM913 -12q-64 0 -100 39.5t-22 111.5q17 72 70 113 t116 41q64 0 100.5 -41.5t20.5 -112.5q-14 -71 -67.5 -111t-117.5 -40z" />
<glyph unicode="&#x202f;" horiz-adv-x="253" />
<glyph unicode="&#x2030;" horiz-adv-x="2125" d="M338 696q-125 0 -171.5 96t-6.5 275q38 180 124.5 274.5t211.5 94.5q129 0 176.5 -94.5t9.5 -274.5t-126.5 -275.5t-217.5 -95.5zM221 0l957 1423h192l-958 -1423h-191zM371 840q97 0 145 227t-49 227q-45 0 -82.5 -59t-60.5 -168q-24 -110 -11.5 -168.5t58.5 -58.5z M1090 -14q-125 0 -172.5 95t-10.5 275q38 179 126.5 274t213.5 95q126 0 174 -94.5t11 -274.5q-38 -179 -126.5 -274.5t-215.5 -95.5zM1694 -14q-125 0 -171.5 95t-9.5 275q38 179 125.5 274t212.5 95q126 0 174 -94.5t11 -274.5q-38 -179 -126.5 -274.5t-215.5 -95.5z M1120 129q47 0 85 58.5t63 168.5q23 110 9.5 169t-60.5 59q-46 0 -83.5 -59t-60.5 -169t-11 -168.5t58 -58.5zM1724 129q97 0 148 227q48 228 -51 228q-46 0 -83.5 -59t-60.5 -169t-11 -168.5t58 -58.5z" />
<glyph unicode="&#x2039;" horiz-adv-x="612" d="M274 238l-151 424l332 423l161 -57l-262 -366l107 -367z" />
<glyph unicode="&#x203a;" horiz-adv-x="612" d="M205 238l-162 57l264 367l-108 366l186 57l154 -423z" />
<glyph unicode="&#x2044;" horiz-adv-x="313" d="M-193 0h-190l956 1423h193z" />
<glyph unicode="&#x205f;" horiz-adv-x="587" />
<glyph unicode="&#x20ac;" horiz-adv-x="1204" d="M625 225q136 0 223 170l246 -78q-30 -68 -77 -127.5t-111.5 -109t-151 -78.5t-183.5 -29q-201 0 -299 127.5t-86 372.5h-145l35 162h129q9 54 14 78l8 39h-127l35 159h137q91 263 247.5 401t365.5 138q97 0 169.5 -28.5t113.5 -78t60.5 -109t20.5 -128.5l-278 -78 q-2 43 -14.5 79t-45 63.5t-80.5 27.5q-166 0 -266 -287h353l-58 -159h-340l-8 -39q-5 -24 -14 -78h317l-53 -162h-283q-9 -248 146 -248z" />
<glyph unicode="&#x20bd;" horiz-adv-x="1290" d="M995 1423q80 0 143 -22.5t101.5 -61.5t63 -91t26 -111t-9.5 -121q-16 -77 -58 -148t-104 -129t-149.5 -92.5t-186.5 -34.5h-284l-31 -145h199l-54 -246h-198l-47 -221h-287l47 221h-174l51 246h176l31 145h-176l53 246h174l121 565h573zM1026 1018q13 65 -19 112.5 t-104 47.5h-248l-67 -320h250q72 0 122.5 47.5t65.5 112.5z" />
<glyph unicode="&#x2113;" horiz-adv-x="882" d="M641 1450q154 0 219.5 -91.5t36.5 -232.5q-40 -187 -171.5 -355t-332.5 -290l-16 -71q-11 -52 0 -89.5t38.5 -55.5t57 -26t64.5 -8l-68 -249q-83 0 -148 13t-118.5 43t-81.5 79t-38 121.5t13 169.5l125 581l25 117q23 108 86.5 188t144 118t164.5 38zM694 1102 q14 61 -2 99t-57 38q-34 0 -63.5 -28t-39.5 -78l-26 -127l-68 -316q97 78 164.5 185t91.5 227z" />
<glyph unicode="&#x2116;" horiz-adv-x="2013" d="M1692 905q-107 0 -166.5 79.5t-36.5 193.5q25 113 118 192.5t201 79.5q107 0 166.5 -79.5t36.5 -192.5t-117 -193t-202 -80zM49 0l303 1423h269l335 -913l195 913h287l-303 -1423h-267l-340 913l-192 -913h-287zM1722 1042q53 0 97.5 39.5t56.5 96.5q10 57 -17.5 96 t-78.5 39q-53 0 -98.5 -39t-57.5 -96q-11 -57 17.5 -96.5t80.5 -39.5zM1430 705l30 147h438l-30 -147h-438z" />
<glyph unicode="&#x2122;" horiz-adv-x="1449" d="M362 823l95 447h-168l35 153h485l-35 -153h-166l-94 -447h-152zM737 823l127 600h221l35 -284l158 284h221l-127 -600h-151l77 377l-149 -268h-145l-35 268l-80 -377h-152z" />
<glyph unicode="&#x212e;" horiz-adv-x="1576" d="M983 1450q199 0 339 -80.5t196.5 -225.5t17.5 -329l-10 -49h-1041l-133 -627q146 -112 375 -112q189 0 379 105t299 271l37 -28q-126 -177 -329.5 -289.5t-397.5 -112.5q-214 0 -363.5 92.5t-207.5 259t-13 377.5q45 216 169.5 387t303 266t379.5 95zM598 1294l-100 -477 h696l104 498q-133 82 -325 82q-199 0 -375 -103z" />
<glyph unicode="&#x2190;" horiz-adv-x="1794" d="M702 -100l-557 751l877 754l137 -170l-526 -459h1087l-53 -248h-1087l331 -458z" />
<glyph unicode="&#x2191;" horiz-adv-x="1523" d="M522 0l209 985l-481 -414l-135 172l837 705l539 -705l-207 -172l-305 414l-211 -985h-246z" />
<glyph unicode="&#x2192;" horiz-adv-x="1794" d="M815 -100l-137 170l526 458h-1085l51 248h1087l-329 459l207 170l559 -754z" />
<glyph unicode="&#x2193;" horiz-adv-x="1523" d="M639 -25l-537 705l207 172l305 -414l211 985h246l-211 -985l483 414l136 -172z" />
<glyph unicode="&#x2194;" horiz-adv-x="2433" d="M1774 1405l559 -754l-881 -751l-135 170l526 458h-1263l331 -458l-209 -170l-557 751l877 754l137 -170l-526 -459h1261l-329 459z" />
<glyph unicode="&#x2195;" horiz-adv-x="1523" d="M772 20l481 414l136 -172l-838 -704l-537 704l207 172l303 -414l211 986h2l39 186l-483 -414l-133 172l837 705l537 -705l-207 -172l-305 414l-39 -186l-63 -293l-107 -506h-2z" />
<glyph unicode="&#x2196;" horiz-adv-x="1515" d="M1098 86l-594 817l-139 -663h-244l229 1079h1041l-52 -242h-624l594 -817z" />
<glyph unicode="&#x2197;" horiz-adv-x="1515" d="M229 129l-137 174l940 817h-622l53 242h1040l-229 -1079h-244l139 663z" />
<glyph unicode="&#x2198;" horiz-adv-x="1515" d="M186 63l50 240h624l-594 817l211 174l594 -817l141 664h244l-229 -1078h-1041z" />
<glyph unicode="&#x2199;" horiz-adv-x="1515" d="M72 10l229 1080h244l-144 -664l942 817l138 -174l-940 -817h622l-51 -242h-1040z" />
<glyph unicode="&#x2202;" horiz-adv-x="1044" d="M276 -27q-70 0 -125 22.5t-88 61.5t-52 92.5t-18.5 116t13.5 131.5q45 216 187.5 355t328.5 139q62 0 115 -26.5t88 -67.5q28 63 49 178q23 107 -7 165t-108 58q-122 0 -235 -102l-76 186q95 80 204.5 124t207.5 44q86 0 149 -26.5t98.5 -72t51.5 -111t13 -139.5 t-21 -161q-45 -212 -118.5 -387.5t-171 -305.5t-222 -202t-263.5 -72zM362 217q57 0 114.5 57t98 133.5t70.5 165.5q-15 36 -51 62.5t-86 26.5q-163 0 -221 -265q-17 -80 3 -130t72 -50z" />
<glyph unicode="&#x2205;" horiz-adv-x="1572" d="M1624 1331l-166 -147q122 -209 64 -475q-32 -150 -116.5 -286t-199.5 -234.5t-257 -157t-285 -58.5q-232 0 -390 148l-163 -148l-93 119l162 146q-58 97 -74.5 216.5t11.5 254.5q43 201 173.5 371.5t313.5 270t373 99.5q233 0 389 -150l166 150zM387 711 q-30 -151 21 -269l735 660q-91 78 -221 78q-118 0 -231.5 -63t-195 -171t-108.5 -235zM1253 711q31 154 -22 268l-733 -657q94 -78 223 -78q179 0 335 137t197 330z" />
<glyph unicode="&#x220f;" horiz-adv-x="1304" d="M96 0l248 1178h-160l54 245h1200l-54 -245h-159l-250 -1178h-287l250 1178h-307l-248 -1178h-287z" />
<glyph unicode="&#x2211;" horiz-adv-x="1026" d="M-117 -340l47 225l504 658l-219 655l47 225h868l-53 -245h-553l187 -584l-21 -105l-438 -583h590l-51 -246h-908z" />
<glyph unicode="&#x2212;" horiz-adv-x="1146" d="M104 590l56 246h952l-53 -246h-955z" />
<glyph unicode="&#x221a;" horiz-adv-x="1253" d="M385 0l-102 868l-168 -37l12 216l442 79l68 -809l567 1133l258 -29l-747 -1421h-330z" />
<glyph unicode="&#x221e;" horiz-adv-x="1388" d="M356 399q-122 0 -188.5 89.5t-38.5 222.5q29 133 133.5 223t226.5 90q162 0 271 -160q178 160 338 160q124 0 191 -90t38 -223q-28 -132 -133 -222t-229 -90q-163 0 -271 158q-171 -158 -338 -158zM430 612q26 0 59.5 17t56.5 35t58 47q-69 98 -133 98q-36 0 -69 -28 t-42 -70q-10 -41 11.5 -70t58.5 -29zM983 612q38 0 72 29t43 70q9 42 -13 70t-61 28q-61 0 -172 -98q21 -29 37 -47t42 -35t52 -17z" />
<glyph unicode="&#x222b;" horiz-adv-x="622" d="M-160 -426q-96 0 -137.5 48.5t-28.5 113.5q9 49 48 85t90 36q54 0 75 -28.5t13 -70.5q-8 -34 -32.5 -65.5t-57.5 -48.5q48 0 93 40t62 117l240 1129q30 139 86 244t123 163t133.5 85.5t130.5 27.5q97 0 139 -48.5t29 -113.5q-11 -50 -49 -85.5t-90 -35.5q-51 0 -72.5 29 t-13.5 70q8 35 32 66t58 48q-50 0 -95 -40t-61 -117l-242 -1129q-24 -112 -65.5 -203t-90 -148.5t-105 -97t-109 -55.5t-103.5 -16z" />
<glyph unicode="&#x2248;" horiz-adv-x="1085" d="M152 805q34 158 116.5 240.5t204.5 82.5q53 0 120 -24.5t125.5 -49t90.5 -24.5q40 0 70 31t41 80h194q-34 -156 -116.5 -239t-204.5 -83q-52 0 -119 24t-125.5 48t-91.5 24q-41 0 -69.5 -30t-37.5 -80h-198zM61 375q32 157 115 240t205 83q53 0 120 -24t125.5 -48 t90.5 -24q41 0 70 30t40 79h197q-35 -156 -118.5 -239t-205.5 -83q-52 0 -118.5 24t-125 48t-91.5 24q-41 0 -69.5 -30t-37.5 -80h-197z" />
<glyph unicode="&#x2260;" horiz-adv-x="1146" d="M1176 1389l-189 -267h184l-51 -245h-305l-231 -328h467l-54 -246h-585l-189 -266h-178l186 266h-186l53 246h308l229 328h-469l53 245h590l186 267h181z" />
<glyph unicode="&#x2264;" horiz-adv-x="1146" d="M1001 319l-866 406l45 219l1041 406l-58 -269l-694 -247l590 -246zM-18 0l51 246h952l-51 -246h-952z" />
<glyph unicode="&#x2265;" horiz-adv-x="1146" d="M47 319l57 269l697 246l-592 247l59 269l867 -406l-48 -219zM-18 0l51 246h952l-51 -246h-952z" />
<glyph unicode="&#x25ca;" horiz-adv-x="1112" d="M281 0l-183 713l486 710h319l182 -710l-485 -713h-319zM489 231l320 480l-115 483l-321 -483z" />
<glyph unicode="&#x25fc;" horiz-adv-x="1095" d="M0 1096h1096v-1096h-1096v1096z" />
<glyph unicode="&#xfb00;" horiz-adv-x="1327" d="M-205 -426l51 238q99 0 154.5 44.5t79.5 157.5l178 836h-143l53 250h143l13 59q37 173 148.5 273t266.5 100q94 0 189 -43l-72 -234q-55 25 -102 25q-123 0 -150 -125l-12 -55h301l25 114q38 183 155.5 279t274.5 96q127 0 227 -45l-82 -235q-83 34 -147 34 q-122 0 -148 -133l-24 -110h219l-54 -250h-219l-159 -754q-26 -123 -78 -211t-127 -138.5t-163.5 -73.5t-199.5 -23l49 237q99 0 155 45t81 158l162 760h-301l-177 -830q-21 -100 -59 -176t-88.5 -127t-117 -83t-140 -46t-162.5 -14z" />
<glyph unicode="&#xfb03;" horiz-adv-x="1783" d="M-205 -426l51 238q99 0 154.5 44.5t79.5 157.5l178 836h-143l53 250h143l13 59q37 173 148.5 273t266.5 100q94 0 189 -43l-72 -234q-55 25 -102 25q-123 0 -150 -125l-12 -55h301l25 114q36 171 138.5 273t256.5 102q91 0 186 -43l-63 -225q-50 20 -90 20 q-122 0 -148 -131l-24 -110h581l-233 -1100h-281l180 850h-301l-159 -754q-26 -123 -78 -211t-127 -138.5t-163.5 -73.5t-199.5 -23l49 237q99 0 155 45t81 158l162 760h-301l-177 -830q-21 -100 -59 -176t-88.5 -127t-117 -83t-140 -46t-162.5 -14zM1636 1204 q-65 0 -102 42.5t-23 115.5q16 76 71.5 118t121.5 42q67 0 104 -42t21 -118q-17 -73 -72 -115.5t-121 -42.5z" />
<glyph unicode="&#xfb04;" horiz-adv-x="1994" d="M-205 -426l51 238q99 0 154.5 44.5t79.5 157.5l178 836h-143l53 250h143l13 59q37 173 148.5 273t266.5 100q94 0 189 -43l-72 -234q-55 25 -102 25q-123 0 -150 -125l-12 -55h301l25 114q36 168 149.5 271.5t267.5 103.5q95 0 183 -43l-68 -235q-37 26 -92 26 q-59 0 -103.5 -32.5t-60.5 -106.5l-20 -98h219l-54 -250h-219l-159 -754q-26 -123 -78 -211t-127 -138.5t-163.5 -73.5t-199.5 -23l49 237q99 0 155 45t81 158l162 760h-301l-177 -830q-21 -100 -59 -176t-88.5 -127t-117 -83t-140 -46t-162.5 -14zM1649 -27 q-132 0 -208.5 67.5t-76.5 199.5q0 58 14 118l248 1178h281l-246 -1159q-19 -79 11.5 -122.5t101.5 -43.5q46 0 104 18l-37 -225q-117 -31 -192 -31z" />
<glyph horiz-adv-x="575" d="M434 1245q-64 0 -101.5 43t-23.5 117q16 74 72.5 116t120.5 42q67 0 105 -42t22 -116q-17 -75 -72.5 -117.5t-122.5 -42.5zM31 0l233 1100h281l-234 -1100h-280z" />
<glyph horiz-adv-x="575" d="M434 1245q-64 0 -101.5 43t-23.5 117q16 74 72.5 116t120.5 42q67 0 105 -42t22 -116q-17 -75 -72.5 -117.5t-122.5 -42.5zM31 0l233 1100h281l-234 -1100h-280z" />
<glyph horiz-adv-x="620" d="M186 -14q-194 0 -194 225q0 81 20.5 166.5t60.5 165.5t110.5 131t160.5 51q101 0 153 -58t52 -169q0 -64 -13 -132t-41.5 -136.5t-69.5 -122.5t-103 -87.5t-136 -33.5zM219 129q40 0 72.5 41.5t51 101t28.5 115t10 94.5q0 103 -66 103q-38 0 -70.5 -41.5t-50.5 -100.5 t-28 -115t-10 -94q0 -104 63 -104z" />
<glyph horiz-adv-x="419" d="M70 0l114 537l-161 -80l16 147l199 109h145l-152 -713h-161z" />
<glyph horiz-adv-x="567" d="M-68 0l29 143l291 228q98 84 98 149q0 28 -18 46t-49 18q-68 0 -113 -78l-145 43q33 74 103.5 125t172.5 51q105 0 166 -49t61 -121q0 -136 -161 -266l-174 -139h253l-30 -150h-484z" />
<glyph horiz-adv-x="581" d="M180 -14q-106 0 -167 49.5t-66 132.5l157 43q5 -38 30.5 -60t66.5 -22q47 0 76.5 32t29.5 72q0 30 -22 46t-58 16h-77l28 131h74q54 0 80 29t26 71q0 27 -17.5 42.5t-45.5 15.5q-64 0 -102 -78l-146 43q32 75 98.5 125.5t167.5 50.5q94 0 155.5 -45t61.5 -119 q0 -63 -32 -110.5t-88 -69.5v-2q75 -49 75 -139q0 -44 -19.5 -88t-55.5 -81.5t-96 -61t-134 -23.5z" />
<glyph horiz-adv-x="583" d="M209 0l33 150h-291l26 129l256 434h168l-247 -424h116l31 151h152l-31 -151h70l-29 -139h-72l-31 -150h-151z" />
<glyph horiz-adv-x="587" d="M178 -14q-106 0 -165.5 49t-65.5 133l157 43q13 -82 93 -82q59 0 92 43t33 90q0 44 -24.5 67t-61.5 23q-58 0 -97 -51l-121 25l107 387h416l-31 -148h-297l-29 -108q55 28 117 28q81 0 134.5 -52.5t53.5 -139.5q0 -122 -89 -214.5t-222 -92.5z" />
<glyph horiz-adv-x="604" d="M209 -14q-101 0 -160 60.5t-59 166.5q0 69 16.5 141t49.5 138.5t77.5 118.5t106 83t129.5 31q91 0 142.5 -48.5t49.5 -113.5l-145 -39q-16 56 -78 56q-51 0 -96 -48.5t-70 -128.5q76 66 145 66q80 0 138.5 -50t58.5 -130q0 -74 -34.5 -142t-106 -114.5t-164.5 -46.5z M229 129q53 0 84 43t31 90q0 34 -19.5 55t-52.5 21q-48 0 -80 -41t-32 -94q0 -35 18.5 -54.5t50.5 -19.5z" />
<glyph horiz-adv-x="499" d="M520 713l-28 -133l-371 -580h-164l365 571h-297l30 142h465z" />
<glyph horiz-adv-x="581" d="M178 -12q-98 0 -157.5 46.5t-59.5 119.5q0 139 145 208q-27 16 -46 51.5t-19 78.5q0 38 15 76t46.5 74t88.5 58.5t131 22.5q102 0 155 -43.5t53 -112.5q0 -78 -41 -131t-100 -80q82 -42 82 -129q0 -97 -76 -168t-217 -71zM262 424q49 0 78 35.5t29 79.5q0 29 -19 46 t-51 17q-46 0 -74 -37.5t-28 -75.5q0 -29 16.5 -47t48.5 -18zM195 111q56 0 85 39t29 83q0 32 -18.5 51t-52.5 19q-50 0 -81.5 -39.5t-31.5 -85.5q0 -31 19 -49t51 -18z" />
<glyph horiz-adv-x="673" d="M383 727q101 0 160 -60.5t59 -166.5q0 -69 -16.5 -141t-49.5 -138.5t-77.5 -118.5t-106 -83t-129.5 -31q-91 0 -142.5 48.5t-49.5 113.5l145 38q16 -55 78 -55q51 0 96 48t70 128q-75 -65 -146 -65q-80 0 -138 50t-58 130q0 74 34.5 142t106 114.5t164.5 46.5zM362 584 q-52 0 -83 -42.5t-31 -90.5q0 -34 19 -55t52 -21q48 0 80.5 41t32.5 94q0 35 -18.5 54.5t-51.5 19.5z" />
<glyph horiz-adv-x="622" d="M338 696q-96 0 -145.5 57.5t-49.5 168.5q0 64 12 131.5t40 137t67.5 123.5t100.5 88t133 34q101 0 152.5 -58.5t51.5 -169.5q0 -81 -21.5 -167t-63 -165t-114 -129.5t-163.5 -50.5zM371 840q40 0 72.5 41.5t51 101t28 115t9.5 94.5q0 102 -65 102q-38 0 -70.5 -41 t-51 -100t-28.5 -115t-10 -94q0 -104 64 -104z" />
<glyph horiz-adv-x="419" d="M221 711l115 536l-162 -80l16 148l199 108h146l-152 -712h-162z" />
<glyph horiz-adv-x="567" d="M84 711l29 143l290 227q99 85 99 150q0 28 -18 45.5t-50 17.5q-68 0 -112 -77l-146 43q33 74 104 125t173 51q105 0 166 -49t61 -121q0 -136 -162 -267l-174 -139h254l-31 -149h-483z" />
<glyph horiz-adv-x="581" d="M332 696q-106 0 -167.5 50t-66.5 133l158 43q5 -38 30 -60t66 -22q47 0 77 32.5t30 71.5q0 30 -22 46t-58 16h-78l29 131h73q54 0 80.5 29.5t26.5 70.5q0 27 -17.5 42t-46.5 15q-64 0 -102 -77l-145 43q32 75 98.5 125.5t167.5 50.5q94 0 155.5 -45t61.5 -119 q0 -62 -32.5 -110t-88.5 -70v-2q76 -50 76 -140q0 -44 -19.5 -88t-55.5 -81.5t-96 -61t-134 -23.5z" />
<glyph horiz-adv-x="583" d="M360 711l33 149h-291l27 129l256 434h168l-248 -424h117l31 152h151l-31 -152h70l-29 -139h-71l-31 -149h-152z" />
<glyph horiz-adv-x="587" d="M330 696q-106 0 -166 49.5t-66 133.5l158 43q13 -82 92 -82q59 0 92 43t33 90q0 44 -24.5 67t-61.5 23q-57 0 -96 -51l-121 24l106 387h416l-30 -147h-297l-29 -109q57 29 117 29q81 0 134.5 -52.5t53.5 -139.5q0 -122 -89 -215t-222 -93z" />
<glyph horiz-adv-x="604" d="M360 696q-101 0 -160 61t-59 167q0 69 16.5 141t49.5 138.5t77.5 118.5t106 83t129.5 31q91 0 143 -48.5t50 -113.5l-146 -39q-16 55 -78 55q-51 0 -95.5 -48t-69.5 -128q76 66 145 66q80 0 138.5 -50.5t58.5 -130.5q0 -54 -21 -107.5t-58.5 -97.5t-97 -71t-129.5 -27z M381 840q53 0 84 43t31 90q0 34 -19.5 55t-52.5 21q-48 0 -80.5 -41.5t-32.5 -94.5q0 -35 18.5 -54t51.5 -19z" />
<glyph horiz-adv-x="501" d="M672 1423l-29 -133l-371 -579h-163l364 571h-297l31 141h465z" />
<glyph horiz-adv-x="581" d="M330 698q-98 0 -157.5 46.5t-59.5 119.5q0 140 145 209q-27 16 -46 51t-19 78q0 38 15 76.5t46 74.5t88 58.5t131 22.5q102 0 155.5 -43.5t53.5 -112.5q0 -78 -41 -131t-100 -80q82 -42 82 -129q0 -97 -76 -168.5t-217 -71.5zM414 1135q49 0 77.5 35t28.5 79 q0 29 -18.5 46.5t-50.5 17.5q-47 0 -75 -37.5t-28 -75.5q0 -29 17 -47t49 -18zM346 821q56 0 85.5 39.5t29.5 83.5q0 32 -19 51t-53 19q-50 0 -81.5 -39.5t-31.5 -85.5q0 -31 19 -49.5t51 -18.5z" />
<glyph horiz-adv-x="671" d="M532 1438q101 0 160.5 -61t59.5 -167q0 -69 -16.5 -141t-49.5 -138.5t-77.5 -118.5t-106 -83t-129.5 -31q-91 0 -143 48.5t-50 113.5l146 39q16 -55 77 -55q51 0 96 48t70 128q-76 -66 -145 -66q-80 0 -138.5 50.5t-58.5 130.5q0 74 34.5 142t106 114.5t164.5 46.5z M512 1294q-53 0 -84 -43t-31 -90q0 -34 19.5 -55t52.5 -21q48 0 80.5 41.5t32.5 94.5q0 35 -18.5 54t-51.5 19z" />
<glyph d="M-539 1159l115 377h229l-149 -377h-195z" />
</font>
</defs>
</svg>
