<?xml version="1.0" standalone="no"?>
<!DOCTYPE svg PUBLIC "-//W3C//DTD SVG 1.1//EN" "http://www.w3.org/Graphics/SVG/1.1/DTD/svg11.dtd" >
<svg xmlns="http://www.w3.org/2000/svg" xmlns:xlink="http://www.w3.org/1999/xlink" version="1.1">
<metadata></metadata>
<defs>
<font id="leroy_merlin_sansitalic" horiz-adv-x="0" >
<font-face units-per-em="2048" ascent="1577" descent="-471" />
<missing-glyph horiz-adv-x="409" />
<glyph unicode="fi" horiz-adv-x="1155" d="M1098 1100l-234 -1100h-170l201 946h-436l-209 -989q-23 -109 -65.5 -185.5t-103 -118.5t-129.5 -60.5t-157 -18.5l31 145q104 0 164.5 50.5t89.5 181.5l211 995h-164l33 154h162l28 131q29 144 126 240t239 96q86 0 166 -43l-47 -144q-55 33 -111 33q-74 0 -129.5 -46 t-75.5 -144l-26 -123h606zM1110 1550q44 0 69 -28.5t15 -77.5q-10 -48 -48 -77.5t-81 -29.5q-42 0 -67.5 29.5t-16.5 77.5q11 49 49 77.5t80 28.5z" />
<glyph unicode="fl" horiz-adv-x="1259" d="M-205 -426l31 145q104 0 164.5 50.5t89.5 181.5l211 995h-164l33 154h162l28 131q29 144 126 240t239 96q86 0 166 -43l-47 -144q-55 33 -111 33q-74 0 -129.5 -46t-75.5 -144l-26 -123h247l-32 -154h-248l-209 -989q-23 -109 -65.5 -185.5t-103 -118.5t-129.5 -60.5 t-157 -18.5zM971 -25q-110 0 -176 57t-66 175q0 55 14 112l256 1217h170l-254 -1204q-22 -99 8 -155t113 -56q50 0 105 18l-19 -143q-93 -21 -151 -21z" />
<glyph unicode="&#xd;" horiz-adv-x="1079" />
<glyph unicode=" "  horiz-adv-x="409" />
<glyph unicode="&#x09;" horiz-adv-x="409" />
<glyph unicode="&#xa0;" horiz-adv-x="409" />
<glyph unicode="!" horiz-adv-x="595" d="M184 385l211 1038h178l-229 -1038h-160zM176 -14q-43 0 -66.5 28.5t-13.5 77.5q9 49 46 78t81 29q46 0 69 -28.5t13 -78.5q-10 -49 -46.5 -77.5t-82.5 -28.5z" />
<glyph unicode="&#x22;" horiz-adv-x="722" d="M213 895l117 528h153l-137 -528h-133zM496 895l116 528h154l-137 -528h-133z" />
<glyph unicode="#" horiz-adv-x="1175" d="M1176 874h-179l-96 -327h178l-41 -135h-178l-121 -412h-151l121 412h-349l-120 -412h-152l121 412h-180l41 135h180l96 327h-180l41 138h180l121 411h151l-120 -411h348l121 411h151l-121 -411h179zM750 547l96 327h-348l-97 -327h349z" />
<glyph unicode="$" horiz-adv-x="1079" d="M639 799q140 -65 193 -102q139 -98 135 -248q-1 -37 -9 -76q-37 -173 -172 -282t-323 -118l-33 -153h-90l33 155q-142 13 -235 88t-118 197l173 55q20 -76 75.5 -123t139.5 -59l108 512q-35 16 -57.5 27t-55.5 28.5t-54 32.5t-46.5 37t-40.5 43t-29.5 50t-20 59.5 t-5 68.5t9.5 80q36 164 166.5 265t304.5 112l27 129h90l-27 -129q141 -10 225.5 -80t106.5 -188l-178 -54q-15 68 -65 111.5t-124 54.5zM403 1073q-12 -57 7.5 -102.5t54.5 -74t92 -58.5l96 454q-93 -12 -161.5 -71.5t-88.5 -147.5zM772 362q4 32 4 57.5t-12 49t-26.5 41.5 t-38.5 36t-47 31.5t-54 28.5l-102 -475q104 9 178.5 70.5t97.5 160.5z" />
<glyph unicode="%" horiz-adv-x="1452" d="M332 696q-89 0 -135.5 56.5t-46.5 162.5q0 60 11.5 127t38 138t64.5 127.5t96.5 92.5t128.5 36q93 0 141 -57t48 -165q0 -62 -12 -129.5t-39.5 -137.5t-66 -125.5t-98 -90.5t-130.5 -35zM227 0l940 1423h127l-940 -1423h-127zM352 795q53 0 96.5 46.5t67.5 114t36.5 132 t12.5 112.5q0 139 -96 139q-51 0 -93.5 -47t-66 -115t-36.5 -133t-13 -112q0 -137 92 -137zM1028 -14q-90 0 -137 56.5t-47 164.5q0 62 12 129.5t38.5 137.5t65 125.5t97.5 90.5t129 35q92 0 139 -56.5t47 -164.5q0 -61 -12 -128.5t-39 -138t-65.5 -125.5t-97.5 -90.5 t-130 -35.5zM1049 84q53 0 96 46.5t66.5 113.5t36 131.5t12.5 111.5q0 69 -24.5 105.5t-70.5 36.5q-53 0 -95.5 -47t-66 -115.5t-35.5 -134t-12 -113.5q0 -135 93 -135z" />
<glyph unicode="&#x26;" horiz-adv-x="1599" d="M1538 813l-29 -131h-204q-49 -333 -254 -521t-519 -188q-215 0 -342 102.5t-127 274.5q0 154 94 271.5t246 154.5q-79 31 -125.5 101t-46.5 165q0 175 140 291.5t352 116.5q157 0 277 -79t151 -202l-174 -47q-26 80 -97 127t-167 47q-132 0 -223 -76t-91 -186 q0 -94 70.5 -157.5t173.5 -63.5h74l-27 -131h-84q-158 0 -258 -89.5t-100 -221.5q0 -107 81.5 -174.5t219.5 -67.5q237 0 391.5 146.5t189.5 406.5h-241l24 131h625z" />
<glyph unicode="'" horiz-adv-x="446" d="M233 1008l125 528h154l-145 -528h-134z" />
<glyph unicode="(" horiz-adv-x="598" d="M244 -436q-42 89 -72.5 200t-49.5 250t-12.5 307t42.5 338q37 169 101.5 337t143 307t156.5 250t158 200l96 -51q-167 -203 -300.5 -468t-199.5 -575q-45 -212 -47.5 -413.5t25.5 -351t80 -279.5z" />
<glyph unicode=")" horiz-adv-x="598" d="M-63 -436l-99 51q167 203 300.5 468t199.5 576q45 211 48 412t-25 351t-80 280l120 51q41 -89 71.5 -200t50 -250t12.5 -307t-43 -337q-36 -170 -100.5 -338t-143 -307t-155.5 -249.5t-156 -200.5z" />
<glyph unicode="*" horiz-adv-x="913" d="M399 772q-21 -23 -46 -29.5t-43.5 3.5t-30 27.5t-7.5 42.5t25 48q18 19 88.5 70.5t120.5 105.5q-57 21 -135 26.5t-97 12.5q-51 21 -41 74q8 38 42.5 64.5t72.5 13.5q21 -7 47.5 -27.5t62.5 -45.5t79 -42q15 69 13.5 146.5t2.5 101.5q12 53 62 70q45 15 73 -10 q23 -21 14 -60q-5 -23 -41 -101.5t-51 -146.5q68 22 142.5 64t97.5 49q46 14 69 -13.5t15 -66.5q-12 -56 -64 -70q-24 -8 -101.5 -14t-143.5 -27q28 -53 76.5 -104.5t58.5 -69.5q19 -39 -10.5 -78.5t-69.5 -44t-64 30.5q-10 20 -21 94.5t-36 128.5q-48 -53 -94 -128t-66 -95 z" />
<glyph unicode="+" horiz-adv-x="1114" d="M1055 788l-33 -151h-367l-88 -416h-157l88 416h-369l33 151h366l88 416h160l-88 -416h367z" />
<glyph unicode="," horiz-adv-x="458" d="M-33 -328l-35 80q67 32 126 96t71 125q2 10 2 29q-22 -14 -51 -14q-39 0 -61 28t-13 74q8 44 44 76.5t87 32.5q74 0 103.5 -55.5t11.5 -137.5q-22 -104 -95 -195.5t-190 -138.5z" />
<glyph unicode="-" horiz-adv-x="903" d="M139 596l37 172h643l-37 -172h-643z" />
<glyph unicode="." horiz-adv-x="417" d="M88 -14q-43 0 -67.5 28.5t-14.5 77.5t47 78t80 29q46 0 69 -28.5t13 -78.5t-45.5 -78t-81.5 -28z" />
<glyph unicode="/" horiz-adv-x="825" d="M41 -152l-119 52l1022 1687l117 -51z" />
<glyph unicode="0" horiz-adv-x="1181" d="M465 -27q-176 0 -266 111.5t-90 325.5q0 121 20.5 244t58 239t96.5 217.5t131 177t166 119t197 43.5q179 0 271 -113t92 -329q0 -121 -20.5 -244.5t-59 -238.5t-97.5 -215.5t-132 -175.5t-168 -118t-199 -43zM498 129q105 0 195.5 85.5t147.5 216.5t89.5 279.5 t32.5 282.5q0 146 -55.5 223.5t-162.5 77.5q-83 0 -157.5 -57t-128 -149.5t-93.5 -207.5t-59.5 -233t-19.5 -223q0 -142 54 -218.5t157 -76.5z" />
<glyph unicode="1" horiz-adv-x="718" d="M236 0l262 1231l-322 -178l17 161l364 209h156l-303 -1423h-174z" />
<glyph unicode="2" horiz-adv-x="1128" d="M-2 0l33 158l563 475q191 166 257.5 262.5t66.5 206.5q0 80 -69 136t-167 56q-176 0 -295 -170l-156 56q76 132 196.5 201t272.5 69q172 0 288 -94t116 -236q0 -143 -84.5 -267.5t-304.5 -313.5l-443 -377h660l-33 -162h-901z" />
<glyph unicode="3" horiz-adv-x="1146" d="M475 -27q-189 0 -303.5 87t-134.5 214l172 56q19 -88 89.5 -144.5t188.5 -56.5q138 0 239 93.5t101 228.5q0 100 -75.5 154t-184.5 54h-153l30 144h150q149 0 246.5 87.5t97.5 227.5q0 81 -62 128.5t-153 47.5q-179 0 -295 -170l-154 56q71 122 193 196t285 74 q166 0 270 -86t104 -219q0 -137 -84.5 -244.5t-222.5 -144.5l-2 -2q74 -28 133.5 -101.5t59.5 -179.5q0 -143 -69.5 -257.5t-191.5 -178.5t-274 -64z" />
<glyph unicode="4" horiz-adv-x="1103" d="M573 0l68 319h-606l31 144l620 960h182l-614 -952h418l84 389h166l-82 -389h164l-31 -152h-166l-68 -319h-166z" />
<glyph unicode="5" horiz-adv-x="1157" d="M465 -27q-99 0 -178 24.5t-129.5 67t-80 95t-40.5 114.5l172 56q20 -89 88 -145t184 -56q106 0 194 63.5t134.5 161t46.5 203.5q0 114 -68 176t-178 62q-123 0 -239 -80l-127 33l190 675h727l-35 -159h-591l-109 -377q128 55 252 55q157 0 258.5 -92.5t101.5 -263.5 q0 -121 -42.5 -232.5t-116 -195.5t-182 -134.5t-232.5 -50.5z" />
<glyph unicode="6" horiz-adv-x="1159" d="M473 -27q-176 0 -275.5 109.5t-99.5 310.5q0 104 21 220.5t60.5 235t102 226.5t139 191.5t179 133.5t215.5 50q136 0 224.5 -70t99.5 -174l-162 -49q-24 66 -67.5 101.5t-121.5 35.5q-155 0 -282 -157.5t-191 -413.5q67 93 170.5 148t216.5 55q155 0 253 -98t98 -259 q0 -111 -42.5 -217.5t-116.5 -191t-184.5 -136t-236.5 -51.5zM508 129q80 0 150 37t115 96t71 130t26 140q0 105 -61.5 171.5t-163.5 66.5q-79 0 -149 -35.5t-116 -91t-72.5 -124t-26.5 -134.5q0 -123 61.5 -189.5t165.5 -66.5z" />
<glyph unicode="7" horiz-adv-x="995" d="M1110 1423l-31 -145l-796 -1278h-181l791 1272h-668l33 151h852z" />
<glyph unicode="8" horiz-adv-x="1148" d="M438 -27q-179 0 -287 86.5t-108 235.5t91 261t243 173q-160 90 -160 258q0 80 36 160.5t101 149t169.5 111t228.5 42.5q168 0 269 -83t101 -222q0 -145 -81.5 -252t-217.5 -164q183 -82 183 -272q0 -87 -38 -172t-107 -155t-179.5 -113.5t-243.5 -43.5zM612 799 q138 0 233 95t95 224q0 91 -61.5 142t-155.5 51q-137 0 -232.5 -95t-95.5 -221q0 -87 55 -141.5t162 -54.5zM469 115q150 0 254 99.5t104 238.5q0 94 -65 150t-178 56q-150 0 -254.5 -98.5t-104.5 -238.5q0 -98 68.5 -152.5t175.5 -54.5z" />
<glyph unicode="9" horiz-adv-x="1099" d="M696 1450q176 0 275.5 -109.5t99.5 -310.5q0 -104 -21 -220.5t-60.5 -235t-102 -226.5t-139 -191.5t-179 -133.5t-215.5 -50q-136 0 -224 70t-99 174l162 49q24 -66 67 -101.5t121 -35.5q155 0 282 157.5t191 413.5q-66 -93 -170 -147.5t-217 -54.5q-155 0 -252.5 97.5 t-97.5 258.5q0 111 42 217.5t116 191t184.5 136t236.5 51.5zM662 1294q-80 0 -150 -37t-115.5 -96t-71.5 -130t-26 -140q0 -105 61.5 -171.5t163.5 -66.5q104 0 190 60t130.5 147.5t44.5 177.5q0 123 -61.5 189.5t-165.5 66.5z" />
<glyph unicode=":" horiz-adv-x="417" d="M283 903q-43 0 -67.5 29t-14.5 78q10 48 47 77t80 29q46 0 70 -29t14 -77q-10 -49 -46.5 -78t-82.5 -29zM88 -14q-43 0 -67.5 28.5t-14.5 77.5t47 78t80 29q46 0 69 -28.5t13 -78.5t-45.5 -78t-81.5 -28z" />
<glyph unicode=";" horiz-adv-x="458" d="M301 901q-36 0 -60 21.5t-24 58.5q0 54 37.5 93.5t91.5 39.5q39 0 63.5 -22t24.5 -58q0 -54 -38 -93.5t-95 -39.5zM-29 -324l-39 76q88 40 143.5 116t55.5 134q-22 -14 -51 -14q-35 0 -56.5 23t-21.5 59q0 48 37 88.5t96 40.5t91 -37t32 -96q0 -44 -15.5 -96t-47.5 -108 t-90 -106.5t-134 -79.5z" />
<glyph unicode="&#x3c;" horiz-adv-x="1114" d="M928 195l-799 448l31 139l989 449l-37 -164l-782 -354l633 -355z" />
<glyph unicode="=" horiz-adv-x="1114" d="M190 924l31 151h893l-31 -151h-893zM68 350l32 152h893l-32 -152h-893z" />
<glyph unicode="&#x3e;" horiz-adv-x="1114" d="M37 203l35 164l784 352l-635 354l37 164l797 -449l-31 -137z" />
<glyph unicode="?" horiz-adv-x="944" d="M287 385l20 100q16 72 52.5 131.5t81.5 98.5t95.5 74t98 67t86 67.5t61.5 85t23 111.5q0 81 -55.5 127.5t-137.5 46.5q-81 0 -160 -44t-133 -124l-153 54q83 132 206.5 201t274.5 69q144 0 242 -76.5t98 -212.5q0 -80 -25 -146t-65.5 -111.5t-90 -84.5t-102 -74.5 t-98 -71.5t-80.5 -86t-47 -108l-18 -94h-174zM303 -14q-37 0 -61.5 22t-24.5 58q0 53 38 93t93 40q37 0 61.5 -22t24.5 -58q0 -53 -38 -93t-93 -40z" />
<glyph unicode="@" horiz-adv-x="1312" d="M528 -188q-225 0 -348 134.5t-123 368.5q0 135 32.5 264.5t96.5 241.5t152 197t206 133.5t251 48.5q215 0 332.5 -123.5t117.5 -331.5q0 -110 -26 -217t-72 -192t-115.5 -138t-148.5 -53q-131 0 -152 107q-79 -98 -188 -98q-85 0 -137 58t-52 165q0 122 46.5 225.5 t131 166t189.5 62.5q114 0 201 -69l-86 -395q-12 -56 7 -88.5t64 -32.5q63 0 118.5 76.5t85.5 187t30 219.5q0 175 -96 273t-269 98q-133 0 -249.5 -65t-196 -171.5t-125 -245.5t-45.5 -286q0 -194 106.5 -307t280.5 -113q78 0 160 21.5t147 60.5l16 -96q-63 -38 -158 -62 t-184 -24zM584 258q63 0 129 92l75 350q-37 27 -88 27q-59 0 -110.5 -54t-80 -132.5t-28.5 -155.5q0 -60 27.5 -93.5t75.5 -33.5z" />
<glyph unicode="A" horiz-adv-x="1193" d="M852 0l-33 344h-540l-177 -344h-178l750 1423h219l145 -1423h-186zM356 498h451l-70 743z" />
<glyph unicode="B" horiz-adv-x="1206" d="M76 0l303 1423h422q55 0 105 -8.5t100 -32t83 -59.5t48 -96t2 -137q-21 -139 -98.5 -233t-186.5 -126l-2 -2q37 -11 69.5 -33.5t60 -59t38.5 -93t0 -125.5q-15 -113 -61 -195.5t-116.5 -130t-155 -70t-185.5 -22.5h-426zM420 797h227q124 0 202 68.5t101 195.5 q11 60 0.5 102.5t-41 65t-69 32t-90.5 9.5h-230zM283 152h241q268 0 314 256q23 116 -31.5 175.5t-181.5 59.5h-240z" />
<glyph unicode="C" horiz-adv-x="1261" d="M588 -27q-215 0 -340 128.5t-125 371.5q0 189 54.5 364.5t151.5 312t243.5 218.5t318.5 82q181 0 287 -86.5t125 -212.5l-173 -53q-54 196 -262 196q-129 0 -238.5 -72t-180 -187.5t-109.5 -256t-39 -282.5q0 -181 86.5 -274t237.5 -93q216 0 346 197l149 -54 q-35 -61 -83.5 -112.5t-113.5 -94.5t-151.5 -67.5t-183.5 -24.5z" />
<glyph unicode="D" horiz-adv-x="1333" d="M76 0l303 1423h377q98 0 182 -22.5t154.5 -69.5t114.5 -120t61.5 -175.5t-4.5 -234.5q-52 -380 -263.5 -590.5t-531.5 -210.5h-393zM283 152h192q105 0 203.5 41.5t179.5 119.5t140.5 197t84.5 266q22 111 10 194t-43 140.5t-84 93.5t-113.5 52t-131.5 16h-201z" />
<glyph unicode="E" horiz-adv-x="1167" d="M76 0l303 1423h784l-35 -151h-608l-100 -479h530l-32 -154h-533l-102 -487h661l-31 -152h-837z" />
<glyph unicode="F" horiz-adv-x="1071" d="M76 0l303 1423h807l-35 -151h-631l-106 -500h530l-31 -149h-532l-131 -623h-174z" />
<glyph unicode="G" horiz-adv-x="1386" d="M1313 1147l-172 -49q-22 88 -91 142t-184 54q-136 0 -254 -90.5t-193.5 -236t-103.5 -318.5q-41 -233 49.5 -376.5t272.5 -143.5q221 0 367 143l65 320h-385l33 151h559l-119 -557q-109 -101 -254.5 -157t-300.5 -56q-165 0 -281 83t-164.5 233.5t-19.5 343.5 q30 230 134.5 415.5t268 293.5t355.5 108q185 0 290.5 -84t127.5 -219z" />
<glyph unicode="H" horiz-adv-x="1445" d="M76 0l303 1423h174l-133 -628h713l133 628h174l-303 -1423h-174l137 643h-715l-135 -643h-174z" />
<glyph unicode="I" horiz-adv-x="559" d="M76 0l303 1423h174l-303 -1423h-174z" />
<glyph unicode="J" horiz-adv-x="935" d="M-6 0l31 152h120q352 0 433 385l155 735h-391l33 151h565l-188 -886q-116 -537 -639 -537h-119z" />
<glyph unicode="K" horiz-adv-x="1224" d="M1296 1423l-634 -632l401 -791h-215l-328 651l-166 -166l-104 -485h-174l303 1423h174l-141 -667l669 667h215z" />
<glyph unicode="L" horiz-adv-x="1138" d="M76 0l303 1423h174l-270 -1271h632l-32 -152h-807z" />
<glyph unicode="M" horiz-adv-x="1652" d="M76 0l303 1423h188l258 -870l633 870h189l-304 -1423h-174l236 1114l-551 -778h-147l-222 778l-235 -1114h-174z" />
<glyph unicode="N" horiz-adv-x="1413" d="M76 0l303 1423h168l446 -1120l240 1120h174l-303 -1423h-168l-449 1120l-237 -1120h-174z" />
<glyph unicode="O" horiz-adv-x="1343" d="M549 -27q-195 0 -311.5 126.5t-116.5 357.5q0 124 22.5 245.5t65.5 231.5t108 204.5t145 164t183 108.5t217 39q206 0 318 -119t112 -352q0 -151 -31.5 -297t-95 -274t-151 -225t-208 -153.5t-257.5 -56.5zM584 129q97 0 183.5 50.5t148.5 135t107.5 192.5t68 225 t22.5 231q0 168 -74.5 249.5t-210.5 81.5q-85 0 -160.5 -35.5t-132 -97.5t-102 -143t-74.5 -173t-44 -187t-15 -187q0 -166 78 -254t205 -88z" />
<glyph unicode="P" horiz-adv-x="1124" d="M76 0l303 1423h405q200 0 295.5 -115.5t53.5 -316.5q-44 -210 -194.5 -332t-356.5 -122h-220l-112 -537h-174zM395 688h211q132 0 224.5 80.5t121.5 218.5q29 132 -29 208.5t-184 76.5h-219z" />
<glyph unicode="Q" horiz-adv-x="1343" d="M1292 979q0 -202 -54.5 -389t-165 -336.5t-259.5 -220.5l182 -291l-149 -100l-199 340q-50 -9 -98 -9q-195 0 -311.5 126.5t-116.5 357.5q0 124 22.5 245.5t65.5 231.5t108 204.5t145 164t183 108.5t217 39q206 0 318 -119t112 -352zM301 471q0 -166 78 -254t205 -88 q97 0 183.5 50.5t148.5 135t107.5 192.5t68 225t22.5 231q0 168 -74.5 249.5t-210.5 81.5q-85 0 -160.5 -35.5t-132 -97.5t-102 -143t-74.5 -173t-44 -187t-15 -187z" />
<glyph unicode="R" horiz-adv-x="1196" d="M1149 1114q0 -193 -95 -336t-266 -198l250 -580h-196l-230 551h-22h-223l-117 -551h-174l303 1423h405q76 0 139.5 -16.5t115.5 -51.5t81 -96.5t29 -144.5zM399 705h213q160 0 257.5 105.5t97.5 266.5q0 97 -57 146t-158 49h-232z" />
<glyph unicode="S" horiz-adv-x="1101" d="M465 -27q-167 0 -287 80.5t-151 206.5l172 55q23 -84 102.5 -135t181.5 -51q131 0 215 71t84 179q0 56 -31.5 103t-82 81.5t-111.5 66.5t-121.5 67.5t-111 76t-82 99.5t-31.5 131q0 201 139 323.5t365 122.5q166 0 272.5 -74t128.5 -196l-172 -54q-19 78 -84 123t-160 45 q-123 0 -208.5 -75.5t-85.5 -184.5q0 -56 31.5 -101.5t81.5 -78.5t110 -64.5t120.5 -66t110.5 -75t81.5 -100.5t31.5 -134q0 -194 -141 -317.5t-367 -123.5z" />
<glyph unicode="T" horiz-adv-x="1189" d="M385 0l268 1272h-442l35 151h1059l-35 -151h-443l-268 -1272h-174z" />
<glyph unicode="U" horiz-adv-x="1316" d="M545 -27q-214 0 -320 140.5t-49 410.5l193 899h174l-195 -903q-19 -81 -14 -152.5t29.5 -124.5t80 -83.5t136.5 -30.5q289 0 370 391l195 903h174l-193 -907q-113 -543 -581 -543z" />
<glyph unicode="V" horiz-adv-x="1292" d="M430 0l-178 1423h188l135 -1233l660 1233h180l-782 -1423h-203z" />
<glyph unicode="W" horiz-adv-x="1908" d="M330 0l-64 1423h189l30 -1214l545 1214h225l23 -1214l549 1214h188l-667 -1423h-222l-32 1198l-545 -1198h-219z" />
<glyph unicode="X" horiz-adv-x="1300" d="M1382 1423l-594 -712l297 -711h-198l-240 569l-483 -569h-191l611 723l-293 700h198l234 -559l469 559h190z" />
<glyph unicode="Y" horiz-adv-x="1206" d="M397 0l111 520l-264 903h196l197 -714l502 714h196l-653 -903l-111 -520h-174z" />
<glyph unicode="Z" horiz-adv-x="1185" d="M-6 0l29 137l976 1135h-718l34 151h928l-29 -135l-985 -1136h762l-33 -152h-964z" />
<glyph unicode="[" horiz-adv-x="538" d="M-8 -397l463 2179h323l-28 -131h-181l-407 -1917h180l-27 -131h-323z" />
<glyph unicode="\" horiz-adv-x="829" d="M578 -135l-304 1687l138 27l303 -1688z" />
<glyph unicode="]" horiz-adv-x="538" d="M-178 -397l28 131h181l407 1917h-180l27 131h323l-463 -2179h-323z" />
<glyph unicode="^" horiz-adv-x="913" d="M178 401l-92 48l422 651h131l143 -651l-108 -48l-123 584z" />
<glyph unicode="_" horiz-adv-x="1378" d="M-152 -205l29 137h1362l-29 -137h-1362z" />
<glyph unicode="`" horiz-adv-x="1183" d="M938 1241l-508 156l53 127l502 -168z" />
<glyph unicode="a" horiz-adv-x="1138" d="M385 -27q-153 0 -235 98.5t-82 274.5q0 208 64.5 383.5t193 286t297.5 110.5q119 0 191.5 -66.5t84.5 -150.5l41 191h170l-172 -819q-27 -128 -27 -209q0 -26 4 -72h-178q-6 30 -6 63q0 51 19 134q-51 -91 -146.5 -157.5t-218.5 -66.5zM455 125q89 0 165 56.5t124 145.5 t75 193.5t27 206.5q0 120 -54 184t-155 64q-89 0 -165.5 -56t-125 -144.5t-75.5 -192.5t-27 -205q0 -122 54 -187t157 -65z" />
<glyph unicode="b" horiz-adv-x="1130" d="M506 -27q-67 0 -120 19.5t-85.5 53t-51 71.5t-24.5 80q-24 -118 -67 -197h-168q63 136 96 279l264 1257h170l-129 -612q47 81 143 141.5t218 60.5q153 0 235 -96.5t82 -271.5q0 -143 -40 -282.5t-111 -252t-179 -181.5t-233 -69zM500 125q90 0 166.5 56t124.5 145 t75 193.5t27 207.5q0 120 -54 184t-157 64q-89 0 -165 -59t-124 -149.5t-75 -193.5t-27 -196q0 -122 53.5 -187t155.5 -65z" />
<glyph unicode="c" horiz-adv-x="1015" d="M426 -27q-167 0 -262.5 114.5t-95.5 299.5q0 104 26.5 210t79 200.5t123.5 168.5t165.5 117t199.5 43q143 0 230 -82.5t95 -205.5l-158 -50q-12 85 -66 136t-132 51q-109 0 -201.5 -86t-142 -212t-49.5 -255q0 -132 59 -210.5t164 -78.5q85 0 162 47.5t131 132.5l135 -61 q-66 -126 -189.5 -202.5t-273.5 -76.5z" />
<glyph unicode="d" horiz-adv-x="1134" d="M385 -27q-154 0 -235.5 108.5t-81.5 283.5q0 114 25 225t74 207.5t116 170t157 116t191 42.5q122 0 189 -60t81 -142l131 612h170l-266 -1257q-31 -151 -25 -279h-166q-10 56 11 190q-58 -93 -150.5 -155t-220.5 -62zM453 125q89 0 165 56.5t124 145.5t75 193.5t27 206.5 q0 120 -53.5 184t-155.5 64q-89 0 -165 -56t-124 -144.5t-75 -192.5t-27 -205q0 -122 54 -187t155 -65z" />
<glyph unicode="e" horiz-adv-x="1044" d="M492 131q91 0 181 48.5t148 135.5l115 -96q-77 -118 -201 -182t-278 -64q-170 0 -278.5 111.5t-108.5 300.5q0 195 74 364.5t210 273t303 103.5q143 0 220 -66t77 -165q0 -58 -26.5 -119.5t-80.5 -118.5t-127 -101.5t-174 -71.5t-214 -27q-28 0 -82 4q-2 -14 -2 -43 q0 -136 64 -211.5t180 -75.5zM637 975q-128 0 -226 -108.5t-139 -266.5q23 -2 64 -2q104 0 191.5 27t140.5 68.5t82.5 88t29.5 88.5q0 47 -36.5 76t-106.5 29z" />
<glyph unicode="f" horiz-adv-x="688" d="M-205 -426l31 145q104 0 164.5 50.5t89.5 181.5l211 995h-170l33 154h170l26 125q31 150 136 243t247 93q55 0 113 -13.5t88 -29.5l-57 -146q-72 37 -150 37q-71 0 -129 -44.5t-80 -141.5l-24 -123h292l-30 -154h-295l-211 -989q-23 -109 -65.5 -185.5t-103 -118.5 t-129.5 -60.5t-157 -18.5z" />
<glyph unicode="g" horiz-adv-x="1167" d="M340 -426q-133 0 -236 64t-143 184l145 67q24 -76 88.5 -122t155.5 -46q137 0 237.5 79t131.5 231l39 176q-30 -49 -76 -93t-123.5 -80t-163.5 -36q-156 0 -237.5 102t-81.5 277q0 141 39.5 274.5t109 239.5t175.5 170.5t229 64.5q66 0 119.5 -21.5t85 -55.5t49.5 -67 t24 -64l39 182h170l-225 -1063q-50 -231 -192 -347t-359 -116zM463 137q81 0 155.5 56t125 143.5t80.5 194.5t30 208q0 118 -57.5 183t-151.5 65q-72 0 -136 -36.5t-110 -97.5t-80 -138.5t-50.5 -161t-16.5 -164.5q0 -123 54 -187.5t157 -64.5z" />
<glyph unicode="h" horiz-adv-x="1173" d="M57 0l326 1536h170l-125 -588q57 74 143.5 126t186.5 52q162 0 239.5 -110.5t34.5 -310.5l-149 -705h-170l143 670q30 140 -22.5 217.5t-155.5 77.5q-100 0 -190 -82.5t-121 -227.5l-140 -655h-170z" />
<glyph unicode="i" horiz-adv-x="518" d="M428 1337q-42 0 -67.5 29.5t-16.5 77.5q11 49 49 77.5t80 28.5q44 0 69 -28.5t15 -77.5q-10 -48 -48 -77.5t-81 -29.5zM57 0l234 1100h170l-234 -1100h-170z" />
<glyph unicode="j" horiz-adv-x="501" d="M420 1337q-42 0 -67.5 29.5t-16.5 77.5q11 49 49 77.5t80 28.5q44 0 69 -28.5t15 -77.5q-10 -48 -48 -77.5t-81 -29.5zM-244 -426l31 145q104 0 164 50.5t88 181.5l244 1149h170l-242 -1143q-23 -109 -65.5 -185.5t-103 -118.5t-129.5 -60.5t-157 -18.5z" />
<glyph unicode="k" horiz-adv-x="1128" d="M1159 1100l-520 -455l309 -645h-215l-241 514l-191 -166l-74 -348h-170l326 1536h170l-203 -950l584 514h225z" />
<glyph unicode="l" horiz-adv-x="622" d="M334 -25q-110 0 -176 57t-66 175q0 55 14 112l256 1217h170l-253 -1204q-22 -99 7.5 -155t112.5 -56q49 0 105 18l-19 -143q-93 -21 -151 -21z" />
<glyph unicode="m" horiz-adv-x="1763" d="M57 0l234 1100h166l-33 -156q53 75 141 128.5t187 53.5q96 0 159.5 -47t83.5 -145q64 88 157.5 140t195.5 52q155 0 236 -108.5t38 -315.5l-149 -702h-170l141 672q31 142 -16 216.5t-144 74.5q-96 0 -179.5 -79.5t-115.5 -226.5l-139 -657h-170l143 670q29 143 -18 218 t-143 75t-179.5 -79.5t-115.5 -228.5l-140 -655h-170z" />
<glyph unicode="n" horiz-adv-x="1173" d="M57 0l234 1100h166l-33 -156q56 75 144.5 128.5t189.5 53.5q162 0 239.5 -110.5t34.5 -310.5l-149 -705h-170l143 670q30 140 -22.5 217.5t-155.5 77.5q-100 0 -190 -82.5t-121 -227.5l-140 -655h-170z" />
<glyph unicode="o" horiz-adv-x="1081" d="M416 -27q-168 0 -260.5 97.5t-92.5 281.5q0 117 26.5 230t78 211t123 172.5t167.5 117.5t204 43q169 0 261.5 -97t92.5 -281q0 -117 -26 -230t-78 -211t-123 -173t-167.5 -118t-205.5 -43zM449 125q89 0 165 55.5t124 144t75 193.5t27 207q0 121 -53.5 185.5t-155.5 64.5 q-89 0 -165 -56t-124 -144.5t-75 -193t-27 -206.5q0 -121 53.5 -185.5t155.5 -64.5z" />
<glyph unicode="p" horiz-adv-x="1163" d="M-29 -399l320 1499h170l-41 -197q22 38 54.5 75t78 71.5t106.5 55.5t127 21q148 0 232 -94t84 -274q0 -142 -40 -281.5t-110 -252t-178 -182t-233 -69.5q-63 0 -114 20t-82.5 53t-50.5 65.5t-30 68.5l-123 -579h-170zM532 123q88 0 164 56.5t124.5 146t76 195.5t27.5 208 q0 121 -53.5 184.5t-155.5 63.5q-131 0 -236 -137t-141 -338q-19 -111 -9 -195.5t62 -134t141 -49.5z" />
<glyph unicode="q" horiz-adv-x="1163" d="M616 -399l123 581q-51 -80 -144.5 -144.5t-215.5 -64.5q-179 0 -259 131t-44 375q40 289 188.5 468t360.5 179q66 0 118 -21.5t82.5 -55.5t47 -66.5t22.5 -64.5l39 182h170l-318 -1499h-170zM449 123q137 0 238 136t136 341q35 180 -15.5 278.5t-176.5 98.5 q-139 0 -241.5 -135.5t-139.5 -339.5q-34 -180 18.5 -279.5t180.5 -99.5z" />
<glyph unicode="r" horiz-adv-x="856" d="M57 0l234 1100h170l-35 -164q60 89 140 139.5t169 50.5q117 0 191 -77l-103 -152q-63 66 -147 66q-102 0 -193.5 -96.5t-124.5 -248.5l-131 -618h-170z" />
<glyph unicode="s" horiz-adv-x="950" d="M408 -27q-163 0 -270 70t-130 176l135 86q22 -86 92 -137t175 -51q97 0 159 51.5t62 140.5q0 42 -26 75t-67.5 56.5t-92 45.5t-100.5 48t-91.5 57.5t-67.5 81t-26 111.5q0 156 109.5 249t279.5 93q140 0 244 -62t127 -146l-136 -89q-22 65 -92.5 109.5t-150.5 44.5 q-86 0 -143.5 -49t-57.5 -125q0 -43 26 -78t67.5 -59t92 -46.5t100.5 -48t91.5 -56t67.5 -78t26 -107.5q0 -168 -112 -265.5t-291 -97.5z" />
<glyph unicode="t" horiz-adv-x="788" d="M399 -27q-138 0 -197 82.5t-24 243.5l137 647h-192l33 154h192l68 317l176 31l-74 -348h275l-31 -154h-277l-131 -614q-21 -101 4.5 -147t100.5 -46q78 0 162 43l-17 -159q-106 -50 -205 -50z" />
<glyph unicode="u" horiz-adv-x="1067" d="M330 -27q-150 0 -224 103.5t-40 263.5l161 760h170l-155 -731q-24 -115 21.5 -178.5t142.5 -63.5q65 0 129 34t116 104t72 163l143 672h170l-168 -789q-41 -185 -24 -311h-168q-12 56 4 162q-57 -78 -152 -133.5t-198 -55.5z" />
<glyph unicode="v" horiz-adv-x="1079" d="M328 0l-160 1100h176l119 -916l508 916h174l-627 -1100h-190z" />
<glyph unicode="w" horiz-adv-x="1673" d="M274 0l-77 1100h165l52 -899l446 899h187l59 -899l434 899h170l-547 -1100h-188l-66 899l-448 -899h-187z" />
<glyph unicode="x" horiz-adv-x="1021" d="M1079 1100l-469 -537l240 -563h-205l-174 410l-336 -410h-201l476 553l-232 547h203l168 -395l332 395h198z" />
<glyph unicode="y" horiz-adv-x="1060" d="M315 -426q-142 0 -237.5 71.5t-118.5 198.5l139 64q15 -88 75 -137.5t157 -49.5q62 0 122.5 30.5t110.5 95t68 151.5l39 178q-57 -75 -145.5 -127.5t-188.5 -52.5q-151 0 -225.5 100.5t-40.5 257.5l157 746h170l-151 -711q-24 -114 21.5 -178t144.5 -64q101 0 193.5 81 t121.5 216l139 656h170l-231 -1090q-46 -215 -175.5 -325.5t-314.5 -110.5z" />
<glyph unicode="z" horiz-adv-x="1085" d="M27 0l28 139l746 805h-565l32 156h781l-29 -129l-750 -815h592l-33 -156h-802z" />
<glyph unicode="{" horiz-adv-x="581" d="M246 -410q-117 0 -177.5 74.5t-29.5 216.5q20 92 115 316t108 282q13 69 -15 99t-97 36l28 134q70 5 112 35.5t56 99.5q14 61 14.5 284.5t18.5 313.5q31 142 121.5 215t208.5 73q70 0 129 -20l-41 -121q-41 14 -90 14q-72 0 -123.5 -41.5t-69.5 -127.5 q-18 -83 -17.5 -298.5t-13.5 -283.5q-12 -57 -38 -99.5t-57.5 -64.5t-53 -31.5t-41.5 -13.5l-2 -2q140 -40 102 -209q-14 -69 -106.5 -285t-110.5 -299q-18 -85 15.5 -126.5t105.5 -41.5q47 0 96 15l-10 -121q-77 -23 -137 -23z" />
<glyph unicode="|" horiz-adv-x="530" d="M-25 -471l437 2048h145l-436 -2048h-146z" />
<glyph unicode="}" horiz-adv-x="581" d="M-70 -410q-64 0 -131 23l41 121q41 -15 92 -15q71 0 121.5 41t69.5 127q17 82 16.5 300t14.5 284q36 170 190 209l2 2q-14 3 -27.5 9t-34.5 21t-31 37t-17 58t6 84q15 65 107.5 281.5t109.5 300.5q19 86 -14 127.5t-103 41.5q-55 0 -98 -14l8 121q70 20 141 20 q117 0 176.5 -73t30.5 -215q-20 -92 -115 -316t-108 -282q-14 -69 13.5 -99.5t96.5 -35.5l-28 -134q-72 -6 -112.5 -36t-53.5 -99q-12 -53 -12.5 -166.5t-2.5 -236t-18 -195.5q-31 -143 -122 -217t-208 -74z" />
<glyph unicode="~" horiz-adv-x="1050" d="M252 668l-117 26q18 90 85 153.5t157 63.5q67 0 212 -22.5t199 -22.5q97 0 127 115l119 -27q-23 -92 -92 -154.5t-168 -62.5q-66 0 -211 21.5t-192 21.5q-46 0 -76.5 -29.5t-42.5 -82.5z" />
<glyph unicode="&#xa1;" horiz-adv-x="595" d="M375 913q-43 0 -67.5 29.5t-14.5 77.5q10 49 46.5 77.5t80.5 28.5q46 0 69 -28t13 -78q-9 -48 -45 -77.5t-82 -29.5zM27 -311l229 1038h160l-211 -1038h-178z" />
<glyph unicode="&#xa2;" horiz-adv-x="1038" d="M524 293q77 9 144 56t112 122l148 -35q-64 -124 -183.5 -205t-250.5 -90l-31 -141h-90l30 143q-172 22 -249.5 174t-24.5 398q51 243 193.5 396t324.5 177l29 135h90l-29 -133q137 -9 215 -92t78 -197l-168 -49q-8 77 -48 127t-109 60zM303 715q-36 -172 0 -282.5 t133 -135.5l178 838q-108 -25 -192 -137.5t-119 -282.5z" />
<glyph unicode="&#xa3;" horiz-adv-x="1105" d="M520 1073q-7 -32 -11 -63.5t-3.5 -68.5t1 -57.5t3.5 -66t4 -59.5h336l-25 -109h-311q0 -64 -14 -127q-22 -105 -91 -210t-139 -160h635l-33 -152h-837l31 147q90 51 161 158t95 217q10 42 14 127h-205l25 109h178q-1 15 -4 74t-3 84.5t3 71.5t12 85q39 179 160 278 t282 99q156 0 239 -72.5t99 -197.5l-178 -54q-34 168 -186 168q-81 0 -148 -56.5t-90 -164.5z" />
<glyph unicode="&#xa4;" horiz-adv-x="1013" d="M100 322l-47 61l191 162q-37 77 -15 182q21 103 90 182l-118 164l71 60l117 -160q105 84 225 84q118 0 189 -84l184 160l47 -60l-188 -164q31 -79 10 -182q-17 -99 -88 -182l119 -162l-72 -61l-119 159q-105 -84 -223 -84q-119 0 -190 84zM502 535q73 0 137.5 57 t79.5 135q19 79 -21 136t-114 57q-73 0 -137.5 -56.5t-81.5 -136.5q-15 -79 24.5 -135.5t112.5 -56.5z" />
<glyph unicode="&#xa5;" horiz-adv-x="1206" d="M1335 1423l-590 -815h304l-23 -108h-348l-37 -176h348l-22 -107h-349l-47 -217h-174l47 217h-346l23 107h346l37 176h-346l24 108h299l-237 815h196l197 -714l502 714h196z" />
<glyph unicode="&#xa6;" horiz-adv-x="530" d="M240 774l172 803h145l-172 -803h-145zM-25 -471l170 803h146l-170 -803h-146z" />
<glyph unicode="&#xa7;" horiz-adv-x="841" d="M174 -332q-124 0 -167 83q-34 65 -2 136q29 68 94 84q15 4 32 4q63 0 78 -52q14 -49 -22 -95q-37 -47 -99 -47q14 -27 51 -37.5t78 -2t78.5 47t50.5 100.5q6 30 7 62.5t-5.5 69t-13.5 67.5t-22 74.5t-25.5 72t-30 78t-29.5 76.5q-25 62 -40 104.5t-31.5 104t-22.5 113 t-4.5 116t14.5 129.5q47 216 196 355t325 139q125 0 169 -85q33 -64 2 -135q-29 -68 -93 -83q-15 -4 -31 -4q-64 0 -79 52q-14 48 20 94q37 48 100 48q-11 21 -38 32t-60.5 7t-67 -20t-61 -52.5t-38.5 -86.5q-5 -22 -5 -47.5t1 -45t10 -52t13 -48.5t19 -55t20.5 -52 t24.5 -59t24 -57q29 -73 45 -117t38 -118t30 -132t8 -131.5t-15 -142.5q-28 -131 -112.5 -245.5t-196 -180.5t-217.5 -66zM416 -129q51 37 104.5 117t73.5 172q9 44 11 91.5t-5 97t-15.5 93t-25.5 98t-30 91.5t-33 92q-5 14 -23 62t-23.5 64t-19 56t-18 61t-11.5 52.5 t-8.5 57.5t0.5 52q3 72 33 127q-51 -35 -103.5 -121t-70.5 -173q-15 -70 -15.5 -134.5t14 -131t33 -120t50.5 -131.5q31 -78 47 -121t38 -116t27 -122.5t-0.5 -108t-29.5 -105.5z" />
<glyph unicode="&#xa8;" horiz-adv-x="1183" d="M520 1282q-33 0 -55.5 22.5t-22.5 55.5q0 47 34 81t85 34q33 0 55.5 -20t22.5 -54q0 -47 -34 -83t-85 -36zM866 1282q-31 0 -53 22.5t-22 55.5q0 47 32.5 81t83.5 34q33 0 55.5 -20t22.5 -54q0 -47 -34 -83t-85 -36z" />
<glyph unicode="&#xa9;" horiz-adv-x="1359" d="M557 -27q-133 0 -233 53.5t-155.5 151t-71 233.5t21.5 302q70 334 277 536.5t476 202.5q177 0 294 -92.5t154 -256.5t-7 -390q-71 -332 -279.5 -536t-476.5 -204zM580 74q224 0 397 176t233 463q63 288 -36 462.5t-324 174.5q-224 0 -397 -174t-234 -463 q-38 -193 -9.5 -335t125.5 -223t245 -81zM633 252q-156 0 -220 128t-22 331q44 203 163 331.5t275 128.5q69 0 130 -34.5t83 -98.5l-90 -80q-19 47 -55.5 74t-83.5 27q-103 0 -182 -93.5t-113 -254.5q-34 -160 5.5 -253t142.5 -93q109 0 194 98l55 -78q-55 -64 -131.5 -98.5 t-150.5 -34.5z" />
<glyph unicode="&#xaa;" horiz-adv-x="751" d="M375 745q-94 0 -142.5 67.5t-48.5 174.5q0 115 38.5 219t117 174t180.5 70q68 0 109.5 -41t50.5 -90l22 104h121l-102 -483q-17 -85 -2 -180h-125q-11 39 -2 104q-33 -50 -87.5 -84.5t-129.5 -34.5zM430 852q65 0 115.5 56t75 134t24.5 156q0 66 -29 103.5t-84 37.5 q-49 0 -91.5 -33t-69 -85t-41.5 -112t-15 -116q0 -67 30 -104t85 -37z" />
<glyph unicode="&#xab;" horiz-adv-x="905" d="M283 274l-148 388l311 387l105 -41l-266 -346l118 -347zM621 274l-146 388l309 387l109 -41l-266 -346l118 -347z" />
<glyph unicode="&#xac;" horiz-adv-x="1114" d="M807 281l76 356h-754l33 151h893l-109 -507h-139z" />
<glyph unicode="&#xad;" horiz-adv-x="903" d="M139 596l37 172h643l-37 -172h-643z" />
<glyph unicode="&#xae;" horiz-adv-x="1144" d="M764 1450q157 0 246.5 -90.5t89.5 -245.5q0 -110 -38 -208.5t-105.5 -171.5t-164.5 -116t-210 -43q-155 0 -246.5 94.5t-91.5 245.5q0 148 68.5 271t188 193.5t263.5 70.5zM600 662q118 0 212.5 64.5t144 166.5t49.5 217q0 120 -68 187t-190 67q-90 0 -167.5 -37 t-130 -99t-82.5 -143t-30 -167q0 -122 69 -189t193 -67zM723 1237q58 0 95.5 -34.5t37.5 -86.5q0 -50 -29.5 -93t-76.5 -58l45 -166h-86l-37 153h-56l-30 -153h-84l90 438h131zM680 1022q38 0 62 25t24 61q0 26 -16.5 41.5t-44.5 15.5h-46l-28 -143h49z" />
<glyph unicode="&#xaf;" horiz-adv-x="1183" d="M444 1315l27 129h514l-27 -129h-514z" />
<glyph unicode="&#xb0;" horiz-adv-x="794" d="M479 932q-104 0 -159.5 75t-32.5 183q22 107 110.5 183.5t192.5 76.5q102 0 158.5 -76.5t33.5 -183.5t-112 -182.5t-191 -75.5zM500 1026q63 0 118 48t70 116q14 68 -21 116t-98 48q-64 0 -119 -48t-69 -116t20.5 -116t98.5 -48z" />
<glyph unicode="&#xb1;" horiz-adv-x="1130" d="M702 852h381l-32 -152h-381l-82 -387h-146l82 387h-381l33 152h381l82 387h145zM2 0l33 152h891l-31 -152h-893z" />
<glyph unicode="&#xb2;" horiz-adv-x="536" d="M76 711l20 98l287 235q86 76 113.5 120t27.5 87q0 40 -26 64t-70 24q-90 0 -143 -82l-99 31q35 65 100.5 106.5t153.5 41.5q91 0 147 -48t56 -116q0 -71 -39 -133t-147 -152l-205 -176h307l-22 -100h-461z" />
<glyph unicode="&#xb3;" horiz-adv-x="561" d="M313 696q-96 0 -151.5 45.5t-63.5 114.5l105 35q8 -43 40.5 -69.5t86.5 -26.5q64 0 108.5 44t44.5 101q0 43 -33.5 66.5t-82.5 23.5h-76l18 90h78q68 0 109 39.5t41 97.5q0 38 -26 60t-67 22q-86 0 -137 -82l-98 31q35 65 98.5 106.5t149.5 41.5t140 -44t54 -114 q0 -66 -38 -119.5t-101 -71.5l-2 -2q37 -16 63.5 -50.5t26.5 -86.5q0 -42 -18 -85.5t-52 -81t-90.5 -61.5t-126.5 -24z" />
<glyph unicode="&#xb4;" horiz-adv-x="1183" d="M463 1227l-39 112l522 211l41 -129z" />
<glyph unicode="&#xb5;" horiz-adv-x="1087" d="M-92 -399l319 1499h170l-155 -731q-25 -113 20 -177.5t144 -64.5q65 0 129 34t116 104t72 163l143 672h170l-168 -789q-40 -190 -24 -311h-162q-16 58 0 162q-49 -75 -138 -130t-190 -55q-71 0 -119 31t-71 86l-90 -493h-166z" />
<glyph unicode="&#xb6;" horiz-adv-x="942" d="M336 -242l160 760q-84 0 -150 25.5t-106 69t-64.5 101.5t-25 123.5t11.5 133.5q18 87 62.5 167t110 144t158 102.5t197.5 38.5h121l-354 -1665h-121zM563 -242l355 1665h120l-354 -1665h-121z" />
<glyph unicode="&#xb7;" horiz-adv-x="495" d="M256 598q-43 0 -66.5 29t-13.5 78q9 49 45 77.5t80 28.5q46 0 70 -28.5t14 -77.5t-46.5 -78t-82.5 -29z" />
<glyph unicode="&#xb8;" horiz-adv-x="1183" d="M322 -424q-105 0 -172 51l49 78q59 -47 133 -47q50 0 83 24t40 56q5 30 -15 51t-63 21q-42 0 -86 -23l-64 41l150 172h115l-111 -117q42 11 68 11q76 0 113 -45t24 -107q-15 -68 -84 -117t-180 -49z" />
<glyph unicode="&#xb9;" horiz-adv-x="372" d="M219 711l125 592l-160 -86l11 100l188 106h98l-151 -712h-111z" />
<glyph unicode="&#xba;" horiz-adv-x="681" d="M381 743q-101 0 -157 59.5t-56 170.5q0 87 24 171t68 153t114 111t154 42q103 0 161.5 -63t58.5 -177q0 -119 -43.5 -224.5t-129 -174t-194.5 -68.5zM406 852q66 0 116.5 56.5t74.5 133.5t24 154q0 68 -28 106.5t-83 38.5q-65 0 -117 -58.5t-77 -137.5t-25 -154 q0 -139 115 -139z" />
<glyph unicode="&#xbb;" horiz-adv-x="905" d="M168 274l-107 41l267 347l-121 346l125 41l147 -387zM508 274l-107 41l267 347l-119 346l123 41l147 -387z" />
<glyph unicode="&#xbc;" horiz-adv-x="1107" d="M121 0h-127l940 1423h129zM219 711l125 592l-160 -86l11 100l188 106h98l-151 -712h-111zM776 0l33 156h-299l18 90l297 467h111l-289 -461h182l39 180h101l-37 -180h80l-21 -96h-80l-32 -156h-103z" />
<glyph unicode="&#xbd;" horiz-adv-x="1148" d="M121 0h-127l940 1423h129zM219 711l125 592l-160 -86l11 100l188 106h98l-151 -712h-111zM537 0l20 98l287 236q86 76 113.5 120t27.5 87q0 40 -26 64t-70 24q-91 0 -144 -82l-98 31q35 65 100 106t154 41q91 0 147 -48t56 -116q0 -71 -39 -133t-147 -152l-205 -176h307 l-23 -100h-460z" />
<glyph unicode="&#xbe;" horiz-adv-x="1296" d="M313 696q-96 0 -151.5 45.5t-63.5 114.5l105 35q8 -43 40.5 -69.5t86.5 -26.5q64 0 108.5 44t44.5 101q0 43 -33.5 66.5t-82.5 23.5h-76l18 90h78q68 0 109 39.5t41 97.5q0 38 -26 60t-67 22q-86 0 -137 -82l-98 31q35 65 98.5 106.5t149.5 41.5t140 -44t54 -114 q0 -66 -38 -119.5t-101 -71.5l-2 -2q37 -16 63.5 -50.5t26.5 -86.5q0 -42 -18 -85.5t-52 -81t-90.5 -61.5t-126.5 -24zM309 0h-127l940 1423h129zM965 0l32 156h-299l19 90l297 467h110l-288 -461h182l39 180h100l-37 -180h80l-20 -96h-80l-33 -156h-102z" />
<glyph unicode="&#xbf;" horiz-adv-x="892" d="M571 913q-37 0 -61.5 22t-24.5 58q0 55 38.5 94t94.5 39q38 0 61 -21t23 -58q0 -53 -38 -93.5t-93 -40.5zM268 -338q-151 0 -248.5 76.5t-97.5 212.5q0 70 24.5 129.5t64.5 103t89 82.5t101 77.5t97.5 78.5t81 94t48.5 117l21 94h174l-21 -98q-16 -76 -52 -139.5 t-81 -106.5t-95.5 -80.5t-98 -70t-86 -66.5t-62 -78t-23.5 -96q0 -81 55.5 -126.5t141.5 -45.5q80 0 157 43.5t130 122.5l155 -54q-70 -126 -198.5 -198t-276.5 -72z" />
<glyph unicode="&#xc0;" horiz-adv-x="1193" d="M594 1847l502 -168l-47 -114l-508 155zM674 1423h219l145 -1423h-186l-33 344h-540l-177 -344h-178zM356 498h451l-70 743z" />
<glyph unicode="&#xc1;" horiz-adv-x="1193" d="M1092 1739l-529 -187l-37 115l527 201zM674 1423h219l145 -1423h-186l-33 344h-540l-177 -344h-178zM356 498h451l-70 743z" />
<glyph unicode="&#xc2;" horiz-adv-x="1193" d="M850 1759l-227 -215l-97 53l287 289h129l164 -289l-117 -53zM674 1423h219l145 -1423h-186l-33 344h-540l-177 -344h-178zM356 498h451l-70 743z" />
<glyph unicode="&#xc3;" horiz-adv-x="1193" d="M1034 1855l113 -24q-27 -85 -83.5 -135.5t-135.5 -50.5q-40 0 -107.5 15t-87.5 15q-62 0 -80 -80l-110 27q24 79 74.5 126.5t117.5 47.5q39 0 113.5 -14.5t99.5 -14.5q63 0 86 88zM674 1423h219l145 -1423h-186l-33 344h-540l-177 -344h-178zM356 498h451l-70 743z" />
<glyph unicode="&#xc4;" horiz-adv-x="1193" d="M643 1606q-33 0 -55.5 22t-22.5 55q0 47 34 81t85 34q33 0 55.5 -20t22.5 -54q0 -47 -34 -82.5t-85 -35.5zM1030 1798q33 0 55.5 -20t22.5 -54q0 -47 -34 -82.5t-85 -35.5q-31 0 -53.5 22t-22.5 55q0 47 33 81t84 34zM674 1423h219l145 -1423h-186l-33 344h-540 l-177 -344h-178zM356 498h451l-70 743z" />
<glyph unicode="&#xc5;" horiz-adv-x="1193" d="M805 1546q-79 0 -118.5 52.5t-22.5 134.5t79.5 135t141.5 53q80 0 121 -53t24 -135q-17 -81 -81 -134t-144 -53zM756 1733q-9 -44 10.5 -72.5t56.5 -28.5q40 0 72 28.5t41 72.5q10 45 -10 73.5t-60 28.5q-38 0 -69.5 -28.5t-40.5 -73.5zM852 0l-33 344h-540l-177 -344 h-178l750 1423h219l145 -1423h-186zM356 498h451l-70 743z" />
<glyph unicode="&#xc6;" horiz-adv-x="1869" d="M1833 1272h-608l-103 -479h533l-33 -154h-532l-103 -487h662l-31 -152h-838l84 391h-440l-281 -391h-188l1036 1423h877zM532 543h363l154 719z" />
<glyph unicode="&#xc7;" horiz-adv-x="1261" d="M868 1294q-129 0 -238.5 -72t-180 -187.5t-109.5 -256t-39 -282.5q0 -181 86.5 -274t237.5 -93q216 0 346 197l149 -54q-45 -79 -110 -141t-166.5 -107t-220.5 -51l-86 -90q42 11 67 11q76 0 113 -45t24 -107q-15 -68 -84 -117t-180 -49q-105 0 -172 51l49 78 q59 -47 133 -47q50 0 83 24t40 56q5 30 -15 51t-63 21q-42 0 -86 -23l-63 41l131 149q-183 22 -287 148.5t-104 347.5q0 189 54.5 364.5t151.5 312t243.5 218.5t318.5 82q181 0 287 -86.5t125 -212.5l-173 -53q-54 196 -262 196z" />
<glyph unicode="&#xc8;" horiz-adv-x="1167" d="M1047 1565l-508 155l53 127l502 -168zM76 0l303 1423h784l-35 -151h-608l-100 -479h530l-32 -154h-533l-102 -487h661l-31 -152h-837z" />
<glyph unicode="&#xc9;" horiz-adv-x="1167" d="M561 1552l-37 115l527 201l39 -129zM76 0l303 1423h784l-35 -151h-608l-100 -479h530l-32 -154h-533l-102 -487h661l-31 -152h-837z" />
<glyph unicode="&#xca;" horiz-adv-x="1167" d="M621 1544l-97 53l287 289h129l164 -289l-117 -53l-139 215zM76 0l303 1423h784l-35 -151h-608l-100 -479h530l-32 -154h-533l-102 -487h661l-31 -152h-837z" />
<glyph unicode="&#xcb;" horiz-adv-x="1167" d="M641 1606q-33 0 -55.5 22t-22.5 55q0 47 34 81t85 34q33 0 55.5 -20t22.5 -54q0 -47 -34 -82.5t-85 -35.5zM987 1606q-31 0 -53.5 22t-22.5 55q0 47 33 81t84 34q33 0 55.5 -20t22.5 -54q0 -47 -34 -82.5t-85 -35.5zM76 0l303 1423h784l-35 -151h-608l-100 -479h530 l-32 -154h-533l-102 -487h661l-31 -152h-837z" />
<glyph unicode="&#xcc;" horiz-adv-x="559" d="M737 1565l-508 155l54 127l501 -168zM76 0l303 1423h174l-303 -1423h-174z" />
<glyph unicode="&#xcd;" horiz-adv-x="559" d="M252 1552l-37 115l526 201l39 -129zM76 0l303 1423h174l-303 -1423h-174z" />
<glyph unicode="&#xce;" horiz-adv-x="559" d="M311 1544l-96 53l287 289h129l164 -289l-117 -53l-139 215zM76 0l303 1423h174l-303 -1423h-174z" />
<glyph unicode="&#xcf;" horiz-adv-x="559" d="M332 1606q-33 0 -55.5 22t-22.5 55q0 47 34 81t85 34q33 0 55.5 -20t22.5 -54q0 -47 -34 -82.5t-85 -35.5zM678 1606q-31 0 -53.5 22t-22.5 55q0 47 33 81t84 34q33 0 55.5 -20t22.5 -54q0 -47 -34 -82.5t-85 -35.5zM76 0l303 1423h174l-303 -1423h-174z" />
<glyph unicode="&#xd0;" horiz-adv-x="1333" d="M756 1423q98 0 182 -22.5t154.5 -69.5t114.5 -120t61.5 -175.5t-4.5 -234.5q-52 -380 -263.5 -590.5t-531.5 -210.5h-393l137 643h-166l29 139h166l137 641h377zM1083 776q22 111 10 194t-43 140.5t-84 93.5t-113.5 52t-131.5 16h-201l-104 -490h307l-29 -139h-307 l-104 -491h192q105 0 203.5 41.5t179.5 119.5t140.5 197t84.5 266z" />
<glyph unicode="&#xd1;" horiz-adv-x="1413" d="M758 1595l-111 27q24 79 75 126.5t118 47.5q39 0 113.5 -14.5t99.5 -14.5q63 0 86 88l112 -24q-27 -85 -83.5 -135.5t-135.5 -50.5q-40 0 -107 15t-87 15q-62 0 -80 -80zM76 0l303 1423h168l446 -1120l240 1120h174l-303 -1423h-168l-449 1120l-237 -1120h-174z" />
<glyph unicode="&#xd2;" horiz-adv-x="1343" d="M1128 1565l-507 155l53 127l502 -168zM549 -27q-195 0 -311.5 126.5t-116.5 357.5q0 124 22.5 245.5t65.5 231.5t108 204.5t145 164t183 108.5t217 39q206 0 318 -119t112 -352q0 -151 -31.5 -297t-95 -274t-151 -225t-208 -153.5t-257.5 -56.5zM584 129q97 0 183.5 50.5 t148.5 135t107.5 192.5t68 225t22.5 231q0 168 -74.5 249.5t-210.5 81.5q-85 0 -160.5 -35.5t-132 -97.5t-102 -143t-74.5 -173t-44 -187t-15 -187q0 -166 78 -254t205 -88z" />
<glyph unicode="&#xd3;" horiz-adv-x="1343" d="M643 1552l-37 115l527 201l38 -129zM549 -27q-195 0 -311.5 126.5t-116.5 357.5q0 124 22.5 245.5t65.5 231.5t108 204.5t145 164t183 108.5t217 39q206 0 318 -119t112 -352q0 -151 -31.5 -297t-95 -274t-151 -225t-208 -153.5t-257.5 -56.5zM584 129q97 0 183.5 50.5 t148.5 135t107.5 192.5t68 225t22.5 231q0 168 -74.5 249.5t-210.5 81.5q-85 0 -160.5 -35.5t-132 -97.5t-102 -143t-74.5 -173t-44 -187t-15 -187q0 -166 78 -254t205 -88z" />
<glyph unicode="&#xd4;" horiz-adv-x="1343" d="M702 1544l-96 53l287 289h129l164 -289l-117 -53l-139 215zM549 -27q-195 0 -311.5 126.5t-116.5 357.5q0 124 22.5 245.5t65.5 231.5t108 204.5t145 164t183 108.5t217 39q206 0 318 -119t112 -352q0 -151 -31.5 -297t-95 -274t-151 -225t-208 -153.5t-257.5 -56.5z M584 129q97 0 183.5 50.5t148.5 135t107.5 192.5t68 225t22.5 231q0 168 -74.5 249.5t-210.5 81.5q-85 0 -160.5 -35.5t-132 -97.5t-102 -143t-74.5 -173t-44 -187t-15 -187q0 -166 78 -254t205 -88z" />
<glyph unicode="&#xd5;" horiz-adv-x="1343" d="M733 1595l-110 27q24 79 74.5 126.5t117.5 47.5q39 0 113.5 -14.5t99.5 -14.5q63 0 86 88l113 -24q-27 -85 -83.5 -135.5t-135.5 -50.5q-40 0 -107.5 15t-87.5 15q-62 0 -80 -80zM549 -27q-195 0 -311.5 126.5t-116.5 357.5q0 124 22.5 245.5t65.5 231.5t108 204.5 t145 164t183 108.5t217 39q206 0 318 -119t112 -352q0 -151 -31.5 -297t-95 -274t-151 -225t-208 -153.5t-257.5 -56.5zM584 129q97 0 183.5 50.5t148.5 135t107.5 192.5t68 225t22.5 231q0 168 -74.5 249.5t-210.5 81.5q-85 0 -160.5 -35.5t-132 -97.5t-102 -143 t-74.5 -173t-44 -187t-15 -187q0 -166 78 -254t205 -88z" />
<glyph unicode="&#xd6;" horiz-adv-x="1343" d="M723 1606q-33 0 -55.5 22t-22.5 55q0 47 34 81t85 34q33 0 55.5 -20t22.5 -54q0 -47 -34 -82.5t-85 -35.5zM1069 1606q-31 0 -53.5 22t-22.5 55q0 47 33 81t84 34q33 0 55.5 -20t22.5 -54q0 -47 -34 -82.5t-85 -35.5zM549 -27q-195 0 -311.5 126.5t-116.5 357.5 q0 124 22.5 245.5t65.5 231.5t108 204.5t145 164t183 108.5t217 39q206 0 318 -119t112 -352q0 -151 -31.5 -297t-95 -274t-151 -225t-208 -153.5t-257.5 -56.5zM584 129q97 0 183.5 50.5t148.5 135t107.5 192.5t68 225t22.5 231q0 168 -74.5 249.5t-210.5 81.5 q-85 0 -160.5 -35.5t-132 -97.5t-102 -143t-74.5 -173t-44 -187t-15 -187q0 -166 78 -254t205 -88z" />
<glyph unicode="&#xd7;" horiz-adv-x="1097" d="M1092 1040l-408 -350l260 -348l-131 -109l-258 347l-403 -347l-84 109l405 348l-258 350l129 107l258 -346l404 346z" />
<glyph unicode="&#xd8;" horiz-adv-x="1343" d="M1167 1343q125 -119 125 -364q0 -151 -31.5 -297t-95 -274t-151 -225t-208 -153.5t-257.5 -56.5q-109 0 -199 41l-90 -147l-113 39l109 176q-135 126 -135 375q0 124 22.5 245.5t65.5 231.5t108 204.5t145 164t183 108.5t217 39q119 0 209 -41l80 129l113 -39zM301 471 q0 -139 55 -225l625 1014q-58 34 -152 34q-85 0 -160.5 -35.5t-132 -97.5t-102 -143t-74.5 -173t-44 -187t-15 -187zM584 129q97 0 183.5 50.5t148.5 135t107.5 192.5t68 225t22.5 231q0 136 -49 215l-623 -1014q62 -35 142 -35z" />
<glyph unicode="&#xd9;" horiz-adv-x="1316" d="M1114 1565l-508 155l53 127l502 -168zM545 -27q-214 0 -320 140.5t-49 410.5l193 899h174l-195 -903q-19 -81 -14 -152.5t29.5 -124.5t80 -83.5t136.5 -30.5q289 0 370 391l195 903h174l-193 -907q-113 -543 -581 -543z" />
<glyph unicode="&#xda;" horiz-adv-x="1316" d="M629 1552l-37 115l526 201l39 -129zM545 -27q-214 0 -320 140.5t-49 410.5l193 899h174l-195 -903q-19 -81 -14 -152.5t29.5 -124.5t80 -83.5t136.5 -30.5q289 0 370 391l195 903h174l-193 -907q-113 -543 -581 -543z" />
<glyph unicode="&#xdb;" horiz-adv-x="1316" d="M688 1544l-96 53l287 289h129l163 -289l-116 -53l-140 215zM545 -27q-214 0 -320 140.5t-49 410.5l193 899h174l-195 -903q-19 -81 -14 -152.5t29.5 -124.5t80 -83.5t136.5 -30.5q289 0 370 391l195 903h174l-193 -907q-113 -543 -581 -543z" />
<glyph unicode="&#xdc;" horiz-adv-x="1316" d="M709 1606q-33 0 -55.5 22t-22.5 55q0 47 34 81t85 34q33 0 55 -20t22 -54q0 -47 -33.5 -82.5t-84.5 -35.5zM1055 1606q-31 0 -53.5 22t-22.5 55q0 47 33 81t84 34q33 0 55.5 -20t22.5 -54q0 -47 -34 -82.5t-85 -35.5zM545 -27q-214 0 -320 140.5t-49 410.5l193 899h174 l-195 -903q-19 -81 -14 -152.5t29.5 -124.5t80 -83.5t136.5 -30.5q289 0 370 391l195 903h174l-193 -907q-113 -543 -581 -543z" />
<glyph unicode="&#xdd;" horiz-adv-x="1206" d="M575 1552l-36 115l526 201l39 -129zM397 0l111 520l-264 903h196l197 -714l502 714h196l-653 -903l-111 -520h-174z" />
<glyph unicode="&#xde;" horiz-adv-x="1093" d="M76 0l303 1423h174l-57 -266h221q206 0 297.5 -113.5t48.5 -310.5q-45 -214 -193 -332t-352 -118h-207l-61 -283h-174zM340 422h197q131 0 223.5 80.5t124.5 224.5q28 133 -28 211t-185 78h-205z" />
<glyph unicode="&#xdf;" horiz-adv-x="1239" d="M717 -27q-131 0 -227.5 67.5t-129.5 154.5l109 104q27 -73 95 -123.5t167 -50.5q98 0 159.5 53t61.5 141q0 39 -20 71t-51.5 55t-70 44.5t-77 44.5t-70 49t-51.5 64t-20 84q0 63 28.5 116t71 88t92 70.5t92 65t71 70t28.5 86.5q0 72 -61 114.5t-142 42.5 q-103 0 -190 -68.5t-113 -193.5l-240 -1122h-172l238 1114q19 89 57.5 161.5t88.5 120t111 80t123.5 46.5t129.5 14q143 0 247.5 -74t104.5 -200q0 -52 -21 -97.5t-54.5 -80.5t-74.5 -66.5t-81.5 -60.5t-74 -58t-54.5 -63.5t-21 -71.5q0 -34 20 -64t51.5 -52.5t70 -45.5 t77.5 -48.5t70.5 -54.5t51.5 -71t20 -92q0 -163 -118 -263t-302 -100z" />
<glyph unicode="&#xe0;" horiz-adv-x="1138" d="M967 1241l-508 156l53 127l502 -168zM385 -27q-153 0 -235 98.5t-82 274.5q0 208 64.5 383.5t193 286t297.5 110.5q119 0 191.5 -66.5t84.5 -150.5l41 191h170l-172 -819q-27 -128 -27 -209q0 -26 4 -72h-178q-6 30 -6 63q0 51 19 134q-51 -91 -146.5 -157.5 t-218.5 -66.5zM455 125q89 0 165 56.5t124 145.5t75 193.5t27 206.5q0 120 -54 184t-155 64q-89 0 -165.5 -56t-125 -144.5t-75.5 -192.5t-27 -205q0 -122 54 -187t157 -65z" />
<glyph unicode="&#xe1;" horiz-adv-x="1138" d="M481 1229l-37 114l527 201l39 -129zM385 -27q-153 0 -235 98.5t-82 274.5q0 208 64.5 383.5t193 286t297.5 110.5q119 0 191.5 -66.5t84.5 -150.5l41 191h170l-172 -819q-27 -128 -27 -209q0 -26 4 -72h-178q-6 30 -6 63q0 51 19 134q-51 -91 -146.5 -157.5t-218.5 -66.5 zM455 125q89 0 165 56.5t124 145.5t75 193.5t27 206.5q0 120 -54 184t-155 64q-89 0 -165.5 -56t-125 -144.5t-75.5 -192.5t-27 -205q0 -122 54 -187t157 -65z" />
<glyph unicode="&#xe2;" horiz-adv-x="1138" d="M541 1221l-97 53l287 289h129l164 -289l-117 -53l-139 215zM385 -27q-153 0 -235 98.5t-82 274.5q0 208 64.5 383.5t193 286t297.5 110.5q119 0 191.5 -66.5t84.5 -150.5l41 191h170l-172 -819q-27 -128 -27 -209q0 -26 4 -72h-178q-6 30 -6 63q0 51 19 134 q-51 -91 -146.5 -157.5t-218.5 -66.5zM455 125q89 0 165 56.5t124 145.5t75 193.5t27 206.5q0 120 -54 184t-155 64q-89 0 -165.5 -56t-125 -144.5t-75.5 -192.5t-27 -205q0 -122 54 -187t157 -65z" />
<glyph unicode="&#xe3;" horiz-adv-x="1138" d="M571 1272l-110 26q24 79 74.5 127t117.5 48q39 0 113.5 -14.5t99.5 -14.5q63 0 86 88l113 -25q-27 -85 -83.5 -135.5t-135.5 -50.5q-40 0 -107.5 15.5t-87.5 15.5q-62 0 -80 -80zM385 -27q-153 0 -235 98.5t-82 274.5q0 208 64.5 383.5t193 286t297.5 110.5 q119 0 191.5 -66.5t84.5 -150.5l41 191h170l-172 -819q-27 -128 -27 -209q0 -26 4 -72h-178q-6 30 -6 63q0 51 19 134q-51 -91 -146.5 -157.5t-218.5 -66.5zM455 125q89 0 165 56.5t124 145.5t75 193.5t27 206.5q0 120 -54 184t-155 64q-89 0 -165.5 -56t-125 -144.5 t-75.5 -192.5t-27 -205q0 -122 54 -187t157 -65z" />
<glyph unicode="&#xe4;" horiz-adv-x="1138" d="M561 1282q-33 0 -55.5 22.5t-22.5 55.5q0 47 34 81t85 34q33 0 55.5 -20t22.5 -54q0 -47 -34 -83t-85 -36zM907 1282q-31 0 -53.5 22.5t-22.5 55.5q0 47 33 81t84 34q33 0 55.5 -20t22.5 -54q0 -47 -34 -83t-85 -36zM385 -27q-153 0 -235 98.5t-82 274.5 q0 208 64.5 383.5t193 286t297.5 110.5q119 0 191.5 -66.5t84.5 -150.5l41 191h170l-172 -819q-27 -128 -27 -209q0 -26 4 -72h-178q-6 30 -6 63q0 51 19 134q-51 -91 -146.5 -157.5t-218.5 -66.5zM455 125q89 0 165 56.5t124 145.5t75 193.5t27 206.5q0 120 -54 184 t-155 64q-89 0 -165.5 -56t-125 -144.5t-75.5 -192.5t-27 -205q0 -122 54 -187t157 -65z" />
<glyph unicode="&#xe5;" horiz-adv-x="1138" d="M723 1223q-79 0 -118.5 52t-22.5 134t79.5 135t141.5 53q80 0 121 -53t24 -135q-17 -81 -81 -133.5t-144 -52.5zM741 1309q40 0 72 28t41 72q10 45 -10 73.5t-60 28.5q-38 0 -69.5 -28.5t-40.5 -73.5q-9 -44 10.5 -72t56.5 -28zM385 -27q-153 0 -235 98.5t-82 274.5 q0 208 64.5 383.5t193 286t297.5 110.5q119 0 191.5 -66.5t84.5 -150.5l41 191h170l-172 -819q-27 -128 -27 -209q0 -26 4 -72h-178q-6 30 -6 63q0 51 19 134q-51 -91 -146.5 -157.5t-218.5 -66.5zM455 125q89 0 165 56.5t124 145.5t75 193.5t27 206.5q0 120 -54 184 t-155 64q-89 0 -165.5 -56t-125 -144.5t-75.5 -192.5t-27 -205q0 -122 54 -187t157 -65z" />
<glyph unicode="&#xe6;" horiz-adv-x="1863" d="M1311 131q89 0 179 48.5t148 135.5l117 -96q-79 -118 -202.5 -182t-276.5 -64q-120 0 -213 58t-139 162l-39 -193h-170l47 217q-46 -102 -148 -173t-229 -71q-153 0 -235 98.5t-82 274.5q0 208 64.5 383.5t193 286t297.5 110.5q119 0 191.5 -66.5t84.5 -150.5l41 191h170 l-35 -168q79 92 182 143t220 51q143 0 220 -66t77 -165q0 -58 -27 -119.5t-81 -118.5t-127 -101.5t-174 -71.5t-214 -27q-26 0 -84 4q-2 -14 -2 -43q0 -136 65 -211.5t181 -75.5zM455 125q89 0 165 56.5t124 145.5t75 193.5t27 206.5q0 120 -54 184t-155 64 q-89 0 -165.5 -56t-125 -144.5t-75.5 -192.5t-27 -205q0 -122 54 -187t157 -65zM1454 975q-127 0 -224 -108.5t-140 -266.5q23 -2 63 -2q104 0 191.5 27t140.5 68.5t82.5 88t29.5 88.5q0 47 -36.5 76t-106.5 29z" />
<glyph unicode="&#xe7;" horiz-adv-x="1015" d="M461 133q85 0 162 47.5t131 132.5l135 -61q-63 -118 -176 -193t-252 -84l-86 -92q42 11 67 11q76 0 113.5 -45t24.5 -107q-15 -68 -84.5 -117t-180.5 -49q-105 0 -172 51l50 78q59 -47 133 -47q50 0 83 24t40 56q5 30 -15 51t-63 21q-42 0 -86 -23l-64 41l131 152 q-135 24 -209.5 133.5t-74.5 273.5q0 104 26.5 210t79 200.5t123.5 168.5t165.5 117t199.5 43q143 0 230 -82.5t95 -205.5l-158 -50q-12 85 -66 136t-132 51q-109 0 -201.5 -86t-142 -212t-49.5 -255q0 -132 59 -210.5t164 -78.5z" />
<glyph unicode="&#xe8;" horiz-adv-x="1044" d="M965 1356l-47 -115l-508 156l53 127zM332 457q-28 0 -82 4q-2 -14 -2 -43q0 -136 64 -211.5t180 -75.5q91 0 181 48.5t148 135.5l115 -96q-77 -118 -201 -182t-278 -64q-170 0 -278.5 111.5t-108.5 300.5q0 195 74 364.5t210 273t303 103.5q143 0 220 -66t77 -165 q0 -58 -26.5 -119.5t-80.5 -118.5t-127 -101.5t-174 -71.5t-214 -27zM637 975q-128 0 -226 -108.5t-139 -266.5q23 -2 64 -2q104 0 191.5 27t140.5 68.5t82.5 88t29.5 88.5q0 47 -36.5 76t-106.5 29z" />
<glyph unicode="&#xe9;" horiz-adv-x="1044" d="M961 1415l-529 -186l-37 114l527 201zM332 457q-28 0 -82 4q-2 -14 -2 -43q0 -136 64 -211.5t180 -75.5q91 0 181 48.5t148 135.5l115 -96q-77 -118 -201 -182t-278 -64q-170 0 -278.5 111.5t-108.5 300.5q0 195 74 364.5t210 273t303 103.5q143 0 220 -66t77 -165 q0 -58 -26.5 -119.5t-80.5 -118.5t-127 -101.5t-174 -71.5t-214 -27zM637 975q-128 0 -226 -108.5t-139 -266.5q23 -2 64 -2q104 0 191.5 27t140.5 68.5t82.5 88t29.5 88.5q0 47 -36.5 76t-106.5 29z" />
<glyph unicode="&#xea;" horiz-adv-x="1044" d="M719 1436l-227 -215l-97 53l287 289h129l164 -289l-117 -53zM332 457q-28 0 -82 4q-2 -14 -2 -43q0 -136 64 -211.5t180 -75.5q91 0 181 48.5t148 135.5l115 -96q-77 -118 -201 -182t-278 -64q-170 0 -278.5 111.5t-108.5 300.5q0 195 74 364.5t210 273t303 103.5 q143 0 220 -66t77 -165q0 -58 -26.5 -119.5t-80.5 -118.5t-127 -101.5t-174 -71.5t-214 -27zM637 975q-128 0 -226 -108.5t-139 -266.5q23 -2 64 -2q104 0 191.5 27t140.5 68.5t82.5 88t29.5 88.5q0 47 -36.5 76t-106.5 29z" />
<glyph unicode="&#xeb;" horiz-adv-x="1044" d="M512 1282q-33 0 -55.5 22.5t-22.5 55.5q0 47 34 81t85 34q33 0 55.5 -20t22.5 -54q0 -47 -34 -83t-85 -36zM858 1282q-31 0 -53.5 22.5t-22.5 55.5q0 47 33 81t84 34q33 0 55.5 -20t22.5 -54q0 -47 -34 -83t-85 -36zM332 457q-28 0 -82 4q-2 -14 -2 -43q0 -136 64 -211.5 t180 -75.5q91 0 181 48.5t148 135.5l115 -96q-77 -118 -201 -182t-278 -64q-170 0 -278.5 111.5t-108.5 300.5q0 195 74 364.5t210 273t303 103.5q143 0 220 -66t77 -165q0 -58 -26.5 -119.5t-80.5 -118.5t-127 -101.5t-174 -71.5t-214 -27zM637 975q-128 0 -226 -108.5 t-139 -266.5q23 -2 64 -2q104 0 191.5 27t140.5 68.5t82.5 88t29.5 88.5q0 47 -36.5 76t-106.5 29z" />
<glyph unicode="&#xec;" horiz-adv-x="518" d="M647 1241l-508 156l54 127l501 -168zM57 0l234 1100h170l-234 -1100h-170z" />
<glyph unicode="&#xed;" horiz-adv-x="518" d="M162 1229l-37 114l526 201l39 -129zM57 0l234 1100h170l-234 -1100h-170z" />
<glyph unicode="&#xee;" horiz-adv-x="518" d="M221 1221l-96 53l287 289h129l164 -289l-117 -53l-139 215zM57 0l234 1100h170l-234 -1100h-170z" />
<glyph unicode="&#xef;" horiz-adv-x="518" d="M242 1282q-33 0 -55.5 22.5t-22.5 55.5q0 47 34 81t85 34q33 0 55 -20t22 -54q0 -47 -33.5 -83t-84.5 -36zM588 1282q-31 0 -53.5 22.5t-22.5 55.5q0 47 33 81t84 34q33 0 55.5 -20t22.5 -54q0 -47 -34 -83t-85 -36zM57 0l234 1100h170l-234 -1100h-170z" />
<glyph unicode="&#xf0;" horiz-adv-x="1044" d="M1034 1403l-196 -84q62 -102 98.5 -220t45 -267t-27.5 -308q-54 -260 -206.5 -405.5t-350.5 -145.5q-197 0 -286 145.5t-33 405.5q56 259 206.5 403t346.5 144q70 0 135 -20q-34 99 -96 194l-226 -96l-34 96l198 84q-79 95 -159 141l153 97q95 -61 176 -164l219 94z M428 119q128 0 219.5 104.5t132.5 300.5q41 193 -5.5 297.5t-172.5 104.5q-129 0 -219 -104t-131 -298q-43 -196 2.5 -300.5t173.5 -104.5z" />
<glyph unicode="&#xf1;" horiz-adv-x="1173" d="M578 1272l-111 26q24 79 74.5 127t117.5 48q39 0 113.5 -14.5t99.5 -14.5q63 0 86 88l113 -25q-27 -85 -83.5 -135.5t-135.5 -50.5q-40 0 -107.5 15.5t-87.5 15.5q-33 0 -51.5 -19.5t-27.5 -60.5zM57 0l234 1100h166l-33 -156q56 75 144.5 128.5t189.5 53.5 q162 0 239.5 -110.5t34.5 -310.5l-149 -705h-170l143 670q30 140 -22.5 217.5t-155.5 77.5q-100 0 -190 -82.5t-121 -227.5l-140 -655h-170z" />
<glyph unicode="&#xf2;" horiz-adv-x="1081" d="M928 1241l-508 156l53 127l502 -168zM416 -27q-168 0 -260.5 97.5t-92.5 281.5q0 117 26.5 230t78 211t123 172.5t167.5 117.5t204 43q169 0 261.5 -97t92.5 -281q0 -117 -26 -230t-78 -211t-123 -173t-167.5 -118t-205.5 -43zM449 125q89 0 165 55.5t124 144t75 193.5 t27 207q0 121 -53.5 185.5t-155.5 64.5q-89 0 -165 -56t-124 -144.5t-75 -193t-27 -206.5q0 -121 53.5 -185.5t155.5 -64.5z" />
<glyph unicode="&#xf3;" horiz-adv-x="1081" d="M442 1229l-36 114l526 201l39 -129zM416 -27q-168 0 -260.5 97.5t-92.5 281.5q0 117 26.5 230t78 211t123 172.5t167.5 117.5t204 43q169 0 261.5 -97t92.5 -281q0 -117 -26 -230t-78 -211t-123 -173t-167.5 -118t-205.5 -43zM449 125q89 0 165 55.5t124 144t75 193.5 t27 207q0 121 -53.5 185.5t-155.5 64.5q-89 0 -165 -56t-124 -144.5t-75 -193t-27 -206.5q0 -121 53.5 -185.5t155.5 -64.5z" />
<glyph unicode="&#xf4;" horiz-adv-x="1081" d="M502 1221l-96 53l286 289h129l164 -289l-117 -53l-139 215zM416 -27q-168 0 -260.5 97.5t-92.5 281.5q0 117 26.5 230t78 211t123 172.5t167.5 117.5t204 43q169 0 261.5 -97t92.5 -281q0 -117 -26 -230t-78 -211t-123 -173t-167.5 -118t-205.5 -43zM449 125 q89 0 165 55.5t124 144t75 193.5t27 207q0 121 -53.5 185.5t-155.5 64.5q-89 0 -165 -56t-124 -144.5t-75 -193t-27 -206.5q0 -121 53.5 -185.5t155.5 -64.5z" />
<glyph unicode="&#xf5;" horiz-adv-x="1081" d="M532 1272l-110 26q24 79 74.5 127t117.5 48q39 0 113.5 -14.5t99.5 -14.5q63 0 86 88l113 -25q-27 -85 -83.5 -135.5t-135.5 -50.5q-40 0 -107.5 15.5t-87.5 15.5q-62 0 -80 -80zM416 -27q-168 0 -260.5 97.5t-92.5 281.5q0 117 26.5 230t78 211t123 172.5t167.5 117.5 t204 43q169 0 261.5 -97t92.5 -281q0 -117 -26 -230t-78 -211t-123 -173t-167.5 -118t-205.5 -43zM449 125q89 0 165 55.5t124 144t75 193.5t27 207q0 121 -53.5 185.5t-155.5 64.5q-89 0 -165 -56t-124 -144.5t-75 -193t-27 -206.5q0 -121 53.5 -185.5t155.5 -64.5z" />
<glyph unicode="&#xf6;" horiz-adv-x="1081" d="M522 1282q-33 0 -55.5 22.5t-22.5 55.5q0 47 34 81t85 34q33 0 55.5 -20t22.5 -54q0 -47 -34 -83t-85 -36zM868 1282q-31 0 -53 22.5t-22 55.5q0 47 32.5 81t83.5 34q33 0 55.5 -20t22.5 -54q0 -47 -34 -83t-85 -36zM416 -27q-168 0 -260.5 97.5t-92.5 281.5 q0 117 26.5 230t78 211t123 172.5t167.5 117.5t204 43q169 0 261.5 -97t92.5 -281q0 -117 -26 -230t-78 -211t-123 -173t-167.5 -118t-205.5 -43zM449 125q89 0 165 55.5t124 144t75 193.5t27 207q0 121 -53.5 185.5t-155.5 64.5q-89 0 -165 -56t-124 -144.5t-75 -193 t-27 -206.5q0 -121 53.5 -185.5t155.5 -64.5z" />
<glyph unicode="&#xf7;" horiz-adv-x="1114" d="M639 1022q-45 0 -69.5 28.5t-14.5 77.5q10 47 48 76t81 29q45 0 69.5 -28.5t14.5 -76.5q-10 -49 -47 -77.5t-82 -28.5zM129 637l33 151h893l-33 -151h-893zM463 193q-45 0 -69.5 28.5t-14.5 77.5q10 48 47.5 77.5t81.5 29.5t69 -29.5t15 -77.5q-10 -49 -47 -77.5 t-82 -28.5z" />
<glyph unicode="&#xf8;" horiz-adv-x="1081" d="M1026 1153l-96 -133q86 -99 86 -272q0 -117 -26 -230t-78 -211t-123 -173t-167.5 -118t-205.5 -43q-121 0 -203 52l-78 -109l-76 49l86 119q-82 97 -82 268q0 117 26.5 230t78 211t123 172.5t167.5 117.5t204 43q118 0 198 -47l90 123zM240 375q0 -79 20 -129l500 690 q-48 39 -129 39q-89 0 -165 -56t-124 -144.5t-75 -193t-27 -206.5zM840 725q0 77 -25 135l-500 -694q53 -41 134 -41q89 0 165 55.5t124 144t75 193.5t27 207z" />
<glyph unicode="&#xf9;" horiz-adv-x="1067" d="M903 1241l-508 156l54 127l501 -168zM330 -27q-150 0 -224 103.5t-40 263.5l161 760h170l-155 -731q-24 -115 21.5 -178.5t142.5 -63.5q65 0 129 34t116 104t72 163l143 672h170l-168 -789q-41 -185 -24 -311h-168q-12 56 4 162q-57 -78 -152 -133.5t-198 -55.5z" />
<glyph unicode="&#xfa;" horiz-adv-x="1067" d="M418 1229l-37 114l526 201l39 -129zM330 -27q-150 0 -224 103.5t-40 263.5l161 760h170l-155 -731q-24 -115 21.5 -178.5t142.5 -63.5q65 0 129 34t116 104t72 163l143 672h170l-168 -789q-41 -185 -24 -311h-168q-12 56 4 162q-57 -78 -152 -133.5t-198 -55.5z" />
<glyph unicode="&#xfb;" horiz-adv-x="1067" d="M477 1221l-96 53l287 289h129l164 -289l-117 -53l-139 215zM330 -27q-150 0 -224 103.5t-40 263.5l161 760h170l-155 -731q-24 -115 21.5 -178.5t142.5 -63.5q65 0 129 34t116 104t72 163l143 672h170l-168 -789q-41 -185 -24 -311h-168q-12 56 4 162 q-57 -78 -152 -133.5t-198 -55.5z" />
<glyph unicode="&#xfc;" horiz-adv-x="1067" d="M498 1282q-33 0 -55.5 22.5t-22.5 55.5q0 47 34 81t85 34q33 0 55 -20t22 -54q0 -47 -33.5 -83t-84.5 -36zM844 1282q-31 0 -53.5 22.5t-22.5 55.5q0 47 33 81t84 34q33 0 55.5 -20t22.5 -54q0 -47 -34 -83t-85 -36zM330 -27q-150 0 -224 103.5t-40 263.5l161 760h170 l-155 -731q-24 -115 21.5 -178.5t142.5 -63.5q65 0 129 34t116 104t72 163l143 672h170l-168 -789q-41 -185 -24 -311h-168q-12 56 4 162q-57 -78 -152 -133.5t-198 -55.5z" />
<glyph unicode="&#xfd;" horiz-adv-x="1060" d="M414 1229l-37 114l526 201l39 -129zM315 -426q-142 0 -237.5 71.5t-118.5 198.5l139 64q15 -88 75 -137.5t157 -49.5q62 0 122.5 30.5t110.5 95t68 151.5l39 178q-57 -75 -145.5 -127.5t-188.5 -52.5q-151 0 -225.5 100.5t-40.5 257.5l157 746h170l-151 -711 q-24 -114 21.5 -178t144.5 -64q101 0 193.5 81t121.5 216l139 656h170l-231 -1090q-46 -215 -175.5 -325.5t-314.5 -110.5z" />
<glyph unicode="&#xfe;" horiz-adv-x="1163" d="M-29 -399l412 1935h170l-133 -633q23 38 55 73.5t77.5 71t106.5 57t127 21.5q148 0 232 -94t84 -274q0 -142 -40 -281.5t-110 -252t-178 -182t-233 -69.5q-63 0 -114 20t-82.5 53t-50.5 65.5t-30 68.5l-123 -579h-170zM532 123q88 0 164.5 56t125.5 144.5t76.5 194 t27.5 207.5q0 121 -54.5 186.5t-154.5 65.5q-89 0 -165.5 -59.5t-124.5 -150.5t-75.5 -194.5t-27.5 -197.5q0 -121 53 -186.5t155 -65.5z" />
<glyph unicode="&#xff;" horiz-adv-x="1060" d="M494 1282q-33 0 -55.5 22.5t-22.5 55.5q0 47 34 81t85 34q33 0 55 -20t22 -54q0 -47 -33.5 -83t-84.5 -36zM840 1282q-31 0 -53.5 22.5t-22.5 55.5q0 47 33 81t84 34q33 0 55 -20t22 -54q0 -47 -33.5 -83t-84.5 -36zM315 -426q-142 0 -237.5 71.5t-118.5 198.5l139 64 q15 -88 75 -137.5t157 -49.5q62 0 122.5 30.5t110.5 95t68 151.5l39 178q-57 -75 -145.5 -127.5t-188.5 -52.5q-151 0 -225.5 100.5t-40.5 257.5l157 746h170l-151 -711q-24 -114 21.5 -178t144.5 -64q101 0 193.5 81t121.5 216l139 656h170l-231 -1090 q-46 -215 -175.5 -325.5t-314.5 -110.5z" />
<glyph unicode="&#x100;" horiz-adv-x="1193" d="M594 1767h514l-27 -129h-514zM674 1423h219l145 -1423h-186l-33 344h-540l-177 -344h-178zM356 498h451l-70 743z" />
<glyph unicode="&#x101;" horiz-adv-x="1138" d="M485 1315l27 129h514l-27 -129h-514zM385 -27q-153 0 -235 98.5t-82 274.5q0 208 64.5 383.5t193 286t297.5 110.5q119 0 191.5 -66.5t84.5 -150.5l41 191h170l-172 -819q-27 -128 -27 -209q0 -26 4 -72h-178q-6 30 -6 63q0 51 19 134q-51 -91 -146.5 -157.5 t-218.5 -66.5zM455 125q89 0 165 56.5t124 145.5t75 193.5t27 206.5q0 120 -54 184t-155 64q-89 0 -165.5 -56t-125 -144.5t-75.5 -192.5t-27 -205q0 -122 54 -187t157 -65z" />
<glyph unicode="&#x102;" horiz-adv-x="1193" d="M823 1573q-115 0 -176.5 70.5t-32.5 205.5h123q-17 -75 10.5 -117t86.5 -42q58 0 102 42t61 117h125q-31 -138 -109.5 -207t-189.5 -69zM674 1423h219l145 -1423h-186l-33 344h-540l-177 -344h-178zM356 498h451l-70 743z" />
<glyph unicode="&#x103;" horiz-adv-x="1138" d="M741 1249q-115 0 -176.5 71t-32.5 206h123q-17 -75 10.5 -117.5t86.5 -42.5q58 0 102 42.5t61 117.5h125q-31 -138 -109.5 -207.5t-189.5 -69.5zM385 -27q-153 0 -235 98.5t-82 274.5q0 208 64.5 383.5t193 286t297.5 110.5q119 0 191.5 -66.5t84.5 -150.5l41 191h170 l-172 -819q-27 -128 -27 -209q0 -26 4 -72h-178q-6 30 -6 63q0 51 19 134q-51 -91 -146.5 -157.5t-218.5 -66.5zM455 125q89 0 165 56.5t124 145.5t75 193.5t27 206.5q0 120 -54 184t-155 64q-89 0 -165.5 -56t-125 -144.5t-75.5 -192.5t-27 -205q0 -122 54 -187t157 -65z " />
<glyph unicode="&#x104;" horiz-adv-x="1193" d="M973 0q-93 -85 -107 -152q-11 -50 11.5 -77.5t76.5 -28.5l-49 -115q-100 1 -144.5 54t-25.5 137q19 96 117 182l-33 344h-540l-177 -344h-178l750 1423h219l145 -1423h-65zM356 498h451l-70 743z" />
<glyph unicode="&#x105;" horiz-adv-x="1138" d="M1110 1100l-172 -819q-27 -128 -27 -209q0 -26 4 -72h-57q-92 -84 -106 -152q-11 -50 11.5 -77.5t76.5 -28.5l-49 -115q-100 1 -144.5 54t-25.5 137q19 97 116 182q-6 30 -6 63q0 51 19 134q-51 -91 -146.5 -157.5t-218.5 -66.5q-153 0 -235 98.5t-82 274.5 q0 208 64.5 383.5t193 286t297.5 110.5q119 0 191.5 -66.5t84.5 -150.5l41 191h170zM455 125q89 0 165 56.5t124 145.5t75 193.5t27 206.5q0 120 -54 184t-155 64q-89 0 -165.5 -56t-125 -144.5t-75.5 -192.5t-27 -205q0 -122 54 -187t157 -65z" />
<glyph unicode="&#x106;" horiz-adv-x="1261" d="M676 1552l-37 115l526 201l39 -129zM588 -27q-215 0 -340 128.5t-125 371.5q0 189 54.5 364.5t151.5 312t243.5 218.5t318.5 82q181 0 287 -86.5t125 -212.5l-173 -53q-54 196 -262 196q-129 0 -238.5 -72t-180 -187.5t-109.5 -256t-39 -282.5q0 -181 86.5 -274 t237.5 -93q216 0 346 197l149 -54q-35 -61 -83.5 -112.5t-113.5 -94.5t-151.5 -67.5t-183.5 -24.5z" />
<glyph unicode="&#x107;" horiz-adv-x="1015" d="M449 1229l-37 114l526 201l39 -129zM426 -27q-167 0 -262.5 114.5t-95.5 299.5q0 104 26.5 210t79 200.5t123.5 168.5t165.5 117t199.5 43q143 0 230 -82.5t95 -205.5l-158 -50q-12 85 -66 136t-132 51q-109 0 -201.5 -86t-142 -212t-49.5 -255q0 -132 59 -210.5 t164 -78.5q85 0 162 47.5t131 132.5l135 -61q-66 -126 -189.5 -202.5t-273.5 -76.5z" />
<glyph unicode="&#x108;" horiz-adv-x="1261" d="M735 1544l-96 53l287 289h129l164 -289l-117 -53l-139 215zM588 -27q-215 0 -340 128.5t-125 371.5q0 189 54.5 364.5t151.5 312t243.5 218.5t318.5 82q181 0 287 -86.5t125 -212.5l-173 -53q-54 196 -262 196q-129 0 -238.5 -72t-180 -187.5t-109.5 -256t-39 -282.5 q0 -181 86.5 -274t237.5 -93q216 0 346 197l149 -54q-35 -61 -83.5 -112.5t-113.5 -94.5t-151.5 -67.5t-183.5 -24.5z" />
<glyph unicode="&#x109;" horiz-adv-x="1015" d="M508 1221l-96 53l286 289h129l164 -289l-117 -53l-139 215zM426 -27q-167 0 -262.5 114.5t-95.5 299.5q0 104 26.5 210t79 200.5t123.5 168.5t165.5 117t199.5 43q143 0 230 -82.5t95 -205.5l-158 -50q-12 85 -66 136t-132 51q-109 0 -201.5 -86t-142 -212t-49.5 -255 q0 -132 59 -210.5t164 -78.5q85 0 162 47.5t131 132.5l135 -61q-66 -126 -189.5 -202.5t-273.5 -76.5z" />
<glyph unicode="&#x10a;" horiz-adv-x="1261" d="M930 1602q-40 0 -63.5 27.5t-14.5 72.5q10 44 45 71t74 27q41 0 65 -27t15 -71q-10 -45 -45.5 -72.5t-75.5 -27.5zM588 -27q-215 0 -340 128.5t-125 371.5q0 189 54.5 364.5t151.5 312t243.5 218.5t318.5 82q181 0 287 -86.5t125 -212.5l-173 -53q-54 196 -262 196 q-129 0 -238.5 -72t-180 -187.5t-109.5 -256t-39 -282.5q0 -181 86.5 -274t237.5 -93q216 0 346 197l149 -54q-35 -61 -83.5 -112.5t-113.5 -94.5t-151.5 -67.5t-183.5 -24.5z" />
<glyph unicode="&#x10b;" horiz-adv-x="1015" d="M705 1294q-36 0 -57.5 25.5t-12.5 66.5t41 67t67 26q38 0 60.5 -26t13.5 -67t-41.5 -66.5t-70.5 -25.5zM426 -27q-167 0 -262.5 114.5t-95.5 299.5q0 104 26.5 210t79 200.5t123.5 168.5t165.5 117t199.5 43q143 0 230 -82.5t95 -205.5l-158 -50q-12 85 -66 136t-132 51 q-109 0 -201.5 -86t-142 -212t-49.5 -255q0 -132 59 -210.5t164 -78.5q85 0 162 47.5t131 132.5l135 -61q-66 -126 -189.5 -202.5t-273.5 -76.5z" />
<glyph unicode="&#x10c;" horiz-adv-x="1261" d="M866 1561l-182 264l129 43l133 -193l217 193l107 -43l-295 -264h-109zM588 -27q-215 0 -340 128.5t-125 371.5q0 189 54.5 364.5t151.5 312t243.5 218.5t318.5 82q181 0 287 -86.5t125 -212.5l-173 -53q-54 196 -262 196q-129 0 -238.5 -72t-180 -187.5t-109.5 -256 t-39 -282.5q0 -181 86.5 -274t237.5 -93q216 0 346 197l149 -54q-35 -61 -83.5 -112.5t-113.5 -94.5t-151.5 -67.5t-183.5 -24.5z" />
<glyph unicode="&#x10d;" horiz-adv-x="1015" d="M639 1237l-182 264l129 43l133 -192l217 192l106 -43l-294 -264h-109zM426 -27q-167 0 -262.5 114.5t-95.5 299.5q0 104 26.5 210t79 200.5t123.5 168.5t165.5 117t199.5 43q143 0 230 -82.5t95 -205.5l-158 -50q-12 85 -66 136t-132 51q-109 0 -201.5 -86t-142 -212 t-49.5 -255q0 -132 59 -210.5t164 -78.5q85 0 162 47.5t131 132.5l135 -61q-66 -126 -189.5 -202.5t-273.5 -76.5z" />
<glyph unicode="&#x10e;" horiz-adv-x="1333" d="M770 1561l-182 264l129 43l133 -193l217 193l107 -43l-295 -264h-109zM76 0l303 1423h377q98 0 182 -22.5t154.5 -69.5t114.5 -120t61.5 -175.5t-4.5 -234.5q-52 -380 -263.5 -590.5t-531.5 -210.5h-393zM283 152h192q105 0 203.5 41.5t179.5 119.5t140.5 197t84.5 266 q22 111 10 194t-43 140.5t-84 93.5t-113.5 52t-131.5 16h-201z" />
<glyph unicode="&#x10f;" horiz-adv-x="1134" d="M385 -27q-154 0 -235.5 108.5t-81.5 283.5q0 114 25 225t74 207.5t116 170t157 116t191 42.5q122 0 189 -60t81 -142l131 612h170l-266 -1257q-31 -151 -25 -279h-166q-10 56 11 190q-58 -93 -150.5 -155t-220.5 -62zM1221 1159l114 377h144l-138 -377h-120zM453 125 q89 0 165 56.5t124 145.5t75 193.5t27 206.5q0 120 -53.5 184t-155.5 64q-89 0 -165 -56t-124 -144.5t-75 -192.5t-27 -205q0 -122 54 -187t155 -65z" />
<glyph unicode="&#x110;" horiz-adv-x="1333" d="M756 1423q98 0 182 -22.5t154.5 -69.5t114.5 -120t61.5 -175.5t-4.5 -234.5q-52 -380 -263.5 -590.5t-531.5 -210.5h-393l137 643h-166l29 139h166l137 641h377zM1083 776q22 111 10 194t-43 140.5t-84 93.5t-113.5 52t-131.5 16h-201l-104 -490h307l-29 -139h-307 l-104 -491h192q105 0 203.5 41.5t179.5 119.5t140.5 197t84.5 266z" />
<glyph unicode="&#x111;" horiz-adv-x="1134" d="M1296 1395l-26 -125h-125l-209 -991q-31 -151 -25 -279h-166q-10 56 11 190q-58 -93 -150.5 -155t-220.5 -62q-154 0 -235.5 108.5t-81.5 283.5q0 114 25 225t74 207.5t116 170t157 116t191 42.5q122 0 189 -60t81 -142l74 346h-264l26 125h264l31 141h170l-31 -141h125z M453 125q89 0 165 56.5t124 145.5t75 193.5t27 206.5q0 120 -53.5 184t-155.5 64q-89 0 -165 -56t-124 -144.5t-75 -192.5t-27 -205q0 -122 54 -187t155 -65z" />
<glyph unicode="&#x112;" horiz-adv-x="1167" d="M565 1638l27 129h514l-27 -129h-514zM76 0l303 1423h784l-35 -151h-608l-100 -479h530l-32 -154h-533l-102 -487h661l-31 -152h-837z" />
<glyph unicode="&#x113;" horiz-adv-x="1044" d="M977 1444l-27 -129h-514l27 129h514zM332 457q-28 0 -82 4q-2 -14 -2 -43q0 -136 64 -211.5t180 -75.5q91 0 181 48.5t148 135.5l115 -96q-77 -118 -201 -182t-278 -64q-170 0 -278.5 111.5t-108.5 300.5q0 195 74 364.5t210 273t303 103.5q143 0 220 -66t77 -165 q0 -58 -26.5 -119.5t-80.5 -118.5t-127 -101.5t-174 -71.5t-214 -27zM637 975q-128 0 -226 -108.5t-139 -266.5q23 -2 64 -2q104 0 191.5 27t140.5 68.5t82.5 88t29.5 88.5q0 47 -36.5 76t-106.5 29z" />
<glyph unicode="&#x114;" horiz-adv-x="1167" d="M821 1573q-115 0 -176.5 70.5t-32.5 205.5h123q-17 -75 10 -117t86 -42q58 0 102.5 42t61.5 117h125q-31 -138 -109.5 -207t-189.5 -69zM76 0l303 1423h784l-35 -151h-608l-100 -479h530l-32 -154h-533l-102 -487h661l-31 -152h-837z" />
<glyph unicode="&#x115;" horiz-adv-x="1044" d="M692 1249q-115 0 -176.5 71t-32.5 206h123q-17 -75 10 -117.5t86 -42.5q58 0 102.5 42.5t61.5 117.5h125q-31 -138 -109.5 -207.5t-189.5 -69.5zM332 457q-28 0 -82 4q-2 -14 -2 -43q0 -136 64 -211.5t180 -75.5q91 0 181 48.5t148 135.5l115 -96q-77 -118 -201 -182 t-278 -64q-170 0 -278.5 111.5t-108.5 300.5q0 195 74 364.5t210 273t303 103.5q143 0 220 -66t77 -165q0 -58 -26.5 -119.5t-80.5 -118.5t-127 -101.5t-174 -71.5t-214 -27zM637 975q-128 0 -226 -108.5t-139 -266.5q23 -2 64 -2q104 0 191.5 27t140.5 68.5t82.5 88 t29.5 88.5q0 47 -36.5 76t-106.5 29z" />
<glyph unicode="&#x116;" horiz-adv-x="1167" d="M815 1602q-40 0 -63.5 27.5t-14.5 72.5q10 44 45 71t74 27q41 0 65 -27t15 -71q-10 -45 -45.5 -72.5t-75.5 -27.5zM76 0l303 1423h784l-35 -151h-608l-100 -479h530l-32 -154h-533l-102 -487h661l-31 -152h-837z" />
<glyph unicode="&#x117;" horiz-adv-x="1044" d="M688 1294q-36 0 -57.5 25.5t-12.5 66.5t41 67t68 26q38 0 60.5 -26t13.5 -67t-42 -66.5t-71 -25.5zM492 131q91 0 181 48.5t148 135.5l115 -96q-77 -118 -201 -182t-278 -64q-170 0 -278.5 111.5t-108.5 300.5q0 195 74 364.5t210 273t303 103.5q143 0 220 -66t77 -165 q0 -58 -26.5 -119.5t-80.5 -118.5t-127 -101.5t-174 -71.5t-214 -27q-28 0 -82 4q-2 -14 -2 -43q0 -136 64 -211.5t180 -75.5zM637 975q-128 0 -226 -108.5t-139 -266.5q23 -2 64 -2q104 0 191.5 27t140.5 68.5t82.5 88t29.5 88.5q0 47 -36.5 76t-106.5 29z" />
<glyph unicode="&#x118;" horiz-adv-x="1167" d="M1128 1272h-608l-100 -479h530l-32 -154h-533l-102 -487h661l-31 -152q-92 -84 -106 -152q-11 -50 11.5 -77.5t76.5 -28.5l-49 -115q-100 1 -144.5 54t-25.5 137q19 96 117 182h-717l303 1423h784z" />
<glyph unicode="&#x119;" horiz-adv-x="1044" d="M492 131q91 0 181 48.5t148 135.5l115 -96q-63 -95 -157.5 -156t-211.5 -81q-75 -72 -88 -134q-11 -50 11.5 -77.5t76.5 -28.5l-49 -115q-100 1 -144.5 54t-25.5 137q17 82 90 155q-164 6 -266 117.5t-102 294.5q0 195 74 364.5t210 273t303 103.5q143 0 220 -66t77 -165 q0 -58 -26.5 -119.5t-80.5 -118.5t-127 -101.5t-174 -71.5t-214 -27q-28 0 -82 4q-2 -14 -2 -43q0 -136 64 -211.5t180 -75.5zM637 975q-128 0 -226 -108.5t-139 -266.5q23 -2 64 -2q104 0 191.5 27t140.5 68.5t82.5 88t29.5 88.5q0 47 -36.5 76t-106.5 29z" />
<glyph unicode="&#x11a;" horiz-adv-x="1167" d="M752 1561l-183 264l129 43l133 -193l218 193l106 -43l-295 -264h-108zM76 0l303 1423h784l-35 -151h-608l-100 -479h530l-32 -154h-533l-102 -487h661l-31 -152h-837z" />
<glyph unicode="&#x11b;" horiz-adv-x="1044" d="M731 1237h-108l-183 264l129 43l133 -192l218 192l106 -43zM332 457q-28 0 -82 4q-2 -14 -2 -43q0 -136 64 -211.5t180 -75.5q91 0 181 48.5t148 135.5l115 -96q-77 -118 -201 -182t-278 -64q-170 0 -278.5 111.5t-108.5 300.5q0 195 74 364.5t210 273t303 103.5 q143 0 220 -66t77 -165q0 -58 -26.5 -119.5t-80.5 -118.5t-127 -101.5t-174 -71.5t-214 -27zM637 975q-128 0 -226 -108.5t-139 -266.5q23 -2 64 -2q104 0 191.5 27t140.5 68.5t82.5 88t29.5 88.5q0 47 -36.5 76t-106.5 29z" />
<glyph unicode="&#x11c;" horiz-adv-x="1386" d="M731 1544l-96 53l287 289h129l163 -289l-116 -53l-140 215zM1313 1147l-172 -49q-22 88 -91 142t-184 54q-136 0 -254 -90.5t-193.5 -236t-103.5 -318.5q-41 -233 49.5 -376.5t272.5 -143.5q221 0 367 143l65 320h-385l33 151h559l-119 -557q-109 -101 -254.5 -157 t-300.5 -56q-165 0 -281 83t-164.5 233.5t-19.5 343.5q30 230 134.5 415.5t268 293.5t355.5 108q185 0 290.5 -84t127.5 -219z" />
<glyph unicode="&#x11d;" horiz-adv-x="1167" d="M522 1231l-96 53l287 289h129l164 -289l-117 -53l-139 215zM340 -426q-133 0 -236 64t-143 184l145 67q24 -76 88.5 -122t155.5 -46q137 0 237.5 79t131.5 231l39 176q-30 -49 -76 -93t-123.5 -80t-163.5 -36q-156 0 -237.5 102t-81.5 277q0 141 39.5 274.5t109 239.5 t175.5 170.5t229 64.5q66 0 119.5 -21.5t85 -55.5t49.5 -67t24 -64l39 182h170l-225 -1063q-50 -231 -192 -347t-359 -116zM463 137q81 0 155.5 56t125 143.5t80.5 194.5t30 208q0 118 -57.5 183t-151.5 65q-72 0 -136 -36.5t-110 -97.5t-80 -138.5t-50.5 -161t-16.5 -164.5 q0 -123 54 -187.5t157 -64.5z" />
<glyph unicode="&#x11e;" horiz-adv-x="1386" d="M932 1573q-115 0 -176.5 70.5t-32.5 205.5h123q-17 -75 10 -117t86 -42q58 0 102.5 42t61.5 117h125q-31 -138 -109.5 -207t-189.5 -69zM1313 1147l-172 -49q-22 88 -91 142t-184 54q-136 0 -254 -90.5t-193.5 -236t-103.5 -318.5q-41 -233 49.5 -376.5t272.5 -143.5 q221 0 367 143l65 320h-385l33 151h559l-119 -557q-109 -101 -254.5 -157t-300.5 -56q-165 0 -281 83t-164.5 233.5t-19.5 343.5q30 230 134.5 415.5t268 293.5t355.5 108q185 0 290.5 -84t127.5 -219z" />
<glyph unicode="&#x11f;" horiz-adv-x="1167" d="M723 1260q-115 0 -176.5 70.5t-32.5 205.5h123q-17 -75 10 -117.5t86 -42.5q58 0 102.5 42.5t61.5 117.5h125q-31 -138 -109.5 -207t-189.5 -69zM340 -426q-133 0 -236 64t-143 184l145 67q24 -76 88.5 -122t155.5 -46q137 0 237.5 79t131.5 231l39 176q-30 -49 -76 -93 t-123.5 -80t-163.5 -36q-156 0 -237.5 102t-81.5 277q0 141 39.5 274.5t109 239.5t175.5 170.5t229 64.5q66 0 119.5 -21.5t85 -55.5t49.5 -67t24 -64l39 182h170l-225 -1063q-50 -231 -192 -347t-359 -116zM463 137q81 0 155.5 56t125 143.5t80.5 194.5t30 208 q0 118 -57.5 183t-151.5 65q-72 0 -136 -36.5t-110 -97.5t-80 -138.5t-50.5 -161t-16.5 -164.5q0 -123 54 -187.5t157 -64.5z" />
<glyph unicode="&#x120;" horiz-adv-x="1386" d="M926 1602q-40 0 -63.5 27.5t-14.5 72.5q10 44 45 71t74 27q41 0 65 -27t15 -71q-10 -45 -45.5 -72.5t-75.5 -27.5zM1313 1147l-172 -49q-22 88 -91 142t-184 54q-136 0 -254 -90.5t-193.5 -236t-103.5 -318.5q-41 -233 49.5 -376.5t272.5 -143.5q221 0 367 143l65 320 h-385l33 151h559l-119 -557q-109 -101 -254.5 -157t-300.5 -56q-165 0 -281 83t-164.5 233.5t-19.5 343.5q30 230 134.5 415.5t268 293.5t355.5 108q185 0 290.5 -84t127.5 -219z" />
<glyph unicode="&#x121;" horiz-adv-x="1167" d="M719 1305q-36 0 -57.5 25.5t-12.5 66.5t41 66.5t68 25.5q38 0 60 -25.5t13 -66.5t-41.5 -66.5t-70.5 -25.5zM340 -426q-133 0 -236 64t-143 184l145 67q24 -76 88.5 -122t155.5 -46q137 0 237.5 79t131.5 231l39 176q-30 -49 -76 -93t-123.5 -80t-163.5 -36 q-156 0 -237.5 102t-81.5 277q0 141 39.5 274.5t109 239.5t175.5 170.5t229 64.5q66 0 119.5 -21.5t85 -55.5t49.5 -67t24 -64l39 182h170l-225 -1063q-50 -231 -192 -347t-359 -116zM463 137q81 0 155.5 56t125 143.5t80.5 194.5t30 208q0 118 -57.5 183t-151.5 65 q-72 0 -136 -36.5t-110 -97.5t-80 -138.5t-50.5 -161t-16.5 -164.5q0 -123 54 -187.5t157 -64.5z" />
<glyph unicode="&#x122;" horiz-adv-x="1386" d="M1313 1147l-172 -49q-22 88 -91 142t-184 54q-136 0 -254 -90.5t-193.5 -236t-103.5 -318.5q-41 -233 49.5 -376.5t272.5 -143.5q221 0 367 143l65 320h-385l33 151h559l-119 -557q-109 -101 -254.5 -157t-300.5 -56q-165 0 -281 83t-164.5 233.5t-19.5 343.5 q30 230 134.5 415.5t268 293.5t355.5 108q185 0 290.5 -84t127.5 -219zM461 -520l-43 65q114 61 153 183q-26 -15 -43 -15q-44 0 -63 27.5t-12 64.5q8 39 42 69t83 30q62 0 88 -41t12 -105q-18 -83 -73 -156.5t-144 -121.5z" />
<glyph unicode="&#x123;" horiz-adv-x="1167" d="M717 1257q-63 0 -89 41t-12 105q18 83 73.5 157t144.5 119l40 -65q-111 -58 -153 -180q21 12 45 12q43 0 62.5 -27t13.5 -65q-8 -39 -41.5 -68t-83.5 -29zM340 -426q-133 0 -236 64t-143 184l145 67q24 -76 88.5 -122t155.5 -46q137 0 237.5 79t131.5 231l39 176 q-30 -49 -76 -93t-123.5 -80t-163.5 -36q-156 0 -237.5 102t-81.5 277q0 141 39.5 274.5t109 239.5t175.5 170.5t229 64.5q66 0 119.5 -21.5t85 -55.5t49.5 -67t24 -64l39 182h170l-225 -1063q-50 -231 -192 -347t-359 -116zM463 137q81 0 155.5 56t125 143.5t80.5 194.5 t30 208q0 118 -57.5 183t-151.5 65q-72 0 -136 -36.5t-110 -97.5t-80 -138.5t-50.5 -161t-16.5 -164.5q0 -123 54 -187.5t157 -64.5z" />
<glyph unicode="&#x124;" horiz-adv-x="1445" d="M756 1544l-97 53l287 289h129l164 -289l-117 -53l-139 215zM76 0l303 1423h174l-133 -628h713l133 628h174l-303 -1423h-174l137 643h-715l-135 -643h-174z" />
<glyph unicode="&#x125;" horiz-adv-x="1173" d="M287 1610l-97 53l287 289h129l164 -289l-117 -53l-139 215zM57 0l326 1536h170l-125 -588q57 74 143.5 126t186.5 52q162 0 239.5 -110.5t34.5 -310.5l-149 -705h-170l143 670q30 140 -22.5 217.5t-155.5 77.5q-100 0 -190 -82.5t-121 -227.5l-140 -655h-170z" />
<glyph unicode="&#x126;" horiz-adv-x="1445" d="M1542 1200l-31 -139h-149l-225 -1061h-174l137 643h-715l-135 -643h-174l225 1061h-145l28 139h148l47 223h174l-47 -223h713l47 223h174l-47 -223h149zM1133 795l57 266h-713l-57 -266h713z" />
<glyph unicode="&#x127;" horiz-adv-x="1173" d="M758 1126q162 0 239.5 -110.5t34.5 -310.5l-149 -705h-170l143 670q30 140 -22.5 217.5t-155.5 77.5q-100 0 -190 -82.5t-121 -227.5l-140 -655h-170l277 1300h-152l27 125h151l23 111h170l-23 -111h238l-27 -125h-237l-76 -352q57 74 143.5 126t186.5 52z" />
<glyph unicode="&#x128;" horiz-adv-x="559" d="M342 1595l-111 27q24 79 75 126.5t118 47.5q39 0 113.5 -14.5t99.5 -14.5q63 0 86 88l113 -24q-27 -85 -84 -135.5t-136 -50.5q-40 0 -107 15t-87 15q-62 0 -80 -80zM76 0l303 1423h174l-303 -1423h-174z" />
<glyph unicode="&#x129;" horiz-adv-x="518" d="M252 1272l-111 26q24 79 75 127t118 48q39 0 113.5 -14.5t99.5 -14.5q63 0 86 88l112 -25q-27 -85 -83.5 -135.5t-135.5 -50.5q-40 0 -107 15.5t-87 15.5q-62 0 -80 -80zM57 0l234 1100h170l-234 -1100h-170z" />
<glyph unicode="&#x12a;" horiz-adv-x="559" d="M256 1638l27 129h514l-27 -129h-514zM76 0l303 1423h174l-303 -1423h-174z" />
<glyph unicode="&#x12b;" horiz-adv-x="518" d="M166 1315l27 129h514l-27 -129h-514zM57 0l234 1100h170l-234 -1100h-170z" />
<glyph unicode="&#x12c;" horiz-adv-x="559" d="M512 1573q-115 0 -176.5 70.5t-32.5 205.5h123q-17 -75 10 -117t86 -42q58 0 102.5 42t61.5 117h125q-31 -138 -109.5 -207t-189.5 -69zM76 0l303 1423h174l-303 -1423h-174z" />
<glyph unicode="&#x12d;" horiz-adv-x="518" d="M422 1249q-115 0 -176.5 71t-32.5 206h123q-17 -75 10 -117.5t86 -42.5q58 0 102.5 42.5t61.5 117.5h125q-31 -138 -109.5 -207.5t-189.5 -69.5zM57 0l234 1100h170l-234 -1100h-170z" />
<glyph unicode="&#x12e;" horiz-adv-x="559" d="M379 1423h174l-303 -1423h-35q-92 -84 -106 -152q-11 -50 11.5 -77.5t76.5 -28.5l-50 -115q-100 1 -144.5 54t-25.5 137q19 96 117 182h-18z" />
<glyph unicode="&#x12f;" horiz-adv-x="518" d="M473 1550q44 0 69 -28.5t15 -77.5q-10 -48 -48 -77.5t-81 -29.5q-42 0 -67.5 29.5t-16.5 77.5q11 49 49 77.5t80 28.5zM57 0l234 1100h170l-234 -1100h-32q-93 -85 -107 -152q-11 -50 11.5 -77.5t76.5 -28.5l-49 -115q-100 1 -144.5 54t-25.5 137q19 96 117 182h-17z" />
<glyph unicode="&#x130;" horiz-adv-x="559" d="M506 1602q-40 0 -63.5 27.5t-14.5 72.5q10 44 45 71t74 27q41 0 65 -27t15 -71q-10 -45 -45.5 -72.5t-75.5 -27.5zM76 0l303 1423h174l-303 -1423h-174z" />
<glyph unicode="&#x131;" horiz-adv-x="518" d="M57 0l234 1100h170l-234 -1100h-170z" />
<glyph unicode="&#x132;" horiz-adv-x="1478" d="M76 0l303 1423h174l-303 -1423h-174zM537 0l30 152h121q351 0 432 385l156 735h-391l33 151h565l-189 -886q-116 -537 -639 -537h-118z" />
<glyph unicode="&#x133;" horiz-adv-x="1042" d="M428 1337q-42 0 -67.5 29.5t-16.5 77.5q11 49 49 77.5t80 28.5q44 0 69 -28.5t15 -77.5q-10 -48 -48 -77.5t-81 -29.5zM961 1337q-42 0 -67.5 29.5t-16.5 77.5q11 49 49 77.5t80 28.5q44 0 69 -28.5t15 -77.5q-10 -48 -48 -77.5t-81 -29.5zM57 0l234 1100h170l-234 -1100 h-170zM297 -426l31 145q104 0 164 50.5t88 181.5l243 1149h170l-241 -1143q-23 -109 -65.5 -185.5t-103 -118.5t-129.5 -60.5t-157 -18.5z" />
<glyph unicode="&#x134;" horiz-adv-x="935" d="M543 1544l-97 53l287 289h129l164 -289l-117 -53l-139 215zM-6 0l31 152h120q352 0 433 385l155 735h-391l33 151h565l-188 -886q-116 -537 -639 -537h-119z" />
<glyph unicode="&#x135;" horiz-adv-x="501" d="M213 1221l-96 53l286 289h129l164 -289l-116 -53l-140 215zM-244 -426l31 145q104 0 164 50.5t88 181.5l244 1149h170l-242 -1143q-23 -109 -65.5 -185.5t-103 -118.5t-129.5 -60.5t-157 -18.5z" />
<glyph unicode="&#x136;" horiz-adv-x="1224" d="M1296 1423l-634 -632l401 -791h-215l-328 651l-166 -166l-104 -485h-174l303 1423h174l-141 -667l669 667h215zM508 -96q62 0 88 -41t12 -105q-18 -83 -73 -156.5t-144 -121.5l-43 65q115 62 154 183q-26 -15 -43 -15q-44 0 -63.5 27.5t-12.5 64.5q8 39 42 69t83 30z" />
<glyph unicode="&#x137;" horiz-adv-x="1128" d="M1159 1100l-520 -455l309 -645h-215l-241 514l-191 -166l-74 -348h-170l326 1536h170l-203 -950l584 514h225zM446 -96q63 0 89 -41t12 -105q-18 -83 -73 -156.5t-144 -121.5l-43 65q114 61 153 183q-26 -15 -43 -15q-44 0 -63 27.5t-12 64.5q8 39 41.5 69t82.5 30z" />
<glyph unicode="&#x138;" horiz-adv-x="1015" d="M1036 1100l-456 -473l268 -627h-205l-213 473l-131 -137l-72 -336h-170l234 1100h170l-109 -508l494 508h190z" />
<glyph unicode="&#x139;" horiz-adv-x="1138" d="M283 1552l-37 115l526 201l39 -129zM76 0l303 1423h174l-270 -1271h632l-32 -152h-807z" />
<glyph unicode="&#x13a;" horiz-adv-x="622" d="M231 1657l-36 115l526 200l39 -129zM334 -25q-110 0 -176 57t-66 175q0 55 14 112l256 1217h170l-253 -1204q-22 -99 7.5 -155t112.5 -56q49 0 105 18l-19 -143q-93 -21 -151 -21z" />
<glyph unicode="&#x13b;" horiz-adv-x="1138" d="M76 0l303 1423h174l-270 -1271h632l-32 -152h-807zM338 -520l-43 65q115 62 154 183q-26 -15 -43 -15q-44 0 -63.5 27.5t-12.5 64.5q8 39 42 69t83 30q62 0 88 -41t12 -105q-18 -83 -73 -156.5t-144 -121.5z" />
<glyph unicode="&#x13c;" horiz-adv-x="622" d="M334 -25q-110 0 -176 57t-66 175q0 55 14 112l256 1217h170l-253 -1204q-22 -99 7.5 -155t112.5 -56q49 0 105 18l-19 -143q-93 -21 -151 -21zM109 -520l-43 65q114 61 153 183q-26 -15 -43 -15q-44 0 -63.5 27.5t-12.5 64.5q8 39 42 69t83 30q63 0 89 -41t12 -105 q-18 -83 -73 -156.5t-144 -121.5z" />
<glyph unicode="&#x13d;" horiz-adv-x="1138" d="M76 0l303 1423h174l-270 -1271h632l-32 -152h-807zM635 1047l115 376h143l-137 -376h-121z" />
<glyph unicode="&#x13e;" horiz-adv-x="622" d="M334 -25q-110 0 -176 57t-66 175q0 55 14 112l256 1217h170l-253 -1204q-22 -99 7.5 -155t112.5 -56q49 0 105 18l-19 -143q-93 -21 -151 -21zM553 1159l115 377h143l-137 -377h-121z" />
<glyph unicode="&#x13f;" horiz-adv-x="1196" d="M76 0l303 1423h174l-270 -1271h632l-32 -152h-807zM719 651q-43 0 -66.5 29t-13.5 78q9 49 45 77.5t80 28.5q46 0 70 -28.5t14 -77.5t-46.5 -78t-82.5 -29z" />
<glyph unicode="&#x140;" horiz-adv-x="667" d="M334 -25q-110 0 -176 57t-66 175q0 55 14 112l256 1217h170l-253 -1204q-22 -99 7.5 -155t112.5 -56q49 0 105 18l-19 -143q-93 -21 -151 -21zM567 705q-43 0 -66.5 28.5t-13.5 77.5q9 49 45 78t80 29q46 0 70 -28.5t14 -78.5q-10 -49 -46.5 -77.5t-82.5 -28.5z" />
<glyph unicode="&#x141;" horiz-adv-x="1138" d="M283 152h632l-32 -152h-807l129 604l-185 -33l33 154l185 33l141 665h174l-135 -635l250 43l-33 -153l-250 -43z" />
<glyph unicode="&#x142;" horiz-adv-x="622" d="M369 756l-90 -424q-22 -99 7.5 -155t112.5 -56q49 0 105 18l-19 -143q-93 -21 -151 -21q-110 0 -176 57t-66 175q0 55 14 112l80 377l-147 -49l33 154l145 49l145 686h170l-131 -627l201 68l-33 -154z" />
<glyph unicode="&#x143;" horiz-adv-x="1413" d="M668 1552l-37 115l526 201l39 -129zM76 0l303 1423h168l446 -1120l240 1120h174l-303 -1423h-168l-449 1120l-237 -1120h-174z" />
<glyph unicode="&#x144;" horiz-adv-x="1173" d="M487 1229l-36 114l526 201l39 -129zM57 0l234 1100h166l-33 -156q56 75 144.5 128.5t189.5 53.5q162 0 239.5 -110.5t34.5 -310.5l-149 -705h-170l143 670q30 140 -22.5 217.5t-155.5 77.5q-100 0 -190 -82.5t-121 -227.5l-140 -655h-170z" />
<glyph unicode="&#x145;" horiz-adv-x="1413" d="M76 0l303 1423h168l446 -1120l240 1120h174l-303 -1423h-168l-449 1120l-237 -1120h-174zM436 -520l-43 65q115 62 154 183q-26 -15 -43 -15q-44 0 -63.5 27.5t-12.5 64.5q8 39 42 69t83 30q62 0 88 -41t12 -105q-18 -83 -73 -156.5t-144 -121.5z" />
<glyph unicode="&#x146;" horiz-adv-x="1173" d="M57 0l234 1100h166l-33 -156q56 75 144.5 128.5t189.5 53.5q162 0 239.5 -110.5t34.5 -310.5l-149 -705h-170l143 670q30 140 -22.5 217.5t-155.5 77.5q-100 0 -190 -82.5t-121 -227.5l-140 -655h-170zM342 -520l-43 65q115 62 154 183q-26 -15 -43 -15q-44 0 -63.5 27.5 t-12.5 64.5q8 39 42 69t83 30q62 0 88 -41t12 -105q-18 -83 -73 -156.5t-144 -121.5z" />
<glyph unicode="&#x147;" horiz-adv-x="1413" d="M858 1561l-182 264l129 43l133 -193l217 193l107 -43l-295 -264h-109zM76 0l303 1423h168l446 -1120l240 1120h174l-303 -1423h-168l-449 1120l-237 -1120h-174z" />
<glyph unicode="&#x148;" horiz-adv-x="1173" d="M678 1237l-182 264l129 43l133 -192l217 192l106 -43l-295 -264h-108zM57 0l234 1100h166l-33 -156q56 75 144.5 128.5t189.5 53.5q162 0 239.5 -110.5t34.5 -310.5l-149 -705h-170l143 670q30 140 -22.5 217.5t-155.5 77.5q-100 0 -190 -82.5t-121 -227.5l-140 -655 h-170z" />
<glyph unicode="&#x14a;" horiz-adv-x="1413" d="M639 -399l33 145q103 0 164 48.5t86 168.5l14 66l-449 1093l-237 -1122h-174l303 1423h168l446 -1122l240 1122h174l-311 -1454q-22 -104 -64.5 -177t-103.5 -114t-131 -59t-158 -18z" />
<glyph unicode="&#x14b;" horiz-adv-x="1128" d="M379 -399l33 145q116 0 186 55.5t102 202.5l142 666q29 142 -20.5 217.5t-149.5 75.5q-99 0 -186 -80t-119 -228l-140 -655h-170l234 1100h166l-33 -156q49 72 134.5 127t193.5 55q99 0 167 -46t98.5 -143t-1.5 -247l-146 -680q-26 -119 -72.5 -201t-112 -126.5t-139 -63 t-167.5 -18.5z" />
<glyph unicode="&#x14c;" horiz-adv-x="1343" d="M647 1638l27 129h514l-27 -129h-514zM549 -27q-195 0 -311.5 126.5t-116.5 357.5q0 124 22.5 245.5t65.5 231.5t108 204.5t145 164t183 108.5t217 39q206 0 318 -119t112 -352q0 -151 -31.5 -297t-95 -274t-151 -225t-208 -153.5t-257.5 -56.5zM584 129q97 0 183.5 50.5 t148.5 135t107.5 192.5t68 225t22.5 231q0 168 -74.5 249.5t-210.5 81.5q-85 0 -160.5 -35.5t-132 -97.5t-102 -143t-74.5 -173t-44 -187t-15 -187q0 -166 78 -254t205 -88z" />
<glyph unicode="&#x14d;" horiz-adv-x="1081" d="M446 1315l27 129h514l-26 -129h-515zM416 -27q-168 0 -260.5 97.5t-92.5 281.5q0 117 26.5 230t78 211t123 172.5t167.5 117.5t204 43q169 0 261.5 -97t92.5 -281q0 -117 -26 -230t-78 -211t-123 -173t-167.5 -118t-205.5 -43zM449 125q89 0 165 55.5t124 144t75 193.5 t27 207q0 121 -53.5 185.5t-155.5 64.5q-89 0 -165 -56t-124 -144.5t-75 -193t-27 -206.5q0 -121 53.5 -185.5t155.5 -64.5z" />
<glyph unicode="&#x14e;" horiz-adv-x="1343" d="M903 1573q-115 0 -176.5 70.5t-32.5 205.5h123q-17 -75 10 -117t86 -42q58 0 102.5 42t61.5 117h125q-31 -138 -109.5 -207t-189.5 -69zM549 -27q-195 0 -311.5 126.5t-116.5 357.5q0 124 22.5 245.5t65.5 231.5t108 204.5t145 164t183 108.5t217 39q206 0 318 -119 t112 -352q0 -151 -31.5 -297t-95 -274t-151 -225t-208 -153.5t-257.5 -56.5zM584 129q97 0 183.5 50.5t148.5 135t107.5 192.5t68 225t22.5 231q0 168 -74.5 249.5t-210.5 81.5q-85 0 -160.5 -35.5t-132 -97.5t-102 -143t-74.5 -173t-44 -187t-15 -187q0 -166 78 -254 t205 -88z" />
<glyph unicode="&#x14f;" horiz-adv-x="1081" d="M702 1249q-115 0 -176 71t-32 206h122q-17 -75 10.5 -117.5t86.5 -42.5q58 0 102.5 42.5t61.5 117.5h124q-31 -138 -109.5 -207.5t-189.5 -69.5zM416 -27q-168 0 -260.5 97.5t-92.5 281.5q0 117 26.5 230t78 211t123 172.5t167.5 117.5t204 43q169 0 261.5 -97t92.5 -281 q0 -117 -26 -230t-78 -211t-123 -173t-167.5 -118t-205.5 -43zM449 125q89 0 165 55.5t124 144t75 193.5t27 207q0 121 -53.5 185.5t-155.5 64.5q-89 0 -165 -56t-124 -144.5t-75 -193t-27 -206.5q0 -121 53.5 -185.5t155.5 -64.5z" />
<glyph unicode="&#x150;" horiz-adv-x="1343" d="M700 1559l238 327h147l-247 -327h-138zM942 1559l248 327h153l-262 -327h-139zM549 -27q-195 0 -311.5 126.5t-116.5 357.5q0 124 22.5 245.5t65.5 231.5t108 204.5t145 164t183 108.5t217 39q206 0 318 -119t112 -352q0 -151 -31.5 -297t-95 -274t-151 -225t-208 -153.5 t-257.5 -56.5zM584 129q97 0 183.5 50.5t148.5 135t107.5 192.5t68 225t22.5 231q0 168 -74.5 249.5t-210.5 81.5q-85 0 -160.5 -35.5t-132 -97.5t-102 -143t-74.5 -173t-44 -187t-15 -187q0 -166 78 -254t205 -88z" />
<glyph unicode="&#x151;" horiz-adv-x="1081" d="M500 1235l237 328h148l-248 -328h-137zM741 1235l248 328h154l-262 -328h-140zM416 -27q-168 0 -260.5 97.5t-92.5 281.5q0 117 26.5 230t78 211t123 172.5t167.5 117.5t204 43q169 0 261.5 -97t92.5 -281q0 -117 -26 -230t-78 -211t-123 -173t-167.5 -118t-205.5 -43z M449 125q89 0 165 55.5t124 144t75 193.5t27 207q0 121 -53.5 185.5t-155.5 64.5q-89 0 -165 -56t-124 -144.5t-75 -193t-27 -206.5q0 -121 53.5 -185.5t155.5 -64.5z" />
<glyph unicode="&#x152;" horiz-adv-x="1798" d="M561 -27q-199 0 -318.5 127t-119.5 363q0 153 31.5 298t95 270t151.5 218.5t208.5 147t258.5 53.5q115 0 189 -27h737l-33 -151h-610l-100 -479h532l-35 -154h-532l-103 -487h664l-33 -152h-790q-100 -27 -193 -27zM596 129q70 0 143 25l238 1114q-53 26 -133 26 q-104 0 -193.5 -49.5t-152 -131.5t-107.5 -188.5t-66.5 -220t-21.5 -225.5q0 -171 80.5 -260.5t212.5 -89.5z" />
<glyph unicode="&#x153;" horiz-adv-x="1806" d="M1251 131q91 0 181.5 48.5t148.5 135.5l115 -96q-77 -118 -201 -182t-278 -64q-127 0 -223 64t-138 180q-79 -114 -192 -179t-248 -65q-168 0 -260.5 97.5t-92.5 281.5q0 117 26.5 230t78 211t123 172.5t167.5 117.5t204 43q128 0 213 -56.5t120 -166.5 q79 104 187.5 163.5t234.5 59.5q143 0 220 -66t77 -165q0 -58 -26.5 -119.5t-80.5 -118.5t-127 -101.5t-174 -71.5t-214 -27q-28 0 -82 4q-2 -14 -2 -43q0 -136 63.5 -211.5t179.5 -75.5zM449 125q89 0 165 55.5t124 144t75 193.5t27 207q0 121 -53.5 185.5t-155.5 64.5 q-89 0 -165 -56t-124 -144.5t-75 -193t-27 -206.5q0 -121 53.5 -185.5t155.5 -64.5zM1397 975q-128 0 -226 -108.5t-139 -266.5q23 -2 64 -2q104 0 191.5 27t140.5 68.5t82.5 88t29.5 88.5q0 47 -36.5 76t-106.5 29z" />
<glyph unicode="&#x154;" horiz-adv-x="1196" d="M1071 1739l-528 -187l-37 115l526 201zM1149 1114q0 -193 -95 -336t-266 -198l250 -580h-196l-230 551h-22h-223l-117 -551h-174l303 1423h405q76 0 139.5 -16.5t115.5 -51.5t81 -96.5t29 -144.5zM399 705h213q160 0 257.5 105.5t97.5 266.5q0 97 -57 146t-158 49h-232z " />
<glyph unicode="&#x155;" horiz-adv-x="856" d="M383 1229l-37 114l526 201l39 -129zM57 0l234 1100h170l-35 -164q60 89 140 139.5t169 50.5q117 0 191 -77l-103 -152q-63 66 -147 66q-102 0 -193.5 -96.5t-124.5 -248.5l-131 -618h-170z" />
<glyph unicode="&#x156;" horiz-adv-x="1196" d="M1149 1114q0 -193 -95 -336t-266 -198l250 -580h-196l-230 551h-22h-223l-117 -551h-174l303 1423h405q76 0 139.5 -16.5t115.5 -51.5t81 -96.5t29 -144.5zM399 705h213q160 0 257.5 105.5t97.5 266.5q0 97 -57 146t-158 49h-232zM537 -96q62 0 88 -41t12 -105 q-18 -83 -73 -156.5t-144 -121.5l-43 65q114 61 153 183q-26 -15 -43 -15q-44 0 -63 27.5t-12 64.5q8 39 42 69t83 30z" />
<glyph unicode="&#x157;" horiz-adv-x="856" d="M57 0l234 1100h170l-35 -164q60 89 140 139.5t169 50.5q117 0 191 -77l-103 -152q-63 66 -147 66q-102 0 -193.5 -96.5t-124.5 -248.5l-131 -618h-170zM0 -520l-43 65q115 62 154 183q-26 -15 -43 -15q-44 0 -63.5 27.5t-12.5 64.5q8 39 42 69t83 30q62 0 88 -41t12 -105 q-18 -83 -73 -156.5t-144 -121.5z" />
<glyph unicode="&#x158;" horiz-adv-x="1196" d="M842 1561h-109l-182 264l129 43l133 -193l217 193l107 -43zM1149 1114q0 -193 -95 -336t-266 -198l250 -580h-196l-230 551h-22h-223l-117 -551h-174l303 1423h405q76 0 139.5 -16.5t115.5 -51.5t81 -96.5t29 -144.5zM399 705h213q160 0 257.5 105.5t97.5 266.5 q0 97 -57 146t-158 49h-232z" />
<glyph unicode="&#x159;" horiz-adv-x="856" d="M573 1237l-182 264l129 43l133 -192l217 192l107 -43l-295 -264h-109zM57 0l234 1100h170l-35 -164q60 89 140 139.5t169 50.5q117 0 191 -77l-103 -152q-63 66 -147 66q-102 0 -193.5 -96.5t-124.5 -248.5l-131 -618h-170z" />
<glyph unicode="&#x15a;" horiz-adv-x="1101" d="M489 1552l-36 115l526 201l39 -129zM465 -27q-167 0 -287 80.5t-151 206.5l172 55q23 -84 102.5 -135t181.5 -51q131 0 215 71t84 179q0 56 -31.5 103t-82 81.5t-111.5 66.5t-121.5 67.5t-111 76t-82 99.5t-31.5 131q0 201 139 323.5t365 122.5q166 0 272.5 -74 t128.5 -196l-172 -54q-19 78 -84 123t-160 45q-123 0 -208.5 -75.5t-85.5 -184.5q0 -56 31.5 -101.5t81.5 -78.5t110 -64.5t120.5 -66t110.5 -75t81.5 -100.5t31.5 -134q0 -194 -141 -317.5t-367 -123.5z" />
<glyph unicode="&#x15b;" horiz-adv-x="950" d="M344 1229l-37 114l527 201l38 -129zM408 -27q-163 0 -270 70t-130 176l135 86q22 -86 92 -137t175 -51q97 0 159 51.5t62 140.5q0 42 -26 75t-67.5 56.5t-92 45.5t-100.5 48t-91.5 57.5t-67.5 81t-26 111.5q0 156 109.5 249t279.5 93q140 0 244 -62t127 -146l-136 -89 q-22 65 -92.5 109.5t-150.5 44.5q-86 0 -143.5 -49t-57.5 -125q0 -43 26 -78t67.5 -59t92 -46.5t100.5 -48t91.5 -56t67.5 -78t26 -107.5q0 -168 -112 -265.5t-291 -97.5z" />
<glyph unicode="&#x15c;" horiz-adv-x="1101" d="M549 1544l-96 53l286 289h129l164 -289l-117 -53l-139 215zM465 -27q-167 0 -287 80.5t-151 206.5l172 55q23 -84 102.5 -135t181.5 -51q131 0 215 71t84 179q0 56 -31.5 103t-82 81.5t-111.5 66.5t-121.5 67.5t-111 76t-82 99.5t-31.5 131q0 201 139 323.5t365 122.5 q166 0 272.5 -74t128.5 -196l-172 -54q-19 78 -84 123t-160 45q-123 0 -208.5 -75.5t-85.5 -184.5q0 -56 31.5 -101.5t81.5 -78.5t110 -64.5t120.5 -66t110.5 -75t81.5 -100.5t31.5 -134q0 -194 -141 -317.5t-367 -123.5z" />
<glyph unicode="&#x15d;" horiz-adv-x="950" d="M403 1221l-96 53l287 289h129l164 -289l-117 -53l-139 215zM408 -27q-163 0 -270 70t-130 176l135 86q22 -86 92 -137t175 -51q97 0 159 51.5t62 140.5q0 42 -26 75t-67.5 56.5t-92 45.5t-100.5 48t-91.5 57.5t-67.5 81t-26 111.5q0 156 109.5 249t279.5 93 q140 0 244 -62t127 -146l-136 -89q-22 65 -92.5 109.5t-150.5 44.5q-86 0 -143.5 -49t-57.5 -125q0 -43 26 -78t67.5 -59t92 -46.5t100.5 -48t91.5 -56t67.5 -78t26 -107.5q0 -168 -112 -265.5t-291 -97.5z" />
<glyph unicode="&#x15e;" horiz-adv-x="1101" d="M406 1034q0 -56 31.5 -101.5t81.5 -78.5t110 -64.5t120.5 -66t110.5 -75t81.5 -100.5t31.5 -134q0 -191 -136.5 -314t-357.5 -127l-86 -90q42 11 68 11q76 0 113 -45t24 -107q-15 -68 -84 -117t-180 -49q-105 0 -172 51l49 78q59 -47 133 -47q50 0 83 24t40 56 q5 30 -15 51t-63 21q-42 0 -86 -23l-63 41l133 152q-134 22 -227 97.5t-119 182.5l172 55q23 -84 102.5 -135t181.5 -51q131 0 215 71t84 179q0 56 -31.5 103t-82 81.5t-111.5 66.5t-121.5 67.5t-111 76t-82 99.5t-31.5 131q0 201 139 323.5t365 122.5q166 0 272.5 -74 t128.5 -196l-172 -54q-19 78 -84 123t-160 45q-123 0 -208.5 -75.5t-85.5 -184.5z" />
<glyph unicode="&#x15f;" horiz-adv-x="950" d="M340 809q0 -43 26 -78t67.5 -59t92 -46.5t100.5 -48t91.5 -56t67.5 -78t26 -107.5q0 -158 -99 -254t-261 -107l-86 -92q42 11 67 11q76 0 113 -45t24 -107q-15 -68 -84 -117t-180 -49q-105 0 -172 51l49 78q59 -47 133 -47q50 0 83 24t40 56q5 30 -15 51t-63 21 q-42 0 -86 -23l-63 41l129 149q-135 13 -223 80.5t-109 161.5l135 86q22 -86 92 -137t175 -51q97 0 159 51.5t62 140.5q0 42 -26 75t-67.5 56.5t-92 45.5t-100.5 48t-91.5 57.5t-67.5 81t-26 111.5q0 156 109.5 249t279.5 93q140 0 244 -62t127 -146l-136 -89 q-22 65 -92.5 109.5t-150.5 44.5q-86 0 -143.5 -49t-57.5 -125z" />
<glyph unicode="&#x160;" horiz-adv-x="1101" d="M680 1561l-182 264l129 43l133 -193l217 193l106 -43l-295 -264h-108zM465 -27q-167 0 -287 80.5t-151 206.5l172 55q23 -84 102.5 -135t181.5 -51q131 0 215 71t84 179q0 56 -31.5 103t-82 81.5t-111.5 66.5t-121.5 67.5t-111 76t-82 99.5t-31.5 131q0 201 139 323.5 t365 122.5q166 0 272.5 -74t128.5 -196l-172 -54q-19 78 -84 123t-160 45q-123 0 -208.5 -75.5t-85.5 -184.5q0 -56 31.5 -101.5t81.5 -78.5t110 -64.5t120.5 -66t110.5 -75t81.5 -100.5t31.5 -134q0 -194 -141 -317.5t-367 -123.5z" />
<glyph unicode="&#x161;" horiz-adv-x="950" d="M535 1237l-183 264l129 43l133 -192l217 192l107 -43l-295 -264h-108zM408 -27q-163 0 -270 70t-130 176l135 86q22 -86 92 -137t175 -51q97 0 159 51.5t62 140.5q0 42 -26 75t-67.5 56.5t-92 45.5t-100.5 48t-91.5 57.5t-67.5 81t-26 111.5q0 156 109.5 249t279.5 93 q140 0 244 -62t127 -146l-136 -89q-22 65 -92.5 109.5t-150.5 44.5q-86 0 -143.5 -49t-57.5 -125q0 -43 26 -78t67.5 -59t92 -46.5t100.5 -48t91.5 -56t67.5 -78t26 -107.5q0 -168 -112 -265.5t-291 -97.5z" />
<glyph unicode="&#x162;" horiz-adv-x="1189" d="M246 1423h1059l-35 -151h-443l-268 -1272h-29l-110 -117q42 11 67 11q76 0 113.5 -45t24.5 -107q-15 -68 -84.5 -117t-180.5 -49q-105 0 -172 51l50 78q59 -47 133 -47q50 0 83 24t40 56q5 30 -15 51t-63 21q-42 0 -86 -23l-64 41l150 172h-31l268 1272h-442z" />
<glyph unicode="&#x163;" horiz-adv-x="788" d="M485 946l-131 -614q-21 -101 4.5 -147t100.5 -46q78 0 162 43l-17 -159q-106 -50 -205 -50h-4l-86 -90q42 11 68 11q76 0 113 -45t24 -107q-15 -68 -84 -117t-180 -49q-105 0 -172 51l49 78q59 -47 133 -47q50 0 83 24t40 56q5 30 -15 51t-63 21q-42 0 -86 -23l-63 41 l139 160q-171 58 -117 311l137 647h-192l33 154h192l68 317l176 31l-74 -348h275l-31 -154h-277z" />
<glyph unicode="&#x164;" horiz-adv-x="1189" d="M756 1561l-183 264l129 43l134 -193l217 193l106 -43l-295 -264h-108zM385 0l268 1272h-442l35 151h1059l-35 -151h-443l-268 -1272h-174z" />
<glyph unicode="&#x165;" horiz-adv-x="788" d="M629 1159l114 377h144l-137 -377h-121zM399 -27q-138 0 -197 82.5t-24 243.5l137 647h-192l33 154h192l68 317l176 31l-74 -348h275l-31 -154h-277l-131 -614q-21 -101 4.5 -147t100.5 -46q78 0 162 43l-17 -159q-106 -50 -205 -50z" />
<glyph unicode="&#x166;" horiz-adv-x="1189" d="M1270 1272h-443l-100 -479h236l-29 -140h-238l-137 -653h-174l137 653h-235l28 140h238l100 479h-442l35 151h1059z" />
<glyph unicode="&#x167;" horiz-adv-x="788" d="M762 946h-277l-59 -274h184l-26 -123h-183l-47 -217q-21 -101 4.5 -147t100.5 -46q78 0 162 43l-17 -159q-106 -50 -205 -50q-138 0 -197 82.5t-24 243.5l53 250h-127l27 123h127l57 274h-192l33 154h192l68 317l176 31l-74 -348h275z" />
<glyph unicode="&#x168;" horiz-adv-x="1316" d="M719 1595l-111 27q24 79 75 126.5t118 47.5q39 0 113.5 -14.5t99.5 -14.5q63 0 86 88l112 -24q-27 -85 -83.5 -135.5t-135.5 -50.5q-40 0 -107 15t-87 15q-62 0 -80 -80zM545 -27q-214 0 -320 140.5t-49 410.5l193 899h174l-195 -903q-19 -81 -14 -152.5t29.5 -124.5 t80 -83.5t136.5 -30.5q289 0 370 391l195 903h174l-193 -907q-113 -543 -581 -543z" />
<glyph unicode="&#x169;" horiz-adv-x="1067" d="M508 1272l-111 26q24 79 75 127t118 48q39 0 113.5 -14.5t99.5 -14.5q63 0 86 88l112 -25q-27 -85 -83.5 -135.5t-135.5 -50.5q-40 0 -107 15.5t-87 15.5q-62 0 -80 -80zM330 -27q-150 0 -224 103.5t-40 263.5l161 760h170l-155 -731q-24 -115 21.5 -178.5t142.5 -63.5 q65 0 129 34t116 104t72 163l143 672h170l-168 -789q-41 -185 -24 -311h-168q-12 56 4 162q-57 -78 -152 -133.5t-198 -55.5z" />
<glyph unicode="&#x16a;" horiz-adv-x="1316" d="M633 1638l26 129h515l-27 -129h-514zM545 -27q-214 0 -320 140.5t-49 410.5l193 899h174l-195 -903q-19 -81 -14 -152.5t29.5 -124.5t80 -83.5t136.5 -30.5q289 0 370 391l195 903h174l-193 -907q-113 -543 -581 -543z" />
<glyph unicode="&#x16b;" horiz-adv-x="1067" d="M422 1315l27 129h514l-27 -129h-514zM330 -27q-150 0 -224 103.5t-40 263.5l161 760h170l-155 -731q-24 -115 21.5 -178.5t142.5 -63.5q65 0 129 34t116 104t72 163l143 672h170l-168 -789q-41 -185 -24 -311h-168q-12 56 4 162q-57 -78 -152 -133.5t-198 -55.5z" />
<glyph unicode="&#x16c;" horiz-adv-x="1316" d="M889 1573q-115 0 -176.5 70.5t-32.5 205.5h123q-17 -75 10 -117t86 -42q58 0 102.5 42t61.5 117h125q-31 -138 -109.5 -207t-189.5 -69zM545 -27q-214 0 -320 140.5t-49 410.5l193 899h174l-195 -903q-19 -81 -14 -152.5t29.5 -124.5t80 -83.5t136.5 -30.5q289 0 370 391 l195 903h174l-193 -907q-113 -543 -581 -543z" />
<glyph unicode="&#x16d;" horiz-adv-x="1067" d="M678 1249q-115 0 -176.5 71t-32.5 206h123q-17 -75 10 -117.5t86 -42.5q58 0 102.5 42.5t61.5 117.5h125q-31 -138 -109.5 -207.5t-189.5 -69.5zM330 -27q-150 0 -224 103.5t-40 263.5l161 760h170l-155 -731q-24 -115 21.5 -178.5t142.5 -63.5q65 0 129 34t116 104 t72 163l143 672h170l-168 -789q-41 -185 -24 -311h-168q-12 56 4 162q-57 -78 -152 -133.5t-198 -55.5z" />
<glyph unicode="&#x16e;" horiz-adv-x="1316" d="M870 1546q-79 0 -118.5 52.5t-22.5 134.5t79.5 135t141.5 53q80 0 121.5 -53.5t24.5 -134.5t-81.5 -134t-144.5 -53zM889 1632q40 0 71.5 28.5t40.5 72.5q10 45 -9.5 73.5t-59.5 28.5q-38 0 -70 -28.5t-41 -73.5q-9 -44 11 -72.5t57 -28.5zM545 -27q-214 0 -320 140.5 t-49 410.5l193 899h174l-195 -903q-19 -81 -14 -152.5t29.5 -124.5t80 -83.5t136.5 -30.5q289 0 370 391l195 903h174l-193 -907q-113 -543 -581 -543z" />
<glyph unicode="&#x16f;" horiz-adv-x="1067" d="M659 1223q-79 0 -118.5 52t-22.5 134t79.5 135t141.5 53q80 0 121.5 -53.5t24.5 -134.5t-81.5 -133.5t-144.5 -52.5zM678 1309q40 0 72 28t41 72q10 45 -10 73.5t-60 28.5q-38 0 -70 -28.5t-41 -73.5q-9 -44 11 -72t57 -28zM330 -27q-150 0 -224 103.5t-40 263.5l161 760 h170l-155 -731q-24 -115 21.5 -178.5t142.5 -63.5q65 0 129 34t116 104t72 163l143 672h170l-168 -789q-41 -185 -24 -311h-168q-12 56 4 162q-57 -78 -152 -133.5t-198 -55.5z" />
<glyph unicode="&#x170;" horiz-adv-x="1316" d="M686 1559l238 327h147l-248 -327h-137zM928 1559l248 327h153l-262 -327h-139zM545 -27q-214 0 -320 140.5t-49 410.5l193 899h174l-195 -903q-19 -81 -14 -152.5t29.5 -124.5t80 -83.5t136.5 -30.5q289 0 370 391l195 903h174l-193 -907q-113 -543 -581 -543z" />
<glyph unicode="&#x171;" horiz-adv-x="1067" d="M475 1235l238 328h147l-248 -328h-137zM717 1235l248 328h153l-262 -328h-139zM330 -27q-150 0 -224 103.5t-40 263.5l161 760h170l-155 -731q-24 -115 21.5 -178.5t142.5 -63.5q65 0 129 34t116 104t72 163l143 672h170l-168 -789q-41 -185 -24 -311h-168q-12 56 4 162 q-57 -78 -152 -133.5t-198 -55.5z" />
<glyph unicode="&#x172;" horiz-adv-x="1316" d="M1145 1423h174l-193 -907q-107 -513 -532 -541q-68 -72 -80 -127q-11 -50 11.5 -77.5t76.5 -28.5l-49 -115q-100 1 -144.5 54t-25.5 137q16 79 92 159q-182 23 -267 161.5t-32 385.5l193 899h174l-195 -903q-19 -81 -14 -152.5t29.5 -124.5t80 -83.5t136.5 -30.5 q289 0 370 391z" />
<glyph unicode="&#x173;" horiz-adv-x="1067" d="M1036 1100l-168 -789q-41 -185 -24 -311h-47q-93 -85 -107 -152q-11 -50 11.5 -77.5t76.5 -28.5l-49 -115q-100 1 -144.5 54t-25.5 137q19 96 117 182q-12 56 4 162q-57 -78 -152 -133.5t-198 -55.5q-150 0 -224 103.5t-40 263.5l161 760h170l-155 -731 q-24 -115 21.5 -178.5t142.5 -63.5q65 0 129 34t116 104t72 163l143 672h170z" />
<glyph unicode="&#x174;" horiz-adv-x="1908" d="M989 1544l-96 53l287 289h129l164 -289l-117 -53l-139 215zM330 0l-64 1423h189l30 -1214l545 1214h225l23 -1214l549 1214h188l-667 -1423h-222l-32 1198l-545 -1198h-219z" />
<glyph unicode="&#x175;" horiz-adv-x="1673" d="M797 1221l-97 53l287 289h129l164 -289l-117 -53l-139 215zM274 0l-77 1100h165l52 -899l446 899h187l59 -899l434 899h170l-547 -1100h-188l-66 899l-448 -899h-187z" />
<glyph unicode="&#x176;" horiz-adv-x="1206" d="M635 1544l-96 53l286 289h129l164 -289l-117 -53l-139 215zM397 0l111 520l-264 903h196l197 -714l502 714h196l-653 -903l-111 -520h-174z" />
<glyph unicode="&#x177;" horiz-adv-x="1060" d="M473 1221l-96 53l287 289h129l163 -289l-116 -53l-140 215zM315 -426q-142 0 -237.5 71.5t-118.5 198.5l139 64q15 -88 75 -137.5t157 -49.5q62 0 122.5 30.5t110.5 95t68 151.5l39 178q-57 -75 -145.5 -127.5t-188.5 -52.5q-151 0 -225.5 100.5t-40.5 257.5l157 746h170 l-151 -711q-24 -114 21.5 -178t144.5 -64q101 0 193.5 81t121.5 216l139 656h170l-231 -1090q-46 -215 -175.5 -325.5t-314.5 -110.5z" />
<glyph unicode="&#x178;" horiz-adv-x="1206" d="M655 1606q-33 0 -55 22t-22 55q0 47 33.5 81t84.5 34q33 0 55.5 -20t22.5 -54q0 -47 -34 -82.5t-85 -35.5zM1001 1606q-31 0 -53 22t-22 55q0 47 32.5 81t83.5 34q33 0 55.5 -20t22.5 -54q0 -47 -34 -82.5t-85 -35.5zM397 0l111 520l-264 903h196l197 -714l502 714h196 l-653 -903l-111 -520h-174z" />
<glyph unicode="&#x179;" horiz-adv-x="1185" d="M598 1552l-37 115l526 201l39 -129zM-6 0l29 137l976 1135h-718l34 151h928l-29 -135l-985 -1136h762l-33 -152h-964z" />
<glyph unicode="&#x17a;" horiz-adv-x="1085" d="M449 1229l-37 114l526 201l39 -129zM27 0l28 139l746 805h-565l32 156h781l-29 -129l-750 -815h592l-33 -156h-802z" />
<glyph unicode="&#x17b;" horiz-adv-x="1185" d="M852 1602q-40 0 -63.5 27.5t-14.5 72.5q10 44 45 71t74 27q41 0 65 -27t15 -71q-10 -45 -45.5 -72.5t-75.5 -27.5zM-6 0l29 137l976 1135h-718l34 151h928l-29 -135l-985 -1136h762l-33 -152h-964z" />
<glyph unicode="&#x17c;" horiz-adv-x="1085" d="M705 1294q-36 0 -57.5 25.5t-12.5 66.5t41 67t67 26q38 0 60.5 -26t13.5 -67t-41.5 -66.5t-70.5 -25.5zM27 0l28 139l746 805h-565l32 156h781l-29 -129l-750 -815h592l-33 -156h-802z" />
<glyph unicode="&#x17d;" horiz-adv-x="1185" d="M788 1561l-182 264l129 43l133 -193l217 193l107 -43l-295 -264h-109zM-6 0l29 137l976 1135h-718l34 151h928l-29 -135l-985 -1136h762l-33 -152h-964z" />
<glyph unicode="&#x17e;" horiz-adv-x="1085" d="M639 1237l-182 264l129 43l133 -192l217 192l106 -43l-294 -264h-109zM27 0l28 139l746 805h-565l32 156h781l-29 -129l-750 -815h592l-33 -156h-802z" />
<glyph unicode="&#x18f;" horiz-adv-x="1296" d="M705 1450q104 0 197.5 -33.5t168 -98.5t118.5 -171t44 -240q0 -146 -32.5 -283.5t-97 -255t-154 -206t-211 -139t-259.5 -50.5q-203 0 -317.5 109.5t-114.5 275.5q0 108 48.5 207t135 175t216.5 121.5t282 45.5q161 0 326 -53v39q0 99 -30 177t-81.5 126t-116.5 73 t-139 25q-102 0 -201 -47t-168 -133l-94 117q89 105 217 162t263 57zM510 129q132 0 244.5 79.5t185 212t100.5 296.5q-161 47 -303 47q-124 0 -224.5 -35t-161.5 -92t-93.5 -124t-32.5 -136q0 -105 75 -176.5t210 -71.5z" />
<glyph unicode="&#x192;" horiz-adv-x="868" d="M72 -27q-88 0 -158 37l68 137q39 -24 90 -24q85 0 143 54.5t82 166.5l70 334h-258l24 108h258l62 295q40 183 145.5 276t253.5 93q95 0 168 -43l-68 -135q-45 28 -102 28q-173 0 -221 -219l-62 -295h254l-22 -108h-256l-70 -334q-38 -178 -143.5 -274.5t-257.5 -96.5z " />
<glyph unicode="&#x19d;" horiz-adv-x="1413" d="M-215 -399l33 145q104 0 165 50.5t89 180.5l307 1446h170l444 -1120l240 1120h174l-303 -1423h-170l-447 1120l-241 -1136q-23 -109 -66 -185.5t-104.5 -118.5t-131.5 -60.5t-159 -18.5z" />
<glyph unicode="&#x1e6;" horiz-adv-x="1386" d="M862 1561l-182 264l129 43l133 -193l217 193l107 -43l-295 -264h-109zM1313 1147l-172 -49q-22 88 -91 142t-184 54q-136 0 -254 -90.5t-193.5 -236t-103.5 -318.5q-41 -233 49.5 -376.5t272.5 -143.5q221 0 367 143l65 320h-385l33 151h559l-119 -557 q-109 -101 -254.5 -157t-300.5 -56q-165 0 -281 83t-164.5 233.5t-19.5 343.5q30 230 134.5 415.5t268 293.5t355.5 108q185 0 290.5 -84t127.5 -219z" />
<glyph unicode="&#x1e7;" horiz-adv-x="1167" d="M653 1247l-182 264l129 43l133 -192l217 192l107 -43l-295 -264h-109zM340 -426q-133 0 -236 64t-143 184l145 67q24 -76 88.5 -122t155.5 -46q137 0 237.5 79t131.5 231l39 176q-30 -49 -76 -93t-123.5 -80t-163.5 -36q-156 0 -237.5 102t-81.5 277q0 141 39.5 274.5 t109 239.5t175.5 170.5t229 64.5q66 0 119.5 -21.5t85 -55.5t49.5 -67t24 -64l39 182h170l-225 -1063q-50 -231 -192 -347t-359 -116zM463 137q81 0 155.5 56t125 143.5t80.5 194.5t30 208q0 118 -57.5 183t-151.5 65q-72 0 -136 -36.5t-110 -97.5t-80 -138.5t-50.5 -161 t-16.5 -164.5q0 -123 54 -187.5t157 -64.5z" />
<glyph unicode="&#x1ea;" horiz-adv-x="1343" d="M621 -23q-62 -65 -74 -120q-11 -50 11.5 -78t76.5 -29l-49 -115q-100 1 -144.5 54t-25.5 137q13 70 84 149q-174 15 -276.5 140t-102.5 342q0 124 22.5 245.5t65.5 231.5t108 204.5t145 164t183 108.5t217 39q206 0 318 -119t112 -352q0 -143 -28 -281.5t-85 -262.5 t-136.5 -221t-188 -160t-233.5 -77zM301 471q0 -166 78 -254t205 -88q97 0 183.5 50.5t148.5 135t107.5 192.5t68 225t22.5 231q0 168 -74.5 249.5t-210.5 81.5q-85 0 -160.5 -35.5t-132 -97.5t-102 -143t-74.5 -173t-44 -187t-15 -187z" />
<glyph unicode="&#x1eb;" horiz-adv-x="1081" d="M453 -25q-59 -62 -72 -118q-11 -50 11.5 -78t76.5 -29l-49 -115q-100 1 -144.5 54t-25.5 137q17 79 88 154q-132 22 -203.5 116.5t-71.5 255.5q0 117 26.5 230t78 211t123 172.5t167.5 117.5t204 43q169 0 261.5 -97t92.5 -281q0 -113 -24.5 -222.5t-73 -205.5 t-115.5 -170.5t-157.5 -121t-192.5 -53.5zM240 375q0 -121 53.5 -185.5t155.5 -64.5q89 0 165 55.5t124 144t75 193.5t27 207q0 121 -53.5 185.5t-155.5 64.5q-89 0 -165 -56t-124 -144.5t-75 -193t-27 -206.5z" />
<glyph unicode="&#x1fa;" horiz-adv-x="1193" d="M1188 2116l-529 -187l-36 115l526 201zM664 1733q17 82 79.5 135t141.5 53q80 0 121 -53t24 -135q-17 -81 -81 -134t-144 -53q-79 0 -118.5 52.5t-22.5 134.5zM936 1733q10 45 -10 73.5t-60 28.5q-38 0 -69.5 -28.5t-40.5 -73.5q-9 -44 10.5 -72.5t56.5 -28.5 q40 0 72 28.5t41 72.5zM674 1423h219l145 -1423h-186l-33 344h-540l-177 -344h-178zM356 498h451l-70 743z" />
<glyph unicode="&#x1fb;" horiz-adv-x="1138" d="M578 1606l-37 114l526 201l39 -129zM723 1223q-79 0 -118.5 52t-22.5 134t79.5 135t141.5 53q80 0 121 -53t24 -135q-17 -81 -81 -133.5t-144 -52.5zM741 1309q40 0 72 28t41 72q10 45 -10 73.5t-60 28.5q-38 0 -69.5 -28.5t-40.5 -73.5q-9 -44 10.5 -72t56.5 -28z M385 -27q-153 0 -235 98.5t-82 274.5q0 208 64.5 383.5t193 286t297.5 110.5q119 0 191.5 -66.5t84.5 -150.5l41 191h170l-172 -819q-27 -128 -27 -209q0 -26 4 -72h-178q-6 30 -6 63q0 51 19 134q-51 -91 -146.5 -157.5t-218.5 -66.5zM455 125q89 0 165 56.5t124 145.5 t75 193.5t27 206.5q0 120 -54 184t-155 64q-89 0 -165.5 -56t-125 -144.5t-75.5 -192.5t-27 -205q0 -122 54 -187t157 -65z" />
<glyph unicode="&#x1fc;" horiz-adv-x="1869" d="M1688 1739l-529 -187l-37 115l527 201zM1833 1272h-608l-103 -479h533l-33 -154h-532l-103 -487h662l-31 -152h-838l84 391h-440l-281 -391h-188l1036 1423h877zM532 543h363l154 719z" />
<glyph unicode="&#x1fd;" horiz-adv-x="1863" d="M1352 1415l-529 -186l-37 114l527 201zM1311 131q89 0 179 48.5t148 135.5l117 -96q-79 -118 -202.5 -182t-276.5 -64q-120 0 -213 58t-139 162l-39 -193h-170l47 217q-46 -102 -148 -173t-229 -71q-153 0 -235 98.5t-82 274.5q0 208 64.5 383.5t193 286t297.5 110.5 q119 0 191.5 -66.5t84.5 -150.5l41 191h170l-35 -168q79 92 182 143t220 51q143 0 220 -66t77 -165q0 -58 -27 -119.5t-81 -118.5t-127 -101.5t-174 -71.5t-214 -27q-26 0 -84 4q-2 -14 -2 -43q0 -136 65 -211.5t181 -75.5zM455 125q89 0 165 56.5t124 145.5t75 193.5 t27 206.5q0 120 -54 184t-155 64q-89 0 -165.5 -56t-125 -144.5t-75.5 -192.5t-27 -205q0 -122 54 -187t157 -65zM1454 975q-127 0 -224 -108.5t-140 -266.5q23 -2 63 -2q104 0 191.5 27t140.5 68.5t82.5 88t29.5 88.5q0 47 -36.5 76t-106.5 29z" />
<glyph unicode="&#x1fe;" horiz-adv-x="1343" d="M1176 1739l-529 -187l-37 115l527 201zM1167 1343q125 -119 125 -364q0 -151 -31.5 -297t-95 -274t-151 -225t-208 -153.5t-257.5 -56.5q-109 0 -199 41l-90 -147l-113 39l109 176q-135 126 -135 375q0 124 22.5 245.5t65.5 231.5t108 204.5t145 164t183 108.5t217 39 q119 0 209 -41l80 129l113 -39zM301 471q0 -139 55 -225l625 1014q-58 34 -152 34q-85 0 -160.5 -35.5t-132 -97.5t-102 -143t-74.5 -173t-44 -187t-15 -187zM584 129q97 0 183.5 50.5t148.5 135t107.5 192.5t68 225t22.5 231q0 136 -49 215l-623 -1014q62 -35 142 -35z" />
<glyph unicode="&#x1ff;" horiz-adv-x="1081" d="M961 1415l-529 -186l-37 114l527 201zM1026 1153l-96 -133q86 -99 86 -272q0 -117 -26 -230t-78 -211t-123 -173t-167.5 -118t-205.5 -43q-121 0 -203 52l-78 -109l-76 49l86 119q-82 97 -82 268q0 117 26.5 230t78 211t123 172.5t167.5 117.5t204 43q118 0 198 -47 l90 123zM240 375q0 -79 20 -129l500 690q-48 39 -129 39q-89 0 -165 -56t-124 -144.5t-75 -193t-27 -206.5zM840 725q0 77 -25 135l-500 -694q53 -41 134 -41q89 0 165 55.5t124 144t75 193.5t27 207z" />
<glyph unicode="&#x218;" horiz-adv-x="1101" d="M465 -27q-167 0 -287 80.5t-151 206.5l172 55q23 -84 102.5 -135t181.5 -51q131 0 215 71t84 179q0 56 -31.5 103t-82 81.5t-111.5 66.5t-121.5 67.5t-111 76t-82 99.5t-31.5 131q0 201 139 323.5t365 122.5q166 0 272.5 -74t128.5 -196l-172 -54q-19 78 -84 123t-160 45 q-123 0 -208.5 -75.5t-85.5 -184.5q0 -56 31.5 -101.5t81.5 -78.5t110 -64.5t120.5 -66t110.5 -75t81.5 -100.5t31.5 -134q0 -194 -141 -317.5t-367 -123.5zM295 -520l-43 65q115 62 154 183q-26 -15 -44 -15q-44 0 -63 27.5t-12 64.5q8 39 42 69t83 30q62 0 88 -41t12 -105 q-18 -83 -73 -156.5t-144 -121.5z" />
<glyph unicode="&#x219;" horiz-adv-x="950" d="M408 -27q-163 0 -270 70t-130 176l135 86q22 -86 92 -137t175 -51q97 0 159 51.5t62 140.5q0 42 -26 75t-67.5 56.5t-92 45.5t-100.5 48t-91.5 57.5t-67.5 81t-26 111.5q0 156 109.5 249t279.5 93q140 0 244 -62t127 -146l-136 -89q-22 65 -92.5 109.5t-150.5 44.5 q-86 0 -143.5 -49t-57.5 -125q0 -43 26 -78t67.5 -59t92 -46.5t100.5 -48t91.5 -56t67.5 -78t26 -107.5q0 -168 -112 -265.5t-291 -97.5zM266 -520l-43 65q115 62 154 183q-26 -15 -43 -15q-44 0 -63.5 27.5t-12.5 64.5q8 39 42 69t83 30q62 0 88 -41t12 -105 q-18 -83 -73 -156.5t-144 -121.5z" />
<glyph unicode="&#x21a;" horiz-adv-x="1189" d="M385 0l268 1272h-442l35 151h1059l-35 -151h-443l-268 -1272h-174zM322 -520l-43 65q114 61 153 183q-26 -15 -43 -15q-44 0 -63.5 27.5t-12.5 64.5q8 39 42 69t83 30q63 0 89 -41t12 -105q-18 -83 -73 -156.5t-144 -121.5z" />
<glyph unicode="&#x21b;" horiz-adv-x="788" d="M399 -27q-138 0 -197 82.5t-24 243.5l137 647h-192l33 154h192l68 317l176 31l-74 -348h275l-31 -154h-277l-131 -614q-21 -101 4.5 -147t100.5 -46q78 0 162 43l-17 -159q-106 -50 -205 -50zM211 -520l-43 65q115 62 154 183q-26 -15 -43 -15q-44 0 -63.5 27.5 t-12.5 64.5q8 39 42 69t83 30q62 0 88 -41t12 -105q-18 -83 -73 -156.5t-144 -121.5z" />
<glyph unicode="&#x232;" horiz-adv-x="1206" d="M580 1638l26 129h514l-26 -129h-514zM397 0l111 520l-264 903h196l197 -714l502 714h196l-653 -903l-111 -520h-174z" />
<glyph unicode="&#x233;" horiz-adv-x="1060" d="M418 1315l26 129h514l-26 -129h-514zM315 -426q-142 0 -237.5 71.5t-118.5 198.5l139 64q15 -88 75 -137.5t157 -49.5q62 0 122.5 30.5t110.5 95t68 151.5l39 178q-57 -75 -145.5 -127.5t-188.5 -52.5q-151 0 -225.5 100.5t-40.5 257.5l157 746h170l-151 -711 q-24 -114 21.5 -178t144.5 -64q101 0 193.5 81t121.5 216l139 656h170l-231 -1090q-46 -215 -175.5 -325.5t-314.5 -110.5z" />
<glyph unicode="&#x237;" horiz-adv-x="501" d="M-244 -426l31 145q104 0 164 50.5t88 181.5l244 1149h170l-242 -1143q-23 -109 -65.5 -185.5t-103 -118.5t-129.5 -60.5t-157 -18.5z" />
<glyph unicode="&#x259;" horiz-adv-x="1042" d="M586 1126q171 0 279 -111t108 -300q0 -146 -44 -281t-120.5 -237t-187 -163t-236.5 -61q-143 0 -220 66.5t-77 165.5q0 58 26.5 119.5t80.5 118.5t127 101.5t174.5 71.5t214.5 27q28 0 82 -4q2 14 2 43q0 136 -64 211.5t-180 75.5q-91 0 -181.5 -49t-148.5 -136l-115 97 q77 117 201 181t279 64zM406 125q128 0 225.5 108.5t138.5 266.5q-23 2 -63 2q-104 0 -191.5 -27t-141 -69t-83 -88.5t-29.5 -88.5q0 -46 36.5 -75t107.5 -29z" />
<glyph unicode="&#x272;" horiz-adv-x="1136" d="M-238 -399l33 145q93 0 151 54t85 177l237 1123h166l-33 -156q47 71 132 126.5t194 55.5q155 0 233 -111t31 -325l-145 -690h-170l141 670q31 142 -18.5 217.5t-149.5 75.5t-187.5 -80t-117.5 -228l-143 -671q-44 -205 -155 -294t-284 -89z" />
<glyph unicode="&#x2c6;" horiz-adv-x="1183" d="M500 1223l-97 53l287 289h129l164 -289l-117 -53l-139 215z" />
<glyph unicode="&#x2c7;" horiz-adv-x="1183" d="M631 1237l-182 264l129 43l133 -192l217 192l106 -43l-295 -264h-108z" />
<glyph unicode="&#x2d8;" horiz-adv-x="1183" d="M702 1249q-115 0 -176 71t-32 206h122q-17 -75 10.5 -117.5t86.5 -42.5q58 0 102.5 42.5t61.5 117.5h124q-31 -138 -109.5 -207.5t-189.5 -69.5z" />
<glyph unicode="&#x2d9;" horiz-adv-x="1183" d="M707 1337q-42 0 -67.5 29.5t-16.5 77.5q11 49 49 77.5t80 28.5q44 0 69 -28.5t15 -77.5q-10 -48 -48 -77.5t-81 -29.5z" />
<glyph unicode="&#x2da;" horiz-adv-x="1183" d="M682 1223q-79 0 -118.5 52t-22.5 134t79.5 135t141.5 53q80 0 121 -53t24 -135q-17 -81 -81 -133.5t-144 -52.5zM700 1309q40 0 72 28t41 72q10 45 -10 73.5t-60 28.5q-38 0 -69.5 -28.5t-40.5 -73.5q-9 -44 10.5 -72t56.5 -28z" />
<glyph unicode="&#x2db;" horiz-adv-x="1183" d="M442 -373q-100 1 -144.5 54t-25.5 137q19 96 117 182h121q-93 -85 -107 -152q-11 -50 12 -77.5t77 -28.5z" />
<glyph unicode="&#x2dc;" horiz-adv-x="1183" d="M530 1272l-110 26q24 79 74.5 127t117.5 48q39 0 113.5 -14.5t99.5 -14.5q63 0 86 88l113 -25q-27 -85 -83.5 -135.5t-135.5 -50.5q-40 0 -107.5 15.5t-87.5 15.5q-62 0 -80 -80z" />
<glyph unicode="&#x2dd;" horiz-adv-x="1183" d="M399 1235l238 328h147l-247 -328h-138zM641 1235l248 328h153l-262 -328h-139z" />
<glyph unicode="&#x300;" d="M-139 1241l-508 156l53 127l502 -168z" />
<glyph unicode="&#x301;" d="M-616 1229l-37 114l526 201l39 -129z" />
<glyph unicode="&#x302;" d="M-580 1223l-96 53l287 289h129l164 -289l-117 -53l-139 215z" />
<glyph unicode="&#x303;" d="M-551 1272l-111 26q24 79 75 127t118 48q39 0 113.5 -14.5t99.5 -14.5q63 0 86 88l113 -25q-27 -85 -83.5 -135.5t-135.5 -50.5q-40 0 -107.5 15.5t-87.5 15.5q-62 0 -80 -80z" />
<glyph unicode="&#x304;" d="M-635 1315l27 129h514l-27 -129h-514z" />
<glyph unicode="&#x306;" d="M-379 1249q-115 0 -176.5 71t-32.5 206h123q-17 -75 10 -117.5t86 -42.5q58 0 102.5 42.5t61.5 117.5h125q-31 -138 -109.5 -207.5t-189.5 -69.5z" />
<glyph unicode="&#x307;" d="M-375 1337q-42 0 -67.5 29.5t-16.5 77.5q11 49 49 77.5t80 28.5q44 0 69 -28.5t15 -77.5q-10 -48 -48 -77.5t-81 -29.5z" />
<glyph unicode="&#x308;" d="M-557 1282q-33 0 -55.5 22.5t-22.5 55.5q0 47 34 81t85 34q33 0 55.5 -20t22.5 -54q0 -47 -34 -83t-85 -36zM-211 1282q-31 0 -53.5 22.5t-22.5 55.5q0 47 33 81t84 34q33 0 55.5 -20t22.5 -54q0 -47 -34 -83t-85 -36z" />
<glyph unicode="&#x30a;" d="M-401 1223q-80 0 -119.5 52t-22.5 134t79.5 135t141.5 53q80 0 121.5 -53.5t24.5 -134.5t-81 -133.5t-144 -52.5zM-383 1309q40 0 72 28t41 72q10 45 -10 73.5t-60 28.5q-38 0 -70 -28.5t-41 -73.5q-9 -44 11 -72t57 -28z" />
<glyph unicode="&#x30b;" d="M-682 1235l238 328h147l-248 -328h-137zM-440 1235l247 328h154l-262 -328h-139z" />
<glyph unicode="&#x30c;" d="M-449 1237l-182 264l129 43l133 -192l217 192l107 -43l-295 -264h-109z" />
<glyph unicode="&#x312;" d="M-375 1247q-62 0 -88 41t-12 105q19 84 73.5 157.5t143.5 118.5l41 -65q-112 -59 -154 -181q23 13 45 13q43 0 62.5 -27.5t13.5 -65.5q-8 -39 -41 -67.5t-84 -28.5z" />
<glyph unicode="&#x323;" d="M-752 -338q-30 0 -50.5 18.5t-20.5 51.5q0 45 33.5 78.5t76.5 33.5q33 0 54.5 -19t21.5 -52q0 -44 -34.5 -77.5t-80.5 -33.5z" />
<glyph unicode="&#x326;" d="M-813 -520l-43 65q115 62 154 183q-26 -15 -43 -15q-44 0 -63.5 27.5t-12.5 64.5q8 39 42 69t83 30q62 0 88 -41t12 -105q-18 -83 -73 -156.5t-144 -121.5z" />
<glyph unicode="&#x327;" d="M-762 -424q-105 0 -172 51l49 78q59 -47 133 -47q50 0 83 24t40 56q5 30 -15 51t-63 21q-42 0 -86 -23l-63 41l149 172h115l-110 -117q42 11 67 11q76 0 113 -45t24 -107q-15 -68 -84 -117t-180 -49z" />
<glyph unicode="&#x328;" d="M-637 -373q-100 1 -144.5 54t-25.5 137q19 96 117 182h121q-93 -85 -107 -152q-11 -50 11.5 -77.5t76.5 -28.5z" />
<glyph unicode="&#x335;" d="M-809 416l27 123h479l-27 -123h-479z" />
<glyph unicode="&#x336;" d="M-840 451l27 124h559l-27 -124h-559z" />
<glyph unicode="&#x337;" d="M-782 571l32 154l531 176l-33 -153z" />
<glyph unicode="&#x338;" d="M-963 -164l-75 49l891 1237l75 -49z" />
<glyph unicode="&#x384;" horiz-adv-x="1183" d="M657 1210l138 367h176l-162 -367h-152z" />
<glyph unicode="&#x385;" horiz-adv-x="1185" d="M666 1210l135 367h153l-161 -367h-127zM559 1305q-39 0 -62 26t-14 68q10 44 44 70t71 26q40 0 63 -26t13 -70q-9 -42 -42.5 -68t-72.5 -26zM1004 1305q-39 0 -61.5 26t-12.5 68q9 44 42 70t72 26t62 -26t14 -70q-10 -43 -43.5 -68.5t-72.5 -25.5z" />
<glyph unicode="&#x386;" horiz-adv-x="1193" d="M852 0l-33 344h-540l-177 -344h-178l750 1423h219l145 -1423h-186zM535 1423l-191 -422h-127l178 422h140zM356 498h451l-70 743z" />
<glyph unicode="&#x388;" horiz-adv-x="1312" d="M133 1001l178 422h140l-191 -422h-127zM221 0l303 1423h785l-35 -151h-608l-101 -479h531l-33 -154h-533l-102 -487h662l-31 -152h-838z" />
<glyph unicode="&#x389;" horiz-adv-x="1591" d="M133 1001l178 422h140l-191 -422h-127zM221 0l303 1423h174l-133 -628h713l133 628h174l-303 -1423h-174l137 643h-715l-135 -643h-174z" />
<glyph unicode="&#x38a;" horiz-adv-x="704" d="M133 1001l178 422h140l-191 -422h-127zM221 0l303 1423h174l-303 -1423h-174z" />
<glyph unicode="&#x38c;" horiz-adv-x="1400" d="M606 -27q-195 0 -311.5 126.5t-116.5 357.5q0 149 32 293t95.5 270t151 222.5t207.5 152t256 55.5q206 0 318 -119t112 -352q0 -151 -31.5 -297t-95 -274t-151.5 -225t-208.5 -153.5t-257.5 -56.5zM84 1001l178 422h139l-190 -422h-127zM641 129q97 0 183.5 50.5 t148.5 135t107.5 192.5t68 225t22.5 231q0 169 -74 250t-210 81q-101 0 -189 -51t-149 -134.5t-105 -191.5t-65 -221.5t-21 -224.5q0 -166 78 -254t205 -88z" />
<glyph unicode="&#x38e;" horiz-adv-x="1380" d="M70 1001l178 422h139l-190 -422h-127zM571 0l111 520l-264 903h196l197 -714l502 714h196l-653 -903l-111 -520h-174z" />
<glyph unicode="&#x38f;" horiz-adv-x="1484" d="M121 0l29 133l305 -2q-107 63 -170.5 184.5t-63.5 278.5q0 165 62 321.5t166 274t251 189t308 71.5q125 0 221.5 -40.5t154.5 -111t87.5 -160t29.5 -194.5q0 -138 -39.5 -267.5t-108.5 -233t-159.5 -183.5t-194.5 -129l306 2l-29 -133h-520l28 139q242 102 395.5 313 t153.5 459q0 169 -90.5 276t-267.5 107q-165 0 -301.5 -97.5t-211.5 -253.5t-75 -331q0 -156 73 -279t212 -194l-31 -139h-520zM121 1001l178 422h139l-190 -422h-127z" />
<glyph unicode="&#x390;" horiz-adv-x="534" d="M305 1210l135 367h154l-162 -367h-127zM199 1305q-39 0 -62 26t-14 68q10 44 44 70t71 26q40 0 62.5 -26t12.5 -70q-9 -42 -42 -68t-72 -26zM643 1305q-39 0 -61.5 26t-12.5 68q9 44 42.5 70t72.5 26t62 -26t14 -70q-10 -43 -44 -68.5t-73 -25.5zM369 -20 q-279 3 -279 243q0 49 12 107l164 770h162l-164 -766q-6 -25 -6 -68q0 -69 39.5 -98.5t110.5 -32.5z" />
<glyph unicode="&#x391;" horiz-adv-x="1193" d="M852 0l-33 344h-540l-177 -344h-178l750 1423h219l145 -1423h-186zM356 498h451l-70 743z" />
<glyph unicode="&#x392;" horiz-adv-x="1206" d="M76 0l303 1423h422q55 0 105 -8.5t100 -32t83 -59.5t48 -96t2 -137q-21 -139 -98.5 -233t-186.5 -126l-2 -2q37 -11 69.5 -33.5t60 -59t38.5 -93t0 -125.5q-15 -113 -61 -195.5t-116.5 -130t-155 -70t-185.5 -22.5h-426zM420 797h227q124 0 202 68.5t101 195.5 q11 60 0.5 102.5t-41 65t-69 32t-90.5 9.5h-230zM283 152h241q268 0 314 256q23 116 -31.5 175.5t-181.5 59.5h-240z" />
<glyph unicode="&#x393;" horiz-adv-x="1040" d="M76 0l303 1423h764l-33 -151h-590l-270 -1272h-174z" />
<glyph unicode="&#x394;" horiz-adv-x="1157" d="M-70 0l719 1423h234l110 -1423h-1063zM170 152h649l-88 1116z" />
<glyph unicode="&#x395;" horiz-adv-x="1167" d="M76 0l303 1423h784l-35 -151h-608l-100 -479h530l-32 -154h-533l-102 -487h661l-31 -152h-837z" />
<glyph unicode="&#x396;" horiz-adv-x="1185" d="M-6 0l29 137l976 1135h-718l34 151h928l-29 -135l-985 -1136h762l-33 -152h-964z" />
<glyph unicode="&#x397;" horiz-adv-x="1445" d="M76 0l303 1423h174l-133 -628h713l133 628h174l-303 -1423h-174l137 643h-715l-135 -643h-174z" />
<glyph unicode="&#x398;" horiz-adv-x="1343" d="M549 -27q-195 0 -311.5 126.5t-116.5 357.5q0 124 22.5 245.5t65.5 231.5t108 204.5t145 164t183 108.5t217 39q206 0 318 -119t112 -352q0 -151 -31.5 -297t-95 -274t-151 -225t-208 -153.5t-257.5 -56.5zM584 129q97 0 183.5 50.5t148.5 135t107.5 192.5t68 225 t22.5 231q0 168 -74.5 249.5t-210.5 81.5q-85 0 -160.5 -35.5t-132 -97.5t-102 -143t-74.5 -173t-44 -187t-15 -187q0 -166 78 -254t205 -88zM438 647l35 129h494l-35 -129h-494z" />
<glyph unicode="&#x399;" horiz-adv-x="559" d="M76 0l303 1423h174l-303 -1423h-174z" />
<glyph unicode="&#x39a;" horiz-adv-x="1224" d="M1296 1423l-634 -632l401 -791h-215l-328 651l-166 -166l-104 -485h-174l303 1423h174l-141 -667l669 667h215z" />
<glyph unicode="&#x39b;" horiz-adv-x="1193" d="M-76 0l750 1423h219l145 -1423h-186l-115 1241l-635 -1241h-178z" />
<glyph unicode="&#x39c;" horiz-adv-x="1652" d="M76 0l303 1423h188l258 -870l633 870h189l-304 -1423h-174l236 1114l-551 -778h-147l-222 778l-235 -1114h-174z" />
<glyph unicode="&#x39d;" horiz-adv-x="1413" d="M76 0l303 1423h168l446 -1120l240 1120h174l-303 -1423h-168l-449 1120l-237 -1120h-174z" />
<glyph unicode="&#x39e;" horiz-adv-x="1208" d="M303 1272l33 151h909l-35 -151h-907zM264 639l33 154h717l-35 -154h-715zM33 0l30 152h910l-31 -152h-909z" />
<glyph unicode="&#x39f;" horiz-adv-x="1343" d="M549 -27q-195 0 -311.5 126.5t-116.5 357.5q0 124 22.5 245.5t65.5 231.5t108 204.5t145 164t183 108.5t217 39q206 0 318 -119t112 -352q0 -151 -31.5 -297t-95 -274t-151 -225t-208 -153.5t-257.5 -56.5zM584 129q97 0 183.5 50.5t148.5 135t107.5 192.5t68 225 t22.5 231q0 168 -74.5 249.5t-210.5 81.5q-85 0 -160.5 -35.5t-132 -97.5t-102 -143t-74.5 -173t-44 -187t-15 -187q0 -166 78 -254t205 -88z" />
<glyph unicode="&#x3a0;" horiz-adv-x="1445" d="M76 0l303 1423h1061l-303 -1423h-174l270 1272h-713l-270 -1272h-174z" />
<glyph unicode="&#x3a1;" horiz-adv-x="1124" d="M76 0l303 1423h405q200 0 295.5 -115.5t53.5 -316.5q-44 -210 -194.5 -332t-356.5 -122h-220l-112 -537h-174zM395 688h211q132 0 224.5 80.5t121.5 218.5q29 132 -29 208.5t-184 76.5h-219z" />
<glyph unicode="&#x3a3;" horiz-adv-x="1157" d="M-2 0l29 139l505 576l-256 569l31 139h910l-35 -151h-713l242 -561l-484 -559h731l-30 -152h-930z" />
<glyph unicode="&#x3a4;" horiz-adv-x="1189" d="M385 0l268 1272h-442l35 151h1059l-35 -151h-443l-268 -1272h-174z" />
<glyph unicode="&#x3a5;" horiz-adv-x="1206" d="M397 0l111 520l-264 903h196l197 -714l502 714h196l-653 -903l-111 -520h-174z" />
<glyph unicode="&#x3a6;" horiz-adv-x="1521" d="M553 -16l35 170h-31q-200 0 -320 114.5t-120 306.5q0 185 91 345.5t248 256t341 95.5h30l35 168h174l-35 -168h31q200 0 320.5 -115t120.5 -307q0 -138 -53.5 -266.5t-144 -222.5t-216.5 -150.5t-264 -56.5h-33l-35 -170h-174zM598 307h25l172 811h-27 q-131 0 -240.5 -74.5t-170 -192.5t-60.5 -249q0 -137 82.5 -216t218.5 -79zM797 307h24q132 0 241.5 74.5t169.5 192.5t60 249q0 137 -82 216t-217 79h-24z" />
<glyph unicode="&#x3a7;" horiz-adv-x="1300" d="M1382 1423l-594 -712l297 -711h-198l-240 569l-483 -569h-191l611 723l-293 700h198l234 -559l469 559h190z" />
<glyph unicode="&#x3a8;" horiz-adv-x="1521" d="M557 0l68 326h-31q-229 0 -343 148.5t-61 395.5l119 553h174l-118 -553q-39 -183 37.5 -288t230.5 -105h26l201 946h174l-200 -946h26q152 0 272.5 105t159.5 288l119 553h174l-119 -553q-52 -247 -229 -395.5t-406 -148.5h-32l-68 -326h-174z" />
<glyph unicode="&#x3a9;" horiz-adv-x="1339" d="M-25 0l29 133l305 -2q-107 63 -170 184t-63 279q0 165 61.5 321.5t165.5 274t251 189t308 71.5q125 0 221.5 -40.5t155 -111t88 -160t29.5 -194.5q0 -138 -39.5 -267.5t-108.5 -233t-159.5 -183.5t-194.5 -129l305 2l-29 -133h-520l29 139q242 102 395.5 313t153.5 459 q0 168 -91 275.5t-268 107.5q-124 0 -234.5 -57.5t-187 -152t-121 -218.5t-44.5 -254q0 -156 72.5 -279t211.5 -194l-30 -139h-521z" />
<glyph unicode="&#x3aa;" horiz-adv-x="559" d="M332 1606q-33 0 -55.5 22t-22.5 55q0 47 34 81t85 34q33 0 55.5 -20t22.5 -54q0 -47 -34 -82.5t-85 -35.5zM678 1606q-31 0 -53.5 22t-22.5 55q0 47 33 81t84 34q33 0 55.5 -20t22.5 -54q0 -47 -34 -82.5t-85 -35.5zM76 0l303 1423h174l-303 -1423h-174z" />
<glyph unicode="&#x3ab;" horiz-adv-x="1206" d="M653 1606q-33 0 -55.5 22t-22.5 55q0 47 34 81t85 34q33 0 55.5 -20t22.5 -54q0 -47 -34 -82.5t-85 -35.5zM999 1606q-31 0 -53 22t-22 55q0 47 32.5 81t83.5 34q33 0 55.5 -20t22.5 -54q0 -47 -34 -82.5t-85 -35.5zM397 0l111 520l-264 903h196l197 -714l502 714h196 l-653 -903l-111 -520h-174z" />
<glyph unicode="&#x3ac;" horiz-adv-x="1175" d="M608 1210l137 367h177l-162 -367h-152zM377 -27q-149 0 -233.5 96.5t-84.5 276.5q0 99 22.5 205t70 209t112.5 184.5t158.5 131.5t200.5 50q118 0 191 -57t97 -143l37 174h154l-154 -723q-12 -78 -12 -101q0 -133 115 -133l-33 -153q-120 0 -174.5 60t-57.5 159 q-160 -236 -409 -236zM444 125q68 0 127.5 29t102 78t76 110t54 128.5t30.5 130.5t10 118q0 125 -55.5 190.5t-161.5 65.5q-81 0 -150 -41.5t-113.5 -106t-76.5 -145t-46 -157t-14 -144.5q0 -125 55.5 -190.5t161.5 -65.5z" />
<glyph unicode="&#x3ad;" horiz-adv-x="933" d="M530 1210l138 367h176l-162 -367h-152zM336 -27q-153 0 -235.5 70.5t-82.5 183.5q0 108 74 203.5t197 128.5q-66 23 -101.5 75.5t-35.5 123.5q0 48 16 98t51.5 99t85.5 86.5t124 61t161 23.5q95 0 179.5 -30.5t125.5 -79.5l-90 -139q-89 98 -242 98q-104 0 -171.5 -61 t-67.5 -150q0 -65 48 -102t138 -37h168l-35 -121h-164q-122 0 -203 -64t-81 -161q0 -67 49.5 -110.5t132.5 -43.5t184 35.5t164 83.5l37 -135q-87 -64 -201 -100t-225 -36z" />
<glyph unicode="&#x3ae;" horiz-adv-x="1185" d="M666 1210l137 367h176l-162 -367h-151zM647 -399l227 1069q11 48 11 90q0 98 -53.5 150.5t-139.5 52.5q-104 0 -195 -81.5t-122 -226.5l-139 -655h-162l172 811q18 67 0 101t-74 34l31 154q104 0 150.5 -42t43.5 -128q62 87 157.5 141.5t205.5 54.5q132 0 214.5 -76 t82.5 -221q0 -57 -15 -124l-233 -1104h-162z" />
<glyph unicode="&#x3af;" horiz-adv-x="534" d="M297 1210l137 367h176l-161 -367h-152zM369 -20q-279 3 -279 243q0 49 12 107l164 770h162l-164 -766q-6 -25 -6 -68q0 -69 39.5 -98.5t110.5 -32.5z" />
<glyph unicode="&#x3b0;" horiz-adv-x="1048" d="M547 1210l135 367h154l-162 -367h-127zM440 1305q-39 0 -61.5 25.5t-13.5 68.5q10 44 43.5 70t70.5 26q40 0 63 -26t13 -70q-9 -42 -42.5 -68t-72.5 -26zM885 1305q-39 0 -61.5 26t-12.5 68q9 44 42.5 70t72.5 26t61.5 -26t13.5 -70q-10 -43 -43.5 -68.5t-72.5 -25.5z M381 -27q-144 0 -232 75t-88 216q0 46 13 109l153 727h162l-151 -721q-9 -30 -9 -76q0 -86 48.5 -132t134.5 -46q130 0 224.5 116.5t143.5 344.5q33 152 33 340q0 82 -10 174h160q14 -92 14 -205q0 -157 -31 -309q-61 -286 -208.5 -449.5t-356.5 -163.5z" />
<glyph unicode="&#x3b1;" horiz-adv-x="1175" d="M377 -27q-149 0 -233.5 96.5t-84.5 276.5q0 99 22.5 205t70 209t112.5 184.5t158.5 131.5t200.5 50q118 0 191 -57t97 -143l37 174h154l-154 -723q-12 -78 -12 -101q0 -133 115 -133l-33 -153q-120 0 -174.5 60t-57.5 159q-160 -236 -409 -236zM444 125q68 0 127.5 29 t102 78t76 110t54 128.5t30.5 130.5t10 118q0 125 -55.5 190.5t-161.5 65.5q-81 0 -150 -41.5t-113.5 -106t-76.5 -145t-46 -157t-14 -144.5q0 -125 55.5 -190.5t161.5 -65.5z" />
<glyph unicode="&#x3b2;" horiz-adv-x="1116" d="M-27 -399l303 1427q43 202 178.5 312t311.5 110q141 0 218 -69t77 -173q0 -199 -221 -293q94 -34 141 -121.5t47 -207.5q0 -66 -18.5 -144.5t-60.5 -162t-101 -151.5t-147.5 -111.5t-192.5 -43.5q-99 0 -165.5 43.5t-96.5 114.5l-113 -530h-160zM385 780q78 101 225 156 q156 57 197 81q70 40 82 104q4 20 4 42q0 58 -43.5 96.5t-114.5 38.5q-114 0 -193 -74t-104 -196zM504 121q96 0 176.5 69t123 171t42.5 206q0 111 -56.5 171.5t-142.5 60.5q-74 0 -139.5 -40.5t-109 -104.5t-68.5 -143t-25 -157q0 -112 57 -172.5t142 -60.5z" />
<glyph unicode="&#x3b3;" horiz-adv-x="1048" d="M197 -399l90 424l-137 1075h178l102 -899q134 106 256.5 326.5t169.5 441.5q18 96 21 131h174q-1 -7 -17 -90q-59 -276 -221.5 -551t-363.5 -434l-89 -424h-163z" />
<glyph unicode="&#x3b4;" horiz-adv-x="1032" d="M393 -27q-185 0 -274.5 116.5t-59.5 326.5q30 205 135.5 331t274.5 168q-82 26 -128 83.5t-32 146.5q17 133 145 219t310 86q173 0 295 -100l-82 -127q-44 44 -105.5 69t-126.5 25q-96 0 -171 -41.5t-89 -112.5q-10 -46 7 -80t52.5 -53.5t82.5 -40t97 -41t95 -55t77 -83 t43.5 -125.5t-5.5 -181q-31 -237 -178 -384t-363 -147zM424 125q136 0 225.5 101.5t120.5 265.5q28 153 -23.5 235t-177.5 82q-134 0 -221.5 -101.5t-118.5 -265.5q-29 -152 21.5 -234.5t173.5 -82.5z" />
<glyph unicode="&#x3b5;" horiz-adv-x="933" d="M336 -27q-153 0 -235.5 70.5t-82.5 183.5q0 108 74 203.5t197 128.5q-66 23 -101.5 75.5t-35.5 123.5q0 48 16 98t51.5 99t85.5 86.5t124 61t161 23.5q95 0 179.5 -30.5t125.5 -79.5l-90 -139q-89 98 -242 98q-104 0 -171.5 -61t-67.5 -150q0 -65 48 -102t138 -37h168 l-35 -121h-164q-122 0 -203 -64t-81 -161q0 -67 49.5 -110.5t132.5 -43.5t184 35.5t164 83.5l37 -135q-87 -64 -201 -100t-225 -36z" />
<glyph unicode="&#x3b6;" horiz-adv-x="927" d="M369 -399q81 70 133.5 151t52.5 148q0 56 -34 89.5t-99 33.5q-67 0 -127.5 17t-112 51.5t-82 94t-30.5 136.5q0 193 163 423.5t529 524.5h-486l31 153h707l-29 -139q-172 -133 -303.5 -253t-212.5 -213.5t-131.5 -178.5t-70 -148t-19.5 -122q0 -95 62 -147t161 -52 q124 0 189 -60.5t65 -162.5q0 -90 -51 -179.5t-144 -166.5h-161z" />
<glyph unicode="&#x3b7;" horiz-adv-x="1185" d="M647 -399l227 1069q11 48 11 90q0 98 -53.5 150.5t-139.5 52.5q-104 0 -195 -81.5t-122 -226.5l-139 -655h-162l172 811q18 67 0 101t-74 34l31 154q104 0 150.5 -42t43.5 -128q62 87 157.5 141.5t205.5 54.5q132 0 214.5 -76t82.5 -221q0 -57 -15 -124l-233 -1104h-162z " />
<glyph unicode="&#x3b8;" horiz-adv-x="1112" d="M385 -27q-154 0 -245 97t-91 254q0 80 22.5 166.5t66.5 171.5t120.5 154t173.5 102q-125 70 -125 180q0 44 14 90.5t46 94t77.5 84.5t116 60t154.5 23q143 0 240.5 -82t97.5 -225q0 -38 -15 -115l-118 -569q-22 -104 -67 -189t-100 -139t-120 -90.5t-126.5 -52 t-121.5 -15.5zM821 768l58 264q10 45 10 76q0 88 -54.5 139t-148.5 51t-157.5 -55t-63.5 -143q0 -31 15.5 -56.5t47 -47t60 -35.5t74.5 -33q61 -26 101.5 -62t57.5 -98zM426 121q97 0 177.5 69.5t122.5 171t42 205.5q0 111 -57 174.5t-142 63.5q-74 0 -139 -41.5t-108 -107 t-68 -145.5t-25 -157q0 -112 56.5 -172.5t140.5 -60.5z" />
<glyph unicode="&#x3b9;" horiz-adv-x="534" d="M369 -20q-279 3 -279 243q0 49 12 107l164 770h162l-164 -766q-6 -25 -6 -68q0 -69 39.5 -98.5t110.5 -32.5z" />
<glyph unicode="&#x3ba;" horiz-adv-x="1030" d="M1022 948q-58 0 -102 -18.5t-95 -67.5l-276 -260l313 -602h-205l-249 469l-107 -98l-80 -371h-164l234 1100h164l-105 -494l410 381q55 51 109.5 77.5t90 31t91.5 4.5z" />
<glyph unicode="&#x3bb;" horiz-adv-x="1046" d="M889 0h-170l-150 827l-463 -827h-172l596 1042l-16 95q-15 86 -55 126t-111 40q-41 0 -84 -11l31 150q63 14 127 14q216 0 258 -248z" />
<glyph unicode="&#x3bc;" horiz-adv-x="1091" d="M-90 -399l317 1499h162l-156 -731q-24 -115 22.5 -178.5t145.5 -63.5q106 0 200.5 81.5t123.5 219.5l141 672h164l-166 -778q-12 -46 -9 -78t10 -52.5t25.5 -32.5t36.5 -17t44 -7l-39 -155q-103 0 -167 48.5t-63 151.5q-61 -88 -163.5 -147.5t-208.5 -59.5 q-68 0 -112.5 30.5t-59.5 84.5l-90 -487h-158z" />
<glyph unicode="&#x3bd;" horiz-adv-x="1003" d="M219 0l-80 1100h168l60 -928q152 136 286.5 375.5t177.5 449.5q14 48 17 103h164q-4 -30 -15 -86q-60 -276 -229 -552t-389 -462h-160z" />
<glyph unicode="&#x3be;" horiz-adv-x="946" d="M426 -399q69 62 114.5 139.5t45.5 140.5q0 119 -146 119q-179 0 -274.5 96.5t-95.5 249.5q0 97 35 194.5t113.5 185t187.5 130.5q-64 23 -100 78.5t-36 130.5q0 62 28 128t80 124t139.5 95.5t193.5 37.5q97 0 181 -30.5t124 -80.5l-90 -139q-88 98 -240 98 q-104 0 -175 -69t-71 -156q0 -68 50 -109.5t135 -41.5h170l-35 -121h-164q-81 0 -150 -39.5t-112 -101t-67.5 -132.5t-24.5 -139q0 -108 61.5 -175t173.5 -67q281 0 281 -208q0 -186 -168 -338h-164z" />
<glyph unicode="&#x3bf;" horiz-adv-x="1081" d="M416 -27q-168 0 -260.5 97.5t-92.5 281.5q0 117 26.5 230t78 211t123 172.5t167.5 117.5t204 43q169 0 261.5 -97t92.5 -281q0 -117 -26 -230t-78 -211t-123 -173t-167.5 -118t-205.5 -43zM449 125q89 0 165 55.5t124 144t75 193.5t27 207q0 121 -53.5 185.5t-155.5 64.5 q-89 0 -165 -56t-124 -144.5t-75 -193t-27 -206.5q0 -121 53.5 -185.5t155.5 -64.5z" />
<glyph unicode="&#x3c0;" horiz-adv-x="1191" d="M963 -12q-261 -18 -261 188q0 48 15 109l139 661h-401l-203 -946h-162l201 946h-154l33 154h1042l-32 -156h-162l-141 -668q-9 -56 -9 -61q0 -55 30.5 -75.5t92.5 -20.5z" />
<glyph unicode="&#x3c1;" horiz-adv-x="1112" d="M-78 -399l203 950q57 276 210 425.5t363 149.5q168 0 260.5 -97t92.5 -281q0 -102 -23.5 -209t-72 -208.5t-115.5 -181t-162 -128t-203 -48.5t-176.5 52t-91.5 151l-123 -575h-162zM485 125q68 0 127.5 29t102 78t76 110t54 128.5t30.5 130.5t10 118q0 125 -56 190.5 t-163 65.5q-80 0 -148.5 -41.5t-113.5 -106t-76.5 -145t-45.5 -157t-14 -144.5q0 -125 55.5 -190.5t161.5 -65.5z" />
<glyph unicode="&#x3c2;" horiz-adv-x="993" d="M436 -399q73 67 119.5 142.5t46.5 139.5q0 117 -143 117q-184 0 -285.5 106t-101.5 297q0 100 24 201.5t73 195.5t117 166.5t164.5 116t206.5 43.5q149 0 236.5 -84.5t87.5 -205.5l-162 -48q-8 85 -60 136t-138 51q-75 0 -139.5 -35t-107.5 -91t-73.5 -127t-44.5 -143 t-14 -139q0 -140 67 -218.5t183 -78.5q284 0 284 -206q0 -186 -172 -336h-168z" />
<glyph unicode="&#x3c3;" horiz-adv-x="1142" d="M416 -27q-169 0 -262 94t-93 277q0 104 22.5 209t71.5 204t117.5 175t167.5 122t215 46h533l-33 -154l-240 -2q95 -70 95 -221q0 -105 -23 -209.5t-71.5 -202t-117.5 -173t-168 -120.5t-214 -45zM449 125q81 0 148.5 39t111.5 100t75 138.5t44.5 152.5t13.5 143 q0 122 -56.5 186t-162.5 64q-81 0 -148.5 -39.5t-112 -101t-75.5 -139.5t-44.5 -153.5t-13.5 -143.5q0 -121 56 -183.5t164 -62.5z" />
<glyph unicode="&#x3c4;" horiz-adv-x="782" d="M395 -27q-109 0 -169 54t-60 159q0 48 12 113l137 647h-192l33 154h632l-32 -154h-279l-131 -614q-10 -52 -10 -82q0 -111 119 -111q77 0 161 43l-14 -159q-106 -50 -207 -50z" />
<glyph unicode="&#x3c5;" horiz-adv-x="1048" d="M381 -27q-144 0 -232 75t-88 216q0 46 13 109l153 727h162l-151 -721q-9 -30 -9 -76q0 -86 48.5 -132t134.5 -46q130 0 224.5 116.5t143.5 344.5q33 152 33 340q0 82 -10 174h160q14 -92 14 -205q0 -157 -31 -309q-61 -286 -208.5 -449.5t-356.5 -163.5z" />
<glyph unicode="&#x3c6;" horiz-adv-x="1376" d="M406 -399l79 372q-195 12 -306 129t-111 304q0 123 44.5 245t126 225t209.5 171.5t281 78.5l57 269h162l-57 -269q195 -12 306.5 -128.5t111.5 -303.5q0 -123 -45.5 -246t-128 -225.5t-210.5 -171t-280 -78.5l-78 -372h-161zM516 123l182 854q-111 -11 -201 -64 t-146 -130.5t-85.5 -169t-29.5 -185.5q0 -135 74 -214t206 -91zM678 123q89 9 165.5 45.5t130.5 91t92 122.5t56.5 141t18.5 147q0 134 -75 214.5t-208 92.5z" />
<glyph unicode="&#x3c7;" horiz-adv-x="1052" d="M676 -139q16 -71 47 -95.5t86 -21.5l-35 -162q-116 -5 -170 31.5t-78 140.5l-100 432l-393 -585h-172l520 780l-102 446q-24 114 -152 121l31 152q54 -2 92 -8.5t77 -23t64 -50t37 -84.5l94 -404l391 570h174l-520 -768z" />
<glyph unicode="&#x3c8;" horiz-adv-x="1298" d="M367 -399l86 399h-29q-163 0 -262 105.5t-99 304.5q0 96 23 200q52 247 213 490h162q-154 -229 -209 -490q-23 -106 -23 -186q0 -133 61 -202.5t167 -69.5h28l252 1189h162l-252 -1189h27q137 0 244.5 116t156.5 342q27 120 27 250q0 127 -29 240h162q29 -139 29 -258 q0 -107 -23 -232q-32 -149 -94.5 -267.5t-143 -192t-172 -112t-188.5 -38.5h-29l-86 -399h-161z" />
<glyph unicode="&#x3c9;" horiz-adv-x="1525" d="M360 -27q-142 0 -211 94t-69 261q0 154 62.5 365.5t160.5 406.5h158q-92 -187 -153.5 -402.5t-61.5 -359.5q0 -100 38.5 -156.5t118.5 -56.5q86 0 152 67t90 185l141 661h160l-139 -661q-12 -45 -9.5 -90t15 -81t46.5 -58.5t85 -22.5q72 0 130.5 48t95 120.5t62.5 168.5 t38 182t16 171q15 140 12 285h158q8 -63 8 -150q0 -96 -11.5 -198.5t-35.5 -215t-67 -211t-101 -179t-143 -127t-186 -46.5q-97 0 -159 47.5t-85 126.5q-56 -79 -137 -126.5t-179 -47.5z" />
<glyph unicode="&#x3ca;" horiz-adv-x="534" d="M213 1282q-33 0 -55.5 22.5t-22.5 55.5q0 47 34 81t85 34q33 0 55.5 -20t22.5 -54q0 -47 -34 -83t-85 -36zM559 1282q-31 0 -53.5 22.5t-22.5 55.5q0 47 33 81t84 34q33 0 55.5 -20t22.5 -54q0 -47 -34 -83t-85 -36zM369 -20q-279 3 -279 243q0 49 12 107l164 770h162 l-164 -766q-6 -25 -6 -68q0 -69 39.5 -98.5t110.5 -32.5z" />
<glyph unicode="&#x3cb;" horiz-adv-x="1048" d="M455 1282q-33 0 -55.5 22.5t-22.5 55.5q0 47 34 81t85 34q33 0 55 -20t22 -54q0 -47 -33.5 -83t-84.5 -36zM801 1282q-31 0 -53.5 22.5t-22.5 55.5q0 47 33 81t84 34q33 0 55.5 -20t22.5 -54q0 -47 -34 -83t-85 -36zM381 -27q-144 0 -232 75t-88 216q0 46 13 109l153 727 h162l-151 -721q-9 -30 -9 -76q0 -86 48.5 -132t134.5 -46q130 0 224.5 116.5t143.5 344.5q33 152 33 340q0 82 -10 174h160q14 -92 14 -205q0 -157 -31 -309q-61 -286 -208.5 -449.5t-356.5 -163.5z" />
<glyph unicode="&#x3cc;" horiz-adv-x="1081" d="M606 1210l137 367h177l-162 -367h-152zM416 -27q-168 0 -260.5 97.5t-92.5 281.5q0 117 26.5 230t78 211t123 172.5t167.5 117.5t204 43q169 0 261.5 -97t92.5 -281q0 -117 -26 -230t-78 -211t-123 -173t-167.5 -118t-205.5 -43zM449 125q89 0 165 55.5t124 144t75 193.5 t27 207q0 121 -53.5 185.5t-155.5 64.5q-89 0 -165 -56t-124 -144.5t-75 -193t-27 -206.5q0 -121 53.5 -185.5t155.5 -64.5z" />
<glyph unicode="&#x3cd;" horiz-adv-x="1048" d="M539 1210l137 367h176l-162 -367h-151zM381 -27q-144 0 -232 75t-88 216q0 46 13 109l153 727h162l-151 -721q-9 -30 -9 -76q0 -86 48.5 -132t134.5 -46q130 0 224.5 116.5t143.5 344.5q33 152 33 340q0 82 -10 174h160q14 -92 14 -205q0 -157 -31 -309 q-61 -286 -208.5 -449.5t-356.5 -163.5z" />
<glyph unicode="&#x3ce;" horiz-adv-x="1525" d="M829 1210l138 367h176l-162 -367h-152zM360 -27q-142 0 -211 94t-69 261q0 154 62.5 365.5t160.5 406.5h158q-92 -187 -153.5 -402.5t-61.5 -359.5q0 -100 38.5 -156.5t118.5 -56.5q86 0 152 67t90 185l141 661h160l-139 -661q-12 -45 -9.5 -90t15 -81t46.5 -58.5 t85 -22.5q72 0 130.5 48t95 120.5t62.5 168.5t38 182t16 171q15 140 12 285h158q8 -63 8 -150q0 -96 -11.5 -198.5t-35.5 -215t-67 -211t-101 -179t-143 -127t-186 -46.5q-97 0 -159 47.5t-85 126.5q-56 -79 -137 -126.5t-179 -47.5z" />
<glyph unicode="&#x401;" horiz-adv-x="1167" d="M641 1606q-33 0 -55.5 22t-22.5 55q0 47 34 81t85 34q33 0 55.5 -20t22.5 -54q0 -47 -34 -82.5t-85 -35.5zM987 1606q-31 0 -53.5 22t-22.5 55q0 47 33 81t84 34q33 0 55.5 -20t22.5 -54q0 -47 -34 -82.5t-85 -35.5zM76 0l303 1423h784l-35 -151h-608l-100 -479h530 l-32 -154h-533l-102 -487h661l-31 -152h-837z" />
<glyph unicode="&#x402;" horiz-adv-x="1484" d="M385 0l270 1272h-442l33 151h1059l-33 -151h-443l-120 -567q64 82 154.5 130t195.5 48q156 0 244 -88.5t88 -235.5q0 -162 -77 -291t-209 -199.5t-294 -70.5l29 145q159 0 263.5 112t104.5 267q0 93 -58.5 150t-164.5 57q-115 0 -211.5 -88.5t-126.5 -228.5l-88 -412 h-174z" />
<glyph unicode="&#x403;" horiz-adv-x="1040" d="M547 1552l-37 115l526 201l39 -129zM76 0l303 1423h764l-33 -151h-590l-270 -1272h-174z" />
<glyph unicode="&#x404;" horiz-adv-x="1261" d="M868 1294q-97 0 -183.5 -41t-152 -112.5t-113.5 -162.5t-77 -196h537l-31 -139h-535q-10 -82 -10 -147q0 -181 85.5 -274t236.5 -93q216 0 346 197l149 -54q-35 -61 -83.5 -112.5t-113.5 -94.5t-151.5 -67.5t-183.5 -24.5q-215 0 -340 128.5t-125 371.5q0 189 54.5 364.5 t151.5 312t243.5 218.5t318.5 82q181 0 287 -86.5t125 -212.5l-173 -53q-54 196 -262 196z" />
<glyph unicode="&#x405;" horiz-adv-x="1101" d="M465 -27q-167 0 -287 80.5t-151 206.5l172 55q23 -84 102.5 -135t181.5 -51q131 0 215 71t84 179q0 56 -31.5 103t-82 81.5t-111.5 66.5t-121.5 67.5t-111 76t-82 99.5t-31.5 131q0 201 139 323.5t365 122.5q166 0 272.5 -74t128.5 -196l-172 -54q-19 78 -84 123t-160 45 q-123 0 -208.5 -75.5t-85.5 -184.5q0 -56 31.5 -101.5t81.5 -78.5t110 -64.5t120.5 -66t110.5 -75t81.5 -100.5t31.5 -134q0 -194 -141 -317.5t-367 -123.5z" />
<glyph unicode="&#x406;" horiz-adv-x="559" d="M76 0l303 1423h174l-303 -1423h-174z" />
<glyph unicode="&#x407;" horiz-adv-x="559" d="M332 1606q-33 0 -55.5 22t-22.5 55q0 47 34 81t85 34q33 0 55.5 -20t22.5 -54q0 -47 -34 -82.5t-85 -35.5zM678 1606q-31 0 -53.5 22t-22.5 55q0 47 33 81t84 34q33 0 55.5 -20t22.5 -54q0 -47 -34 -82.5t-85 -35.5zM76 0l303 1423h174l-303 -1423h-174z" />
<glyph unicode="&#x408;" horiz-adv-x="935" d="M-6 0l31 152h120q352 0 433 385l155 735h-391l33 151h565l-188 -886q-116 -537 -639 -537h-119z" />
<glyph unicode="&#x409;" horiz-adv-x="1908" d="M1477 795q166 0 250.5 -87t84.5 -221q0 -130 -67.5 -242t-184 -178.5t-253.5 -66.5h-562l269 1272h-420l-240 -877q-61 -218 -169.5 -306.5t-286.5 -88.5l32 152q101 0 161.5 54.5t96.5 190.5l279 1026h756l-133 -628h387zM1317 152q130 0 221.5 89.5t91.5 211.5 q0 81 -53 135.5t-156 54.5h-364l-105 -491h365z" />
<glyph unicode="&#x40a;" horiz-adv-x="2127" d="M1694 795q166 0 251 -87t85 -221q0 -130 -67.5 -242t-184.5 -178.5t-254 -66.5h-561l137 643h-715l-135 -643h-174l303 1423h174l-133 -628h713l133 628h174l-133 -628h387zM1534 152q130 0 221.5 89.5t91.5 211.5q0 81 -53 135.5t-156 54.5h-364l-105 -491h365z" />
<glyph unicode="&#x40b;" horiz-adv-x="1527" d="M383 0l270 1272h-442l35 151h1059l-35 -151h-443l-120 -574q62 83 159 133t197 50q153 0 235 -103.5t45 -277.5l-106 -500h-174l100 473q23 113 -30 182.5t-158 69.5q-111 0 -205.5 -86t-122.5 -225l-88 -414h-176z" />
<glyph unicode="&#x40c;" horiz-adv-x="1189" d="M1114 1739l-528 -187l-37 115l526 201zM1174 1450q73 0 129 -31l-68 -147q-42 22 -80 22q-44 0 -84.5 -25t-89.5 -93l-291 -388q63 -20 108 -69.5t69 -112t43.5 -144.5t31 -157.5t32.5 -160.5t48 -144h-201q-25 55 -43.5 148t-32 174.5t-37 159t-71.5 123.5t-121 46h-129 l-137 -651h-174l303 1423h174l-131 -620h106l320 436q86 118 164.5 164.5t161.5 46.5z" />
<glyph unicode="&#x40e;" horiz-adv-x="1189" d="M801 1573q-115 0 -176.5 70.5t-32.5 205.5h123q-17 -75 10 -117t86 -42q58 0 102.5 42t61.5 117h125q-31 -138 -109.5 -207t-189.5 -69zM1126 1423h191l-682 -1093q-121 -194 -247.5 -270t-313.5 -76l24 153q104 0 191.5 46t175.5 171l-217 1069h188l160 -860z" />
<glyph unicode="&#x40f;" horiz-adv-x="1419" d="M1413 1423l-303 -1423h-436l-68 -319h-153l69 319h-446l303 1423h174l-270 -1271h686l270 1271h174z" />
<glyph unicode="&#x410;" horiz-adv-x="1193" d="M852 0l-33 344h-540l-177 -344h-178l750 1423h219l145 -1423h-186zM356 498h451l-70 743z" />
<glyph unicode="&#x411;" horiz-adv-x="1241" d="M807 795q166 0 251 -87t85 -221q0 -130 -67.5 -242t-184.5 -178.5t-254 -66.5h-561l303 1423h622l-34 -151h-447l-100 -477h387zM647 152q130 0 222 89.5t92 211.5q0 81 -53 135.5t-156 54.5h-365l-104 -491h364z" />
<glyph unicode="&#x412;" horiz-adv-x="1206" d="M76 0l303 1423h422q55 0 105 -8.5t100 -32t83 -59.5t48 -96t2 -137q-21 -139 -98.5 -233t-186.5 -126l-2 -2q37 -11 69.5 -33.5t60 -59t38.5 -93t0 -125.5q-15 -113 -61 -195.5t-116.5 -130t-155 -70t-185.5 -22.5h-426zM420 797h227q124 0 202 68.5t101 195.5 q11 60 0.5 102.5t-41 65t-69 32t-90.5 9.5h-230zM283 152h241q268 0 314 256q23 116 -31.5 175.5t-181.5 59.5h-240z" />
<glyph unicode="&#x413;" horiz-adv-x="1040" d="M76 0l303 1423h764l-33 -151h-590l-270 -1272h-174z" />
<glyph unicode="&#x414;" horiz-adv-x="1484" d="M-154 -360l109 512h119q68 71 111 143t73 182l256 946h903l-272 -1271h141l-108 -512h-154l78 360h-1026l-76 -360h-154zM248 152h723l237 1120h-571l-219 -795q-33 -118 -73 -190.5t-97 -134.5z" />
<glyph unicode="&#x415;" horiz-adv-x="1167" d="M76 0l303 1423h784l-35 -151h-608l-100 -479h530l-32 -154h-533l-102 -487h661l-31 -152h-837z" />
<glyph unicode="&#x416;" horiz-adv-x="1818" d="M-66 0q59 68 126.5 173.5t122.5 195.5t118.5 178.5t140 150.5t162.5 84l-129 394q-22 68 -51.5 93t-71.5 25q-39 0 -92 -22l-6 147q76 31 143 31q82 0 142 -47t96 -164l131 -436h111l133 620h174l-133 -620h112l316 436q85 118 163.5 164.5t159.5 46.5q71 0 131 -31 l-67 -147q-42 22 -82 22q-42 0 -82.5 -25.5t-89.5 -92.5l-295 -394q64 -19 110 -67.5t70.5 -110.5t44 -144t31 -157t32 -159.5t46.5 -143.5h-201q-25 54 -43 148t-31.5 175t-37 159t-71.5 123.5t-122 45.5h-127l-137 -651h-174l137 651h-129q-73 0 -140.5 -46t-123.5 -123.5 t-104 -159t-106 -174.5t-106 -148h-201z" />
<glyph unicode="&#x417;" horiz-adv-x="1099" d="M428 -27q-96 0 -173.5 24.5t-128 67t-80.5 95.5t-40 114l170 56q20 -88 91.5 -144.5t189.5 -56.5q147 0 242.5 96t95.5 232q0 98 -74 150t-182 52h-177l31 144h172q150 0 246 87t96 224q0 84 -59 132t-146 48q-89 0 -168 -49.5t-133 -138.5l-155 53q77 132 206.5 211.5 t284.5 79.5q159 0 259 -79t100 -214q0 -137 -84.5 -254t-216.5 -153l-2 -2q74 -22 130 -88t56 -173q0 -219 -156.5 -366.5t-394.5 -147.5z" />
<glyph unicode="&#x418;" horiz-adv-x="1413" d="M76 0l303 1423h174l-240 -1120l926 1120h168l-303 -1423h-174l237 1120l-923 -1120h-168z" />
<glyph unicode="&#x419;" horiz-adv-x="1413" d="M948 1573q-115 0 -176.5 70.5t-32.5 205.5h123q-17 -75 10 -117t86 -42q58 0 102.5 42t61.5 117h125q-31 -138 -109.5 -207t-189.5 -69zM76 0l303 1423h174l-240 -1120l926 1120h168l-303 -1423h-174l237 1120l-923 -1120h-168z" />
<glyph unicode="&#x41a;" horiz-adv-x="1189" d="M1174 1450q73 0 129 -31l-68 -147q-42 22 -80 22q-44 0 -84.5 -25t-89.5 -93l-291 -388q63 -20 108 -69.5t69 -112t43.5 -144.5t31 -157.5t32.5 -160.5t48 -144h-201q-25 55 -43.5 148t-32 174.5t-37 159t-71.5 123.5t-121 46h-129l-137 -651h-174l303 1423h174 l-131 -620h106l320 436q86 118 164.5 164.5t161.5 46.5z" />
<glyph unicode="&#x41b;" horiz-adv-x="1228" d="M-102 0l32 152q101 0 161.5 54.5t96.5 190.5l279 1026h756l-303 -1423h-175l269 1272h-420l-240 -877q-61 -218 -169.5 -306.5t-286.5 -88.5z" />
<glyph unicode="&#x41c;" horiz-adv-x="1652" d="M76 0l303 1423h188l258 -870l633 870h189l-304 -1423h-174l236 1114l-551 -778h-147l-222 778l-235 -1114h-174z" />
<glyph unicode="&#x41d;" horiz-adv-x="1445" d="M76 0l303 1423h174l-133 -628h713l133 628h174l-303 -1423h-174l137 643h-715l-135 -643h-174z" />
<glyph unicode="&#x41e;" horiz-adv-x="1343" d="M549 -27q-195 0 -311.5 126.5t-116.5 357.5q0 124 22.5 245.5t65.5 231.5t108 204.5t145 164t183 108.5t217 39q206 0 318 -119t112 -352q0 -151 -31.5 -297t-95 -274t-151 -225t-208 -153.5t-257.5 -56.5zM584 129q97 0 183.5 50.5t148.5 135t107.5 192.5t68 225 t22.5 231q0 168 -74.5 249.5t-210.5 81.5q-85 0 -160.5 -35.5t-132 -97.5t-102 -143t-74.5 -173t-44 -187t-15 -187q0 -166 78 -254t205 -88z" />
<glyph unicode="&#x41f;" horiz-adv-x="1419" d="M76 0l303 1423h1034l-303 -1423h-174l270 1272h-686l-270 -1272h-174z" />
<glyph unicode="&#x420;" horiz-adv-x="1124" d="M76 0l303 1423h405q200 0 295.5 -115.5t53.5 -316.5q-44 -210 -194.5 -332t-356.5 -122h-220l-112 -537h-174zM395 688h211q132 0 224.5 80.5t121.5 218.5q29 132 -29 208.5t-184 76.5h-219z" />
<glyph unicode="&#x421;" horiz-adv-x="1261" d="M588 -27q-215 0 -340 128.5t-125 371.5q0 189 54.5 364.5t151.5 312t243.5 218.5t318.5 82q181 0 287 -86.5t125 -212.5l-173 -53q-54 196 -262 196q-129 0 -238.5 -72t-180 -187.5t-109.5 -256t-39 -282.5q0 -181 86.5 -274t237.5 -93q216 0 346 197l149 -54 q-35 -61 -83.5 -112.5t-113.5 -94.5t-151.5 -67.5t-183.5 -24.5z" />
<glyph unicode="&#x422;" horiz-adv-x="1189" d="M385 0l268 1272h-442l35 151h1059l-35 -151h-443l-268 -1272h-174z" />
<glyph unicode="&#x423;" horiz-adv-x="1189" d="M1126 1423h191l-682 -1093q-121 -194 -247.5 -270t-313.5 -76l24 153q104 0 191.5 46t175.5 171l-217 1069h188l160 -860z" />
<glyph unicode="&#x424;" horiz-adv-x="1521" d="M553 -16l35 170h-31q-200 0 -320 114.5t-120 306.5q0 185 91 345.5t248 256t341 95.5h30l35 168h174l-35 -168h31q200 0 320.5 -115t120.5 -307q0 -138 -53.5 -266.5t-144 -222.5t-216.5 -150.5t-264 -56.5h-33l-35 -170h-174zM598 307h25l172 811h-27 q-131 0 -240.5 -74.5t-170 -192.5t-60.5 -249q0 -137 82.5 -216t218.5 -79zM797 307h24q132 0 241.5 74.5t169.5 192.5t60 249q0 137 -82 216t-217 79h-24z" />
<glyph unicode="&#x425;" horiz-adv-x="1300" d="M1382 1423l-594 -712l297 -711h-198l-240 569l-483 -569h-191l611 723l-293 700h198l234 -559l469 559h190z" />
<glyph unicode="&#x426;" horiz-adv-x="1443" d="M981 -360l78 360h-983l303 1423h174l-270 -1271h686l270 1271h174l-270 -1271h100l-108 -512h-154z" />
<glyph unicode="&#x427;" horiz-adv-x="1183" d="M700 0l154 727q-62 -84 -158.5 -134t-197.5 -50q-155 0 -237.5 103t-45.5 278l107 499h174l-103 -473q-23 -113 31 -182.5t160 -69.5q115 0 207.5 85t121.5 221l91 419h174l-304 -1423h-174z" />
<glyph unicode="&#x428;" horiz-adv-x="2281" d="M76 0l303 1423h174l-270 -1271h686l270 1271h174l-270 -1271h688l270 1271h174l-303 -1423h-1896z" />
<glyph unicode="&#x429;" horiz-adv-x="2330" d="M2275 1423l-270 -1271h125l-107 -512h-151l76 360h-1872l303 1423h174l-270 -1271h686l270 1271h174l-270 -1271h688l270 1271h174z" />
<glyph unicode="&#x42a;" horiz-adv-x="1462" d="M1028 795q166 0 251 -87t85 -221q0 -130 -67.5 -242t-184.5 -178.5t-254 -66.5h-561l270 1272h-391l33 151h565l-133 -628h387zM868 152q130 0 222 89.5t92 211.5q0 81 -53 135.5t-156 54.5h-365l-104 -491h364z" />
<glyph unicode="&#x42b;" horiz-adv-x="1734" d="M807 795q166 0 251 -87t85 -221q0 -130 -67.5 -242t-184.5 -178.5t-254 -66.5h-561l303 1423h174l-133 -628h387zM1554 1423h175l-304 -1423h-174zM647 152q130 0 222 89.5t92 211.5q0 81 -53 135.5t-156 54.5h-365l-104 -491h364z" />
<glyph unicode="&#x42c;" horiz-adv-x="1241" d="M807 795q166 0 251 -87t85 -221q0 -130 -67.5 -242t-184.5 -178.5t-254 -66.5h-561l303 1423h174l-133 -628h387zM647 152q130 0 222 89.5t92 211.5q0 81 -53 135.5t-156 54.5h-365l-104 -491h364z" />
<glyph unicode="&#x42d;" horiz-adv-x="1259" d="M741 1450q232 0 357 -150.5t98 -431.5q-13 -186 -74 -349.5t-158.5 -284.5t-234.5 -191t-295 -70q-180 0 -286.5 87t-122.5 212l172 54q50 -197 260 -197q192 0 331 143t197 371h-539l31 139h535l6 82q15 214 -69 322t-244 108q-214 0 -347 -196l-147 53 q74 129 208.5 214t321.5 85z" />
<glyph unicode="&#x42e;" horiz-adv-x="1886" d="M1405 1450q206 0 318 -119t112 -352q0 -151 -31.5 -297t-95 -274t-151 -225t-208 -153.5t-257.5 -56.5q-195 0 -311.5 126.5t-116.5 357.5q0 95 12 186h-291l-135 -643h-174l303 1423h174l-133 -628h287q36 137 99 254.5t150 207.5t202.5 141.5t246.5 51.5zM1126 129 q97 0 183.5 50.5t149 135t108 192.5t68 225t22.5 231q0 168 -74.5 249.5t-210.5 81.5q-85 0 -160.5 -35.5t-132 -97.5t-102 -143t-74.5 -173t-44 -187t-15 -187q0 -166 77.5 -254t204.5 -88z" />
<glyph unicode="&#x42f;" horiz-adv-x="1208" d="M-45 0q48 55 116.5 152t121.5 174.5t129 161.5t151 133q-114 25 -171.5 103t-57.5 185q0 105 40 199.5t110.5 164t172 110t217.5 40.5h418l-303 -1423h-174l123 578h-98q-65 0 -126 -29.5t-107.5 -74.5t-96.5 -109.5t-88.5 -124t-87 -128t-88.5 -112.5h-201zM647 731h234 l114 541h-233q-141 0 -238.5 -101t-97.5 -233q0 -90 56 -148.5t165 -58.5z" />
<glyph unicode="&#x430;" horiz-adv-x="1138" d="M385 -27q-153 0 -235 98.5t-82 274.5q0 208 64.5 383.5t193 286t297.5 110.5q119 0 191.5 -66.5t84.5 -150.5l41 191h170l-172 -819q-27 -128 -27 -209q0 -26 4 -72h-178q-6 30 -6 63q0 51 19 134q-51 -91 -146.5 -157.5t-218.5 -66.5zM455 125q89 0 165 56.5t124 145.5 t75 193.5t27 206.5q0 120 -54 184t-155 64q-89 0 -165.5 -56t-125 -144.5t-75.5 -192.5t-27 -205q0 -122 54 -187t157 -65z" />
<glyph unicode="&#x431;" horiz-adv-x="1091" d="M424 -27q-158 0 -251 96.5t-93 270.5q0 157 22 291.5t60 233.5t92 182t114.5 139t131.5 103t138 75.5t139.5 54.5t131.5 42t117 36t94 39l41 -125q-43 -25 -119 -52t-148 -47.5t-156.5 -57t-153 -80t-128.5 -117t-91 -166.5q65 81 145.5 122.5t165.5 41.5 q138 0 227.5 -97.5t89.5 -269.5q0 -108 -26 -212.5t-76 -195t-118 -159.5t-158.5 -108.5t-190.5 -39.5zM455 121q81 0 151.5 51t116.5 130.5t72 174.5t26 185q0 118 -55 179.5t-141 61.5q-66 0 -132 -39.5t-119.5 -108t-86.5 -171.5t-33 -219q0 -117 53.5 -180.5 t147.5 -63.5z" />
<glyph unicode="&#x432;" horiz-adv-x="1118" d="M854 553q51 -30 79 -83t28 -116q0 -164 -127.5 -272.5t-325.5 -108.5q-191 0 -311.5 124t-120.5 341q0 97 24 194t74.5 186t120.5 157.5t169.5 109.5t213.5 41q162 0 257 -90.5t95 -212.5q0 -87 -46 -161.5t-130 -108.5zM653 621q89 0 140 55t51 129q0 68 -53 119 t-140 51q-141 0 -240 -101.5t-139 -252.5h381zM530 125q104 0 176 62.5t72 168.5q0 59 -36 97.5t-103 38.5h-387q-2 -12 -2 -37q0 -156 80.5 -243t199.5 -87z" />
<glyph unicode="&#x433;" horiz-adv-x="978" d="M385 -27q-141 0 -232.5 74.5t-91.5 196.5q0 66 28 121.5t73.5 93t103.5 72t119 58.5t119 52.5t103.5 54.5t73.5 63.5t28 80.5q0 68 -48.5 105.5t-121.5 37.5q-78 0 -156.5 -42t-124.5 -112l-104 89q62 88 164 148t235 60q147 0 238.5 -74t91.5 -196q0 -66 -27.5 -121.5 t-73 -94t-103.5 -73.5t-118.5 -60t-119 -53.5t-104.5 -54t-74.5 -60.5t-29.5 -75q0 -65 51 -106t128 -41q98 0 182 53.5t133 134.5l104 -86q-57 -104 -172 -175t-274 -71z" />
<glyph unicode="&#x434;" horiz-adv-x="1081" d="M348 1481q118 55 236 55q193 0 305 -157t112 -429q0 -125 -14.5 -242.5t-44 -228t-78.5 -201.5t-113.5 -160t-153.5 -107t-194 -38q-160 0 -251 98.5t-91 278.5q0 189 70 354t196.5 266t278.5 101q167 0 246 -137q-2 207 -74 328.5t-217 121.5q-93 0 -196 -47zM432 119 q85 0 157.5 54.5t119 139.5t72.5 184t26 193q0 115 -52 175.5t-149 60.5q-85 0 -158 -53t-118.5 -137.5t-71 -184t-25.5 -197.5q0 -114 51 -174.5t148 -60.5z" />
<glyph unicode="&#x435;" horiz-adv-x="1044" d="M492 131q91 0 181 48.5t148 135.5l115 -96q-77 -118 -201 -182t-278 -64q-170 0 -278.5 111.5t-108.5 300.5q0 195 74 364.5t210 273t303 103.5q143 0 220 -66t77 -165q0 -58 -26.5 -119.5t-80.5 -118.5t-127 -101.5t-174 -71.5t-214 -27q-28 0 -82 4q-2 -14 -2 -43 q0 -136 64 -211.5t180 -75.5zM637 975q-128 0 -226 -108.5t-139 -266.5q23 -2 64 -2q104 0 191.5 27t140.5 68.5t82.5 88t29.5 88.5q0 47 -36.5 76t-106.5 29z" />
<glyph unicode="&#x436;" horiz-adv-x="1841" d="M1706 1126q93 0 170 -43l-31 -143q-46 35 -129 35q-86 0 -161.5 -51.5t-125.5 -133t-79 -179.5t-29 -193q0 -134 59.5 -213.5t163.5 -79.5q78 0 148 37l-27 -144q-91 -45 -190 -45q-146 0 -234 104t-88 285q0 66 8 121h-172l-102 -483h-170l102 483h-166 q-38 -142 -109.5 -255t-178.5 -184t-230 -71q-90 0 -170 43l31 144q49 -35 129 -35q86 0 162 52t126.5 133t79.5 179.5t29 192.5q0 133 -60 213t-163 80q-76 0 -149 -37l26 143q91 45 191 45q146 0 233.5 -104t87.5 -285q0 -49 -6 -102h170l98 465h170l-98 -465h170 q41 137 113 246t177 177t224 68z" />
<glyph unicode="&#x437;" horiz-adv-x="1001" d="M362 -27q-161 0 -252.5 69.5t-107.5 178.5l170 53q17 -64 73 -106.5t150 -42.5q104 0 184 69t80 164q0 72 -59 110t-143 38h-158l27 112h155q112 0 187 61.5t75 158.5q0 61 -46.5 98t-116.5 37t-134 -35.5t-102 -95.5l-160 45q63 101 175.5 170t254.5 69 q137 0 224.5 -64.5t87.5 -172.5q0 -106 -67 -192t-171 -115v-2q61 -18 106.5 -67.5t45.5 -129.5q0 -115 -66 -210t-175.5 -147.5t-236.5 -52.5z" />
<glyph unicode="&#x438;" horiz-adv-x="1067" d="M330 -27q-150 0 -224 103.5t-40 263.5l161 760h170l-155 -731q-24 -115 21.5 -178.5t142.5 -63.5q65 0 129 34t116 104t72 163l143 672h170l-168 -789q-41 -185 -24 -311h-168q-12 56 4 162q-57 -78 -152 -133.5t-198 -55.5z" />
<glyph unicode="&#x439;" horiz-adv-x="1067" d="M678 1249q-115 0 -176.5 71t-32.5 206h123q-17 -75 10 -117.5t86 -42.5q58 0 102.5 42.5t61.5 117.5h125q-31 -138 -109.5 -207.5t-189.5 -69.5zM330 -27q-150 0 -224 103.5t-40 263.5l161 760h170l-155 -731q-24 -115 21.5 -178.5t142.5 -63.5q65 0 129 34t116 104 t72 163l143 672h170l-168 -789q-41 -185 -24 -311h-168q-12 56 4 162q-57 -78 -152 -133.5t-198 -55.5z" />
<glyph unicode="&#x43a;" horiz-adv-x="1067" d="M995 1126q63 0 117 -30l-65 -133q-43 16 -66 16q-77 0 -147 -88l-226 -275q58 -23 97 -74t60.5 -120t36.5 -138.5t36.5 -149.5t48.5 -134h-201q-22 40 -39 109t-30 129.5t-32.5 118.5t-58 92t-96.5 34h-100l-103 -483h-170l234 1100h170l-99 -465h89l249 317 q137 174 295 174z" />
<glyph unicode="&#x43b;" horiz-adv-x="1130" d="M-94 -10l31 145q85 0 135.5 42.5t77.5 141.5l215 781h708l-233 -1100h-170l202 954h-376l-177 -632q-51 -179 -152 -255.5t-261 -76.5z" />
<glyph unicode="&#x43c;" horiz-adv-x="1431" d="M57 0l234 1100h205l190 -670l483 670h205l-233 -1100h-172l178 842l-430 -619h-146l-163 619l-179 -842h-172z" />
<glyph unicode="&#x43d;" horiz-adv-x="1261" d="M57 0l234 1100h170l-101 -467h574l100 467h170l-233 -1100h-170l102 485h-573l-103 -485h-170z" />
<glyph unicode="&#x43e;" horiz-adv-x="1081" d="M416 -27q-168 0 -260.5 97.5t-92.5 281.5q0 117 26.5 230t78 211t123 172.5t167.5 117.5t204 43q169 0 261.5 -97t92.5 -281q0 -117 -26 -230t-78 -211t-123 -173t-167.5 -118t-205.5 -43zM449 125q89 0 165 55.5t124 144t75 193.5t27 207q0 121 -53.5 185.5t-155.5 64.5 q-89 0 -165 -56t-124 -144.5t-75 -193t-27 -206.5q0 -121 53.5 -185.5t155.5 -64.5z" />
<glyph unicode="&#x43f;" horiz-adv-x="1173" d="M57 0l234 1100h166l-33 -156q56 75 144.5 128.5t189.5 53.5q162 0 239.5 -110.5t34.5 -310.5l-149 -705h-170l143 670q30 140 -22.5 217.5t-155.5 77.5q-100 0 -190 -82.5t-121 -227.5l-140 -655h-170z" />
<glyph unicode="&#x440;" horiz-adv-x="1163" d="M-29 -399l320 1499h170l-41 -197q22 38 54.5 75t78 71.5t106.5 55.5t127 21q148 0 232 -94t84 -274q0 -142 -40 -281.5t-110 -252t-178 -182t-233 -69.5q-63 0 -114 20t-82.5 53t-50.5 65.5t-30 68.5l-123 -579h-170zM532 123q88 0 164 56.5t124.5 146t76 195.5t27.5 208 q0 121 -53.5 184.5t-155.5 63.5q-131 0 -236 -137t-141 -338q-19 -111 -9 -195.5t62 -134t141 -49.5z" />
<glyph unicode="&#x441;" horiz-adv-x="1015" d="M426 -27q-167 0 -262.5 114.5t-95.5 299.5q0 104 26.5 210t79 200.5t123.5 168.5t165.5 117t199.5 43q143 0 230 -82.5t95 -205.5l-158 -50q-12 85 -66 136t-132 51q-109 0 -201.5 -86t-142 -212t-49.5 -255q0 -132 59 -210.5t164 -78.5q85 0 162 47.5t131 132.5l135 -61 q-66 -126 -189.5 -202.5t-273.5 -76.5z" />
<glyph unicode="&#x442;" horiz-adv-x="1763" d="M57 0l234 1100h166l-33 -156q53 75 141 128.5t187 53.5q96 0 159.5 -47t83.5 -145q64 88 157.5 140t195.5 52q155 0 236 -108.5t38 -315.5l-149 -702h-170l141 672q31 142 -16 216.5t-144 74.5q-96 0 -179.5 -79.5t-115.5 -226.5l-139 -657h-170l143 670q29 143 -18 218 t-143 75t-179.5 -79.5t-115.5 -228.5l-140 -655h-170z" />
<glyph unicode="&#x443;" horiz-adv-x="1089" d="M956 1100h181l-645 -1163q-56 -101 -127 -174t-148.5 -113t-154 -58t-158.5 -18l20 156q121 0 232.5 60t187.5 194l-182 1116h186l131 -869z" />
<glyph unicode="&#x444;" horiz-adv-x="1337" d="M379 -399l86 399q-182 12 -288.5 120.5t-106.5 289.5q0 132 48 254.5t130.5 215t200 151.5t249.5 69l93 436h170l-93 -436q184 -12 291 -120.5t107 -289.5q0 -183 -81.5 -336.5t-226 -247.5t-323.5 -106l-86 -399h-170zM496 150l170 800q-94 -7 -174.5 -55t-134 -121.5 t-83.5 -164.5t-30 -185q0 -128 66.5 -197t185.5 -77zM666 150q127 9 225.5 87.5t148.5 193.5t50 243q0 126 -67.5 197t-186.5 79z" />
<glyph unicode="&#x445;" horiz-adv-x="1021" d="M1079 1100l-469 -537l240 -563h-205l-174 410l-336 -410h-201l476 553l-232 547h203l168 -395l332 395h198z" />
<glyph unicode="&#x446;" horiz-adv-x="1067" d="M868 311q-18 -78 -24 -159h100l-106 -512h-152l76 360h-86q-12 56 4 162q-57 -78 -152 -133.5t-198 -55.5q-150 0 -224 103.5t-40 263.5l161 760h170l-155 -731q-24 -115 21.5 -178.5t142.5 -63.5q65 0 129 34t116 104t72 163l143 672h170z" />
<glyph unicode="&#x447;" horiz-adv-x="1017" d="M551 0l111 514q-58 -62 -139 -95.5t-161 -33.5q-125 0 -196 76t-41 223l88 416h174l-84 -391q-19 -89 22 -137t115 -48q88 0 168.5 61.5t102.5 164.5l73 350h177l-234 -1100h-176z" />
<glyph unicode="&#x448;" horiz-adv-x="1728" d="M1688 1100l-234 -1100h-166l35 156q-57 -75 -144 -129t-186 -54q-191 0 -231 199q-64 -89 -163 -144t-200 -55q-157 0 -237 108.5t-37 315.5l149 703h168l-141 -672q-31 -142 17 -216.5t145 -74.5q96 0 179 79t114 226l139 658h170l-141 -670q-31 -142 16.5 -217.5 t144.5 -75.5q96 0 179 79.5t114 227.5l140 656h170z" />
<glyph unicode="&#x449;" horiz-adv-x="1728" d="M1688 1100l-201 -948h88l-107 -512h-151l76 360h-105l35 156q-57 -75 -144 -129t-186 -54q-191 0 -231 199q-64 -89 -163 -144t-200 -55q-157 0 -237 108.5t-37 315.5l149 703h168l-141 -672q-31 -142 17 -216.5t145 -74.5q96 0 179 79t114 226l139 658h170l-141 -670 q-31 -142 16.5 -217.5t144.5 -75.5q96 0 179 79.5t114 227.5l140 656h170z" />
<glyph unicode="&#x44a;" horiz-adv-x="1282" d="M864 651q137 0 208 -72.5t71 -181.5q0 -162 -123.5 -279.5t-292.5 -117.5h-467l203 954h-338l33 146h506l-95 -449h295zM733 145q71 0 126 35.5t80.5 85t25.5 99.5q0 60 -39 99.5t-117 39.5h-272l-76 -359h272z" />
<glyph unicode="&#x44b;" horiz-adv-x="1492" d="M662 651q137 0 207.5 -72.5t70.5 -181.5q0 -162 -123.5 -279.5t-292.5 -117.5h-467l234 1100h170l-94 -449h295zM1266 1100h170l-234 -1100h-170zM530 145q71 0 126 35.5t80.5 85t25.5 99.5q0 60 -39 99.5t-117 39.5h-272l-76 -359h272z" />
<glyph unicode="&#x44c;" horiz-adv-x="1079" d="M662 651q137 0 207.5 -72.5t70.5 -181.5q0 -162 -123.5 -279.5t-292.5 -117.5h-467l234 1100h170l-94 -449h295zM530 145q71 0 126 35.5t80.5 85t25.5 99.5q0 60 -39 99.5t-117 39.5h-272l-76 -359h272z" />
<glyph unicode="&#x44d;" horiz-adv-x="1069" d="M598 1126q185 0 294 -105t109 -300q0 -205 -80.5 -375t-229.5 -271.5t-337 -101.5q-153 0 -245 72t-109 172l170 53q16 -63 71 -104t142 -41q149 0 257 103t155 264h-457l24 114h455q6 47 6 90q0 136 -70 207.5t-190 71.5q-88 0 -164 -43t-118 -107l-140 56 q57 102 180 173.5t277 71.5z" />
<glyph unicode="&#x44e;" horiz-adv-x="1581" d="M1161 1126q169 0 262 -97t93 -281q0 -117 -26.5 -230t-78.5 -211t-123 -173t-167.5 -118t-205.5 -43q-167 0 -259.5 97.5t-92.5 281.5q0 72 8 127h-243l-101 -479h-170l234 1100h170l-101 -475h240q63 221 210.5 361t350.5 140zM948 125q89 0 165 55.5t124 144t75 193.5 t27 207q0 121 -53.5 185.5t-155.5 64.5q-89 0 -165 -56t-124 -144.5t-75 -193t-27 -206.5q0 -121 53.5 -185.5t155.5 -64.5z" />
<glyph unicode="&#x44f;" horiz-adv-x="1085" d="M-35 0q39 40 94 112t99 131.5t106 124.5t121 105q-91 22 -140.5 86.5t-49.5 145.5q0 170 127 282.5t315 112.5h391l-233 -1100h-172l90 422h-78q-63 0 -118.5 -28t-101 -78t-83 -101t-83.5 -114t-83 -101h-201zM549 573h194l80 375h-194q-118 0 -187 -70t-69 -157 q0 -63 45 -105.5t131 -42.5z" />
<glyph unicode="&#x451;" horiz-adv-x="1044" d="M512 1282q-33 0 -55.5 22.5t-22.5 55.5q0 47 34 81t85 34q33 0 55.5 -20t22.5 -54q0 -47 -34 -83t-85 -36zM858 1282q-31 0 -53.5 22.5t-22.5 55.5q0 47 33 81t84 34q33 0 55.5 -20t22.5 -54q0 -47 -34 -83t-85 -36zM332 457q-28 0 -82 4q-2 -14 -2 -43q0 -136 64 -211.5 t180 -75.5q91 0 181 48.5t148 135.5l115 -96q-77 -118 -201 -182t-278 -64q-170 0 -278.5 111.5t-108.5 300.5q0 195 74 364.5t210 273t303 103.5q143 0 220 -66t77 -165q0 -58 -26.5 -119.5t-80.5 -118.5t-127 -101.5t-174 -71.5t-214 -27zM637 975q-128 0 -226 -108.5 t-139 -266.5q23 -2 64 -2q104 0 191.5 27t140.5 68.5t82.5 88t29.5 88.5q0 47 -36.5 76t-106.5 29z" />
<glyph unicode="&#x452;" horiz-adv-x="1091" d="M737 1126q99 0 167 -46t98.5 -143t-3.5 -247l-149 -706q-23 -109 -65.5 -185.5t-103 -118.5t-128.5 -60.5t-154 -18.5l33 145q100 0 159.5 50.5t88.5 180.5l145 693q31 142 -19.5 217.5t-150.5 75.5q-46 0 -92.5 -19t-88 -56t-74 -97t-48.5 -136l-139 -655h-170l274 1298 h-149l27 125h149l25 113h170l-25 -113h240l-27 -125h-240l-75 -350q50 72 134 125t191 53z" />
<glyph unicode="&#x453;" horiz-adv-x="978" d="M387 1229l-37 114l527 201l38 -129zM385 -27q-141 0 -232.5 74.5t-91.5 196.5q0 66 28 121.5t73.5 93t103.5 72t119 58.5t119 52.5t103.5 54.5t73.5 63.5t28 80.5q0 68 -48.5 105.5t-121.5 37.5q-78 0 -156.5 -42t-124.5 -112l-104 89q62 88 164 148t235 60 q147 0 238.5 -74t91.5 -196q0 -66 -27.5 -121.5t-73 -94t-103.5 -73.5t-118.5 -60t-119 -53.5t-104.5 -54t-74.5 -60.5t-29.5 -75q0 -65 51 -106t128 -41q98 0 182 53.5t133 134.5l104 -86q-57 -104 -172 -175t-274 -71z" />
<glyph unicode="&#x454;" horiz-adv-x="1062" d="M506 125q89 0 164.5 42.5t117.5 106.5l140 -55q-57 -102 -180 -174t-277 -72q-184 0 -293.5 105.5t-109.5 300.5q0 153 47.5 289.5t131 238t205.5 160.5t263 59q153 0 245.5 -71.5t108.5 -171.5l-170 -54q-16 64 -70.5 105t-142.5 41q-149 0 -257 -104t-153 -265h455 l-22 -114h-455q-6 -44 -6 -89q0 -136 69 -207t189 -71z" />
<glyph unicode="&#x455;" horiz-adv-x="950" d="M408 -27q-163 0 -270 70t-130 176l135 86q22 -86 92 -137t175 -51q97 0 159 51.5t62 140.5q0 42 -26 75t-67.5 56.5t-92 45.5t-100.5 48t-91.5 57.5t-67.5 81t-26 111.5q0 156 109.5 249t279.5 93q140 0 244 -62t127 -146l-136 -89q-22 65 -92.5 109.5t-150.5 44.5 q-86 0 -143.5 -49t-57.5 -125q0 -43 26 -78t67.5 -59t92 -46.5t100.5 -48t91.5 -56t67.5 -78t26 -107.5q0 -168 -112 -265.5t-291 -97.5z" />
<glyph unicode="&#x456;" horiz-adv-x="518" d="M428 1337q-42 0 -67.5 29.5t-16.5 77.5q11 49 49 77.5t80 28.5q44 0 69 -28.5t15 -77.5q-10 -48 -48 -77.5t-81 -29.5zM57 0l234 1100h170l-234 -1100h-170z" />
<glyph unicode="&#x457;" horiz-adv-x="518" d="M242 1282q-33 0 -55.5 22.5t-22.5 55.5q0 47 34 81t85 34q33 0 55 -20t22 -54q0 -47 -33.5 -83t-84.5 -36zM588 1282q-31 0 -53.5 22.5t-22.5 55.5q0 47 33 81t84 34q33 0 55.5 -20t22.5 -54q0 -47 -34 -83t-85 -36zM57 0l234 1100h170l-234 -1100h-170z" />
<glyph unicode="&#x458;" horiz-adv-x="501" d="M420 1337q-42 0 -67.5 29.5t-16.5 77.5q11 49 49 77.5t80 28.5q44 0 69 -28.5t15 -77.5q-10 -48 -48 -77.5t-81 -29.5zM-244 -426l31 145q104 0 164 50.5t88 181.5l244 1149h170l-242 -1143q-23 -109 -65.5 -185.5t-103 -118.5t-129.5 -60.5t-157 -18.5z" />
<glyph unicode="&#x459;" horiz-adv-x="1691" d="M1274 651q137 0 207.5 -72.5t70.5 -181.5q0 -162 -123 -279.5t-292 -117.5h-467l202 954h-376l-177 -632q-51 -179 -152 -255.5t-261 -76.5l31 145q85 0 135.5 42.5t77.5 141.5l215 781h708l-94 -449h295zM1143 145q71 0 125.5 35.5t80 85t25.5 99.5q0 60 -38.5 99.5 t-116.5 39.5h-273l-76 -359h273z" />
<glyph unicode="&#x45a;" horiz-adv-x="1822" d="M1405 651q137 0 207.5 -72.5t70.5 -181.5q0 -162 -123 -279.5t-292 -117.5h-467l102 485h-573l-103 -485h-170l234 1100h170l-101 -467h574l100 467h170l-94 -449h295zM1274 145q71 0 125.5 35.5t80 85t25.5 99.5q0 60 -38.5 99.5t-116.5 39.5h-273l-76 -359h273z" />
<glyph unicode="&#x45b;" horiz-adv-x="1173" d="M758 1126q162 0 239.5 -110.5t34.5 -310.5l-149 -705h-170l143 670q30 140 -22.5 217.5t-155.5 77.5q-100 0 -190 -82.5t-121 -227.5l-140 -655h-170l277 1300h-152l27 125h151l23 111h170l-23 -111h238l-27 -125h-237l-76 -352q57 74 143.5 126t186.5 52z" />
<glyph unicode="&#x45c;" horiz-adv-x="1067" d="M983 1415l-528 -186l-37 114l526 201zM995 1126q63 0 117 -30l-65 -133q-43 16 -66 16q-77 0 -147 -88l-226 -275q58 -23 97 -74t60.5 -120t36.5 -138.5t36.5 -149.5t48.5 -134h-201q-22 40 -39 109t-30 129.5t-32.5 118.5t-58 92t-96.5 34h-100l-103 -483h-170l234 1100 h170l-99 -465h89l249 317q137 174 295 174z" />
<glyph unicode="&#x45e;" horiz-adv-x="1089" d="M698 1249q-115 0 -176.5 71t-32.5 206h123q-17 -75 10.5 -117.5t86.5 -42.5q58 0 102 42.5t61 117.5h125q-31 -138 -109.5 -207.5t-189.5 -69.5zM956 1100h181l-645 -1163q-56 -101 -127 -174t-148.5 -113t-154 -58t-158.5 -18l20 156q121 0 232.5 60t187.5 194 l-182 1116h186l131 -869z" />
<glyph unicode="&#x45f;" horiz-adv-x="1067" d="M330 -27q-150 0 -224 103.5t-40 263.5l161 760h170l-155 -731q-24 -115 21.5 -178.5t142.5 -63.5q65 0 129 34t116 104t72 163l143 672h170l-168 -789q-41 -185 -24 -311h-168q-12 56 4 162q-57 -78 -152 -133.5t-198 -55.5zM244 -360l55 258h152l-54 -258h-153z" />
<glyph unicode="&#x462;" horiz-adv-x="1302" d="M868 795q166 0 251 -87t85 -221q0 -130 -67.5 -242t-184.5 -178.5t-254 -66.5h-561l238 1114h-287l33 139h282l37 170h174l-36 -170h303l-33 -139h-299l-68 -319h387zM709 152q130 0 221.5 89.5t91.5 211.5q0 81 -53 135.5t-156 54.5h-364l-105 -491h365z" />
<glyph unicode="&#x463;" horiz-adv-x="1120" d="M705 637q137 0 205.5 -70.5t68.5 -177.5q0 -162 -118 -275.5t-292 -113.5h-364l203 954h-283l33 146h280l92 436h170l-92 -436h283l-31 -146h-282l-68 -317h195zM575 145q103 0 165.5 67t62.5 144q0 58 -36.5 95.5t-109.5 37.5h-178l-73 -344h169z" />
<glyph unicode="&#x472;" horiz-adv-x="1343" d="M862 1450q206 0 318 -119t112 -352q0 -151 -31.5 -297t-95 -274t-151 -225t-208 -153.5t-257.5 -56.5q-195 0 -311.5 126.5t-116.5 357.5q0 124 22.5 245.5t65.5 231.5t108 204.5t145 164t183 108.5t217 39zM829 1294q-95 0 -177.5 -44t-143.5 -121t-104.5 -171.5 t-69.5 -203.5q88 71 182 71q81 0 202.5 -34.5t196.5 -34.5q63 0 117 29.5t78 80.5q4 66 4 97q0 168 -74.5 249.5t-210.5 81.5zM584 129q89 0 169 42t140.5 115.5t105.5 166t74 200.5q-86 -55 -190 -55q-83 0 -204 34t-187 34q-60 0 -112.5 -33t-76.5 -82q-2 -27 -2 -80 q0 -166 78 -254t205 -88z" />
<glyph unicode="&#x473;" horiz-adv-x="1081" d="M662 1126q169 0 261.5 -97t92.5 -281q0 -117 -26 -230t-78 -211t-123 -173t-167.5 -118t-205.5 -43q-168 0 -260.5 97.5t-92.5 281.5q0 117 26.5 230t78 211t123 172.5t167.5 117.5t204 43zM631 975q-128 0 -221 -106t-138 -267q50 35 111 35t155.5 -26.5t153.5 -26.5 q44 0 84.5 20t61.5 55q2 23 2 66q0 121 -53.5 185.5t-155.5 64.5zM449 125q129 0 223 108t137 271q-62 -41 -143 -41q-63 0 -157.5 27t-146.5 26q-68 0 -118 -53q-4 -62 -4 -88q0 -121 53.5 -185.5t155.5 -64.5z" />
<glyph unicode="&#x474;" horiz-adv-x="1310" d="M399 0l-180 1423h195l139 -1194l528 971q68 132 140 186t153 54q65 0 113 -21l-55 -159q-29 10 -56 10q-41 0 -74 -31t-83 -119l-617 -1120h-203z" />
<glyph unicode="&#x475;" horiz-adv-x="1181" d="M322 0l-154 1100h197l110 -860l383 675q107 199 264 199q28 0 109 -18l-55 -160q-25 10 -52 10q-36 0 -65 -24.5t-66 -90.5l-473 -831h-198z" />
<glyph unicode="&#x490;" horiz-adv-x="1046" d="M1049 1671h153l-92 -399h-590l-270 -1272h-174l303 1423h612z" />
<glyph unicode="&#x491;" horiz-adv-x="1052" d="M57 0l234 1100h557l51 239h143l-81 -385h-531l-203 -954h-170z" />
<glyph unicode="&#x492;" horiz-adv-x="1040" d="M1110 1272h-590l-104 -490h317l-31 -139h-315l-137 -643h-174l137 643h-203l31 139h201l137 641h764z" />
<glyph unicode="&#x493;" horiz-adv-x="899" d="M901 954h-422l-73 -346h229l-27 -125h-229l-103 -483h-167l102 483h-162l27 125h162l104 492h590z" />
<glyph unicode="&#x496;" horiz-adv-x="1818" d="M1462 -360l76 360h-88q-25 54 -43 148t-31.5 175t-37 159t-71.5 123.5t-122 45.5h-127l-137 -651h-174l137 651h-129q-73 0 -140.5 -46t-123.5 -123.5t-104 -159t-106 -174.5t-106 -148h-201q59 68 126.5 173.5t122.5 195.5t118.5 178.5t140 150.5t162.5 84l-129 394 q-22 68 -51.5 93t-71.5 25q-39 0 -92 -22l-6 147q76 31 143 31q82 0 142 -47t96 -164l131 -436h111l133 620h174l-133 -620h112l316 436q85 118 163.5 164.5t159.5 46.5q71 0 131 -31l-67 -147q-42 22 -82 22q-42 0 -82.5 -25.5t-89.5 -92.5l-295 -394q47 -12 84 -39.5 t61.5 -68.5t42 -87t30.5 -104t22.5 -109.5t22.5 -114t26 -107.5h118l-108 -512h-154z" />
<glyph unicode="&#x497;" horiz-adv-x="1622" d="M1331 -350l76 342q-49 -12 -96 -12q-128 0 -204.5 101.5t-76.5 280.5q0 63 12 121h-120l-103 -483h-170l103 483h-113q-27 -103 -76 -194.5t-114.5 -162.5t-150.5 -112t-177 -41q-91 0 -168 43l29 144q49 -35 131 -35q86 0 161.5 51.5t125.5 133t79 179.5t29 193 q0 134 -59.5 213.5t-163.5 79.5q-78 0 -148 -37l27 143q91 45 190 45q145 0 233.5 -104.5t88.5 -284.5q0 -55 -8 -102h116l99 465h170l-99 -465h117q39 136 111 245.5t177.5 177.5t225.5 68q90 0 170 -43l-31 -143q-49 35 -129 35q-86 0 -162 -52t-126.5 -133t-79.5 -179.5 t-29 -192.5q0 -134 59.5 -213.5t163.5 -79.5q77 0 150 37l-111 -512h-129z" />
<glyph unicode="&#x498;" horiz-adv-x="1099" d="M793 748q74 -22 130 -88t56 -173q0 -190 -121 -329t-315 -174q-18 -75 -46.5 -131.5t-75 -104.5t-118.5 -73t-166 -25l27 131q95 0 146 50.5t77 143.5q-86 4 -156 30t-115.5 68t-73 92.5t-36.5 108.5l170 56q20 -88 91.5 -144.5t189.5 -56.5q147 0 242.5 96t95.5 232 q0 98 -74 150t-182 52h-177l31 144h172q150 0 246 87t96 224q0 84 -59 132t-146 48q-89 0 -168 -49.5t-133 -138.5l-155 53q77 132 206.5 211.5t284.5 79.5q159 0 259 -79t100 -214q0 -137 -84.5 -254t-216.5 -153z" />
<glyph unicode="&#x499;" horiz-adv-x="1001" d="M688 580q61 -18 106.5 -67.5t45.5 -129.5q0 -142 -97 -249.5t-247 -143.5q-18 -76 -46.5 -133.5t-75.5 -106t-119 -74.5t-167 -26l27 131q95 0 146 50t77 142q-150 6 -235 74.5t-101 173.5l170 53q17 -64 73 -106.5t150 -42.5q104 0 184 69t80 164q0 72 -59 110t-143 38 h-158l27 112h155q112 0 187 61.5t75 158.5q0 61 -46.5 98t-116.5 37t-134 -35.5t-102 -95.5l-160 45q63 101 175.5 170t254.5 69q137 0 224.5 -64.5t87.5 -172.5q0 -106 -67 -192t-171 -115v-2z" />
<glyph unicode="&#x49a;" horiz-adv-x="1187" d="M838 -360l75 360h-92q-25 55 -43.5 148t-32 174.5t-37 159t-71.5 123.5t-121 46h-129l-137 -651h-174l303 1423h174l-131 -620h110l316 436q85 118 164 164.5t162 46.5q73 0 129 -31l-68 -147q-42 22 -80 22q-44 0 -84.5 -25t-89.5 -93l-295 -394q47 -12 83.5 -39.5 t61 -68.5t42 -87t31 -104t23 -109.5t22.5 -114t26 -107.5h123l-109 -512h-151z" />
<glyph unicode="&#x49b;" horiz-adv-x="1064" d="M989 1126q61 0 115 -30l-64 -133q-43 16 -67 16q-78 0 -148 -88l-225 -275q39 -15 70.5 -45t50.5 -62t36 -82.5t25.5 -88t22 -98.5t22.5 -95h115l-106 -505h-152l76 360h-80q-22 40 -39 109t-30 129.5t-33 118.5t-59 92t-97 34h-98l-105 -483h-168l234 1100h168l-99 -465 h88l250 317q137 174 297 174z" />
<glyph unicode="&#x4a0;" horiz-adv-x="1423" d="M1407 1450q73 0 129 -31l-68 -147q-42 22 -79 22q-44 0 -85 -25.5t-90 -92.5l-290 -388q74 -24 123 -87t74 -152t41 -179.5t39 -195.5t54 -174h-200q-25 55 -43.5 148t-32 174.5t-37 159t-71.5 123.5t-121 46h-129l-138 -651h-174l271 1272h-367l33 151h540l-131 -620 h107l319 436q86 118 164.5 164.5t161.5 46.5z" />
<glyph unicode="&#x4a1;" horiz-adv-x="1284" d="M1174 1126q62 0 116 -30l-65 -133q-43 16 -66 16q-77 0 -147 -88l-226 -275q58 -23 97 -74t60.5 -120t36.5 -138.5t36.5 -149.5t48.5 -134h-201q-22 40 -39 109t-30 129.5t-32.5 118.5t-58 92t-96.5 34h-100l-102 -483h-170l202 954h-291l33 146h459l-98 -465h88l250 317 q137 174 295 174z" />
<glyph unicode="&#x4a2;" horiz-adv-x="1445" d="M1440 1423l-271 -1271h131l-106 -512h-152l76 360h-155l137 643h-715l-135 -643h-174l303 1423h174l-133 -628h713l133 628h174z" />
<glyph unicode="&#x4a3;" horiz-adv-x="1261" d="M1204 1100l-203 -955h93l-107 -505h-151l75 360h-110l102 485h-573l-103 -485h-170l234 1100h170l-101 -467h574l100 467h170z" />
<glyph unicode="&#x4aa;" horiz-adv-x="1261" d="M868 1294q-129 0 -238.5 -72t-180 -187.5t-109.5 -256t-39 -282.5q0 -181 86.5 -274t237.5 -93q216 0 346 197l149 -54q-63 -110 -171.5 -189t-258.5 -101q-19 -74 -47.5 -130.5t-75 -104t-117.5 -72.5t-165 -25l26 131q95 0 146.5 50.5t77.5 143.5q-191 15 -301.5 142.5 t-110.5 355.5q0 189 54.5 364.5t151.5 312t243.5 218.5t318.5 82q181 0 287 -86.5t125 -212.5l-173 -53q-54 196 -262 196z" />
<glyph unicode="&#x4ab;" horiz-adv-x="1015" d="M461 133q85 0 162 47.5t131 132.5l135 -61q-55 -103 -149 -174t-212 -94q-18 -75 -46.5 -131.5t-74.5 -104.5t-118 -73t-166 -25l27 131q95 0 146 50.5t77 145.5q-144 18 -224.5 129t-80.5 281q0 104 26.5 210t79 200.5t123.5 168.5t165.5 117t199.5 43q143 0 230 -82.5 t95 -205.5l-158 -50q-12 85 -66 136t-132 51q-109 0 -201.5 -86t-142 -212t-49.5 -255q0 -132 59 -210.5t164 -78.5z" />
<glyph unicode="&#x4ae;" horiz-adv-x="1206" d="M397 0l111 520l-264 903h196l197 -714l502 714h196l-653 -903l-111 -520h-174z" />
<glyph unicode="&#x4af;" horiz-adv-x="1077" d="M266 -399l105 485l-176 1014h198l99 -852l458 852h199l-608 -1014l-103 -485h-172z" />
<glyph unicode="&#x4b0;" horiz-adv-x="1206" d="M682 520l-18 -88h307l-35 -139h-303l-62 -293h-174l62 293h-305l34 139h301l19 88l-264 903h196l197 -714l502 714h196z" />
<glyph unicode="&#x4b1;" horiz-adv-x="1077" d="M1149 1100l-586 -975h289l-37 -125h-293l-84 -399h-172l86 399h-303l37 125h279l-170 975h198l99 -852l458 852h199z" />
<glyph unicode="&#x4b2;" horiz-adv-x="1300" d="M788 711l234 -559h135l-106 -512h-152l76 360h-88l-240 569l-483 -569h-191l611 723l-293 700h198l234 -559l469 559h190z" />
<glyph unicode="&#x4b3;" horiz-adv-x="1021" d="M610 563l178 -418h127l-106 -505h-152l76 360h-88l-174 410l-336 -410h-201l476 553l-232 547h203l168 -395l332 395h198z" />
<glyph unicode="&#x4b6;" horiz-adv-x="1183" d="M1178 1423l-271 -1271h117l-106 -512h-152l76 360h-142l154 727q-62 -84 -158.5 -134t-197.5 -50q-155 0 -237.5 103t-45.5 278l107 499h174l-103 -473q-23 -113 31 -182.5t160 -69.5q115 0 207.5 85t121.5 221l91 419h174z" />
<glyph unicode="&#x4b7;" horiz-adv-x="1017" d="M961 1100l-203 -955h53l-106 -505h-152l76 360h-78l111 514q-58 -62 -139 -95.5t-161 -33.5q-125 0 -196 76t-41 223l88 416h174l-84 -391q-19 -89 22 -137t115 -48q88 0 168.5 61.5t102.5 164.5l73 350h177z" />
<glyph unicode="&#x4ba;" horiz-adv-x="1204" d="M57 0l303 1423h175l-156 -727q63 84 160 134.5t198 50.5q74 0 134 -26t99.5 -74.5t53.5 -119.5t-4 -161l-107 -500h-174l101 473q23 113 -31 182.5t-160 69.5q-115 0 -206.5 -84.5t-120.5 -220.5l-91 -420h-174z" />
<glyph unicode="&#x4bb;" horiz-adv-x="1173" d="M57 0l326 1536h170l-125 -588q57 74 143.5 126t186.5 52q162 0 239.5 -110.5t34.5 -310.5l-149 -705h-170l143 670q30 140 -22.5 217.5t-155.5 77.5q-100 0 -190 -82.5t-121 -227.5l-140 -655h-170z" />
<glyph unicode="&#x4c0;" horiz-adv-x="559" d="M76 0l303 1423h174l-303 -1423h-174z" />
<glyph unicode="&#x4c9;" horiz-adv-x="1445" d="M1440 1423l-271 -1271h113l-270 -519h-129l180 367h-100l137 643h-715l-135 -643h-174l303 1423h174l-133 -628h713l133 628h174z" />
<glyph unicode="&#x4ca;" horiz-adv-x="1284" d="M1204 1100l-200 -948h174l-271 -519h-129l180 367h-157l102 485h-573l-103 -485h-170l234 1100h170l-101 -467h574l100 467h170z" />
<glyph unicode="&#x4cf;" horiz-adv-x="518" d="M57 0l234 1100h170l-234 -1100h-170z" />
<glyph unicode="&#x4d8;" horiz-adv-x="1296" d="M705 1450q104 0 197.5 -33.5t168 -98.5t118.5 -171t44 -240q0 -146 -32.5 -283.5t-97 -255t-154 -206t-211 -139t-259.5 -50.5q-203 0 -317.5 109.5t-114.5 275.5q0 108 48.5 207t135 175t216.5 121.5t282 45.5q161 0 326 -53v39q0 99 -30 177t-81.5 126t-116.5 73 t-139 25q-102 0 -201 -47t-168 -133l-94 117q89 105 217 162t263 57zM510 129q132 0 244.5 79.5t185 212t100.5 296.5q-161 47 -303 47q-124 0 -224.5 -35t-161.5 -92t-93.5 -124t-32.5 -136q0 -105 75 -176.5t210 -71.5z" />
<glyph unicode="&#x4d9;" horiz-adv-x="1042" d="M586 1126q171 0 279 -111t108 -300q0 -146 -44 -281t-120.5 -237t-187 -163t-236.5 -61q-143 0 -220 66.5t-77 165.5q0 58 26.5 119.5t80.5 118.5t127 101.5t174.5 71.5t214.5 27q28 0 82 -4q2 14 2 43q0 136 -64 211.5t-180 75.5q-91 0 -181.5 -49t-148.5 -136l-115 97 q77 117 201 181t279 64zM406 125q128 0 225.5 108.5t138.5 266.5q-23 2 -63 2q-104 0 -191.5 -27t-141 -69t-83 -88.5t-29.5 -88.5q0 -46 36.5 -75t107.5 -29z" />
<glyph unicode="&#x4e2;" horiz-adv-x="1413" d="M692 1638l27 129h514l-27 -129h-514zM76 0l303 1423h174l-240 -1120l926 1120h168l-303 -1423h-174l237 1120l-923 -1120h-168z" />
<glyph unicode="&#x4e3;" horiz-adv-x="1067" d="M422 1315l27 129h514l-27 -129h-514zM330 -27q-150 0 -224 103.5t-40 263.5l161 760h170l-155 -731q-24 -115 21.5 -178.5t142.5 -63.5q65 0 129 34t116 104t72 163l143 672h170l-168 -789q-41 -185 -24 -311h-168q-12 56 4 162q-57 -78 -152 -133.5t-198 -55.5z" />
<glyph unicode="&#x4e8;" horiz-adv-x="1343" d="M862 1450q206 0 318 -119t112 -352q0 -151 -31.5 -297t-95 -274t-151 -225t-208 -153.5t-257.5 -56.5q-195 0 -311.5 126.5t-116.5 357.5q0 124 22.5 245.5t65.5 231.5t108 204.5t145 164t183 108.5t217 39zM829 1294q-92 0 -172.5 -41.5t-140 -114t-103 -162 t-71.5 -194.5h758q14 85 14 181q0 168 -74.5 249.5t-210.5 81.5zM584 129q89 0 168 41.5t139 113.5t105.5 162.5t74.5 196.5h-758q-12 -85 -12 -172q0 -166 78 -254t205 -88z" />
<glyph unicode="&#x4e9;" horiz-adv-x="1081" d="M662 1126q169 0 261.5 -97t92.5 -281q0 -117 -26 -230t-78 -211t-123 -173t-167.5 -118t-205.5 -43q-168 0 -260.5 97.5t-92.5 281.5q0 117 26.5 230t78 211t123 172.5t167.5 117.5t204 43zM631 975q-84 0 -157.5 -51.5t-121.5 -131t-78 -180.5h557q9 59 9 113 q0 121 -53.5 185.5t-155.5 64.5zM449 125q126 0 218.5 103t137.5 261h-557q-8 -52 -8 -114q0 -121 53.5 -185.5t155.5 -64.5z" />
<glyph unicode="&#x4ee;" horiz-adv-x="1189" d="M1085 1767l-26 -129h-514l26 129h514zM1126 1423h191l-682 -1093q-121 -194 -247.5 -270t-313.5 -76l24 153q104 0 191.5 46t175.5 171l-217 1069h188l160 -860z" />
<glyph unicode="&#x4ef;" horiz-adv-x="1089" d="M983 1444l-27 -129h-514l27 129h514zM956 1100h181l-645 -1163q-56 -101 -127 -174t-148.5 -113t-154 -58t-158.5 -18l20 156q121 0 232.5 60t187.5 194l-182 1116h186l131 -869z" />
<glyph unicode="&#x1e80;" horiz-adv-x="1908" d="M1415 1565l-508 155l54 127l501 -168zM330 0l-64 1423h189l30 -1214l545 1214h225l23 -1214l549 1214h188l-667 -1423h-222l-32 1198l-545 -1198h-219z" />
<glyph unicode="&#x1e81;" horiz-adv-x="1673" d="M1223 1241l-508 156l53 127l502 -168zM274 0l-77 1100h165l52 -899l446 899h187l59 -899l434 899h170l-547 -1100h-188l-66 899l-448 -899h-187z" />
<glyph unicode="&#x1e82;" horiz-adv-x="1908" d="M930 1552l-37 115l526 201l39 -129zM330 0l-64 1423h189l30 -1214l545 1214h225l23 -1214l549 1214h188l-667 -1423h-222l-32 1198l-545 -1198h-219z" />
<glyph unicode="&#x1e83;" horiz-adv-x="1673" d="M737 1229l-37 114l527 201l39 -129zM274 0l-77 1100h165l52 -899l446 899h187l59 -899l434 899h170l-547 -1100h-188l-66 899l-448 -899h-187z" />
<glyph unicode="&#x1e84;" horiz-adv-x="1908" d="M1010 1606q-33 0 -55.5 22t-22.5 55q0 47 34 81t85 34q33 0 55 -20t22 -54q0 -47 -33.5 -82.5t-84.5 -35.5zM1356 1606q-31 0 -53.5 22t-22.5 55q0 47 33 81t84 34q33 0 55.5 -20t22.5 -54q0 -47 -34 -82.5t-85 -35.5zM330 0l-64 1423h189l30 -1214l545 1214h225 l23 -1214l549 1214h188l-667 -1423h-222l-32 1198l-545 -1198h-219z" />
<glyph unicode="&#x1e85;" horiz-adv-x="1673" d="M817 1282q-33 0 -55.5 22.5t-22.5 55.5q0 47 34 81t85 34q33 0 55.5 -20t22.5 -54q0 -47 -34 -83t-85 -36zM1163 1282q-31 0 -53.5 22.5t-22.5 55.5q0 47 33 81t84 34q33 0 55.5 -20t22.5 -54q0 -47 -34 -83t-85 -36zM274 0l-77 1100h165l52 -899l446 899h187l59 -899 l434 899h170l-547 -1100h-188l-66 899l-448 -899h-187z" />
<glyph unicode="&#x1e9e;" horiz-adv-x="1409" d="M760 -27q-113 0 -197 57.5t-114 159.5l126 97q21 -78 77.5 -118t127.5 -40q128 0 224 115.5t96 257.5q0 104 -66.5 167.5t-191.5 63.5q-54 0 -107 -33l-45 111l389 363q-37 65 -99 90.5t-149 25.5q-126 0 -235 -88t-145 -256l-201 -946h-174l200 946q26 123 88.5 221.5 t146 159t178.5 92t194 31.5q156 0 270.5 -66t153.5 -170l-379 -356q89 -1 157.5 -26.5t110.5 -70t63 -102t21 -124.5q0 -151 -64.5 -278.5t-185 -205.5t-270.5 -78z" />
<glyph unicode="&#x1ea0;" horiz-adv-x="1193" d="M1038 0h-186l-33 344h-540l-177 -344h-178l750 1423h219zM356 498h451l-70 743zM446 -156q33 0 54.5 -19t21.5 -52q0 -44 -34 -77.5t-80 -33.5q-31 0 -51.5 18.5t-20.5 51.5q0 45 33.5 78.5t76.5 33.5z" />
<glyph unicode="&#x1ea1;" horiz-adv-x="1138" d="M385 -27q-153 0 -235 98.5t-82 274.5q0 208 64.5 383.5t193 286t297.5 110.5q119 0 191.5 -66.5t84.5 -150.5l41 191h170l-172 -819q-27 -128 -27 -209q0 -26 4 -72h-178q-6 30 -6 63q0 51 19 134q-51 -91 -146.5 -157.5t-218.5 -66.5zM455 125q89 0 165 56.5t124 145.5 t75 193.5t27 206.5q0 120 -54 184t-155 64q-89 0 -165.5 -56t-125 -144.5t-75.5 -192.5t-27 -205q0 -122 54 -187t157 -65zM379 -338q-31 0 -51.5 18.5t-20.5 51.5q0 45 34 78.5t77 33.5q33 0 54.5 -19t21.5 -52q0 -44 -34.5 -77.5t-80.5 -33.5z" />
<glyph unicode="&#x1eb8;" horiz-adv-x="1167" d="M76 0l303 1423h784l-35 -151h-608l-100 -479h530l-32 -154h-533l-102 -487h661l-31 -152h-837zM420 -338q-31 0 -51.5 18.5t-20.5 51.5q0 45 34 78.5t77 33.5q33 0 54.5 -19t21.5 -52q0 -44 -34.5 -77.5t-80.5 -33.5z" />
<glyph unicode="&#x1eb9;" horiz-adv-x="1044" d="M492 131q91 0 181 48.5t148 135.5l115 -96q-77 -118 -201 -182t-278 -64q-170 0 -278.5 111.5t-108.5 300.5q0 195 74 364.5t210 273t303 103.5q143 0 220 -66t77 -165q0 -58 -26.5 -119.5t-80.5 -118.5t-127 -101.5t-174 -71.5t-214 -27q-28 0 -82 4q-2 -14 -2 -43 q0 -136 64 -211.5t180 -75.5zM637 975q-128 0 -226 -108.5t-139 -266.5q23 -2 64 -2q104 0 191.5 27t140.5 68.5t82.5 88t29.5 88.5q0 47 -36.5 76t-106.5 29zM420 -156q33 0 54.5 -19t21.5 -52q0 -44 -34.5 -77.5t-80.5 -33.5q-31 0 -51.5 18.5t-20.5 51.5q0 45 34 78.5 t77 33.5z" />
<glyph unicode="&#x1ebc;" horiz-adv-x="1167" d="M651 1595l-110 27q24 79 74.5 126.5t117.5 47.5q39 0 113.5 -14.5t99.5 -14.5q63 0 86 88l113 -24q-27 -85 -83.5 -135.5t-135.5 -50.5q-40 0 -107.5 15t-87.5 15q-62 0 -80 -80zM76 0l303 1423h784l-35 -151h-608l-100 -479h530l-32 -154h-533l-102 -487h661l-31 -152 h-837z" />
<glyph unicode="&#x1ebd;" horiz-adv-x="1044" d="M602 1352q-62 0 -80 -80l-110 26q24 79 74.5 127t117.5 48q39 0 113.5 -14.5t99.5 -14.5q63 0 86 88l113 -25q-27 -85 -83.5 -135.5t-135.5 -50.5q-40 0 -107.5 15.5t-87.5 15.5zM332 457q-28 0 -82 4q-2 -14 -2 -43q0 -136 64 -211.5t180 -75.5q91 0 181 48.5t148 135.5 l115 -96q-77 -118 -201 -182t-278 -64q-170 0 -278.5 111.5t-108.5 300.5q0 195 74 364.5t210 273t303 103.5q143 0 220 -66t77 -165q0 -58 -26.5 -119.5t-80.5 -118.5t-127 -101.5t-174 -71.5t-214 -27zM637 975q-128 0 -226 -108.5t-139 -266.5q23 -2 64 -2 q104 0 191.5 27t140.5 68.5t82.5 88t29.5 88.5q0 47 -36.5 76t-106.5 29z" />
<glyph unicode="&#x1eca;" horiz-adv-x="559" d="M76 0l303 1423h174l-303 -1423h-174zM90 -338q-31 0 -51.5 18.5t-20.5 51.5q0 45 34 78.5t77 33.5q33 0 54.5 -19t21.5 -52q0 -44 -34.5 -77.5t-80.5 -33.5z" />
<glyph unicode="&#x1ecb;" horiz-adv-x="518" d="M428 1337q-42 0 -67.5 29.5t-16.5 77.5q11 49 49 77.5t80 28.5q44 0 69 -28.5t15 -77.5q-10 -48 -48 -77.5t-81 -29.5zM57 0l234 1100h170l-234 -1100h-170zM63 -338q-30 0 -50.5 18.5t-20.5 51.5q0 45 33.5 78.5t76.5 33.5q33 0 54.5 -19t21.5 -52q0 -44 -34.5 -77.5 t-80.5 -33.5z" />
<glyph unicode="&#x1ecc;" horiz-adv-x="1343" d="M549 -27q-195 0 -311.5 126.5t-116.5 357.5q0 124 22.5 245.5t65.5 231.5t108 204.5t145 164t183 108.5t217 39q206 0 318 -119t112 -352q0 -151 -31.5 -297t-95 -274t-151 -225t-208 -153.5t-257.5 -56.5zM584 129q97 0 183.5 50.5t148.5 135t107.5 192.5t68 225 t22.5 231q0 168 -74.5 249.5t-210.5 81.5q-85 0 -160.5 -35.5t-132 -97.5t-102 -143t-74.5 -173t-44 -187t-15 -187q0 -166 78 -254t205 -88zM483 -338q-30 0 -50.5 18.5t-20.5 51.5q0 45 33.5 78.5t76.5 33.5q33 0 54.5 -19t21.5 -52q0 -44 -34.5 -77.5t-80.5 -33.5z" />
<glyph unicode="&#x1ecd;" horiz-adv-x="1081" d="M416 -27q-168 0 -260.5 97.5t-92.5 281.5q0 117 26.5 230t78 211t123 172.5t167.5 117.5t204 43q169 0 261.5 -97t92.5 -281q0 -117 -26 -230t-78 -211t-123 -173t-167.5 -118t-205.5 -43zM449 125q89 0 165 55.5t124 144t75 193.5t27 207q0 121 -53.5 185.5t-155.5 64.5 q-89 0 -165 -56t-124 -144.5t-75 -193t-27 -206.5q0 -121 53.5 -185.5t155.5 -64.5zM350 -338q-30 0 -50.5 18.5t-20.5 51.5q0 45 33.5 78.5t76.5 33.5q33 0 54.5 -19t21.5 -52q0 -44 -34.5 -77.5t-80.5 -33.5z" />
<glyph unicode="&#x1ee4;" horiz-adv-x="1316" d="M545 -27q-214 0 -320 140.5t-49 410.5l193 899h174l-195 -903q-19 -81 -14 -152.5t29.5 -124.5t80 -83.5t136.5 -30.5q289 0 370 391l195 903h174l-193 -907q-113 -543 -581 -543zM465 -338q-31 0 -51.5 18.5t-20.5 51.5q0 45 34 78.5t77 33.5q33 0 54.5 -19t21.5 -52 q0 -44 -34.5 -77.5t-80.5 -33.5z" />
<glyph unicode="&#x1ee5;" horiz-adv-x="1067" d="M330 -27q-150 0 -224 103.5t-40 263.5l161 760h170l-155 -731q-24 -115 21.5 -178.5t142.5 -63.5q65 0 129 34t116 104t72 163l143 672h170l-168 -789q-41 -185 -24 -311h-168q-12 56 4 162q-57 -78 -152 -133.5t-198 -55.5zM311 -338q-30 0 -50.5 18.5t-20.5 51.5 q0 45 33.5 78.5t76.5 33.5q33 0 54.5 -19t21.5 -52q0 -44 -34.5 -77.5t-80.5 -33.5z" />
<glyph unicode="&#x1ef2;" horiz-adv-x="1206" d="M1061 1565l-508 155l53 127l502 -168zM397 0l111 520l-264 903h196l197 -714l502 714h196l-653 -903l-111 -520h-174z" />
<glyph unicode="&#x1ef3;" horiz-adv-x="1060" d="M899 1241l-508 156l53 127l502 -168zM315 -426q-142 0 -237.5 71.5t-118.5 198.5l139 64q15 -88 75 -137.5t157 -49.5q62 0 122.5 30.5t110.5 95t68 151.5l39 178q-57 -75 -145.5 -127.5t-188.5 -52.5q-151 0 -225.5 100.5t-40.5 257.5l157 746h170l-151 -711 q-24 -114 21.5 -178t144.5 -64q101 0 193.5 81t121.5 216l139 656h170l-231 -1090q-46 -215 -175.5 -325.5t-314.5 -110.5z" />
<glyph unicode="&#x1ef8;" horiz-adv-x="1206" d="M666 1595l-111 27q24 79 75 126.5t118 47.5q39 0 113.5 -14.5t99.5 -14.5q63 0 86 88l112 -24q-27 -85 -83.5 -135.5t-135.5 -50.5q-40 0 -107.5 15t-87.5 15q-33 0 -51.5 -19.5t-27.5 -60.5zM397 0l111 520l-264 903h196l197 -714l502 714h196l-653 -903l-111 -520h-174 z" />
<glyph unicode="&#x1ef9;" horiz-adv-x="1060" d="M504 1272l-111 26q24 79 75 127t118 48q39 0 113.5 -14.5t99.5 -14.5q63 0 86 88l112 -25q-27 -85 -83.5 -135.5t-135.5 -50.5q-40 0 -107 15.5t-87 15.5q-62 0 -80 -80zM315 -426q-142 0 -237.5 71.5t-118.5 198.5l139 64q15 -88 75 -137.5t157 -49.5q62 0 122.5 30.5 t110.5 95t68 151.5l39 178q-57 -75 -145.5 -127.5t-188.5 -52.5q-151 0 -225.5 100.5t-40.5 257.5l157 746h170l-151 -711q-24 -114 21.5 -178t144.5 -64q101 0 193.5 81t121.5 216l139 656h170l-231 -1090q-46 -215 -175.5 -325.5t-314.5 -110.5z" />
<glyph unicode="&#x1f74;" horiz-adv-x="1185" d="M807 1210h-152l-161 367h176zM647 -399l227 1069q11 48 11 90q0 98 -53.5 150.5t-139.5 52.5q-104 0 -195 -81.5t-122 -226.5l-139 -655h-162l172 811q18 67 0 101t-74 34l31 154q104 0 150.5 -42t43.5 -128q62 87 157.5 141.5t205.5 54.5q132 0 214.5 -76t82.5 -221 q0 -57 -15 -124l-233 -1104h-162z" />
<glyph unicode="&#x1fef;" horiz-adv-x="1245" d="M840 1210h-152l-162 367h176z" />
<glyph unicode="&#x2000;" horiz-adv-x="1122" />
<glyph unicode="&#x2001;" horiz-adv-x="2245" />
<glyph unicode="&#x2002;" horiz-adv-x="1122" />
<glyph unicode="&#x2003;" horiz-adv-x="2245" />
<glyph unicode="&#x2004;" horiz-adv-x="748" />
<glyph unicode="&#x2005;" horiz-adv-x="561" />
<glyph unicode="&#x2006;" horiz-adv-x="374" />
<glyph unicode="&#x2007;" horiz-adv-x="374" />
<glyph unicode="&#x2008;" horiz-adv-x="280" />
<glyph unicode="&#x2009;" horiz-adv-x="331" />
<glyph unicode="&#x200a;" horiz-adv-x="124" />
<glyph unicode="&#x2010;" horiz-adv-x="903" d="M139 596l37 172h643l-37 -172h-643z" />
<glyph unicode="&#x2011;" horiz-adv-x="903" d="M139 596l37 172h643l-37 -172h-643z" />
<glyph unicode="&#x2012;" horiz-adv-x="903" d="M139 596l37 172h643l-37 -172h-643z" />
<glyph unicode="&#x2013;" horiz-adv-x="1275" d="M141 606l31 152h1018l-31 -152h-1018z" />
<glyph unicode="&#x2014;" horiz-adv-x="1693" d="M141 606l31 152h1436l-31 -152h-1436z" />
<glyph unicode="&#x2018;" horiz-adv-x="512" d="M371 1022q-59 0 -89 36t-30 97q0 114 85.5 230t205.5 163l39 -78q-72 -33 -134.5 -109.5t-68.5 -141.5q22 14 51 14q35 0 56.5 -22t21.5 -56q0 -50 -37.5 -91.5t-99.5 -41.5z" />
<glyph unicode="&#x2019;" horiz-adv-x="514" d="M285 1034l-35 80q69 32 129 104t72 146q-26 -16 -54 -16q-32 0 -55 24.5t-23 65.5q0 58 37 90.5t88 32.5q54 0 92.5 -36.5t38.5 -101.5q0 -119 -83.5 -230t-206.5 -159z" />
<glyph unicode="&#x201a;" horiz-adv-x="473" d="M-4 -229l-35 79q67 32 126.5 96.5t72.5 125.5q2 10 2 28q-25 -14 -53 -14q-39 0 -61.5 28.5t-12.5 73.5q10 44 45.5 76.5t85.5 32.5q74 0 103.5 -55t13.5 -138q-22 -103 -95.5 -194.5t-191.5 -138.5z" />
<glyph unicode="&#x201c;" horiz-adv-x="835" d="M377 1018q-57 0 -91 37.5t-34 99.5q0 111 85 226.5t204 164.5l37 -82q-67 -29 -126.5 -102.5t-74.5 -144.5q25 14 51 14q34 0 57 -22t23 -60q0 -53 -37 -92t-94 -39zM702 1018q-57 0 -90.5 37.5t-33.5 99.5q0 111 84.5 226.5t203.5 164.5l37 -82q-67 -29 -126.5 -102.5 t-74.5 -144.5q25 14 52 14q34 0 57 -22t23 -60q0 -53 -37.5 -92t-94.5 -39z" />
<glyph unicode="&#x201d;" horiz-adv-x="839" d="M285 1034l-35 80q69 32 129 104t72 146q-26 -16 -54 -16q-32 0 -55 24.5t-23 65.5q0 58 37 90.5t88 32.5q54 0 92.5 -36.5t38.5 -101.5q0 -119 -83.5 -230t-206.5 -159zM610 1034l-35 80q68 33 129 105t72 145q-26 -16 -53 -16q-32 0 -55 24.5t-23 65.5q0 58 37 90.5 t88 32.5q53 0 92 -36.5t39 -101.5q0 -119 -84 -230t-207 -159z" />
<glyph unicode="&#x201e;" horiz-adv-x="815" d="M-4 -229l-35 79q67 32 126.5 96.5t72.5 125.5q2 10 2 28q-25 -14 -53 -14q-39 0 -61.5 28.5t-12.5 73.5q10 44 45.5 76.5t85.5 32.5q74 0 103.5 -55t13.5 -138q-22 -103 -95.5 -194.5t-191.5 -138.5zM338 -229l-35 79q68 32 127 96.5t72 125.5q0 5 1 14.5t1 13.5 q-25 -14 -51 -14q-41 0 -62.5 28t-11.5 74q8 44 44 76.5t87 32.5q73 0 102 -55t13 -138q-22 -103 -95.5 -194.5t-191.5 -138.5z" />
<glyph unicode="&#x2020;" horiz-adv-x="987" d="M346 0l45 223q36 169 51 265.5t15 193.5q53 106 96 305q-81 -1 -174.5 -13.5t-116.5 -12.5q-32 0 -44 17t-7 44q5 26 25.5 43.5t52.5 17.5q23 0 111 -11.5t169 -12.5q18 95 28 198.5t13 122.5q7 31 27.5 47.5t46.5 16.5q23 0 37 -16.5t8 -47.5q-5 -25 -38.5 -127 t-55.5 -194q82 1 174 12.5t115 11.5q32 0 44.5 -17.5t6.5 -43.5q-5 -26 -25.5 -43.5t-52.5 -17.5q-23 0 -110 12.5t-169 13.5q-36 -222 -30 -305q-42 -99 -69.5 -199.5t-61.5 -259.5l-51 -223h-60z" />
<glyph unicode="&#x2021;" horiz-adv-x="1101" d="M432 -14q-26 0 -39.5 16t-7.5 47q5 23 39 127t55 197q-79 -2 -171.5 -14.5t-117.5 -12.5q-32 0 -45 18t-8 44q15 61 78 61q23 0 111.5 -13t169.5 -14q32 168 24 273q56 115 90 272q-81 -1 -174.5 -13.5t-116.5 -12.5q-32 0 -44 17t-7 44q5 26 25.5 43.5t52.5 17.5 q23 0 111.5 -11.5t169.5 -12.5q18 95 28 198.5t13 122.5q7 31 27 47.5t46 16.5q23 0 37 -16.5t8 -47.5q-5 -25 -38.5 -127t-55.5 -194q82 1 174 12.5t115 11.5q32 0 44.5 -17.5t6.5 -43.5q-5 -26 -25.5 -43.5t-52.5 -17.5q-23 0 -109.5 12.5t-168.5 13.5q-29 -182 -23 -272 q-56 -107 -92 -273q82 1 175 14t116 13q31 0 44.5 -17.5t8.5 -43.5q-20 -62 -80 -62q-25 0 -111 12.5t-167 14.5q-17 -92 -27.5 -195.5t-15.5 -128.5q-7 -30 -27.5 -46.5t-44.5 -16.5z" />
<glyph unicode="&#x2022;" horiz-adv-x="487" d="M244 555q-66 0 -99.5 44.5t-19.5 111.5q14 66 67 110.5t119 44.5t100.5 -44.5t20.5 -110.5t-67.5 -111t-120.5 -45z" />
<glyph unicode="&#x2026;" horiz-adv-x="1093" d="M88 -14q-43 0 -67.5 28.5t-14.5 77.5t47 78t80 29q46 0 69 -28.5t13 -78.5t-45.5 -78t-81.5 -28zM426 -14q-45 0 -68.5 28.5t-13.5 77.5t46 78t81 29t69.5 -29t14.5 -78t-47 -77.5t-82 -28.5zM766 -14q-45 0 -69.5 28.5t-14.5 77.5q9 49 46.5 78t82.5 29q43 0 67.5 -29 t14.5 -78t-46.5 -77.5t-80.5 -28.5z" />
<glyph unicode="&#x202f;" horiz-adv-x="270" />
<glyph unicode="&#x2030;" horiz-adv-x="2041" d="M332 696q-119 0 -161.5 96.5t-2.5 274.5q37 177 120 273t201 96q121 0 165.5 -95.5t7.5 -273.5q-40 -179 -124.5 -275t-205.5 -96zM227 0l940 1423h127l-940 -1423h-127zM352 795q67 0 117.5 70t79.5 202q27 129 7 200.5t-87 71.5q-64 0 -113 -71t-77 -201 q-28 -131 -9.5 -201.5t82.5 -70.5zM1026 -14q-118 0 -160.5 95.5t-5.5 274.5q38 177 122 273t202 96q121 0 164 -95.5t6 -273.5q-37 -179 -122 -274.5t-206 -95.5zM1618 -14q-118 0 -160 95.5t-4 274.5q37 177 120.5 273t201.5 96q120 0 163 -96t5 -273 q-37 -178 -121.5 -274t-204.5 -96zM1049 84q66 0 116 70.5t78 201.5q28 129 8 201t-86 72q-65 0 -114.5 -71t-77.5 -202q-28 -130 -8 -201t84 -71zM1640 84q134 0 195 272q27 129 7 201t-87 72q-65 0 -113.5 -71t-76.5 -202q-29 -130 -10 -201t85 -71z" />
<glyph unicode="&#x2039;" horiz-adv-x="565" d="M283 274l-148 388l311 387l105 -41l-266 -346l118 -347z" />
<glyph unicode="&#x203a;" horiz-adv-x="565" d="M168 274l-107 41l267 347l-121 346l125 41l147 -387z" />
<glyph unicode="&#x2044;" horiz-adv-x="272" d="M-236 0h-126l940 1423h129z" />
<glyph unicode="&#x205f;" horiz-adv-x="561" />
<glyph unicode="&#x20ac;" horiz-adv-x="1159" d="M848 1294q-120 0 -214 -100.5t-159 -294.5h469l-41 -106h-459l-18 -82q-12 -54 -18 -101h421l-38 -106h-398q-14 -185 39 -280t170 -95q163 0 277 197l147 -52q-28 -57 -69 -107.5t-97.5 -95.5t-132 -71.5t-160.5 -26.5q-195 0 -284.5 137t-67.5 394h-154l23 106h145 q5 38 19 101l18 82h-143l22 106h152q88 267 237 409t347 142q86 0 150 -25.5t100 -70.5t54 -95.5t21 -109.5l-170 -51q-26 196 -188 196z" />
<glyph unicode="&#x20bd;" horiz-adv-x="1142" d="M834 1423q79 0 142 -22t101.5 -59t62.5 -87t26 -106.5t-9 -116.5q-16 -75 -56.5 -143.5t-101 -124t-147 -88.5t-184.5 -33h-242l-45 -209h248l-31 -151h-250l-59 -283h-174l59 283h-176l31 151h178l45 209h-178l32 152h179l133 628h416zM979 1032q22 96 -30 168t-171 72 h-219l-100 -477h219q119 0 200 70.5t101 166.5z" />
<glyph unicode="&#x2113;" horiz-adv-x="804" d="M598 1450q119 0 170.5 -76t26.5 -196q-84 -397 -488 -709l-22 -102q-8 -47 -8 -82.5t12.5 -60t28 -40.5t39 -25t44 -12.5t43.5 -3.5l-43 -153q-366 0 -288 372l147 691l25 112q28 131 117 208t196 77zM666 1163q14 68 -6.5 111t-69.5 43q-45 0 -82 -37.5t-49 -99.5 l-35 -160l-86 -404q260 238 328 547z" />
<glyph unicode="&#x2116;" horiz-adv-x="1976" d="M1661 932q-104 0 -160 75.5t-33 182.5q22 107 111 183.5t193 76.5q101 0 157.5 -76.5t34.5 -183.5q-23 -107 -112 -182.5t-191 -75.5zM76 0l303 1423h168l446 -1120l240 1120h174l-303 -1423h-168l-449 1120l-237 -1120h-174zM1681 1026q63 0 118.5 48.5t68.5 115.5 q15 67 -19.5 115.5t-97.5 48.5q-64 0 -119 -48t-69 -116t20 -116t98 -48zM1407 752l20 98h431l-21 -98h-430z" />
<glyph unicode="&#x2122;" horiz-adv-x="1425" d="M383 803l111 516h-181l23 104h463l-23 -104h-180l-111 -516h-102zM748 803l131 620h145l72 -354l219 354h147l-131 -620h-102l100 469l-215 -342h-98l-68 342l-100 -469h-100z" />
<glyph unicode="&#x212e;" horiz-adv-x="1603" d="M995 1450q302 0 457.5 -177.5t97.5 -457.5l-12 -49h-1040l-133 -627q146 -112 374 -112q189 0 379 105t299 271l37 -28q-126 -177 -329.5 -289.5t-397.5 -112.5q-214 0 -363.5 92.5t-207.5 259t-13 377.5q45 216 169.5 387t303 266t379.5 95zM610 1294l-100 -477h696 l105 498q-133 82 -326 82q-199 0 -375 -103z" />
<glyph unicode="&#x2190;" horiz-adv-x="1748" d="M647 18l-477 664l760 661l86 -106l-543 -479h1180l-35 -154h-1178l338 -479z" />
<glyph unicode="&#x2191;" horiz-adv-x="1445" d="M530 0l246 1161l-528 -446l-82 108l747 623l484 -623l-129 -108l-338 446l-246 -1161h-154z" />
<glyph unicode="&#x2192;" horiz-adv-x="1748" d="M877 18l-86 107l542 479h-1179l32 154h1180l-338 479l131 106l477 -661z" />
<glyph unicode="&#x2193;" horiz-adv-x="1445" d="M602 -23l-483 623l129 109l338 -447l248 1161h153l-248 -1161l529 447l82 -109z" />
<glyph unicode="&#x2194;" horiz-adv-x="2240" d="M1651 1343l477 -661l-760 -664l-86 107l543 479h-1385l338 -479l-131 -107l-477 664l760 661l86 -106l-543 -479h1385l-340 479z" />
<glyph unicode="&#x2195;" horiz-adv-x="1445" d="M1300 860l-339 447l-48 -228l-122 -571l-76 -363l-49 -227l528 447l84 -111l-750 -621l-483 621l129 111l338 -447l125 590l170 799l-526 -447l-84 111l747 620l486 -620z" />
<glyph unicode="&#x2196;" horiz-adv-x="1404" d="M1049 74l-646 878l-149 -704h-152l205 964h926l-31 -149h-665l643 -881z" />
<glyph unicode="&#x2197;" horiz-adv-x="1404" d="M172 160l-86 108l1018 881h-666l33 149h926l-205 -962h-152l150 704z" />
<glyph unicode="&#x2198;" horiz-adv-x="1404" d="M221 125l31 151h666l-644 881l132 109l645 -881l149 705h152l-205 -965h-926z" />
<glyph unicode="&#x2199;" horiz-adv-x="1404" d="M53 18l205 965h152l-150 -704l1020 880l86 -108l-1020 -881h666l-33 -152h-926z" />
<glyph unicode="&#x2202;" horiz-adv-x="1013" d="M258 -27q-155 0 -218.5 112t-25.5 288q26 120 78 216t120 156t147.5 91.5t164.5 31.5t150.5 -39.5t97.5 -97.5q41 101 66 234q34 157 -3.5 243t-146.5 86q-138 0 -268 -116l-51 116q85 74 182.5 115t193.5 41q81 0 139.5 -27t90.5 -72.5t45 -110.5t9.5 -137.5 t-21.5 -156.5q-44 -206 -115.5 -381.5t-166 -308t-215.5 -208t-253 -75.5zM307 125q83 0 165 68t142.5 168t104.5 223q-23 57 -77.5 98t-131.5 41q-116 0 -202.5 -86.5t-123.5 -261.5q-23 -110 11 -180t112 -70z" />
<glyph unicode="&#x2205;" horiz-adv-x="1611" d="M1659 1370l-191 -170q135 -211 74 -491q-32 -150 -116.5 -286t-199.5 -234.5t-257 -157t-285 -58.5q-250 0 -412 168l-188 -168l-59 80l188 166q-134 209 -76 490q43 201 173.5 371.5t313.5 270t373 99.5q124 0 229 -44.5t181 -125.5l190 170zM301 709q-46 -207 47 -367 l922 817q-117 127 -307 127q-146 0 -286.5 -77t-241.5 -210t-134 -290zM1378 709q46 208 -47 370l-921 -817q122 -125 307 -125q109 0 218.5 45.5t198 122t154 182.5t90.5 222z" />
<glyph unicode="&#x220f;" horiz-adv-x="1269" d="M109 0l270 1272h-168l35 151h1151l-33 -151h-168l-270 -1272h-174l270 1272h-469l-270 -1272h-174z" />
<glyph unicode="&#x2211;" horiz-adv-x="987" d="M-109 -340l29 139l537 744l-215 741l30 139h824l-35 -151h-631l197 -697l-15 -67l-499 -696h669l-30 -152h-861z" />
<glyph unicode="&#x2212;" horiz-adv-x="1114" d="M129 637l33 151h893l-33 -151h-893z" />
<glyph unicode="&#x221a;" horiz-adv-x="1198" d="M418 0l-127 961l-174 -41l4 135l342 71l106 -933l639 1257l158 -20l-745 -1430h-203z" />
<glyph unicode="&#x221e;" horiz-adv-x="1355" d="M360 449q-106 0 -163 74.5t-33 187.5q23 113 113 188.5t196 75.5q48 0 90 -16t75 -45t53 -51.5t42 -53.5q36 32 65 54t74.5 51.5t95 45t97.5 15.5q106 0 164.5 -76t34.5 -188t-115 -187t-197 -75q-147 0 -260 165q-185 -165 -332 -165zM403 582q38 0 85.5 24t73.5 44 t75 61q-20 28 -34.5 45.5t-38 40t-50 34t-55.5 11.5q-54 0 -98 -37t-56 -94q-12 -56 16.5 -92.5t81.5 -36.5zM965 582q55 0 99 36.5t56 92.5q12 58 -16.5 94.5t-83.5 36.5q-28 0 -57.5 -10.5t-64.5 -35t-52.5 -39t-54.5 -46.5q26 -37 45.5 -60t55.5 -46t73 -23z" />
<glyph unicode="&#x222b;" horiz-adv-x="475" d="M-180 -426q-70 0 -101.5 37.5t-23.5 87.5q10 40 40.5 69t71.5 29q43 0 60 -23t10 -55q-5 -26 -22 -50.5t-41 -37.5q45 0 87.5 44.5t61.5 131.5l264 1240q18 89 49.5 159.5t67 115t77.5 74.5t80.5 42t76.5 12q71 0 102 -37.5t20 -87.5q-8 -40 -38.5 -69t-71.5 -29 q-42 0 -59.5 23t-10.5 55q5 26 23 50.5t43 37.5q-46 0 -89 -44.5t-63 -131.5l-262 -1240q-24 -110 -65.5 -191.5t-91 -126t-98 -65t-97.5 -20.5z" />
<glyph unicode="&#x2248;" horiz-adv-x="1081" d="M170 823q24 119 99 191.5t182 72.5q55 0 125.5 -30.5t135 -61t107.5 -30.5q52 0 91 34.5t51 92.5h124q-25 -118 -100 -190.5t-180 -72.5q-45 0 -98.5 19t-94.5 42.5t-90 42.5t-86 19q-51 0 -89 -35.5t-50 -93.5h-127zM86 436q25 118 100.5 190t180.5 72q55 0 125.5 -31 t136 -61.5t108.5 -30.5q50 0 90 36t52 94h125q-25 -119 -100 -192t-181 -73q-45 0 -98.5 19t-95 42.5t-91 42.5t-86.5 19q-50 0 -88.5 -34.5t-48.5 -92.5h-129z" />
<glyph unicode="&#x2260;" horiz-adv-x="1114" d="M1083 924h-282l-301 -422h493l-32 -152h-570l-198 -278h-115l198 278h-208l32 152h283l301 422h-494l31 151h572l198 281h117l-201 -281h207z" />
<glyph unicode="&#x2264;" horiz-adv-x="1114" d="M946 287l-803 420l31 139l981 418l-35 -162l-776 -326l637 -325zM-6 0l31 152h893l-31 -152h-893z" />
<glyph unicode="&#x2265;" horiz-adv-x="1114" d="M55 287l33 164l778 325l-639 326l35 162l805 -418l-31 -139zM-6 0l31 152h893l-31 -152h-893z" />
<glyph unicode="&#x25ca;" horiz-adv-x="1075" d="M328 0l-209 713l512 710h186l209 -710l-512 -713h-186zM453 145l403 568l-164 565l-403 -565z" />
<glyph unicode="&#x25fc;" horiz-adv-x="1095" d="M0 1096h1096v-1096h-1096v1096z" />
<glyph unicode="&#xfb00;" horiz-adv-x="1216" d="M-205 -426l31 145q104 0 164.5 50.5t89.5 181.5l211 995h-162l31 154h164l18 84q31 145 123 233t235 88q88 0 172 -41l-51 -145q-64 33 -116 33q-74 0 -124 -38.5t-69 -131.5l-18 -82h383l32 149q31 151 127.5 237.5t239.5 86.5q102 0 190 -43l-57 -146q-67 37 -139 37 t-121.5 -38.5t-71.5 -135.5l-30 -147h247l-32 -154h-248l-195 -905q-23 -110 -65 -186.5t-102 -118.5t-129 -60t-158 -18l30 145q104 0 165 51t89 181l195 911h-383l-211 -989q-23 -109 -65.5 -185.5t-103 -118.5t-129.5 -60.5t-157 -18.5z" />
<glyph unicode="&#xfb03;" horiz-adv-x="1654" d="M-205 -426l31 145q104 0 164.5 50.5t89.5 181.5l211 995h-162l31 154h164l18 84q31 145 123 233t235 88q88 0 172 -41l-51 -145q-64 33 -116 33q-74 0 -124 -38.5t-69 -131.5l-18 -82h383l32 149q30 145 118 234.5t230 89.5q84 0 168 -43l-45 -139q-58 30 -110 30 q-73 0 -123 -39t-70 -135l-30 -147h552l-233 -1100h-170l201 946h-383l-195 -905q-23 -110 -65 -186.5t-102 -118.5t-129 -60t-158 -18l30 145q104 0 165 51t89 181l195 911h-383l-211 -989q-23 -109 -65.5 -185.5t-103 -118.5t-129.5 -60.5t-157 -18.5zM1548 1255 q-43 0 -68 29t-16 78q12 49 49 77.5t80 28.5t67.5 -28.5t14.5 -77.5t-47 -78t-80 -29z" />
<glyph unicode="&#xfb04;" horiz-adv-x="1814" d="M-205 -426l31 145q104 0 164.5 50.5t89.5 181.5l211 995h-162l31 154h164l18 84q31 145 123 233t235 88q88 0 172 -41l-51 -145q-64 33 -116 33q-74 0 -124 -38.5t-69 -131.5l-18 -82h383l32 149q29 144 123 234t238 90q86 0 166 -43l-47 -144q-47 33 -111 33 q-164 0 -201 -178l-30 -141h247l-32 -154h-248l-195 -905q-23 -110 -65 -186.5t-102 -118.5t-129 -60t-158 -18l30 145q104 0 165 51t89 181l195 911h-383l-211 -989q-23 -109 -65.5 -185.5t-103 -118.5t-129.5 -60.5t-157 -18.5zM1524 -25q-110 0 -176 57t-66 175 q0 55 14 112l256 1217h170l-254 -1204q-22 -99 8 -155t113 -56q49 0 105 18l-19 -143q-93 -21 -151 -21z" />
<glyph horiz-adv-x="518" d="M428 1337q-42 0 -67.5 29.5t-16.5 77.5q11 49 49 77.5t80 28.5q44 0 69 -28.5t15 -77.5q-10 -48 -48 -77.5t-81 -29.5zM57 0l234 1100h170l-234 -1100h-170z" />
<glyph horiz-adv-x="518" d="M428 1337q-42 0 -67.5 29.5t-16.5 77.5q11 49 49 77.5t80 28.5q44 0 69 -28.5t15 -77.5q-10 -48 -48 -77.5t-81 -29.5zM57 0l234 1100h170l-234 -1100h-170z" />
<glyph horiz-adv-x="606" d="M180 -14q-182 0 -182 219q0 61 11.5 129t38 138.5t65 126t97 91t128.5 35.5q93 0 140.5 -56.5t47.5 -164.5q0 -62 -12 -129.5t-39.5 -137.5t-66 -125.5t-98 -90.5t-130.5 -35zM203 84q53 0 96 46t66 113.5t35 132t12 113.5q0 140 -95 140q-51 0 -93 -46.5t-66 -114 t-36.5 -132.5t-12.5 -113q0 -68 24 -103.5t70 -35.5z" />
<glyph horiz-adv-x="372" d="M68 0l125 592l-160 -86l10 100l188 107h99l-152 -713h-110z" />
<glyph horiz-adv-x="536" d="M-76 0l21 98l286 236q86 76 114 120t28 87q0 40 -26.5 64t-70.5 24q-90 0 -143 -82l-98 31q35 65 100 106t154 41q91 0 147 -48t56 -116q0 -70 -39 -132t-148 -153l-205 -176h308l-23 -100h-461z" />
<glyph horiz-adv-x="563" d="M164 -14q-96 0 -151.5 45t-63.5 114l104 35q8 -43 40.5 -69.5t86.5 -26.5q64 0 109 44t45 101q0 43 -34 66.5t-83 23.5h-76l19 91h78q68 0 108.5 39.5t40.5 97.5q0 38 -25.5 60t-66.5 22q-86 0 -137 -82l-99 31q35 65 98.5 106t149.5 41t140.5 -44t54.5 -114 q0 -66 -38 -119t-102 -71l-2 -2q38 -16 64.5 -50.5t26.5 -86.5q0 -42 -18 -85.5t-52 -81t-90.5 -61.5t-126.5 -24z" />
<glyph horiz-adv-x="548" d="M217 0l33 156h-299l18 90l297 467h111l-289 -461h182l39 180h101l-37 -180h80l-21 -96h-80l-33 -156h-102z" />
</font>
</defs>
</svg>
